<svg xmlns="http://www.w3.org/2000/svg" xmlns:xlink="http://www.w3.org/1999/xlink" width="650" zoomAndPan="magnify" viewBox="0 0 487.5 337.499995" height="450" preserveAspectRatio="xMidYMid meet" version="1.0"><defs><clipPath id="e6fe506d68"><path d="M 0.109375 0 L 486.890625 0 L 486.890625 337 L 0.109375 337 Z M 0.109375 0 " clip-rule="nonzero"/></clipPath><clipPath id="90a23cd9e6"><path d="M 112.101562 38 L 360 38 L 360 287 L 112.101562 287 Z M 112.101562 38 " clip-rule="nonzero"/></clipPath><clipPath id="5f2743ffe8"><path d="M 176 33.699219 L 298 33.699219 L 298 77 L 176 77 Z M 176 33.699219 " clip-rule="nonzero"/></clipPath><clipPath id="05afc0a29f"><path d="M 327 62 L 420.644531 62 L 420.644531 155 L 327 155 Z M 327 62 " clip-rule="nonzero"/></clipPath></defs><g clip-path="url(#e6fe506d68)"><path fill="#ffffff" d="M 0.109375 0 L 486.890625 0 L 486.890625 337 L 0.109375 337 Z M 0.109375 0 " fill-opacity="1" fill-rule="nonzero"/><path fill="#f8fffa" d="M 0.109375 0 L 486.890625 0 L 486.890625 337 L 0.109375 337 Z M 0.109375 0 " fill-opacity="1" fill-rule="nonzero"/></g><g clip-path="url(#90a23cd9e6)"><path fill="#720c0c" d="M 235.882812 286.621094 C 219.175781 286.621094 202.964844 283.347656 187.703125 276.886719 C 180.367188 273.78125 173.289062 269.941406 166.675781 265.464844 C 160.117188 261.035156 153.960938 255.949219 148.359375 250.34375 C 142.757812 244.742188 137.675781 238.574219 133.246094 232.019531 C 128.773438 225.394531 124.933594 218.320312 121.828125 210.980469 C 115.375 195.710938 112.101562 179.492188 112.101562 162.777344 C 112.101562 146.058594 115.375 129.839844 121.828125 114.570312 C 124.933594 107.230469 128.773438 100.152344 133.246094 93.53125 C 137.675781 86.972656 142.757812 80.8125 148.359375 75.207031 C 153.960938 69.597656 160.117188 64.511719 166.675781 60.082031 C 173.296875 55.605469 180.367188 51.765625 187.703125 48.660156 C 202.964844 42.199219 219.175781 38.925781 235.882812 38.925781 C 252.59375 38.925781 268.804688 42.199219 284.066406 48.660156 C 291.402344 51.765625 298.480469 55.605469 305.09375 60.082031 C 311.648438 64.511719 317.808594 69.597656 323.410156 75.203125 C 329.011719 80.804688 334.09375 86.972656 338.523438 93.527344 C 342.996094 100.152344 346.835938 107.226562 349.9375 114.566406 C 356.394531 129.835938 359.667969 146.054688 359.667969 162.769531 C 359.667969 179.488281 356.394531 195.707031 349.9375 210.976562 C 346.835938 218.316406 342.996094 225.394531 338.523438 232.015625 C 334.09375 238.574219 329.011719 244.734375 323.410156 250.339844 C 317.808594 255.945312 311.644531 261.027344 305.09375 265.460938 C 298.472656 269.933594 291.402344 273.777344 284.066406 276.882812 C 268.804688 283.347656 252.59375 286.621094 235.882812 286.621094 Z M 235.882812 44.371094 C 219.90625 44.371094 204.40625 47.503906 189.820312 53.675781 C 175.730469 59.640625 163.074219 68.175781 152.203125 79.050781 C 141.335938 89.921875 132.800781 102.585938 126.84375 116.6875 C 120.671875 131.28125 117.542969 146.789062 117.542969 162.777344 C 117.542969 178.761719 120.671875 194.269531 126.84375 208.863281 C 132.800781 222.960938 141.335938 235.625 152.203125 246.496094 C 163.074219 257.371094 175.730469 265.910156 189.824219 271.871094 C 204.410156 278.042969 219.910156 281.175781 235.890625 281.175781 C 251.867188 281.175781 267.367188 278.042969 281.953125 271.871094 C 296.050781 265.90625 308.707031 257.371094 319.574219 246.496094 C 330.445312 235.625 338.980469 222.960938 344.9375 208.859375 C 351.105469 194.265625 354.234375 178.757812 354.234375 162.769531 C 354.234375 146.785156 351.105469 131.277344 344.9375 116.683594 C 338.972656 102.582031 330.445312 89.917969 319.574219 79.042969 C 308.707031 68.167969 296.050781 59.628906 281.953125 53.671875 C 267.363281 47.503906 251.863281 44.371094 235.882812 44.371094 Z M 235.882812 44.371094 " fill-opacity="1" fill-rule="nonzero"/></g><path fill="#ffce00" d="M 356.953125 162.777344 C 356.953125 164.757812 356.902344 166.738281 356.804688 168.71875 C 356.707031 170.699219 356.5625 172.675781 356.367188 174.648438 C 356.175781 176.621094 355.933594 178.589844 355.640625 180.550781 C 355.351562 182.511719 355.011719 184.460938 354.625 186.40625 C 354.238281 188.351562 353.804688 190.285156 353.324219 192.207031 C 352.839844 194.128906 352.3125 196.039062 351.738281 197.9375 C 351.164062 199.835938 350.542969 201.714844 349.875 203.582031 C 349.207031 205.449219 348.492188 207.296875 347.734375 209.128906 C 346.976562 210.960938 346.175781 212.773438 345.328125 214.566406 C 344.480469 216.355469 343.589844 218.125 342.65625 219.875 C 341.722656 221.625 340.746094 223.347656 339.726562 225.046875 C 338.707031 226.746094 337.648438 228.421875 336.546875 230.070312 C 335.445312 231.71875 334.304688 233.339844 333.125 234.929688 C 331.945312 236.523438 330.726562 238.085938 329.46875 239.617188 C 328.214844 241.152344 326.917969 242.652344 325.589844 244.121094 C 324.257812 245.589844 322.894531 247.023438 321.492188 248.425781 C 320.089844 249.828125 318.65625 251.195312 317.1875 252.523438 C 315.71875 253.855469 314.21875 255.152344 312.6875 256.410156 C 311.15625 257.664062 309.59375 258.886719 308.003906 260.066406 C 306.414062 261.246094 304.792969 262.386719 303.144531 263.488281 C 301.496094 264.589844 299.824219 265.652344 298.125 266.671875 C 296.425781 267.6875 294.703125 268.664062 292.953125 269.601562 C 291.207031 270.535156 289.4375 271.425781 287.648438 272.273438 C 285.855469 273.121094 284.046875 273.925781 282.214844 274.683594 C 280.382812 275.441406 278.535156 276.15625 276.671875 276.824219 C 274.804688 277.488281 272.925781 278.113281 271.027344 278.6875 C 269.132812 279.261719 267.222656 279.792969 265.300781 280.273438 C 263.378906 280.753906 261.445312 281.1875 259.503906 281.574219 C 257.558594 281.960938 255.609375 282.300781 253.648438 282.59375 C 251.6875 282.882812 249.722656 283.125 247.75 283.320312 C 245.777344 283.515625 243.804688 283.660156 241.824219 283.757812 C 239.84375 283.855469 237.867188 283.902344 235.882812 283.902344 C 233.902344 283.902344 231.921875 283.855469 229.945312 283.757812 C 227.964844 283.660156 225.988281 283.515625 224.015625 283.320312 C 222.046875 283.125 220.078125 282.882812 218.121094 282.59375 C 216.160156 282.300781 214.207031 281.960938 212.265625 281.574219 C 210.320312 281.1875 208.390625 280.753906 206.46875 280.273438 C 204.546875 279.792969 202.636719 279.261719 200.738281 278.6875 C 198.84375 278.113281 196.964844 277.488281 195.097656 276.824219 C 193.230469 276.15625 191.382812 275.441406 189.554688 274.683594 C 187.722656 273.925781 185.914062 273.121094 184.121094 272.273438 C 182.332031 271.425781 180.5625 270.535156 178.8125 269.601562 C 177.066406 268.664062 175.34375 267.6875 173.644531 266.671875 C 171.945312 265.652344 170.269531 264.589844 168.621094 263.488281 C 166.976562 262.386719 165.355469 261.246094 163.765625 260.066406 C 162.171875 258.886719 160.613281 257.667969 159.078125 256.410156 C 157.546875 255.152344 156.046875 253.855469 154.582031 252.523438 C 153.113281 251.195312 151.679688 249.828125 150.277344 248.425781 C 148.875 247.023438 147.511719 245.589844 146.179688 244.121094 C 144.847656 242.652344 143.554688 241.152344 142.296875 239.617188 C 141.039062 238.085938 139.824219 236.523438 138.640625 234.929688 C 137.460938 233.339844 136.320312 231.71875 135.21875 230.070312 C 134.121094 228.421875 133.058594 226.746094 132.042969 225.046875 C 131.023438 223.347656 130.046875 221.625 129.113281 219.875 C 128.179688 218.125 127.289062 216.355469 126.441406 214.566406 C 125.59375 212.773438 124.789062 210.960938 124.03125 209.128906 C 123.273438 207.296875 122.5625 205.449219 121.894531 203.582031 C 121.226562 201.714844 120.605469 199.835938 120.03125 197.9375 C 119.453125 196.039062 118.925781 194.128906 118.445312 192.207031 C 117.964844 190.285156 117.53125 188.351562 117.144531 186.40625 C 116.757812 184.460938 116.417969 182.511719 116.128906 180.550781 C 115.835938 178.589844 115.59375 176.621094 115.398438 174.648438 C 115.207031 172.675781 115.058594 170.699219 114.960938 168.71875 C 114.867188 166.738281 114.816406 164.757812 114.816406 162.777344 C 114.816406 160.792969 114.867188 158.8125 114.960938 156.832031 C 115.058594 154.851562 115.207031 152.875 115.398438 150.902344 C 115.59375 148.929688 115.835938 146.964844 116.128906 145.003906 C 116.417969 143.042969 116.757812 141.089844 117.144531 139.144531 C 117.53125 137.199219 117.964844 135.265625 118.445312 133.34375 C 118.925781 131.421875 119.453125 129.511719 120.03125 127.613281 C 120.605469 125.71875 121.226562 123.835938 121.894531 121.96875 C 122.5625 120.101562 123.273438 118.253906 124.03125 116.421875 C 124.789062 114.589844 125.59375 112.78125 126.441406 110.988281 C 127.289062 109.195312 128.179688 107.425781 129.113281 105.675781 C 130.046875 103.929688 131.023438 102.203125 132.042969 100.503906 C 133.058594 98.804688 134.121094 97.128906 135.21875 95.480469 C 136.320312 93.832031 137.460938 92.214844 138.640625 90.621094 C 139.824219 89.027344 141.039062 87.464844 142.296875 85.933594 C 143.554688 84.402344 144.847656 82.902344 146.179688 81.433594 C 147.511719 79.964844 148.875 78.527344 150.277344 77.125 C 151.679688 75.726562 153.113281 74.359375 154.582031 73.027344 C 156.046875 71.695312 157.546875 70.402344 159.078125 69.144531 C 160.613281 67.886719 162.171875 66.667969 163.765625 65.484375 C 165.355469 64.304688 166.976562 63.164062 168.621094 62.0625 C 170.269531 60.960938 171.945312 59.902344 173.644531 58.882812 C 175.34375 57.863281 177.066406 56.886719 178.8125 55.953125 C 180.5625 55.015625 182.332031 54.125 184.121094 53.277344 C 185.914062 52.429688 187.722656 51.628906 189.554688 50.871094 C 191.382812 50.109375 193.230469 49.398438 195.097656 48.730469 C 196.964844 48.0625 198.84375 47.441406 200.738281 46.863281 C 202.636719 46.289062 204.546875 45.761719 206.46875 45.277344 C 208.390625 44.796875 210.320312 44.363281 212.265625 43.976562 C 214.207031 43.589844 216.160156 43.25 218.121094 42.960938 C 220.078125 42.667969 222.046875 42.425781 224.015625 42.234375 C 225.988281 42.039062 227.964844 41.890625 229.945312 41.796875 C 231.921875 41.699219 233.902344 41.648438 235.882812 41.648438 C 237.867188 41.648438 239.84375 41.699219 241.824219 41.796875 C 243.804688 41.890625 245.777344 42.039062 247.75 42.234375 C 249.722656 42.425781 251.6875 42.667969 253.648438 42.960938 C 255.609375 43.25 257.558594 43.589844 259.503906 43.976562 C 261.445312 44.363281 263.378906 44.796875 265.300781 45.277344 C 267.222656 45.761719 269.132812 46.289062 271.027344 46.863281 C 272.925781 47.441406 274.804688 48.0625 276.671875 48.730469 C 278.535156 49.398438 280.382812 50.109375 282.214844 50.871094 C 284.046875 51.628906 285.855469 52.429688 287.648438 53.277344 C 289.4375 54.125 291.207031 55.015625 292.953125 55.953125 C 294.703125 56.886719 296.425781 57.863281 298.125 58.882812 C 299.824219 59.902344 301.496094 60.960938 303.144531 62.0625 C 304.792969 63.164062 306.414062 64.304688 308.003906 65.484375 C 309.59375 66.667969 311.15625 67.886719 312.6875 69.144531 C 314.21875 70.402344 315.71875 71.695312 317.1875 73.027344 C 318.65625 74.359375 320.089844 75.726562 321.492188 77.125 C 322.894531 78.527344 324.257812 79.964844 325.589844 81.433594 C 326.917969 82.902344 328.214844 84.402344 329.46875 85.933594 C 330.726562 87.464844 331.945312 89.027344 333.125 90.621094 C 334.304688 92.214844 335.445312 93.832031 336.546875 95.480469 C 337.648438 97.128906 338.707031 98.804688 339.726562 100.503906 C 340.746094 102.203125 341.722656 103.929688 342.65625 105.675781 C 343.589844 107.425781 344.480469 109.195312 345.328125 110.988281 C 346.175781 112.78125 346.976562 114.589844 347.734375 116.421875 C 348.492188 118.253906 349.207031 120.101562 349.875 121.96875 C 350.542969 123.835938 351.164062 125.71875 351.738281 127.613281 C 352.3125 129.511719 352.839844 131.421875 353.324219 133.34375 C 353.804688 135.265625 354.238281 137.199219 354.625 139.144531 C 355.011719 141.089844 355.351562 143.042969 355.640625 145.003906 C 355.933594 146.964844 356.175781 148.929688 356.367188 150.902344 C 356.5625 152.875 356.707031 154.851562 356.804688 156.832031 C 356.902344 158.8125 356.953125 160.792969 356.953125 162.777344 Z M 356.953125 162.777344 " fill-opacity="1" fill-rule="nonzero"/><path fill="#ffb700" d="M 235.882812 56.675781 L 240.808594 100.191406 L 252.476562 57.980469 L 250.535156 101.730469 L 268.65625 61.863281 L 259.898438 104.777344 L 284.035156 68.238281 L 268.671875 109.253906 L 298.21875 76.9375 L 276.632812 115.042969 L 310.875 87.746094 L 283.597656 122.007812 L 321.679688 100.410156 L 289.386719 129.976562 L 330.375 114.609375 L 293.851562 138.75 L 336.746094 129.988281 L 296.898438 148.121094 L 340.628906 146.175781 L 298.4375 157.851562 L 341.933594 162.777344 L 298.4375 167.703125 L 340.628906 179.371094 L 296.898438 177.429688 L 336.746094 195.5625 L 293.851562 186.796875 L 330.375 210.945312 L 289.386719 195.574219 L 321.679688 225.140625 L 283.597656 203.546875 L 310.875 237.800781 L 276.632812 210.507812 L 298.21875 248.613281 L 268.671875 216.300781 L 284.035156 257.3125 L 259.898438 220.773438 L 268.65625 263.683594 L 250.535156 223.816406 L 252.476562 267.574219 L 240.808594 225.359375 L 235.882812 268.878906 L 230.960938 225.359375 L 219.296875 267.574219 L 221.238281 223.816406 L 203.113281 263.683594 L 211.875 220.773438 L 187.738281 257.3125 L 203.101562 216.300781 L 173.550781 248.613281 L 195.132812 210.507812 L 160.898438 237.800781 L 188.175781 203.546875 L 150.085938 225.140625 L 182.386719 195.574219 L 141.394531 210.945312 L 177.914062 186.796875 L 135.027344 195.5625 L 174.875 177.429688 L 131.140625 179.371094 L 173.335938 167.703125 L 129.835938 162.777344 L 173.335938 157.851562 L 131.140625 146.175781 L 174.875 148.121094 L 135.027344 129.988281 L 177.914062 138.75 L 141.394531 114.609375 L 182.386719 129.976562 L 150.085938 100.410156 L 188.175781 122.007812 L 160.898438 87.746094 L 195.132812 115.042969 L 173.550781 76.9375 L 203.101562 109.253906 L 187.738281 68.238281 L 211.875 104.777344 L 203.113281 61.863281 L 221.238281 101.730469 L 219.296875 57.980469 L 230.960938 100.191406 Z M 235.882812 56.675781 " fill-opacity="1" fill-rule="nonzero"/><path fill="#720c0c" d="M 239.210938 286.402344 C 238.5 286.402344 237.785156 286.390625 237.066406 286.375 C 223.179688 286.371094 211.207031 283.949219 203.609375 281.917969 C 195.332031 279.703125 190.375 277.503906 190.167969 277.40625 C 189.191406 276.964844 188.5625 275.996094 188.5625 274.921875 L 188.5625 234.628906 C 180.5625 235.410156 167.105469 238.898438 166.949219 238.941406 C 166.089844 239.164062 165.179688 238.957031 164.503906 238.378906 C 163.832031 237.804688 163.476562 236.933594 163.5625 236.054688 C 164.984375 220.789062 168.304688 207.785156 173.421875 197.402344 C 177.78125 188.546875 183.5 181.480469 190.414062 176.398438 C 194.386719 173.476562 198.777344 171.199219 203.46875 169.628906 C 207.207031 168.375 211.144531 167.5625 215.160156 167.230469 C 221.132812 166.726562 225.511719 167.410156 226.6875 167.625 L 247.777344 167.625 C 248.796875 167.53125 254.199219 167.105469 261.425781 168.3125 C 266.039062 169.082031 270.464844 170.359375 274.570312 172.105469 C 279.730469 174.304688 284.398438 177.257812 288.457031 180.882812 C 294.503906 186.292969 299.238281 193.246094 302.527344 201.554688 C 306.324219 211.144531 308.246094 222.699219 308.246094 235.894531 C 308.246094 237.394531 307.03125 238.609375 305.527344 238.617188 L 285.664062 238.652344 C 285.695312 245.96875 285.769531 266.035156 285.769531 274.433594 C 285.769531 274.59375 285.753906 274.753906 285.726562 274.90625 C 285.476562 276.3125 284.363281 276.832031 283.9375 277.03125 C 283.726562 277.132812 283.445312 277.253906 283.132812 277.386719 C 282.554688 277.636719 281.578125 278.039062 280.242188 278.546875 C 278.019531 279.390625 274.417969 280.664062 269.90625 281.929688 C 262.476562 284 251.292969 286.402344 239.210938 286.402344 Z M 194 273.101562 C 196.03125 273.898438 199.914062 275.304688 205.144531 276.695312 C 212.40625 278.628906 223.847656 280.929688 237.105469 280.929688 C 237.125 280.929688 237.148438 280.929688 237.167969 280.929688 C 249.070312 281.222656 260.285156 278.902344 267.59375 276.90625 C 273.511719 275.292969 278.085938 273.570312 280.320312 272.652344 C 280.308594 261.246094 280.203125 236.203125 280.203125 235.9375 C 280.199219 235.214844 280.484375 234.519531 280.996094 234.003906 C 281.503906 233.488281 282.195312 233.203125 282.921875 233.203125 L 302.765625 233.164062 C 302.308594 211.425781 296.292969 195.222656 284.867188 184.976562 C 281.28125 181.761719 277.144531 179.132812 272.566406 177.164062 C 268.875 175.578125 264.890625 174.414062 260.714844 173.703125 C 253.542969 172.484375 248.253906 173.035156 248.203125 173.046875 C 248.105469 173.054688 248 173.0625 247.90625 173.0625 L 226.421875 173.0625 C 226.230469 173.0625 226.039062 173.039062 225.851562 173.003906 C 225.816406 172.996094 221.515625 172.117188 215.382812 172.667969 C 207.253906 173.394531 199.910156 176.144531 193.554688 180.84375 C 187.367188 185.410156 182.226562 191.8125 178.265625 199.875 C 173.882812 208.785156 170.902344 219.828125 169.375 232.742188 C 175.039062 231.382812 185.613281 229.046875 191.277344 229.046875 C 192.777344 229.046875 194 230.269531 194 231.769531 Z M 305.511719 235.882812 Z M 305.511719 235.882812 " fill-opacity="1" fill-rule="nonzero"/><path fill="#ff5500" d="M 305.511719 235.882812 C 305.511719 163.875 247.90625 170.339844 247.90625 170.339844 L 226.421875 170.339844 C 226.421875 170.339844 173.476562 159.050781 166.265625 236.308594 C 166.265625 236.308594 183.71875 231.757812 191.28125 231.757812 C 191.28125 238.644531 191.28125 274.929688 191.28125 274.929688 C 191.28125 274.929688 210.765625 283.660156 237.105469 283.660156 C 261.371094 284.246094 283.027344 274.53125 283.042969 274.429688 C 283.042969 263.996094 282.921875 235.929688 282.921875 235.929688 Z M 305.511719 235.882812 " fill-opacity="1" fill-rule="nonzero"/><path fill="#ffffff" d="M 214.230469 170.945312 C 199.691406 172.234375 174.46875 179.601562 167.132812 228.765625 C 179.644531 186.378906 205.148438 176.660156 214.230469 170.945312 Z M 214.230469 170.945312 " fill-opacity="1" fill-rule="nonzero"/><path fill="#ffffff" d="M 260.164062 170.945312 C 275.988281 173.335938 301.921875 183.9375 305.183594 226.808594 C 292.675781 184.417969 269.246094 176.660156 260.164062 170.945312 Z M 260.164062 170.945312 " fill-opacity="1" fill-rule="nonzero"/><path fill="#ed2a00" d="M 183.78125 232.550781 C 183.78125 232.550781 186.902344 196.121094 191.082031 196.121094 C 193.644531 196.121094 195.792969 234.160156 200.660156 258.296875 C 203.734375 273.527344 209.085938 280.433594 209.085938 280.433594 C 209.085938 280.433594 201.441406 279.089844 191.28125 274.949219 C 191.28125 270.40625 190.871094 231.503906 190.871094 231.503906 Z M 183.78125 232.550781 " fill-opacity="1" fill-rule="nonzero"/><path fill="#ed2a00" d="M 291 235.90625 C 291 235.90625 287.390625 195.628906 283.207031 195.628906 C 280.644531 195.628906 278.496094 233.664062 273.625 257.800781 C 270.554688 273.035156 265.097656 280.359375 265.097656 280.359375 C 265.097656 280.359375 273.714844 278.519531 283 274.457031 C 283 269.914062 282.988281 235.929688 282.988281 235.929688 Z M 291 235.90625 " fill-opacity="1" fill-rule="nonzero"/><path fill="#720c0c" d="M 189.546875 204.480469 C 188.816406 204.480469 188.222656 205.074219 188.222656 205.808594 L 188.222656 232.40625 L 190.875 232.40625 L 190.875 205.808594 C 190.875 205.074219 190.28125 204.480469 189.546875 204.480469 Z M 189.546875 204.480469 " fill-opacity="1" fill-rule="nonzero"/><path fill="#720c0c" d="M 284.289062 204.460938 C 283.558594 204.460938 282.960938 205.054688 282.960938 205.785156 L 282.960938 274.714844 L 285.613281 274.714844 L 285.613281 205.785156 C 285.613281 205.054688 285.019531 204.460938 284.289062 204.460938 Z M 284.289062 204.460938 " fill-opacity="1" fill-rule="nonzero"/><path fill="#329741" d="M 236.980469 193.824219 C 236.980469 193.824219 233.832031 206.183594 224.21875 204.847656 C 208.273438 202.628906 211.359375 181.179688 211.359375 181.179688 C 211.359375 181.179688 222.203125 193.824219 236.980469 193.824219 Z M 236.980469 193.824219 " fill-opacity="1" fill-rule="nonzero"/><path fill="#720c0c" d="M 225.652344 206.304688 C 225.121094 206.304688 224.578125 206.269531 224.035156 206.1875 C 219.746094 205.59375 216.347656 203.652344 213.921875 200.429688 C 211.566406 197.300781 210.199219 193.0625 209.847656 187.851562 C 209.589844 184.027344 210.003906 181.113281 210.019531 180.992188 C 210.09375 180.460938 210.476562 180.03125 210.984375 179.875 C 211.5 179.726562 212.050781 179.890625 212.394531 180.296875 C 212.421875 180.328125 215.089844 183.398438 219.464844 186.425781 C 223.449219 189.179688 229.726562 192.460938 236.980469 192.460938 C 237.402344 192.460938 237.800781 192.65625 238.054688 192.984375 C 238.3125 193.320312 238.402344 193.75 238.296875 194.15625 C 238.261719 194.296875 237.429688 197.515625 235.328125 200.601562 C 232.769531 204.359375 229.449219 206.304688 225.652344 206.304688 Z M 212.5 184.285156 C 212.402344 187.980469 212.78125 194.390625 216.101562 198.800781 C 218.078125 201.421875 220.871094 203.003906 224.410156 203.492188 C 227.84375 203.972656 230.761719 202.480469 233.082031 199.066406 C 234.046875 197.648438 234.710938 196.191406 235.121094 195.117188 C 229.375 194.71875 223.445312 192.492188 217.859375 188.621094 C 215.59375 187.050781 213.78125 185.492188 212.5 184.285156 Z M 212.5 184.285156 " fill-opacity="1" fill-rule="nonzero"/><path fill="#329741" d="M 236.992188 193.824219 C 236.992188 193.824219 240.144531 206.183594 249.753906 204.847656 C 265.703125 202.628906 262.613281 181.179688 262.613281 181.179688 C 262.613281 181.179688 251.765625 193.824219 236.992188 193.824219 Z M 236.992188 193.824219 " fill-opacity="1" fill-rule="nonzero"/><path fill="#720c0c" d="M 248.324219 206.304688 C 244.523438 206.304688 241.203125 204.359375 238.648438 200.601562 C 236.546875 197.515625 235.710938 194.296875 235.675781 194.15625 C 235.570312 193.75 235.660156 193.320312 235.921875 192.984375 C 236.179688 192.652344 236.574219 192.460938 236.992188 192.460938 C 250.980469 192.460938 261.472656 180.410156 261.578125 180.289062 C 261.925781 179.886719 262.480469 179.722656 262.992188 179.871094 C 263.503906 180.019531 263.882812 180.453125 263.957031 180.984375 C 263.972656 181.105469 264.386719 184.019531 264.125 187.847656 C 263.777344 193.066406 262.402344 197.292969 260.050781 200.425781 C 257.628906 203.652344 254.226562 205.589844 249.941406 206.183594 C 249.394531 206.269531 248.855469 206.304688 248.324219 206.304688 Z M 238.855469 195.117188 C 239.273438 196.207031 239.953125 197.699219 240.929688 199.125 C 243.246094 202.5 246.152344 203.972656 249.566406 203.5 C 253.101562 203.003906 255.898438 201.429688 257.871094 198.808594 C 261.191406 194.398438 261.574219 187.984375 261.472656 184.292969 C 260.195312 185.496094 258.375 187.058594 256.117188 188.628906 C 250.53125 192.492188 244.605469 194.71875 238.855469 195.117188 Z M 238.855469 195.117188 " fill-opacity="1" fill-rule="nonzero"/><path fill="#720c0c" d="M 237.238281 195.160156 C 230.546875 195.160156 224.226562 193.261719 219.433594 189.804688 C 217.019531 188.066406 215.109375 186.015625 213.765625 183.71875 C 212.320312 181.257812 211.589844 178.628906 211.589844 175.90625 C 211.589844 173.183594 212.320312 170.554688 213.765625 168.09375 C 215.109375 165.796875 217.019531 163.746094 219.433594 162.007812 C 224.226562 158.550781 230.546875 156.652344 237.238281 156.652344 C 243.925781 156.652344 250.25 158.550781 255.039062 162.007812 C 257.453125 163.746094 259.363281 165.796875 260.710938 168.09375 C 262.152344 170.554688 262.882812 173.183594 262.882812 175.90625 C 262.882812 178.628906 262.152344 181.257812 260.710938 183.71875 C 259.363281 186.015625 257.453125 188.066406 255.039062 189.804688 C 250.25 193.261719 243.925781 195.160156 237.238281 195.160156 Z M 237.238281 162.097656 C 231.675781 162.097656 226.484375 163.636719 222.613281 166.425781 C 219.011719 169.023438 217.027344 172.394531 217.027344 175.910156 C 217.027344 179.429688 219.011719 182.796875 222.613281 185.394531 C 226.484375 188.1875 231.675781 189.726562 237.238281 189.726562 C 242.796875 189.726562 247.988281 188.1875 251.863281 185.394531 C 255.464844 182.800781 257.449219 179.429688 257.449219 175.910156 C 257.449219 172.394531 255.464844 169.027344 251.863281 166.425781 C 247.988281 163.636719 242.789062 162.097656 237.238281 162.097656 Z M 237.238281 162.097656 " fill-opacity="1" fill-rule="nonzero"/><path fill="#dddddd" d="M 260.164062 175.910156 C 260.164062 176.453125 260.125 176.992188 260.054688 177.53125 C 259.980469 178.070312 259.871094 178.605469 259.722656 179.136719 C 259.578125 179.667969 259.394531 180.191406 259.175781 180.710938 C 258.957031 181.230469 258.707031 181.738281 258.417969 182.238281 C 258.128906 182.738281 257.808594 183.226562 257.457031 183.703125 C 257.101562 184.183594 256.714844 184.644531 256.296875 185.097656 C 255.882812 185.546875 255.433594 185.980469 254.957031 186.398438 C 254.480469 186.816406 253.976562 187.21875 253.445312 187.601562 C 252.914062 187.984375 252.359375 188.347656 251.78125 188.691406 C 251.199219 189.035156 250.597656 189.355469 249.972656 189.65625 C 249.347656 189.957031 248.703125 190.234375 248.042969 190.492188 C 247.378906 190.746094 246.699219 190.976562 246.007812 191.183594 C 245.3125 191.390625 244.605469 191.574219 243.886719 191.730469 C 243.167969 191.890625 242.441406 192.019531 241.707031 192.125 C 240.96875 192.230469 240.226562 192.3125 239.480469 192.363281 C 238.730469 192.417969 237.984375 192.445312 237.230469 192.445312 C 236.480469 192.445312 235.730469 192.417969 234.984375 192.363281 C 234.238281 192.3125 233.496094 192.230469 232.757812 192.125 C 232.019531 192.019531 231.292969 191.890625 230.574219 191.730469 C 229.855469 191.574219 229.148438 191.390625 228.457031 191.183594 C 227.761719 190.976562 227.082031 190.746094 226.421875 190.492188 C 225.757812 190.234375 225.117188 189.957031 224.492188 189.65625 C 223.867188 189.355469 223.265625 189.035156 222.683594 188.691406 C 222.101562 188.347656 221.546875 187.984375 221.015625 187.601562 C 220.484375 187.21875 219.980469 186.816406 219.503906 186.398438 C 219.027344 185.980469 218.582031 185.546875 218.164062 185.097656 C 217.746094 184.644531 217.363281 184.183594 217.007812 183.703125 C 216.652344 183.226562 216.332031 182.738281 216.046875 182.238281 C 215.757812 181.738281 215.503906 181.230469 215.289062 180.710938 C 215.070312 180.191406 214.886719 179.667969 214.742188 179.136719 C 214.59375 178.605469 214.484375 178.070312 214.410156 177.53125 C 214.335938 176.992188 214.300781 176.453125 214.300781 175.910156 C 214.300781 175.371094 214.335938 174.828125 214.410156 174.292969 C 214.484375 173.753906 214.59375 173.21875 214.742188 172.6875 C 214.886719 172.15625 215.070312 171.628906 215.289062 171.113281 C 215.503906 170.59375 215.757812 170.085938 216.046875 169.585938 C 216.332031 169.085938 216.652344 168.597656 217.007812 168.117188 C 217.363281 167.640625 217.746094 167.175781 218.164062 166.726562 C 218.582031 166.277344 219.027344 165.84375 219.503906 165.421875 C 219.980469 165.003906 220.484375 164.605469 221.015625 164.222656 C 221.546875 163.839844 222.101562 163.476562 222.683594 163.132812 C 223.265625 162.789062 223.867188 162.464844 224.492188 162.164062 C 225.117188 161.863281 225.757812 161.585938 226.421875 161.332031 C 227.082031 161.078125 227.761719 160.84375 228.457031 160.636719 C 229.148438 160.429688 229.855469 160.25 230.574219 160.089844 C 231.292969 159.933594 232.019531 159.804688 232.757812 159.695312 C 233.496094 159.589844 234.238281 159.511719 234.984375 159.460938 C 235.730469 159.40625 236.480469 159.378906 237.230469 159.378906 C 237.984375 159.378906 238.730469 159.40625 239.480469 159.460938 C 240.226562 159.511719 240.96875 159.589844 241.707031 159.695312 C 242.441406 159.804688 243.167969 159.933594 243.886719 160.089844 C 244.605469 160.25 245.3125 160.429688 246.007812 160.636719 C 246.699219 160.84375 247.378906 161.078125 248.042969 161.332031 C 248.703125 161.585938 249.347656 161.863281 249.972656 162.164062 C 250.597656 162.464844 251.199219 162.789062 251.78125 163.132812 C 252.359375 163.476562 252.914062 163.839844 253.445312 164.222656 C 253.976562 164.605469 254.480469 165.003906 254.957031 165.421875 C 255.433594 165.84375 255.882812 166.277344 256.296875 166.726562 C 256.714844 167.175781 257.101562 167.640625 257.457031 168.117188 C 257.808594 168.597656 258.128906 169.085938 258.417969 169.585938 C 258.707031 170.085938 258.957031 170.59375 259.175781 171.113281 C 259.394531 171.628906 259.578125 172.15625 259.722656 172.6875 C 259.871094 173.21875 259.980469 173.753906 260.054688 174.292969 C 260.125 174.828125 260.164062 175.371094 260.164062 175.910156 Z M 260.164062 175.910156 " fill-opacity="1" fill-rule="nonzero"/><path fill="#ff9a00" d="M 238.4375 284.976562 C 263.738281 284.976562 284.304688 275.375 284.304688 275.375 C 284.304688 275.375 284.304688 254.601562 284.304688 230.597656 C 272.390625 212.46875 280.566406 176.007812 280.566406 176.007812 C 280.261719 176.300781 273.460938 172.144531 273.460938 172.144531 C 273.460938 172.144531 266.597656 202.117188 265.578125 221.96875 L 208.304688 221.96875 C 207.285156 202.117188 200.421875 172.144531 200.421875 172.144531 C 200.421875 172.144531 193.628906 176.300781 193.320312 176.007812 C 193.320312 176.007812 201.496094 212.46875 189.582031 230.597656 C 189.582031 254.601562 189.582031 276.136719 189.582031 276.136719 C 189.582031 276.136719 208.71875 284.980469 235.449219 284.980469 L 238.4375 284.980469 Z M 238.4375 284.976562 " fill-opacity="1" fill-rule="nonzero"/><path fill="#720c0c" d="M 238.4375 286.339844 L 235.449219 286.339844 C 221.492188 286.339844 209.632812 283.910156 202.136719 281.871094 C 193.992188 279.65625 189.214844 277.464844 189.011719 277.371094 C 188.53125 277.148438 188.222656 276.664062 188.222656 276.132812 L 188.222656 230.59375 C 188.222656 230.328125 188.300781 230.066406 188.445312 229.84375 C 191.054688 225.875 192.875 220.613281 193.851562 214.207031 C 194.640625 209.019531 194.878906 203.085938 194.5625 196.5625 C 194.019531 185.425781 192.015625 176.382812 191.992188 176.292969 C 191.859375 175.710938 192.132812 175.105469 192.652344 174.8125 C 192.835938 174.707031 193.039062 174.648438 193.246094 174.636719 C 194.089844 174.304688 197.171875 172.527344 199.710938 170.96875 C 200.082031 170.742188 200.542969 170.707031 200.949219 170.875 C 201.351562 171.042969 201.648438 171.398438 201.742188 171.824219 C 201.8125 172.117188 208.359375 200.867188 209.582031 220.59375 L 264.289062 220.59375 C 265.519531 200.859375 272.066406 172.117188 272.128906 171.824219 C 272.226562 171.398438 272.523438 171.042969 272.925781 170.875 C 273.328125 170.707031 273.789062 170.742188 274.164062 170.96875 C 276.703125 172.527344 279.785156 174.296875 280.628906 174.636719 C 280.832031 174.648438 281.035156 174.707031 281.222656 174.8125 C 281.746094 175.105469 282.011719 175.710938 281.878906 176.292969 C 281.859375 176.382812 279.847656 185.460938 279.3125 196.605469 C 279 203.117188 279.238281 209.042969 280.027344 214.230469 C 281.003906 220.625 282.824219 225.878906 285.429688 229.84375 C 285.574219 230.066406 285.652344 230.328125 285.652344 230.59375 L 285.652344 275.367188 C 285.652344 275.898438 285.34375 276.378906 284.867188 276.601562 C 284.65625 276.699219 279.535156 279.074219 271.222656 281.476562 C 263.574219 283.695312 251.664062 286.339844 238.4375 286.339844 Z M 190.9375 275.242188 C 192.605469 275.941406 196.832031 277.609375 202.914062 279.257812 C 210.238281 281.242188 221.820312 283.617188 235.449219 283.617188 L 238.4375 283.617188 C 251.320312 283.617188 262.941406 281.042969 270.421875 278.886719 C 276.714844 277.074219 281.210938 275.234375 282.945312 274.492188 L 282.945312 231 C 280.242188 226.746094 278.359375 221.242188 277.351562 214.628906 C 276.535156 209.257812 276.285156 203.136719 276.609375 196.441406 C 277.046875 187.429688 278.433594 179.734375 278.996094 176.886719 C 278.898438 176.839844 278.804688 176.792969 278.707031 176.738281 C 278.085938 176.421875 277.25 175.960938 276.21875 175.363281 C 275.578125 174.992188 274.929688 174.617188 274.378906 174.289062 C 272.890625 181.097656 267.792969 205.339844 266.9375 222.042969 C 266.898438 222.765625 266.300781 223.332031 265.578125 223.332031 L 208.304688 223.332031 C 207.585938 223.332031 206.984375 222.765625 206.949219 222.042969 C 206.09375 205.339844 200.996094 181.089844 199.503906 174.289062 C 198.953125 174.617188 198.3125 174.992188 197.664062 175.363281 C 196.636719 175.960938 195.800781 176.421875 195.175781 176.738281 C 195.082031 176.789062 194.984375 176.839844 194.890625 176.886719 C 195.453125 179.734375 196.835938 187.429688 197.277344 196.441406 C 197.605469 203.136719 197.355469 209.257812 196.535156 214.628906 C 195.527344 221.242188 193.644531 226.75 190.9375 231 Z M 279.625 175.019531 Z M 194.257812 175.019531 Z M 194.257812 175.019531 " fill-opacity="1" fill-rule="nonzero"/><path fill="#720c0c" d="M 236.632812 265.332031 L 236.601562 265.332031 C 226.394531 265.207031 218.984375 262.246094 214.574219 256.523438 C 208.140625 248.167969 210.777344 237.21875 210.894531 236.757812 L 211.410156 234.699219 L 261.855469 234.699219 L 262.371094 236.757812 C 262.488281 237.21875 265.125 248.175781 258.6875 256.523438 C 254.28125 262.246094 246.871094 265.207031 236.664062 265.332031 Z M 215.847656 240.140625 C 215.53125 243.136719 215.5 248.832031 218.910156 253.234375 C 222.25 257.542969 228.214844 259.78125 236.636719 259.886719 C 245.0625 259.78125 251.023438 257.535156 254.367188 253.234375 C 257.777344 248.832031 257.746094 243.144531 257.425781 240.140625 Z M 215.847656 240.140625 " fill-opacity="1" fill-rule="nonzero"/><path fill="#ffcc00" d="M 259.734375 237.421875 C 259.734375 237.421875 252.863281 237.421875 236.660156 237.421875 L 236.605469 237.421875 C 220.398438 237.421875 213.53125 237.421875 213.53125 237.421875 C 213.53125 237.421875 207.324219 262.261719 236.632812 262.617188 C 265.941406 262.253906 259.734375 237.421875 259.734375 237.421875 Z M 259.734375 237.421875 " fill-opacity="1" fill-rule="nonzero"/><path fill="#720c0c" d="M 292.5625 102.890625 C 291.832031 102.890625 291.238281 103.484375 291.238281 104.214844 L 291.238281 156.792969 L 293.890625 156.792969 L 293.890625 104.214844 C 293.890625 103.484375 293.296875 102.890625 292.5625 102.890625 Z M 292.5625 102.890625 " fill-opacity="1" fill-rule="nonzero"/><path fill="#720c0c" d="M 240.578125 190.914062 L 234.367188 190.914062 C 226.441406 190.914062 218.746094 189.367188 211.5 186.3125 C 204.503906 183.363281 198.210938 179.136719 192.804688 173.757812 C 187.398438 168.375 183.144531 162.105469 180.160156 155.125 C 177.4375 148.757812 175.878906 142.039062 175.511719 135.113281 C 173.3125 134.824219 171.316406 134.152344 169.554688 133.113281 C 167.34375 131.808594 165.539062 129.957031 164.191406 127.59375 C 162.441406 124.539062 161.503906 120.597656 161.550781 116.511719 C 161.59375 112.824219 162.414062 109.351562 163.808594 106.980469 C 165.769531 103.652344 169.125 101.730469 173.527344 101.433594 C 174.53125 101.367188 175.476562 101.394531 176.296875 101.457031 C 178.546875 88.417969 185.15625 76.476562 195.101562 67.574219 C 205.914062 57.90625 219.859375 52.578125 234.371094 52.578125 L 240.578125 52.578125 C 255.003906 52.578125 268.878906 57.839844 279.664062 67.40625 C 289.667969 76.277344 296.335938 88.21875 298.632812 101.28125 C 299.464844 101.234375 300.429688 101.226562 301.460938 101.324219 C 305.851562 101.722656 309.199219 103.675781 311.144531 106.988281 C 312.535156 109.351562 313.363281 112.828125 313.40625 116.519531 C 313.453125 120.605469 312.515625 124.542969 310.765625 127.601562 C 309.417969 129.957031 307.613281 131.8125 305.402344 133.121094 C 303.640625 134.160156 301.640625 134.828125 299.4375 135.121094 C 299.074219 142.046875 297.511719 148.769531 294.785156 155.140625 C 291.800781 162.117188 287.546875 168.386719 282.140625 173.761719 C 276.734375 179.144531 270.445312 183.363281 263.445312 186.3125 C 256.195312 189.367188 248.503906 190.914062 240.578125 190.914062 Z M 178.148438 129.554688 C 178.152344 129.554688 178.152344 129.554688 178.160156 129.554688 C 179.648438 129.558594 180.859375 130.769531 180.871094 132.257812 C 180.914062 139.449219 182.355469 146.425781 185.160156 152.984375 C 187.871094 159.320312 191.734375 165.015625 196.644531 169.898438 C 201.558594 174.785156 207.265625 178.617188 213.617188 181.296875 C 220.1875 184.070312 227.175781 185.476562 234.371094 185.476562 L 240.578125 185.476562 C 247.777344 185.476562 254.757812 184.070312 261.332031 181.296875 C 267.679688 178.625 273.386719 174.785156 278.300781 169.902344 C 283.207031 165.019531 287.074219 159.332031 289.785156 152.996094 C 292.589844 146.441406 294.035156 139.464844 294.082031 132.277344 C 294.089844 130.785156 295.296875 129.578125 296.785156 129.570312 C 296.792969 129.570312 296.796875 129.570312 296.796875 129.570312 C 297.191406 129.570312 297.5625 129.652344 297.902344 129.800781 C 301.59375 129.535156 304.324219 127.886719 306.039062 124.894531 C 308.886719 119.914062 308.195312 112.714844 306.453125 109.742188 C 305.4375 108.015625 303.632812 107.011719 301.09375 106.753906 C 299.113281 106.550781 297.375 106.878906 297.03125 106.953125 C 296.867188 106.996094 296.691406 107.023438 296.515625 107.039062 C 295.082031 107.128906 293.828125 106.09375 293.644531 104.671875 C 292.007812 91.871094 285.757812 80.085938 276.054688 71.476562 C 266.269531 62.796875 253.671875 58.015625 240.578125 58.015625 L 234.367188 58.015625 C 221.191406 58.015625 208.535156 62.851562 198.71875 71.628906 C 188.984375 80.339844 182.78125 92.242188 181.242188 105.15625 C 181.070312 106.59375 179.804688 107.644531 178.359375 107.550781 C 177.816406 107.511719 177.316406 107.316406 176.90625 107.007812 C 176.148438 106.890625 175.003906 106.78125 173.761719 106.875 C 171.230469 107.078125 169.507812 108.015625 168.488281 109.742188 C 166.742188 112.714844 166.054688 119.914062 168.902344 124.894531 C 170.609375 127.875 173.332031 129.519531 177.003906 129.796875 C 177.351562 129.644531 177.742188 129.554688 178.148438 129.554688 Z M 178.148438 129.554688 " fill-opacity="1" fill-rule="nonzero"/><path fill="#f4ae98" d="M 308.796875 108.367188 C 305.171875 102.203125 296.339844 104.328125 296.339844 104.328125 L 296.339844 104.332031 C 292.796875 76.675781 269.179688 55.304688 240.578125 55.304688 L 234.367188 55.304688 C 205.589844 55.304688 181.863281 76.9375 178.542969 104.835938 L 178.546875 104.5625 C 178.546875 104.5625 169.765625 102.203125 166.144531 108.367188 C 162.519531 114.527344 162.941406 132.566406 178.136719 132.566406 L 178.144531 132.277344 C 178.324219 163.191406 203.425781 188.191406 234.363281 188.191406 L 240.578125 188.191406 C 271.515625 188.191406 296.613281 163.195312 296.796875 132.292969 L 296.800781 132.5625 C 312 132.566406 312.414062 114.527344 308.796875 108.367188 Z M 308.796875 108.367188 " fill-opacity="1" fill-rule="nonzero"/><path fill="#ed9077" d="M 246.402344 131.605469 C 241.890625 131.605469 235.585938 131.605469 228.589844 131.605469 C 226.335938 141.253906 228.703125 144.085938 237.082031 144.085938 L 237.859375 144.085938 C 246.238281 144.085938 248.664062 141.261719 246.402344 131.605469 Z M 246.402344 131.605469 " fill-opacity="1" fill-rule="nonzero"/><path fill="#ed9077" d="M 237.410156 175.074219 C 233.132812 175.074219 230.460938 173.269531 230.460938 173.269531 C 230.460938 173.269531 231.167969 178.574219 237.410156 178.574219 C 243.65625 178.574219 244.359375 173.269531 244.359375 173.269531 C 244.359375 173.269531 241.691406 175.074219 237.410156 175.074219 Z M 237.410156 175.074219 " fill-opacity="1" fill-rule="nonzero"/><path fill="#ed9077" d="M 178.5625 104.636719 C 178.5625 104.636719 195.410156 104.40625 206.773438 87.871094 C 236.667969 83.992188 269.046875 87.664062 269.046875 87.664062 C 269.046875 87.664062 279.015625 102.253906 296.378906 104.320312 C 289.753906 80.296875 269.8125 66.792969 241.929688 66.792969 C 214.046875 66.792969 189.257812 78.878906 178.5625 104.636719 Z M 178.5625 104.636719 " fill-opacity="1" fill-rule="nonzero"/><path fill="#720c0c" d="M 237.675781 47.523438 C 174.425781 47.523438 173.539062 104.167969 173.539062 104.167969 L 178.53125 104.640625 C 178.53125 104.640625 195.761719 100.882812 205.964844 79.546875 C 205.964844 79.546875 240.089844 73.816406 269.890625 79.546875 C 280.097656 100.882812 296.347656 104.332031 296.347656 104.332031 L 301.402344 104.0625 C 301.402344 104.050781 300.929688 47.523438 237.675781 47.523438 Z M 237.675781 47.523438 " fill-opacity="1" fill-rule="nonzero"/><path fill="#ed9077" d="M 174.128906 124.371094 C 174.128906 124.371094 171.304688 120.964844 174.222656 118.328125 C 177.140625 115.695312 174.515625 111.414062 171.304688 112.472656 C 168.097656 113.539062 167.9375 123.578125 174.128906 124.371094 Z M 174.128906 124.371094 " fill-opacity="1" fill-rule="nonzero"/><path fill="#f9e6e1" d="M 178.582031 104.636719 C 178.582031 104.636719 170.027344 101.796875 166.039062 108.460938 C 162.050781 115.121094 165.652344 124.398438 166.074219 125.234375 C 164.761719 121.003906 163.601562 103.222656 178.386719 106.488281 C 178.386719 105.863281 178.582031 105.398438 178.582031 104.636719 Z M 178.582031 104.636719 " fill-opacity="1" fill-rule="nonzero"/><path fill="#ed9077" d="M 178.148438 132.566406 C 178.148438 132.566406 182.832031 133.839844 185.679688 143.894531 C 188.53125 153.941406 194.976562 178.183594 221.058594 186.609375 C 197.675781 181.308594 178.558594 159.585938 178.148438 132.566406 Z M 178.148438 132.566406 " fill-opacity="1" fill-rule="nonzero"/><path fill="#ed9077" d="M 300.8125 124.371094 C 300.8125 124.371094 303.632812 120.964844 300.71875 118.328125 C 297.800781 115.695312 300.425781 111.414062 303.632812 112.472656 C 306.84375 113.539062 307.003906 123.578125 300.8125 124.371094 Z M 300.8125 124.371094 " fill-opacity="1" fill-rule="nonzero"/><path fill="#f9e6e1" d="M 296.355469 104.636719 C 296.355469 104.636719 304.917969 101.785156 308.90625 108.445312 C 312.898438 115.105469 309.289062 124.398438 308.863281 125.226562 C 310.179688 120.996094 311.335938 103.21875 296.554688 106.480469 C 296.554688 105.953125 296.355469 105.738281 296.355469 104.636719 Z M 296.355469 104.636719 " fill-opacity="1" fill-rule="nonzero"/><path fill="#ed9077" d="M 296.796875 132.566406 C 296.796875 132.566406 292.113281 133.839844 289.265625 143.894531 C 286.414062 153.941406 279.972656 178.183594 253.886719 186.609375 C 277.277344 181.308594 296.394531 159.585938 296.796875 132.566406 Z M 296.796875 132.566406 " fill-opacity="1" fill-rule="nonzero"/><path fill="#e04c34" d="M 192.949219 122.3125 C 189.390625 122.3125 186.503906 123.613281 186.503906 125.222656 C 186.503906 126.832031 189.390625 128.128906 192.949219 128.128906 C 196.507812 128.128906 199.394531 126.832031 199.394531 125.222656 C 199.394531 123.613281 196.507812 122.3125 192.949219 122.3125 Z M 192.949219 122.3125 " fill-opacity="1" fill-rule="nonzero"/><path fill="#e04c34" d="M 281.996094 122.3125 C 278.4375 122.3125 275.550781 123.613281 275.550781 125.222656 C 275.550781 126.832031 278.4375 128.128906 281.996094 128.128906 C 285.554688 128.128906 288.441406 126.832031 288.441406 125.222656 C 288.441406 123.613281 285.554688 122.3125 281.996094 122.3125 Z M 281.996094 122.3125 " fill-opacity="1" fill-rule="nonzero"/><path fill="#f4ae98" d="M 245.113281 128.890625 C 243.40625 120.488281 239.351562 114.75 239.351562 114.75 L 229.820312 128.890625 C 228.023438 136.59375 230.480469 138.855469 237.15625 138.855469 L 237.777344 138.855469 C 244.460938 138.855469 246.695312 136.648438 245.113281 128.890625 Z M 245.113281 128.890625 " fill-opacity="1" fill-rule="nonzero"/><path fill="#720c0c" d="M 237.785156 139.707031 L 237.164062 139.707031 C 233.289062 139.707031 230.972656 138.957031 229.636719 137.273438 C 228.246094 135.519531 228.039062 132.796875 229 128.691406 C 229.105469 128.238281 229.5625 127.949219 230.015625 128.054688 C 230.472656 128.164062 230.761719 128.617188 230.652344 129.074219 C 229.835938 132.578125 229.9375 134.914062 230.964844 136.214844 C 231.933594 137.433594 233.898438 138 237.164062 138 L 237.785156 138 C 241.015625 138 242.882812 137.476562 243.839844 136.296875 C 244.886719 135.015625 245.03125 132.714844 244.285156 129.058594 C 242.636719 120.945312 238.707031 115.296875 238.667969 115.246094 C 238.398438 114.863281 238.488281 114.332031 238.875 114.0625 C 239.257812 113.789062 239.789062 113.878906 240.058594 114.261719 C 240.230469 114.5 244.234375 120.238281 245.957031 128.71875 C 246.824219 132.976562 246.578125 135.644531 245.160156 137.375 C 243.839844 138.988281 241.566406 139.707031 237.785156 139.707031 Z M 237.785156 139.707031 " fill-opacity="1" fill-rule="nonzero"/><path fill="#720c0c" d="M 201.253906 95.347656 C 198.878906 95.9375 199.425781 97.847656 201.410156 97.476562 C 201.410156 97.476562 205.902344 96.699219 212.609375 99.550781 C 213.695312 100.011719 214.972656 100.855469 215.671875 100.1875 C 217.402344 99.546875 212.609375 92.964844 201.253906 95.347656 Z M 201.253906 95.347656 " fill-opacity="1" fill-rule="nonzero"/><path fill="#720c0c" d="M 273.394531 94.773438 C 275.816406 95.144531 275.441406 97.09375 273.433594 96.90625 C 273.433594 96.90625 268.890625 96.546875 262.476562 100.003906 C 261.4375 100.558594 260.242188 101.519531 259.480469 100.914062 C 257.703125 100.433594 261.871094 93.441406 273.394531 94.773438 Z M 273.394531 94.773438 " fill-opacity="1" fill-rule="nonzero"/><path fill="#720c0c" d="M 177.566406 101.117188 C 176.816406 101.0625 176.164062 101.625 176.113281 102.378906 C 174.976562 118.5625 175.460938 134.277344 175.464844 134.433594 C 175.484375 135.171875 176.089844 135.75 176.824219 135.75 C 176.839844 135.75 176.855469 135.75 176.863281 135.75 C 177.613281 135.726562 178.203125 135.097656 178.179688 134.351562 C 178.175781 134.195312 177.691406 118.609375 178.824219 102.570312 C 178.875 101.824219 178.3125 101.167969 177.566406 101.117188 Z M 177.566406 101.117188 " fill-opacity="1" fill-rule="nonzero"/><path fill="#720c0c" d="M 298.855469 102.378906 C 298.800781 101.632812 298.15625 101.0625 297.402344 101.117188 C 296.652344 101.167969 296.085938 101.816406 296.140625 102.570312 C 297.265625 118.605469 296.785156 134.191406 296.78125 134.351562 C 296.753906 135.097656 297.34375 135.730469 298.097656 135.75 C 298.113281 135.75 298.128906 135.75 298.140625 135.75 C 298.871094 135.75 299.476562 135.171875 299.496094 134.433594 C 299.507812 134.277344 299.996094 118.554688 298.855469 102.378906 Z M 298.855469 102.378906 " fill-opacity="1" fill-rule="nonzero"/><path fill="#720c0c" d="M 214.867188 115.429688 C 214.867188 115.429688 208.683594 108.664062 201.515625 114.230469 C 200.113281 115.0625 199.058594 113.136719 200.75 111.785156 C 202.445312 110.429688 209.226562 105.175781 216.050781 111.523438 C 218.34375 113.65625 216.351562 116.9375 214.867188 115.429688 Z M 214.867188 115.429688 " fill-opacity="1" fill-rule="nonzero"/><path fill="#720c0c" d="M 274.332031 113.027344 C 274.332031 117.335938 270.839844 120.824219 266.539062 120.824219 C 262.230469 120.824219 258.742188 117.332031 258.742188 113.027344 C 258.742188 108.714844 262.230469 105.230469 266.539062 105.230469 C 270.839844 105.222656 274.332031 108.714844 274.332031 113.027344 Z M 274.332031 113.027344 " fill-opacity="1" fill-rule="nonzero"/><path fill="#ffffff" d="M 266.726562 111.199219 C 266.726562 112.65625 265.546875 113.832031 264.09375 113.832031 C 262.640625 113.832031 261.464844 112.65625 261.464844 111.199219 C 261.464844 109.746094 262.640625 108.566406 264.09375 108.566406 C 265.546875 108.574219 266.726562 109.75 266.726562 111.199219 Z M 266.726562 111.199219 " fill-opacity="1" fill-rule="nonzero"/><path fill="#ef7f68" d="M 248.894531 148.179688 L 225.761719 148.179688 C 225.761719 148.179688 223.433594 171.101562 237.316406 171.101562 L 237.34375 171.101562 C 251.226562 171.101562 248.894531 148.179688 248.894531 148.179688 Z M 248.894531 148.179688 " fill-opacity="1" fill-rule="nonzero"/><path fill="#720c0c" d="M 237.34375 171.953125 L 237.316406 171.953125 C 234.113281 171.953125 231.453125 170.8125 229.417969 168.554688 C 226.945312 165.816406 225.433594 161.527344 224.933594 155.808594 C 224.570312 151.609375 224.902344 148.238281 224.914062 148.097656 C 224.957031 147.660156 225.324219 147.332031 225.757812 147.332031 L 248.890625 147.332031 C 249.324219 147.332031 249.691406 147.660156 249.734375 148.097656 C 249.75 148.238281 250.085938 151.609375 249.714844 155.808594 C 249.214844 161.523438 247.707031 165.816406 245.230469 168.554688 C 243.203125 170.804688 240.546875 171.953125 237.34375 171.953125 Z M 226.554688 149.03125 C 226.371094 151.929688 226.09375 162.332031 230.6875 167.414062 C 232.386719 169.296875 234.617188 170.25 237.316406 170.25 L 237.34375 170.25 C 240.042969 170.25 242.277344 169.292969 243.972656 167.414062 C 248.566406 162.332031 248.28125 151.929688 248.105469 149.03125 Z M 226.554688 149.03125 " fill-opacity="1" fill-rule="nonzero"/><path fill="#e2e2e2" d="M 248.335938 148.179688 L 226.21875 148.179688 C 226.21875 148.179688 225.960938 150.871094 226.148438 154.40625 C 230.914062 154.40625 241.839844 154.410156 248.410156 154.410156 C 248.59375 150.878906 248.335938 148.179688 248.335938 148.179688 Z M 248.335938 148.179688 " fill-opacity="1" fill-rule="nonzero"/><path fill="#720c0c" d="M 248.402344 154.980469 C 244.855469 154.980469 240.039062 154.980469 235.609375 154.972656 C 231.832031 154.972656 228.339844 154.96875 226.144531 154.96875 C 225.84375 154.96875 225.59375 154.734375 225.578125 154.433594 C 225.386719 150.894531 225.640625 148.234375 225.652344 148.121094 C 225.679688 147.832031 225.921875 147.613281 226.214844 147.613281 L 248.328125 147.613281 C 248.621094 147.613281 248.863281 147.835938 248.890625 148.121094 C 248.902344 148.234375 249.15625 150.898438 248.964844 154.445312 C 248.953125 154.746094 248.707031 154.980469 248.402344 154.980469 Z M 226.6875 153.839844 C 228.886719 153.839844 232.128906 153.839844 235.609375 153.84375 C 239.820312 153.84375 244.375 153.847656 247.863281 153.847656 C 247.960938 151.523438 247.867188 149.621094 247.808594 148.75 L 226.746094 148.75 C 226.6875 149.621094 226.589844 151.519531 226.6875 153.839844 Z M 226.6875 153.839844 " fill-opacity="1" fill-rule="nonzero"/><path fill="#c43d27" d="M 228.574219 164.957031 C 228.574219 164.957031 236.660156 160.632812 246.367188 164.957031 C 246.367188 164.957031 248.402344 160.445312 248.402344 154.410156 C 239.4375 154.410156 226.09375 154.410156 226.09375 154.410156 C 226.09375 154.410156 225.996094 161.582031 228.574219 164.957031 Z M 228.574219 164.957031 " fill-opacity="1" fill-rule="nonzero"/><path fill="#720c0c" d="M 246.367188 165.523438 C 246.285156 165.523438 246.210938 165.507812 246.136719 165.476562 C 241.273438 163.308594 236.832031 163.417969 233.96875 163.890625 C 230.851562 164.40625 228.859375 165.449219 228.839844 165.460938 C 228.59375 165.59375 228.292969 165.523438 228.125 165.308594 C 226.992188 163.828125 226.214844 161.539062 225.804688 158.5 C 225.503906 156.269531 225.523438 154.484375 225.523438 154.40625 C 225.53125 154.097656 225.777344 153.847656 226.09375 153.847656 L 248.402344 153.847656 C 248.714844 153.847656 248.96875 154.105469 248.96875 154.417969 C 248.96875 160.5 246.964844 165.003906 246.878906 165.195312 C 246.785156 165.402344 246.582031 165.523438 246.367188 165.523438 Z M 226.664062 154.980469 C 226.703125 156.625 226.972656 161.496094 228.761719 164.242188 C 229.546875 163.886719 231.300781 163.183594 233.734375 162.78125 C 236.660156 162.292969 241.125 162.160156 246.058594 164.214844 C 246.546875 162.933594 247.734375 159.402344 247.832031 154.984375 L 226.664062 154.984375 Z M 226.664062 154.980469 " fill-opacity="1" fill-rule="nonzero"/><g clip-path="url(#5f2743ffe8)"><path fill="#720c0c" d="M 281.429688 76.941406 C 276.375 76.941406 269.988281 76.554688 262.058594 76.035156 C 253.753906 75.488281 244.34375 74.871094 235.136719 74.824219 C 225.800781 74.773438 216.457031 75.382812 208.214844 75.917969 C 191.109375 77.03125 182 77.445312 178.179688 73.863281 C 177.019531 72.777344 176.410156 71.363281 176.410156 69.777344 C 176.410156 60.824219 183.050781 51.683594 194.628906 44.707031 C 200.242188 41.324219 206.644531 38.65625 213.671875 36.773438 C 221.121094 34.769531 228.914062 33.757812 236.84375 33.757812 C 244.769531 33.757812 252.566406 34.769531 260.015625 36.765625 C 267.042969 38.652344 273.445312 41.320312 279.058594 44.699219 C 290.636719 51.679688 297.28125 60.820312 297.28125 69.773438 C 297.28125 71.375 296.652344 72.808594 295.472656 73.910156 C 293.0625 76.171875 288.574219 76.941406 281.429688 76.941406 Z M 234.015625 69.378906 C 234.398438 69.378906 234.78125 69.378906 235.167969 69.386719 C 244.542969 69.4375 254.035156 70.058594 262.414062 70.605469 C 270.875 71.15625 278.179688 71.640625 283.699219 71.464844 C 291.074219 71.230469 291.820312 69.867188 291.828125 69.851562 C 291.828125 69.851562 291.832031 69.832031 291.832031 69.773438 C 291.832031 55.632812 267.808594 39.195312 236.839844 39.195312 C 205.871094 39.195312 181.847656 55.632812 181.847656 69.773438 C 181.847656 69.804688 181.847656 69.824219 181.851562 69.835938 C 181.925781 69.9375 182.917969 71.050781 189.132812 71.238281 C 194 71.386719 200.421875 70.964844 207.863281 70.484375 C 215.859375 69.96875 224.882812 69.378906 234.015625 69.378906 Z M 234.015625 69.378906 " fill-opacity="1" fill-rule="nonzero"/></g><path fill="#ff9a00" d="M 294.554688 69.777344 C 294.554688 78.058594 264.5625 72.265625 235.152344 72.105469 C 206.867188 71.953125 179.128906 77.742188 179.128906 69.777344 C 179.128906 53.53125 204.96875 36.480469 236.84375 36.480469 C 268.714844 36.480469 294.554688 53.53125 294.554688 69.777344 Z M 294.554688 69.777344 " fill-opacity="1" fill-rule="nonzero"/><path fill="#720c0c" d="M 303.839844 97.746094 C 301.523438 97.746094 300.03125 97.660156 299.910156 97.65625 C 298.808594 97.59375 297.851562 96.867188 297.496094 95.816406 C 296.695312 93.457031 294.488281 91.304688 290.929688 89.410156 C 287.433594 87.546875 282.699219 85.976562 276.851562 84.734375 C 271.25 83.542969 259.097656 81.550781 240.617188 81.550781 L 234.328125 81.550781 C 226.398438 81.550781 211.144531 81.964844 198.09375 84.734375 C 192.25 85.976562 187.511719 87.546875 184.015625 89.410156 C 180.457031 91.304688 178.25 93.457031 177.449219 95.816406 C 177.09375 96.859375 176.136719 97.585938 175.035156 97.65625 C 174.789062 97.671875 169.035156 98 162.125 97.320312 C 152.523438 96.378906 145.632812 93.996094 141.648438 90.242188 C 138.984375 87.730469 137.636719 84.664062 137.636719 81.117188 C 137.636719 76.269531 140.539062 71.953125 146.257812 68.285156 C 151.183594 65.128906 158.292969 62.410156 167.390625 60.207031 C 184.789062 56 208.71875 53.769531 236.589844 53.769531 L 241.929688 53.597656 C 241.964844 53.597656 241.988281 53.597656 242.023438 53.597656 C 269.585938 53.597656 292.898438 55.855469 309.441406 60.128906 C 318.03125 62.347656 324.726562 65.101562 329.339844 68.3125 C 334.617188 71.984375 337.296875 76.289062 337.296875 81.117188 C 337.296875 84.664062 335.949219 87.730469 333.289062 90.242188 C 329.304688 94 322.417969 96.378906 312.8125 97.320312 C 309.351562 97.660156 306.179688 97.746094 303.839844 97.746094 Z M 242.070312 59.035156 L 236.726562 59.210938 C 236.695312 59.210938 236.667969 59.210938 236.636719 59.210938 C 223.085938 59.210938 210.363281 59.753906 198.820312 60.8125 C 187.234375 61.878906 177.09375 63.457031 168.667969 65.496094 C 160.160156 67.554688 153.605469 70.03125 149.191406 72.859375 C 145.136719 75.46875 143.078125 78.242188 143.078125 81.117188 C 143.078125 83.128906 143.832031 84.824219 145.382812 86.28125 C 148.425781 89.152344 154.398438 91.097656 162.660156 91.910156 C 167.023438 92.339844 170.949219 92.332031 173.066406 92.285156 C 174.617188 89.328125 177.433594 86.753906 181.464844 84.605469 C 185.410156 82.503906 190.625 80.753906 196.96875 79.410156 C 202.777344 78.179688 215.359375 76.109375 234.335938 76.109375 L 240.621094 76.109375 C 248.765625 76.109375 264.449219 76.539062 277.988281 79.410156 C 284.332031 80.757812 289.546875 82.503906 293.492188 84.605469 C 297.519531 86.75 300.335938 89.328125 301.882812 92.285156 C 304.015625 92.332031 307.984375 92.339844 312.371094 91.902344 C 320.59375 91.085938 326.539062 89.144531 329.574219 86.28125 C 331.125 84.824219 331.875 83.136719 331.875 81.125 C 331.875 74.953125 323.429688 69.367188 308.101562 65.40625 C 291.992188 61.238281 269.160156 59.039062 242.070312 59.035156 Z M 242.070312 59.035156 " fill-opacity="1" fill-rule="nonzero"/><path fill="#ff9a00" d="M 240.617188 78.828125 C 263.835938 78.828125 295.714844 82.105469 300.070312 94.9375 C 300.070312 94.9375 334.585938 96.988281 334.585938 81.117188 C 334.585938 65.25 296.59375 56.3125 242.027344 56.3125 L 236.636719 56.488281 C 182.070312 56.488281 140.359375 65.246094 140.359375 81.113281 C 140.359375 96.980469 174.875 94.933594 174.875 94.933594 C 179.234375 82.09375 211.117188 78.820312 234.328125 78.820312 L 240.617188 78.820312 Z M 240.617188 78.828125 " fill-opacity="1" fill-rule="nonzero"/><path fill="#ffffff" d="M 270.789062 45.789062 C 257.316406 39.320312 224.515625 35.964844 203.988281 46.101562 C 196.925781 50.6875 213.621094 46.144531 237.105469 46.480469 C 251.871094 46.691406 276.417969 48.496094 270.789062 45.789062 Z M 270.789062 45.789062 " fill-opacity="1" fill-rule="nonzero"/><path fill="#f4ae98" d="M 284.347656 231 L 303.957031 181.820312 L 327.109375 166.910156 C 327.109375 166.910156 321.242188 223.292969 308.292969 247.449219 C 301.335938 260.414062 284.46875 257.476562 284.46875 243.933594 C 284.46875 238.933594 284.347656 231 284.347656 231 Z M 284.347656 231 " fill-opacity="1" fill-rule="nonzero"/><path fill="#720c0c" d="M 295.609375 257.132812 C 294.503906 257.132812 293.4375 257 292.4375 256.746094 C 289.753906 256.070312 287.460938 254.585938 285.8125 252.445312 C 284.042969 250.160156 283.109375 247.21875 283.109375 243.933594 C 283.109375 239.003906 282.988281 231.105469 282.988281 231.027344 C 282.984375 230.847656 283.019531 230.667969 283.085938 230.5 L 302.695312 181.320312 C 302.800781 181.054688 302.980469 180.832031 303.222656 180.675781 L 326.371094 165.769531 C 326.8125 165.488281 327.371094 165.484375 327.820312 165.753906 C 328.265625 166.03125 328.511719 166.535156 328.460938 167.054688 C 328.445312 167.195312 326.953125 181.394531 323.894531 198.367188 C 322.09375 208.34375 320.117188 217.3125 318.003906 225.035156 C 315.359375 234.738281 312.492188 242.496094 309.492188 248.089844 C 306.046875 254.515625 300.496094 257.132812 295.609375 257.132812 Z M 285.710938 231.253906 C 285.730469 232.695312 285.832031 239.503906 285.832031 243.933594 C 285.832031 246.609375 286.570312 248.976562 287.964844 250.785156 C 289.238281 252.4375 291.015625 253.589844 293.105469 254.109375 C 299.242188 255.652344 304.558594 251.550781 307.105469 246.804688 C 312.328125 237.054688 317.214844 220.148438 321.226562 197.898438 C 323.464844 185.492188 324.859375 174.570312 325.441406 169.605469 L 305.066406 182.726562 Z M 285.710938 231.253906 " fill-opacity="1" fill-rule="nonzero"/><path fill="#f4ae98" d="M 290.242188 181.054688 C 290.242188 181.054688 286.53125 170.753906 296.15625 160.660156 C 305.777344 150.5625 314.25 142.179688 314.25 142.179688 C 314.25 142.179688 324.207031 148.796875 319.109375 153.90625 C 310.8125 162.230469 296.28125 186.371094 290.242188 181.054688 Z M 290.242188 181.054688 " fill-opacity="1" fill-rule="nonzero"/><path fill="#720c0c" d="M 292.246094 183.171875 C 291.160156 183.171875 290.160156 182.796875 289.34375 182.078125 C 289.175781 181.925781 289.042969 181.734375 288.960938 181.515625 C 288.917969 181.398438 287.9375 178.625 288.234375 174.546875 C 288.5 170.820312 289.921875 165.226562 295.175781 159.722656 C 304.699219 149.730469 313.210938 141.304688 313.292969 141.21875 C 313.75 140.765625 314.464844 140.691406 315.003906 141.054688 C 315.066406 141.097656 316.597656 142.121094 318.191406 143.6875 C 320.441406 145.894531 321.6875 148.046875 321.894531 150.085938 C 322.066406 151.847656 321.441406 153.507812 320.074219 154.878906 C 317.671875 157.289062 314.695312 161.105469 311.542969 165.148438 C 308.335938 169.261719 305.019531 173.519531 301.863281 176.871094 C 298.042969 180.933594 295.132812 182.933594 292.703125 183.160156 C 292.546875 183.167969 292.394531 183.171875 292.246094 183.171875 Z M 291.414062 180.238281 C 291.714844 180.417969 292.042969 180.480469 292.453125 180.445312 C 294.132812 180.285156 296.636719 178.453125 299.882812 175 C 302.949219 171.738281 306.230469 167.53125 309.402344 163.464844 C 312.605469 159.359375 315.632812 155.472656 318.148438 152.953125 C 318.945312 152.15625 319.285156 151.308594 319.1875 150.351562 C 319.050781 148.984375 318.046875 147.347656 316.285156 145.625 C 315.585938 144.9375 314.902344 144.371094 314.382812 143.96875 C 312.027344 146.3125 304.921875 153.429688 297.136719 161.601562 C 293.402344 165.515625 291.324219 169.894531 290.953125 174.617188 C 290.734375 177.355469 291.191406 179.433594 291.414062 180.238281 Z M 291.414062 180.238281 " fill-opacity="1" fill-rule="nonzero"/><path fill="#f4ae98" d="M 189.21875 233.039062 C 189.21875 233.039062 188.480469 249.707031 192.738281 285.113281 C 186.160156 290.484375 173.046875 293.632812 173.046875 293.632812 C 173.046875 293.632812 165.078125 268.050781 164.949219 237.496094 C 177.851562 234.625 189.21875 233.039062 189.21875 233.039062 Z M 189.21875 233.039062 " fill-opacity="1" fill-rule="nonzero"/><path fill="#720c0c" d="M 173.046875 294.988281 C 172.460938 294.988281 171.925781 294.613281 171.746094 294.035156 C 171.726562 293.972656 169.710938 287.453125 167.710938 277.285156 C 165.863281 267.90625 163.65625 253.390625 163.585938 237.5 C 163.582031 236.859375 164.027344 236.308594 164.652344 236.167969 C 177.460938 233.324219 188.910156 231.710938 189.027344 231.695312 C 189.425781 231.636719 189.835938 231.765625 190.132812 232.035156 C 190.429688 232.304688 190.59375 232.699219 190.578125 233.101562 C 190.570312 233.265625 189.898438 250.101562 194.089844 284.953125 C 194.140625 285.414062 193.960938 285.878906 193.601562 286.167969 C 186.859375 291.671875 173.914062 294.824219 173.371094 294.957031 C 173.257812 294.980469 173.152344 294.988281 173.046875 294.988281 Z M 166.320312 238.585938 C 166.480469 253.816406 168.601562 267.679688 170.371094 276.71875 C 171.839844 284.191406 173.316406 289.652344 173.980469 291.980469 C 177.238281 291.089844 186.089844 288.425781 191.300781 284.511719 C 187.902344 256.011719 187.765625 239.609375 187.824219 234.621094 C 184.390625 235.136719 175.816406 236.507812 166.320312 238.585938 Z M 166.320312 238.585938 " fill-opacity="1" fill-rule="nonzero"/><path fill="#f4ae98" d="M 193.261719 279.214844 C 193.261719 279.214844 182.753906 276.164062 173.296875 286.425781 C 163.835938 296.675781 156.011719 305.664062 156.011719 305.664062 C 156.011719 305.664062 163.25 315.183594 168.023438 309.769531 C 175.792969 300.960938 198.953125 284.917969 193.261719 279.214844 Z M 193.261719 279.214844 " fill-opacity="1" fill-rule="nonzero"/><path fill="#720c0c" d="M 164.59375 312.796875 C 164.527344 312.796875 164.453125 312.796875 164.382812 312.789062 C 162.339844 312.714844 160.113281 311.613281 157.761719 309.5 C 156.101562 308.007812 154.984375 306.542969 154.9375 306.480469 C 154.542969 305.964844 154.570312 305.25 154.992188 304.765625 C 155.074219 304.675781 162.941406 295.648438 172.304688 285.496094 C 177.464844 279.902344 182.949219 278.128906 186.648438 277.625 C 190.695312 277.074219 193.527344 277.875 193.644531 277.910156 C 193.867188 277.976562 194.0625 278.089844 194.226562 278.257812 C 195.109375 279.136719 195.546875 280.273438 195.511719 281.542969 C 195.4375 283.984375 193.632812 287.011719 189.820312 291.089844 C 186.679688 294.449219 182.640625 298.035156 178.742188 301.5 C 174.914062 304.902344 171.289062 308.121094 169.046875 310.671875 C 167.816406 312.0625 166.28125 312.796875 164.59375 312.796875 Z M 157.800781 305.6875 C 159.285156 307.371094 162.085938 309.988281 164.480469 310.074219 C 165.433594 310.105469 166.261719 309.710938 167.003906 308.867188 C 169.363281 306.191406 173.039062 302.925781 176.9375 299.464844 C 180.796875 296.039062 184.78125 292.496094 187.835938 289.230469 C 191.074219 285.765625 192.742188 283.15625 192.789062 281.460938 C 192.800781 281.058594 192.714844 280.730469 192.519531 280.4375 C 191.703125 280.265625 189.605469 279.949219 186.878906 280.335938 C 182.195312 281.011719 177.964844 283.367188 174.296875 287.34375 C 166.636719 295.648438 159.984375 303.195312 157.800781 305.6875 Z M 157.800781 305.6875 " fill-opacity="1" fill-rule="nonzero"/><path fill="#e5e3e3" d="M 332.265625 116.207031 L 352.917969 136.503906 C 353.019531 136.605469 353.125 136.703125 353.234375 136.800781 L 367.039062 150.375 C 370.90625 154.171875 377.121094 154.113281 380.917969 150.25 L 383.277344 147.847656 L 417.285156 113.21875 L 417.40625 113.089844 C 419.148438 111.316406 419.121094 108.472656 417.351562 106.730469 C 415.578125 104.992188 412.734375 105.015625 410.996094 106.789062 L 408.6875 109.136719 L 379.390625 138.96875 L 378.269531 140.109375 C 376.203125 142.214844 372.796875 142.230469 370.664062 140.140625 C 368.605469 138.117188 368.496094 134.871094 370.363281 132.753906 L 403.164062 99.355469 L 403.289062 99.226562 C 404.210938 98.28125 404.640625 97.039062 404.566406 95.820312 C 404.507812 94.738281 404.0625 93.675781 403.230469 92.851562 C 401.457031 91.113281 398.613281 91.140625 396.875 92.910156 L 394.570312 95.261719 L 365.273438 125.089844 L 364.15625 126.230469 C 362.085938 128.335938 358.679688 128.351562 356.554688 126.261719 C 355.554688 125.28125 355.015625 124.015625 354.9375 122.726562 C 354.851562 121.269531 355.347656 119.789062 356.449219 118.667969 L 357.566406 117.527344 L 386.714844 87.847656 L 389.171875 85.347656 C 390.101562 84.402344 390.523438 83.15625 390.449219 81.929688 C 390.390625 80.855469 389.945312 79.792969 389.113281 78.976562 C 387.339844 77.234375 384.492188 77.261719 382.757812 79.035156 L 382.636719 79.15625 L 349.789062 112.601562 C 347.707031 114.476562 344.480469 114.410156 342.433594 112.398438 C 340.304688 110.308594 340.257812 106.902344 342.328125 104.792969 L 343.445312 103.652344 L 372.59375 73.976562 L 375.050781 71.476562 C 376.789062 69.703125 376.765625 66.851562 374.992188 65.117188 C 373.21875 63.378906 370.378906 63.402344 368.636719 65.175781 L 368.515625 65.296875 L 334.507812 99.929688 L 332.148438 102.332031 C 328.34375 106.183594 328.398438 112.40625 332.265625 116.207031 Z M 332.265625 116.207031 " fill-opacity="1" fill-rule="nonzero"/><g clip-path="url(#05afc0a29f)"><path fill="#720c0c" d="M 373.921875 154.535156 C 371.09375 154.535156 368.265625 153.472656 366.089844 151.332031 L 352.304688 137.785156 C 352.183594 137.671875 352.070312 137.570312 351.96875 137.472656 L 331.3125 117.171875 C 329.1875 115.078125 328 112.28125 327.972656 109.296875 C 327.945312 106.308594 329.082031 103.488281 331.175781 101.359375 L 333.535156 98.957031 L 367.539062 64.328125 L 367.660156 64.199219 C 368.753906 63.085938 370.21875 62.464844 371.78125 62.449219 C 373.347656 62.433594 374.824219 63.03125 375.9375 64.125 C 378.238281 66.386719 378.269531 70.105469 376.011719 72.410156 L 373.554688 74.910156 L 343.285156 105.730469 C 341.742188 107.300781 341.785156 109.847656 343.371094 111.414062 C 344.878906 112.894531 347.277344 112.972656 348.839844 111.597656 L 381.65625 78.191406 L 381.777344 78.0625 C 382.871094 76.949219 384.332031 76.328125 385.898438 76.3125 C 387.46875 76.292969 388.9375 76.894531 390.050781 77.988281 C 391.097656 79.011719 391.710938 80.382812 391.796875 81.839844 C 391.894531 83.484375 391.289062 85.109375 390.132812 86.289062 L 357.40625 119.605469 C 356.621094 120.402344 356.214844 121.507812 356.277344 122.632812 C 356.339844 123.628906 356.769531 124.570312 357.492188 125.273438 C 358.261719 126.027344 359.269531 126.441406 360.339844 126.441406 C 360.347656 126.441406 360.351562 126.441406 360.355469 126.441406 C 361.429688 126.4375 362.425781 126.019531 363.171875 125.257812 L 395.898438 91.941406 C 398.164062 89.636719 401.875 89.605469 404.179688 91.867188 C 405.222656 92.890625 405.84375 94.265625 405.921875 95.730469 C 406.019531 97.371094 405.410156 98.988281 404.257812 100.167969 L 404.128906 100.292969 L 371.359375 133.660156 C 369.984375 135.253906 370.097656 137.65625 371.617188 139.152344 C 373.210938 140.714844 375.757812 140.707031 377.300781 139.136719 L 378.417969 137.996094 L 407.714844 108.164062 L 410.023438 105.820312 C 411.121094 104.703125 412.585938 104.078125 414.152344 104.066406 C 415.714844 104.050781 417.191406 104.652344 418.304688 105.746094 C 420.605469 108.003906 420.644531 111.726562 418.378906 114.027344 L 418.25 114.15625 L 384.242188 148.785156 L 381.882812 151.191406 C 379.707031 153.417969 376.8125 154.535156 373.921875 154.535156 Z M 333.21875 115.234375 L 353.875 135.535156 C 353.953125 135.613281 354.042969 135.699219 354.144531 135.789062 C 354.160156 135.800781 354.171875 135.816406 354.1875 135.832031 L 367.996094 149.402344 C 371.320312 152.671875 376.683594 152.625 379.953125 149.296875 L 382.3125 146.890625 L 416.320312 112.25 L 416.449219 112.125 C 417.65625 110.894531 417.636719 108.902344 416.40625 107.6875 C 415.804688 107.097656 415.019531 106.78125 414.183594 106.789062 C 413.34375 106.796875 412.558594 107.128906 411.976562 107.730469 L 409.667969 110.074219 L 380.371094 139.90625 L 379.253906 141.046875 C 377.945312 142.378906 376.210938 143.042969 374.476562 143.042969 C 372.765625 143.042969 371.046875 142.394531 369.726562 141.097656 C 367.164062 138.582031 367 134.511719 369.355469 131.835938 C 369.371094 131.8125 369.386719 131.796875 369.40625 131.78125 L 402.210938 98.382812 L 402.335938 98.257812 C 402.953125 97.628906 403.277344 96.757812 403.230469 95.878906 C 403.1875 95.09375 402.851562 94.355469 402.296875 93.808594 C 401.058594 92.597656 399.070312 92.613281 397.859375 93.847656 L 395.558594 96.191406 L 365.140625 127.164062 C 363.882812 128.445312 362.199219 129.15625 360.398438 129.164062 C 360.390625 129.164062 360.378906 129.164062 360.367188 129.164062 C 358.578125 129.164062 356.894531 128.476562 355.613281 127.21875 C 354.414062 126.039062 353.699219 124.46875 353.59375 122.796875 C 353.480469 120.902344 354.171875 119.042969 355.492188 117.703125 L 356.613281 116.5625 L 388.199219 84.386719 C 388.820312 83.757812 389.144531 82.886719 389.09375 82.003906 C 389.050781 81.21875 388.714844 80.488281 388.160156 79.933594 C 387.570312 79.355469 386.789062 79.039062 385.960938 79.039062 C 385.953125 79.039062 385.941406 79.039062 385.929688 79.039062 C 385.09375 79.042969 384.308594 79.378906 383.722656 79.976562 L 383.597656 80.105469 L 350.753906 113.546875 C 350.734375 113.566406 350.714844 113.589844 350.691406 113.605469 C 349.425781 114.742188 347.828125 115.304688 346.230469 115.308594 C 344.511719 115.308594 342.792969 114.65625 341.476562 113.367188 C 338.820312 110.75 338.761719 106.476562 341.355469 103.835938 L 342.476562 102.691406 L 371.625 73.015625 L 374.078125 70.515625 C 375.289062 69.277344 375.273438 67.289062 374.039062 66.078125 C 373.4375 65.488281 372.652344 65.171875 371.816406 65.179688 C 370.976562 65.1875 370.191406 65.519531 369.609375 66.121094 L 369.480469 66.25 L 335.472656 100.878906 L 333.113281 103.28125 C 331.53125 104.894531 330.667969 107.023438 330.6875 109.285156 C 330.710938 111.535156 331.605469 113.648438 333.21875 115.234375 Z M 333.21875 115.234375 " fill-opacity="1" fill-rule="nonzero"/></g><path fill="#e5e3e3" d="M 340.214844 153.503906 L 329.011719 142.496094 L 343.726562 127.679688 L 354.929688 138.6875 Z M 340.214844 153.503906 " fill-opacity="1" fill-rule="nonzero"/><path fill="#720c0c" d="M 340.214844 154.863281 C 339.871094 154.863281 339.527344 154.734375 339.261719 154.476562 L 328.058594 143.46875 C 327.796875 143.214844 327.652344 142.867188 327.648438 142.507812 C 327.648438 142.148438 327.785156 141.796875 328.046875 141.542969 L 342.765625 126.722656 C 343.292969 126.191406 344.152344 126.1875 344.683594 126.714844 L 355.886719 137.71875 C 356.144531 137.976562 356.289062 138.320312 356.292969 138.679688 C 356.292969 139.042969 356.15625 139.390625 355.894531 139.648438 L 341.175781 154.464844 C 340.910156 154.730469 340.558594 154.863281 340.214844 154.863281 Z M 330.9375 142.480469 L 340.199219 151.582031 L 353 138.695312 L 343.738281 129.59375 Z M 330.9375 142.480469 " fill-opacity="1" fill-rule="nonzero"/><path fill="#ef7f68" d="M 161.015625 331.699219 C 155.6875 336.945312 147.019531 328.296875 152.265625 323.101562 C 159.179688 316.140625 330.109375 143.691406 330.109375 143.691406 L 338.855469 152.289062 C 338.855469 152.289062 168.023438 324.878906 161.015625 331.699219 Z M 161.015625 331.699219 " fill-opacity="1" fill-rule="nonzero"/><path fill="#720c0c" d="M 157.238281 334.6875 C 156.984375 334.6875 156.730469 334.671875 156.46875 334.644531 C 154.71875 334.449219 153.003906 333.585938 151.648438 332.210938 C 149.070312 329.59375 148.125 325.300781 151.308594 322.140625 C 158.175781 315.222656 327.4375 144.460938 329.148438 142.734375 C 329.675781 142.207031 330.535156 142.199219 331.070312 142.726562 L 339.816406 151.324219 C 340.078125 151.578125 340.21875 151.921875 340.226562 152.285156 C 340.226562 152.644531 340.089844 152.996094 339.832031 153.25 C 338.113281 154.972656 168.941406 325.882812 161.964844 332.671875 C 160.613281 333.996094 158.992188 334.6875 157.238281 334.6875 Z M 330.121094 145.613281 C 316.351562 159.511719 159.792969 317.449219 153.234375 324.0625 C 153.226562 324.0625 153.226562 324.066406 153.222656 324.074219 C 151.203125 326.074219 151.945312 328.644531 153.582031 330.296875 C 154.488281 331.21875 155.652344 331.816406 156.769531 331.945312 C 157.996094 332.082031 159.105469 331.671875 160.058594 330.730469 C 160.058594 330.730469 160.066406 330.722656 160.066406 330.722656 C 166.710938 324.253906 323.113281 166.261719 336.933594 152.304688 Z M 330.121094 145.613281 " fill-opacity="1" fill-rule="nonzero"/><path fill="#f4ae98" d="M 185.425781 295.460938 C 178.535156 289.273438 185.894531 281.609375 192.386719 287.4375 C 185.097656 280.894531 193.617188 274.269531 199.667969 279.703125 C 209.914062 288.902344 209.234375 294.65625 198.214844 306.941406 C 187.199219 319.226562 181.554688 320.523438 171.3125 311.324219 C 165.257812 305.890625 170.917969 296.703125 178.207031 303.246094 C 171.707031 297.421875 178.53125 289.273438 185.425781 295.460938 Z M 185.425781 295.460938 " fill-opacity="1" fill-rule="nonzero"/><path fill="#720c0c" d="M 182.832031 318.6875 C 179.097656 318.6875 175.257812 316.703125 170.394531 312.332031 C 168.023438 310.207031 166.957031 307.285156 167.539062 304.515625 C 168.011719 302.277344 169.484375 300.550781 171.484375 299.898438 C 172.15625 299.679688 173.164062 299.5 174.414062 299.71875 C 173.878906 297.5 174.488281 295.371094 175.804688 293.902344 C 176.996094 292.570312 178.675781 291.851562 180.515625 291.878906 C 180.859375 291.886719 181.203125 291.917969 181.550781 291.96875 C 181.257812 290.929688 181.214844 289.878906 181.425781 288.847656 C 181.878906 286.699219 183.410156 285 185.527344 284.3125 C 186.480469 284 187.472656 283.914062 188.476562 284.046875 C 188.121094 282.820312 188.191406 281.796875 188.332031 281.113281 C 188.769531 279.050781 190.324219 277.394531 192.496094 276.683594 C 195.183594 275.808594 198.199219 276.550781 200.570312 278.679688 C 206.246094 283.78125 208.550781 287.835938 208.261719 292.242188 C 207.992188 296.460938 205.367188 300.976562 199.21875 307.839844 C 193.066406 314.695312 188.859375 317.789062 184.695312 318.515625 C 184.078125 318.632812 183.457031 318.6875 182.832031 318.6875 Z M 173.285156 302.339844 C 172.949219 302.339844 172.632812 302.386719 172.328125 302.488281 C 171.261719 302.839844 170.46875 303.804688 170.195312 305.085938 C 169.816406 306.886719 170.570312 308.839844 172.207031 310.3125 C 177.195312 314.792969 180.789062 316.445312 184.226562 315.847656 C 187.6875 315.242188 191.5625 312.308594 197.191406 306.027344 C 202.820312 299.75 205.320312 295.578125 205.546875 292.074219 C 205.773438 288.59375 203.738281 285.199219 198.75 280.71875 C 197.113281 279.25 195.089844 278.710938 193.339844 279.285156 C 192.105469 279.6875 191.226562 280.585938 190.996094 281.683594 C 190.6875 283.140625 191.503906 284.820312 193.289062 286.425781 C 193.289062 286.425781 193.289062 286.425781 193.292969 286.429688 C 193.851562 286.933594 193.898438 287.792969 193.398438 288.351562 C 192.894531 288.90625 192.035156 288.957031 191.480469 288.457031 C 189.8125 286.960938 187.957031 286.402344 186.375 286.917969 C 185.199219 287.304688 184.34375 288.246094 184.089844 289.433594 C 183.75 291.042969 184.566406 292.871094 186.332031 294.460938 C 186.628906 294.730469 186.785156 295.101562 186.785156 295.472656 C 186.785156 295.796875 186.667969 296.121094 186.433594 296.378906 C 185.929688 296.9375 185.070312 296.984375 184.515625 296.488281 C 181.699219 293.960938 179.128906 294.289062 177.832031 295.738281 C 176.546875 297.164062 176.398438 299.808594 179.097656 302.238281 C 179.097656 302.238281 179.105469 302.246094 179.105469 302.246094 C 179.660156 302.75 179.707031 303.609375 179.210938 304.167969 C 178.707031 304.722656 177.847656 304.769531 177.289062 304.273438 C 177.289062 304.273438 177.285156 304.265625 177.285156 304.265625 C 175.890625 303 174.5 302.339844 173.285156 302.339844 Z M 173.285156 302.339844 " fill-opacity="1" fill-rule="nonzero"/><path fill="#720c0c" d="M 183.929688 309.371094 C 183.625 309.371094 183.316406 309.273438 183.0625 309.058594 L 177.328125 304.292969 C 176.75 303.808594 176.667969 302.957031 177.152344 302.378906 C 177.632812 301.800781 178.488281 301.71875 179.066406 302.203125 L 184.800781 306.96875 C 185.378906 307.453125 185.457031 308.304688 184.976562 308.882812 C 184.710938 309.207031 184.324219 309.371094 183.929688 309.371094 Z M 183.929688 309.371094 " fill-opacity="1" fill-rule="nonzero"/><path fill="#720c0c" d="M 190.714844 301.210938 C 190.40625 301.210938 190.101562 301.109375 189.84375 300.898438 L 184.109375 296.128906 C 183.53125 295.652344 183.453125 294.792969 183.9375 294.214844 C 184.417969 293.636719 185.273438 293.558594 185.851562 294.039062 L 191.585938 298.804688 C 192.164062 299.285156 192.242188 300.144531 191.761719 300.722656 C 191.488281 301.046875 191.101562 301.210938 190.714844 301.210938 Z M 190.714844 301.210938 " fill-opacity="1" fill-rule="nonzero"/><path fill="#720c0c" d="M 197.480469 292.988281 C 197.171875 292.988281 196.863281 292.886719 196.609375 292.675781 L 190.875 287.910156 C 190.296875 287.433594 190.214844 286.574219 190.699219 285.992188 C 191.183594 285.414062 192.035156 285.335938 192.613281 285.820312 L 198.347656 290.585938 C 198.925781 291.0625 199.007812 291.921875 198.523438 292.5 C 198.253906 292.820312 197.867188 292.988281 197.480469 292.988281 Z M 197.480469 292.988281 " fill-opacity="1" fill-rule="nonzero"/><path fill="#f4ae98" d="M 305.941406 172.195312 C 299.332031 165.707031 292.15625 173.542969 298.378906 179.652344 C 291.386719 172.789062 285.324219 181.71875 291.125 187.417969 C 300.949219 197.0625 306.648438 196.015625 318.199219 184.234375 C 329.753906 172.449219 330.6875 166.730469 320.863281 157.09375 C 315.0625 151.398438 306.253906 157.632812 313.246094 164.496094 C 307.019531 158.375 299.328125 165.707031 305.941406 172.195312 Z M 305.941406 172.195312 " fill-opacity="1" fill-rule="nonzero"/><path fill="#720c0c" d="M 302.792969 195.296875 C 298.902344 195.296875 295.042969 193.160156 290.175781 188.390625 C 287.902344 186.160156 286.96875 183.191406 287.671875 180.453125 C 288.246094 178.242188 289.796875 176.582031 291.820312 176.019531 C 292.5 175.828125 293.519531 175.695312 294.761719 175.96875 C 294.5625 174.976562 294.585938 173.980469 294.839844 173.007812 C 295.398438 170.855469 296.988281 169.214844 299.109375 168.625 C 300.117188 168.34375 301.171875 168.320312 302.230469 168.546875 C 302.148438 168.207031 302.097656 167.859375 302.070312 167.519531 C 301.925781 165.679688 302.535156 163.964844 303.789062 162.691406 C 305.171875 161.28125 307.253906 160.535156 309.5 160.929688 C 309.199219 159.691406 309.316406 158.671875 309.492188 157.996094 C 310.015625 155.957031 311.644531 154.375 313.847656 153.757812 C 316.566406 153 319.546875 153.882812 321.824219 156.109375 C 327.273438 161.453125 329.386719 165.609375 328.90625 170 C 328.445312 174.203125 325.628906 178.601562 319.175781 185.179688 C 312.726562 191.757812 308.386719 194.660156 304.195312 195.203125 C 303.726562 195.265625 303.257812 195.296875 302.792969 195.296875 Z M 293.359375 178.527344 C 293.078125 178.527344 292.808594 178.566406 292.546875 178.632812 C 291.464844 178.9375 290.628906 179.867188 290.304688 181.128906 C 289.84375 182.910156 290.503906 184.902344 292.082031 186.441406 C 296.867188 191.136719 300.386719 192.953125 303.847656 192.5 C 307.328125 192.050781 311.332031 189.289062 317.234375 183.273438 C 323.140625 177.253906 325.820312 173.195312 326.199219 169.703125 C 326.582031 166.230469 324.699219 162.75 319.914062 158.050781 C 318.34375 156.507812 316.34375 155.882812 314.574219 156.382812 C 313.316406 156.730469 312.402344 157.585938 312.121094 158.671875 C 311.75 160.113281 312.488281 161.832031 314.203125 163.515625 C 314.738281 164.039062 314.746094 164.898438 314.21875 165.433594 C 313.691406 165.972656 312.832031 165.980469 312.296875 165.449219 C 309.703125 162.902344 307.070312 163.214844 305.726562 164.589844 C 304.363281 165.980469 304.195312 168.566406 306.898438 171.21875 C 307.167969 171.484375 307.304688 171.835938 307.304688 172.191406 C 307.304688 172.535156 307.179688 172.882812 306.917969 173.144531 C 306.394531 173.683594 305.535156 173.691406 304.996094 173.164062 C 303.304688 171.5 301.429688 170.800781 299.84375 171.242188 C 298.667969 171.566406 297.789062 172.476562 297.476562 173.683594 C 297.0625 175.289062 297.742188 177.109375 299.339844 178.675781 C 299.875 179.203125 299.882812 180.0625 299.355469 180.597656 C 298.828125 181.132812 297.96875 181.144531 297.433594 180.613281 C 296.027344 179.25 294.613281 178.527344 293.359375 178.527344 Z M 293.359375 178.527344 " fill-opacity="1" fill-rule="nonzero"/><path fill="#720c0c" d="M 318.367188 171.269531 C 318.003906 171.269531 317.644531 171.125 317.378906 170.84375 L 312.261719 165.425781 C 311.746094 164.878906 311.765625 164.019531 312.3125 163.503906 C 312.859375 162.988281 313.71875 163.007812 314.234375 163.554688 L 319.351562 168.976562 C 319.867188 169.523438 319.84375 170.382812 319.300781 170.894531 C 319.039062 171.144531 318.699219 171.269531 318.367188 171.269531 Z M 318.367188 171.269531 " fill-opacity="1" fill-rule="nonzero"/><path fill="#720c0c" d="M 310.65625 178.558594 C 310.296875 178.558594 309.9375 178.417969 309.671875 178.136719 L 304.550781 172.714844 C 304.039062 172.167969 304.058594 171.308594 304.605469 170.796875 C 305.152344 170.28125 306.011719 170.300781 306.527344 170.847656 L 311.644531 176.265625 C 312.160156 176.8125 312.136719 177.671875 311.589844 178.1875 C 311.328125 178.433594 310.992188 178.558594 310.65625 178.558594 Z M 310.65625 178.558594 " fill-opacity="1" fill-rule="nonzero"/><path fill="#720c0c" d="M 302.886719 185.835938 C 302.527344 185.835938 302.164062 185.691406 301.898438 185.410156 L 296.78125 179.992188 C 296.265625 179.445312 296.289062 178.585938 296.835938 178.070312 C 297.378906 177.558594 298.238281 177.578125 298.753906 178.125 L 303.875 183.542969 C 304.386719 184.089844 304.367188 184.949219 303.820312 185.464844 C 303.554688 185.707031 303.222656 185.835938 302.886719 185.835938 Z M 302.886719 185.835938 " fill-opacity="1" fill-rule="nonzero"/><path fill="#ed9077" d="M 166.289062 238.71875 C 166.289062 238.71875 180.117188 235.113281 187.8125 234.722656 C 188.398438 258.007812 190.445312 277.402344 190.445312 277.402344 C 190.445312 277.402344 185.828125 263.125 181.527344 246.402344 C 179.085938 237.71875 166.289062 238.71875 166.289062 238.71875 Z M 166.289062 238.71875 " fill-opacity="1" fill-rule="nonzero"/><path fill="#ed9077" d="M 295.285156 207.230469 C 295.285156 207.230469 286.09375 230.996094 293.597656 240.484375 C 302.722656 252.011719 320.449219 201.878906 320.449219 201.878906 C 320.449219 201.878906 314.285156 238.5 305.105469 249.757812 C 295.921875 261.011719 285.40625 251.414062 285.40625 245.039062 C 285.40625 238.664062 285.40625 231.292969 285.40625 231.292969 Z M 295.285156 207.230469 " fill-opacity="1" fill-rule="nonzero"/></svg>