<svg xmlns="http://www.w3.org/2000/svg" xmlns:xlink="http://www.w3.org/1999/xlink" width="650" zoomAndPan="magnify" viewBox="0 0 487.5 337.499995" height="450" preserveAspectRatio="xMidYMid meet" version="1.0"><defs><clipPath id="3d43ef769a"><path d="M 0.109375 0 L 486.890625 0 L 486.890625 337 L 0.109375 337 Z M 0.109375 0 " clip-rule="nonzero"/></clipPath><clipPath id="029a118fc0"><path d="M 113.039062 42 L 373.652344 42 L 373.652344 303 L 113.039062 303 Z M 113.039062 42 " clip-rule="nonzero"/></clipPath><clipPath id="963cd1412a"><path d="M 167 177 L 320 177 L 320 303.179688 L 167 303.179688 Z M 167 177 " clip-rule="nonzero"/></clipPath><clipPath id="21b941fdd4"><path d="M 190 181 L 294 181 L 294 303.179688 L 190 303.179688 Z M 190 181 " clip-rule="nonzero"/></clipPath><clipPath id="9fe77299e9"><path d="M 174 26.089844 L 314 26.089844 L 314 76 L 174 76 Z M 174 26.089844 " clip-rule="nonzero"/></clipPath></defs><g clip-path="url(#3d43ef769a)"><path fill="#ffffff" d="M 0.109375 0 L 486.890625 0 L 486.890625 337 L 0.109375 337 Z M 0.109375 0 " fill-opacity="1" fill-rule="nonzero"/><path fill="#f8fffa" d="M 0.109375 0 L 486.890625 0 L 486.890625 337 L 0.109375 337 Z M 0.109375 0 " fill-opacity="1" fill-rule="nonzero"/></g><g clip-path="url(#029a118fc0)"><path fill="#720c0c" d="M 244.9375 302.945312 C 244.371094 302.945312 243.808594 302.941406 243.242188 302.933594 C 225.648438 302.703125 208.601562 299.125 192.582031 292.300781 C 177.050781 285.6875 163.128906 276.304688 151.191406 264.421875 C 139.21875 252.503906 129.824219 238.636719 123.273438 223.210938 C 116.480469 207.207031 113.039062 190.183594 113.039062 172.59375 C 113.039062 155.003906 116.480469 137.929688 123.273438 121.863281 C 126.539062 114.140625 130.578125 106.691406 135.285156 99.722656 C 139.945312 92.820312 145.289062 86.335938 151.183594 80.4375 C 157.082031 74.535156 163.5625 69.1875 170.457031 64.523438 C 177.421875 59.8125 184.867188 55.769531 192.582031 52.503906 C 208.636719 45.707031 225.695312 42.261719 243.277344 42.261719 C 260.984375 42.261719 278.167969 45.75 294.359375 52.636719 C 302.140625 55.941406 309.640625 60.039062 316.652344 64.804688 C 323.601562 69.53125 330.125 74.945312 336.042969 80.914062 C 341.886719 86.804688 347.183594 93.277344 351.789062 100.144531 C 356.445312 107.089844 360.429688 114.507812 363.640625 122.183594 C 370.324219 138.1875 373.652344 155.152344 373.519531 172.621094 C 373.386719 190.609375 369.738281 208.027344 362.683594 224.386719 C 359.292969 232.246094 355.117188 239.804688 350.265625 246.859375 C 345.46875 253.847656 339.964844 260.390625 333.929688 266.3125 C 321.988281 278.015625 308.203125 287.144531 292.941406 293.441406 C 277.660156 299.75 261.515625 302.945312 244.9375 302.945312 Z M 243.28125 47.980469 C 226.472656 47.980469 210.160156 51.277344 194.8125 57.777344 C 179.984375 64.050781 166.667969 73.035156 155.230469 84.484375 C 143.796875 95.929688 134.820312 109.253906 128.542969 124.09375 C 122.050781 139.453125 118.757812 155.773438 118.757812 172.601562 C 118.757812 189.410156 122.050781 205.6875 128.542969 220.96875 C 134.800781 235.714844 143.78125 248.960938 155.226562 260.363281 C 166.644531 271.726562 179.960938 280.703125 194.816406 287.03125 C 210.148438 293.5625 226.464844 296.992188 243.316406 297.214844 C 243.851562 297.21875 244.394531 297.226562 244.929688 297.226562 C 260.753906 297.226562 276.164062 294.171875 290.761719 288.144531 C 305.335938 282.128906 318.511719 273.40625 329.921875 262.21875 C 335.699219 256.558594 340.957031 250.292969 345.546875 243.605469 C 350.183594 236.859375 354.175781 229.625 357.417969 222.109375 C 364.171875 206.457031 367.664062 189.789062 367.789062 172.574219 C 367.914062 155.882812 364.742188 139.671875 358.355469 124.386719 C 352.191406 109.648438 343.320312 96.378906 331.972656 84.9375 C 326.316406 79.234375 320.078125 74.054688 313.433594 69.535156 C 306.730469 64.980469 299.554688 61.066406 292.117188 57.902344 C 276.648438 51.324219 260.214844 47.980469 243.28125 47.980469 Z M 243.28125 47.980469 " fill-opacity="1" fill-rule="nonzero"/></g><path fill="#ffb700" d="M 115.898438 172.59375 C 115.898438 242.996094 172.9375 299.148438 243.28125 300.070312 C 312.902344 300.984375 370.136719 243.65625 370.664062 172.59375 C 371.183594 102.191406 313.632812 45.117188 243.28125 45.117188 C 172.933594 45.117188 115.898438 102.191406 115.898438 172.59375 Z M 115.898438 172.59375 " fill-opacity="1" fill-rule="nonzero"/><path fill="#ffce00" d="M 243.28125 51.265625 L 231.902344 120.34375 L 193.421875 61.875 L 211.101562 129.613281 L 152.1875 91.855469 L 195.871094 146.542969 L 126.703125 136.03125 L 188.835938 168.207031 L 121.375 186.757812 L 191.214844 190.867188 L 137.125 235.269531 L 202.601562 210.597656 L 171.234375 273.179688 L 221.015625 223.988281 L 217.796875 293.929688 L 243.28125 228.722656 L 268.765625 293.929688 L 265.550781 223.988281 L 315.332031 273.179688 L 283.964844 210.597656 L 349.4375 235.269531 L 295.347656 190.867188 L 365.1875 186.757812 L 297.730469 168.207031 L 359.859375 136.03125 L 290.695312 146.542969 L 334.375 91.855469 L 275.460938 129.613281 L 293.140625 61.875 L 254.660156 120.34375 Z M 243.28125 51.265625 " fill-opacity="1" fill-rule="nonzero"/><path fill="#720c0c" d="M 169.339844 249.210938 C 169.339844 249.210938 137.160156 234.828125 156.394531 174.984375 C 165.183594 147.636719 167.960938 135.726562 167.960938 135.726562 C 171.347656 140.683594 179.625 142.097656 179.625 142.097656 L 307.054688 142.097656 C 307.054688 142.097656 315.332031 140.683594 318.71875 135.726562 C 318.71875 135.726562 321.738281 147.558594 330.285156 174.984375 C 346.214844 226.109375 325.664062 244.535156 319.128906 248.308594 C 319.128906 248.308594 292.441406 264.78125 243.214844 264.78125 C 193.988281 264.78125 169.339844 249.210938 169.339844 249.210938 Z M 169.339844 249.210938 " fill-opacity="1" fill-rule="nonzero"/><g clip-path="url(#963cd1412a)"><path fill="#720c0c" d="M 239.972656 303.113281 C 227.160156 303.113281 215.292969 300.308594 207.421875 297.882812 C 202.671875 296.421875 198.878906 294.949219 196.535156 293.96875 C 195.128906 293.378906 194.097656 292.914062 193.484375 292.628906 C 193.15625 292.472656 192.863281 292.332031 192.636719 292.21875 C 192.175781 291.984375 191.097656 291.4375 190.84375 290.011719 C 190.816406 289.847656 190.800781 289.679688 190.800781 289.515625 C 190.800781 280.707031 190.882812 260.378906 190.914062 252.851562 L 170.015625 252.8125 C 168.4375 252.808594 167.160156 251.527344 167.160156 249.949219 C 167.160156 236.0625 169.183594 223.902344 173.175781 213.8125 C 176.636719 205.066406 181.617188 197.75 187.976562 192.054688 C 192.242188 188.238281 197.160156 185.128906 202.589844 182.816406 C 206.910156 180.976562 211.5625 179.628906 216.421875 178.820312 C 224.019531 177.550781 229.710938 177.996094 230.785156 178.101562 L 252.972656 178.101562 C 254.207031 177.875 258.820312 177.152344 265.105469 177.6875 C 269.335938 178.039062 273.46875 178.894531 277.410156 180.210938 C 282.34375 181.867188 286.964844 184.265625 291.144531 187.339844 C 298.414062 192.691406 304.425781 200.125 309.019531 209.445312 C 314.40625 220.382812 317.898438 234.066406 319.394531 250.125 C 319.480469 251.054688 319.109375 251.96875 318.398438 252.574219 C 317.6875 253.179688 316.726562 253.398438 315.824219 253.160156 C 315.664062 253.117188 301.5 249.449219 293.085938 248.628906 L 293.085938 291.039062 C 293.085938 292.167969 292.421875 293.191406 291.390625 293.652344 C 291.175781 293.75 285.957031 296.066406 277.246094 298.398438 C 269.246094 300.535156 256.652344 303.085938 242.042969 303.089844 C 241.351562 303.105469 240.65625 303.113281 239.972656 303.113281 Z M 196.527344 287.714844 C 201.597656 289.996094 219.601562 297.386719 239.921875 297.386719 C 240.589844 297.386719 241.257812 297.378906 241.929688 297.363281 C 241.953125 297.363281 241.976562 297.363281 242.003906 297.363281 C 264.332031 297.363281 281.980469 291.21875 287.355469 289.121094 L 287.355469 245.613281 C 287.355469 244.027344 288.636719 242.746094 290.21875 242.746094 C 296.179688 242.746094 307.304688 245.207031 313.265625 246.636719 C 311.660156 233.046875 308.523438 221.429688 303.910156 212.042969 C 299.742188 203.5625 294.332031 196.824219 287.828125 192.015625 C 281.136719 187.074219 273.410156 184.175781 264.855469 183.414062 C 258.402344 182.835938 253.882812 183.757812 253.835938 183.765625 C 253.644531 183.8125 253.449219 183.828125 253.246094 183.828125 L 230.640625 183.828125 C 230.535156 183.828125 230.429688 183.824219 230.320312 183.8125 C 230.269531 183.804688 224.699219 183.226562 217.15625 184.507812 C 212.765625 185.257812 208.570312 186.480469 204.6875 188.15625 C 199.871094 190.226562 195.515625 192.988281 191.746094 196.375 C 179.730469 207.160156 173.398438 224.214844 172.914062 247.089844 L 193.800781 247.128906 C 194.558594 247.128906 195.289062 247.433594 195.824219 247.976562 C 196.363281 248.515625 196.660156 249.246094 196.65625 250.007812 C 196.65625 250.273438 196.539062 275.828125 196.527344 287.714844 Z M 196.527344 287.714844 " fill-opacity="1" fill-rule="nonzero"/></g><path fill="#008300" d="M 170.027344 249.949219 C 170.027344 174.164062 230.640625 180.964844 230.640625 180.964844 L 253.246094 180.964844 C 253.246094 180.964844 308.953125 169.082031 316.535156 250.390625 C 316.535156 250.390625 298.171875 245.605469 290.21875 245.605469 C 290.21875 252.851562 290.21875 291.039062 290.21875 291.039062 C 290.21875 291.039062 269.714844 300.226562 242.003906 300.226562 C 216.46875 300.847656 193.6875 289.628906 193.667969 289.519531 C 193.667969 278.535156 193.792969 250 193.792969 250 Z M 170.027344 249.949219 " fill-opacity="1" fill-rule="nonzero"/><path fill="#ffffff" d="M 266.070312 181.601562 C 281.367188 182.957031 307.90625 190.707031 315.625 242.453125 C 302.457031 197.847656 275.621094 187.617188 266.070312 181.601562 Z M 266.070312 181.601562 " fill-opacity="1" fill-rule="nonzero"/><path fill="#ffffff" d="M 217.738281 181.601562 C 201.089844 184.117188 173.800781 195.273438 170.363281 240.394531 C 183.527344 195.789062 208.183594 187.617188 217.738281 181.601562 Z M 217.738281 181.601562 " fill-opacity="1" fill-rule="nonzero"/><path fill="#006600" d="M 298.105469 246.441406 C 298.105469 246.441406 294.828125 208.101562 290.421875 208.101562 C 287.722656 208.101562 285.464844 248.132812 280.34375 273.539062 C 277.113281 289.570312 271.476562 296.835938 271.476562 296.835938 C 271.476562 296.835938 279.523438 295.425781 290.207031 291.070312 C 290.207031 286.285156 290.644531 245.351562 290.644531 245.351562 Z M 298.105469 246.441406 " fill-opacity="1" fill-rule="nonzero"/><path fill="#006600" d="M 185.292969 249.96875 C 185.292969 249.96875 189.089844 207.585938 193.488281 207.585938 C 196.191406 207.585938 198.449219 247.617188 203.566406 273.023438 C 206.800781 289.054688 212.539062 296.765625 212.539062 296.765625 C 212.539062 296.765625 203.46875 293.839844 193.699219 289.5625 C 193.699219 284.777344 193.710938 250.007812 193.710938 250.007812 Z M 185.292969 249.96875 " fill-opacity="1" fill-rule="nonzero"/><path fill="#720c0c" d="M 292.039062 216.902344 C 292.808594 216.902344 293.433594 217.527344 293.433594 218.296875 L 293.433594 246.292969 L 290.644531 246.292969 L 290.644531 218.296875 C 290.644531 217.527344 291.265625 216.902344 292.039062 216.902344 Z M 292.039062 216.902344 " fill-opacity="1" fill-rule="nonzero"/><path fill="#720c0c" d="M 192.355469 216.878906 C 193.125 216.878906 193.75 217.507812 193.75 218.277344 L 193.75 288.539062 L 190.960938 288.539062 L 190.960938 218.277344 C 190.960938 217.507812 191.585938 216.878906 192.355469 216.878906 Z M 192.355469 216.878906 " fill-opacity="1" fill-rule="nonzero"/><path fill="#ff5500" d="M 242.128906 205.6875 C 242.128906 205.6875 245.445312 218.691406 255.558594 217.285156 C 272.335938 214.945312 269.085938 192.378906 269.085938 192.378906 C 269.085938 192.378906 257.679688 205.6875 242.128906 205.6875 Z M 242.128906 205.6875 " fill-opacity="1" fill-rule="nonzero"/><path fill="#720c0c" d="M 254.054688 218.820312 C 250.054688 218.820312 246.5625 216.769531 243.875 212.816406 C 241.664062 209.570312 240.785156 206.179688 240.746094 206.035156 C 240.636719 205.609375 240.730469 205.152344 241 204.804688 C 241.273438 204.457031 241.6875 204.25 242.128906 204.25 C 256.847656 204.25 267.890625 191.570312 268 191.445312 C 268.367188 191.019531 268.949219 190.847656 269.484375 191 C 270.019531 191.15625 270.417969 191.617188 270.503906 192.171875 C 270.519531 192.296875 270.949219 195.367188 270.679688 199.394531 C 270.308594 204.882812 268.871094 209.335938 266.390625 212.632812 C 263.839844 216.027344 260.261719 218.066406 255.753906 218.695312 C 255.175781 218.78125 254.613281 218.820312 254.054688 218.820312 Z M 244.089844 207.046875 C 244.53125 208.195312 245.242188 209.761719 246.269531 211.261719 C 248.710938 214.8125 251.765625 216.363281 255.351562 215.867188 C 259.078125 215.347656 262.023438 213.683594 264.097656 210.921875 C 267.597656 206.265625 267.996094 199.527344 267.882812 195.648438 C 266.535156 196.917969 264.625 198.5625 262.246094 200.214844 C 256.371094 204.285156 250.140625 206.628906 244.089844 207.046875 Z M 244.089844 207.046875 " fill-opacity="1" fill-rule="nonzero"/><path fill="#ff5500" d="M 242.121094 205.6875 C 242.121094 205.6875 238.804688 218.691406 228.691406 217.285156 C 211.914062 214.945312 215.164062 192.378906 215.164062 192.378906 C 215.164062 192.378906 226.570312 205.6875 242.121094 205.6875 Z M 242.121094 205.6875 " fill-opacity="1" fill-rule="nonzero"/><path fill="#720c0c" d="M 230.195312 218.820312 C 229.636719 218.820312 229.074219 218.78125 228.492188 218.695312 C 223.988281 218.070312 220.40625 216.027344 217.855469 212.632812 C 215.378906 209.335938 213.933594 204.882812 213.566406 199.394531 C 213.292969 195.367188 213.726562 192.296875 213.742188 192.171875 C 213.820312 191.617188 214.21875 191.15625 214.761719 191 C 215.296875 190.847656 215.878906 191.019531 216.242188 191.445312 C 216.269531 191.476562 219.078125 194.710938 223.6875 197.898438 C 227.882812 200.792969 234.480469 204.25 242.113281 204.25 C 242.558594 204.25 242.972656 204.457031 243.242188 204.804688 C 243.515625 205.152344 243.609375 205.609375 243.496094 206.035156 C 243.457031 206.179688 242.578125 209.570312 240.371094 212.816406 C 237.6875 216.769531 234.191406 218.820312 230.195312 218.820312 Z M 216.359375 195.648438 C 216.253906 199.53125 216.652344 206.285156 220.144531 210.925781 C 222.222656 213.683594 225.160156 215.347656 228.886719 215.867188 C 232.472656 216.363281 235.53125 214.820312 237.96875 211.261719 C 238.996094 209.761719 239.710938 208.195312 240.148438 207.046875 C 234.105469 206.628906 227.867188 204.285156 221.988281 200.207031 C 219.621094 198.558594 217.710938 196.917969 216.359375 195.648438 Z M 216.359375 195.648438 " fill-opacity="1" fill-rule="nonzero"/><path fill="#720c0c" d="M 241.863281 207.09375 C 234.824219 207.09375 228.171875 205.09375 223.128906 201.453125 C 220.589844 199.621094 218.578125 197.464844 217.164062 195.050781 C 215.640625 192.457031 214.871094 189.695312 214.871094 186.832031 C 214.871094 183.96875 215.640625 181.199219 217.164062 178.609375 C 218.578125 176.195312 220.589844 174.039062 223.128906 172.207031 C 228.171875 168.574219 234.824219 166.570312 241.863281 166.570312 C 248.90625 166.570312 255.558594 168.566406 260.601562 172.207031 C 263.140625 174.039062 265.148438 176.195312 266.566406 178.609375 C 268.089844 181.203125 268.859375 183.96875 268.859375 186.832031 C 268.859375 189.695312 268.089844 192.464844 266.566406 195.050781 C 265.148438 197.464844 263.140625 199.621094 260.601562 201.453125 C 255.558594 205.09375 248.90625 207.09375 241.863281 207.09375 Z M 241.863281 172.296875 C 236.015625 172.296875 230.550781 173.914062 226.476562 176.847656 C 222.6875 179.578125 220.597656 183.125 220.597656 186.832031 C 220.597656 190.535156 222.6875 194.074219 226.476562 196.8125 C 230.550781 199.746094 236.015625 201.363281 241.863281 201.363281 C 247.714844 201.363281 253.179688 199.746094 257.253906 196.8125 C 261.042969 194.082031 263.128906 190.535156 263.128906 186.832031 C 263.128906 183.125 261.042969 179.585938 257.253906 176.847656 C 253.179688 173.914062 247.710938 172.296875 241.863281 172.296875 Z M 241.863281 172.296875 " fill-opacity="1" fill-rule="nonzero"/><path fill="#dddddd" d="M 265.992188 186.832031 C 265.992188 187.402344 265.953125 187.96875 265.875 188.535156 C 265.796875 189.101562 265.683594 189.664062 265.527344 190.226562 C 265.375 190.785156 265.183594 191.335938 264.953125 191.882812 C 264.722656 192.425781 264.457031 192.960938 264.15625 193.488281 C 263.851562 194.015625 263.515625 194.53125 263.144531 195.03125 C 262.769531 195.535156 262.363281 196.023438 261.925781 196.496094 C 261.488281 196.96875 261.015625 197.425781 260.515625 197.867188 C 260.015625 198.308594 259.484375 198.730469 258.925781 199.132812 C 258.367188 199.535156 257.78125 199.917969 257.171875 200.28125 C 256.558594 200.640625 255.925781 200.980469 255.269531 201.296875 C 254.613281 201.613281 253.933594 201.90625 253.238281 202.175781 C 252.542969 202.441406 251.828125 202.6875 251.097656 202.90625 C 250.367188 203.121094 249.625 203.3125 248.867188 203.480469 C 248.113281 203.644531 247.347656 203.785156 246.570312 203.894531 C 245.796875 204.003906 245.015625 204.089844 244.230469 204.144531 C 243.441406 204.199219 242.65625 204.230469 241.863281 204.230469 C 241.074219 204.230469 240.285156 204.199219 239.5 204.144531 C 238.714844 204.089844 237.933594 204.003906 237.15625 203.894531 C 236.382812 203.785156 235.617188 203.644531 234.859375 203.480469 C 234.105469 203.3125 233.363281 203.121094 232.632812 202.90625 C 231.902344 202.6875 231.1875 202.441406 230.492188 202.175781 C 229.792969 201.90625 229.117188 201.613281 228.460938 201.296875 C 227.804688 200.980469 227.167969 200.640625 226.558594 200.28125 C 225.949219 199.917969 225.363281 199.535156 224.804688 199.132812 C 224.246094 198.730469 223.714844 198.308594 223.214844 197.867188 C 222.714844 197.425781 222.242188 196.96875 221.804688 196.496094 C 221.363281 196.023438 220.960938 195.535156 220.585938 195.03125 C 220.214844 194.53125 219.875 194.015625 219.574219 193.488281 C 219.273438 192.960938 219.007812 192.425781 218.777344 191.882812 C 218.546875 191.335938 218.355469 190.785156 218.203125 190.226562 C 218.046875 189.664062 217.929688 189.101562 217.855469 188.535156 C 217.777344 187.96875 217.738281 187.402344 217.738281 186.832031 C 217.738281 186.261719 217.777344 185.691406 217.855469 185.125 C 217.929688 184.558594 218.046875 183.996094 218.203125 183.4375 C 218.355469 182.878906 218.546875 182.324219 218.777344 181.78125 C 219.007812 181.234375 219.273438 180.699219 219.574219 180.171875 C 219.875 179.644531 220.214844 179.132812 220.585938 178.628906 C 220.960938 178.125 221.363281 177.636719 221.804688 177.164062 C 222.242188 176.691406 222.714844 176.234375 223.214844 175.792969 C 223.714844 175.351562 224.246094 174.929688 224.804688 174.527344 C 225.363281 174.125 225.949219 173.742188 226.558594 173.382812 C 227.167969 173.019531 227.804688 172.679688 228.460938 172.363281 C 229.117188 172.046875 229.792969 171.753906 230.492188 171.488281 C 231.1875 171.21875 231.902344 170.976562 232.632812 170.757812 C 233.363281 170.539062 234.105469 170.347656 234.859375 170.179688 C 235.617188 170.015625 236.382812 169.878906 237.15625 169.765625 C 237.933594 169.65625 238.714844 169.570312 239.5 169.515625 C 240.285156 169.460938 241.074219 169.433594 241.863281 169.433594 C 242.65625 169.433594 243.441406 169.460938 244.230469 169.515625 C 245.015625 169.570312 245.796875 169.65625 246.570312 169.765625 C 247.347656 169.878906 248.113281 170.015625 248.867188 170.179688 C 249.625 170.347656 250.367188 170.539062 251.097656 170.757812 C 251.828125 170.976562 252.542969 171.21875 253.238281 171.488281 C 253.933594 171.753906 254.613281 172.046875 255.269531 172.363281 C 255.925781 172.679688 256.558594 173.019531 257.171875 173.382812 C 257.78125 173.742188 258.367188 174.125 258.925781 174.527344 C 259.484375 174.929688 260.015625 175.351562 260.515625 175.792969 C 261.015625 176.234375 261.488281 176.691406 261.925781 177.164062 C 262.363281 177.636719 262.769531 178.125 263.144531 178.628906 C 263.515625 179.132812 263.851562 179.644531 264.15625 180.171875 C 264.457031 180.699219 264.722656 181.234375 264.953125 181.78125 C 265.183594 182.324219 265.375 182.878906 265.527344 183.4375 C 265.683594 183.996094 265.796875 184.558594 265.875 185.125 C 265.953125 185.691406 265.992188 186.261719 265.992188 186.832031 Z M 265.992188 186.832031 " fill-opacity="1" fill-rule="nonzero"/><path fill="#e16c00" d="M 240.597656 301.617188 C 213.972656 301.617188 192.339844 290.164062 192.339844 290.164062 C 192.339844 290.164062 192.339844 269.644531 192.339844 244.382812 C 204.875 225.304688 196.273438 186.929688 196.273438 186.929688 C 196.59375 187.242188 203.746094 182.863281 203.746094 182.863281 C 203.746094 182.863281 210.96875 214.410156 212.042969 235.304688 L 272.300781 235.304688 C 273.371094 214.410156 280.597656 182.863281 280.597656 182.863281 C 280.597656 182.863281 287.75 187.242188 288.070312 186.929688 C 288.070312 186.929688 279.46875 225.304688 292.007812 244.382812 C 292.007812 269.644531 292.007812 291.820312 292.007812 291.820312 C 292.007812 291.820312 270.363281 301.617188 243.746094 301.617188 Z M 240.597656 301.617188 " fill-opacity="1" fill-rule="nonzero"/><g clip-path="url(#21b941fdd4)"><path fill="#720c0c" d="M 243.742188 303.046875 L 240.597656 303.046875 C 226.65625 303.046875 214.113281 299.894531 206.035156 297.246094 C 197.285156 294.378906 191.890625 291.542969 191.667969 291.425781 C 191.199219 291.175781 190.90625 290.6875 190.90625 290.164062 L 190.90625 244.382812 C 190.90625 244.105469 190.988281 243.828125 191.140625 243.59375 C 193.886719 239.417969 195.804688 233.878906 196.828125 227.136719 C 197.65625 221.675781 197.910156 215.429688 197.578125 208.570312 C 197.007812 196.851562 194.902344 187.339844 194.878906 187.242188 C 194.738281 186.625 195.023438 185.988281 195.570312 185.679688 C 195.765625 185.566406 195.980469 185.507812 196.195312 185.496094 C 197.082031 185.140625 200.324219 183.273438 203 181.636719 C 203.390625 181.398438 203.871094 181.359375 204.300781 181.535156 C 204.726562 181.710938 205.035156 182.082031 205.140625 182.53125 C 205.210938 182.84375 212.097656 213.089844 213.394531 233.859375 L 270.949219 233.859375 C 272.246094 213.089844 279.132812 182.84375 279.203125 182.53125 C 279.308594 182.082031 279.617188 181.710938 280.046875 181.535156 C 280.472656 181.359375 280.953125 181.390625 281.34375 181.636719 C 284.019531 183.269531 287.261719 185.140625 288.148438 185.496094 C 288.363281 185.507812 288.574219 185.566406 288.773438 185.679688 C 289.320312 185.988281 289.605469 186.621094 289.464844 187.242188 C 289.441406 187.335938 287.328125 196.890625 286.765625 208.617188 C 286.433594 215.46875 286.6875 221.710938 287.523438 227.167969 C 288.550781 233.894531 290.460938 239.425781 293.203125 243.59375 C 293.355469 243.828125 293.441406 244.105469 293.441406 244.382812 L 293.441406 291.820312 C 293.441406 292.382812 293.113281 292.894531 292.597656 293.121094 C 292.371094 293.21875 286.992188 295.640625 278.246094 298.09375 C 270.183594 300.355469 257.65625 303.046875 243.742188 303.046875 Z M 193.769531 289.28125 C 195.542969 290.152344 200.300781 292.363281 207 294.550781 C 214.859375 297.121094 227.070312 300.183594 240.601562 300.183594 L 243.746094 300.183594 C 257.3125 300.183594 269.539062 297.558594 277.414062 295.351562 C 284.019531 293.503906 288.746094 291.636719 290.578125 290.871094 L 290.578125 244.800781 C 287.734375 240.328125 285.75 234.535156 284.6875 227.570312 C 283.824219 221.921875 283.566406 215.480469 283.910156 208.425781 C 284.367188 198.9375 285.824219 190.839844 286.421875 187.851562 C 286.320312 187.800781 286.222656 187.75 286.117188 187.695312 C 285.464844 187.355469 284.582031 186.875 283.5 186.25 C 282.824219 185.855469 282.144531 185.457031 281.5625 185.113281 C 279.996094 192.277344 274.632812 217.792969 273.730469 235.375 C 273.691406 236.132812 273.058594 236.730469 272.300781 236.730469 L 212.042969 236.730469 C 211.277344 236.730469 210.652344 236.132812 210.613281 235.375 C 209.710938 217.800781 204.347656 192.28125 202.78125 185.113281 C 202.203125 185.460938 201.527344 185.859375 200.84375 186.25 C 199.765625 186.875 198.886719 187.363281 198.226562 187.695312 C 198.128906 187.746094 198.027344 187.800781 197.921875 187.851562 C 198.515625 190.847656 199.96875 198.945312 200.433594 208.425781 C 200.777344 215.480469 200.519531 221.914062 199.65625 227.570312 C 198.59375 234.535156 196.617188 240.328125 193.765625 244.800781 L 193.765625 289.28125 Z M 287.078125 185.894531 Z M 197.265625 185.894531 Z M 197.257812 185.890625 Z M 197.257812 185.890625 " fill-opacity="1" fill-rule="nonzero"/></g><path fill="#720c0c" d="M 242.496094 280.945312 L 242.460938 280.945312 C 231.726562 280.8125 223.925781 277.695312 219.289062 271.679688 C 212.519531 262.886719 215.292969 251.359375 215.414062 250.875 L 215.957031 248.703125 L 269.035156 248.703125 L 269.578125 250.875 C 269.699219 251.359375 272.480469 262.886719 265.703125 271.679688 C 261.066406 277.699219 253.273438 280.816406 242.527344 280.945312 Z M 220.621094 254.429688 C 220.285156 257.59375 220.25 263.582031 223.84375 268.210938 C 227.359375 272.746094 233.632812 275.101562 242.496094 275.21875 C 251.355469 275.101562 257.632812 272.746094 261.148438 268.210938 C 264.734375 263.582031 264.707031 257.59375 264.371094 254.429688 Z M 220.621094 254.429688 " fill-opacity="1" fill-rule="nonzero"/><path fill="#ffcc00" d="M 218.1875 251.566406 C 218.1875 251.566406 225.414062 251.566406 242.460938 251.566406 L 242.519531 251.566406 C 259.566406 251.566406 266.792969 251.566406 266.792969 251.566406 C 266.792969 251.566406 273.324219 277.703125 242.488281 278.082031 C 211.65625 277.703125 218.1875 251.566406 218.1875 251.566406 Z M 218.1875 251.566406 " fill-opacity="1" fill-rule="nonzero"/><path fill="#f4ae98" d="M 187.722656 284.988281 C 205.933594 290.0625 234.136719 274.253906 291.996094 247.820312 C 291.996094 237.863281 291.996094 236.054688 291.996094 236.054688 C 291.996094 236.054688 208.683594 242.742188 168.675781 251.25 C 167.851562 266.253906 168.84375 279.726562 187.722656 284.988281 Z M 187.722656 284.988281 " fill-opacity="1" fill-rule="nonzero"/><path fill="#720c0c" d="M 195.039062 287.359375 C 192.238281 287.359375 189.699219 287.027344 187.335938 286.367188 C 178.261719 283.835938 172.421875 279.25 169.488281 272.332031 C 166.988281 266.433594 166.78125 259.601562 167.242188 251.171875 C 167.277344 250.523438 167.742188 249.988281 168.371094 249.847656 C 208.007812 241.417969 291.039062 234.695312 291.875 234.628906 C 292.273438 234.59375 292.664062 234.734375 292.957031 235.003906 C 293.25 235.277344 293.417969 235.65625 293.417969 236.054688 L 293.417969 247.820312 C 293.417969 248.382812 293.089844 248.890625 292.582031 249.125 C 283.074219 253.464844 274.195312 257.605469 266.363281 261.253906 C 246.199219 270.648438 230.273438 278.066406 217.675781 282.511719 C 208.445312 285.773438 201.136719 287.359375 195.039062 287.359375 Z M 170.046875 252.425781 C 169.683594 259.953125 169.945312 266.066406 172.125 271.214844 C 173.363281 274.132812 175.144531 276.515625 177.570312 278.496094 C 180.28125 280.71875 183.730469 282.386719 188.109375 283.609375 C 190.261719 284.214844 192.582031 284.5 195.09375 284.5 C 209.699219 284.5 230.855469 274.640625 265.167969 258.660156 C 272.773438 255.117188 281.367188 251.117188 290.574219 246.90625 L 290.574219 237.613281 C 279.097656 238.566406 206.867188 244.769531 170.046875 252.425781 Z M 170.046875 252.425781 " fill-opacity="1" fill-rule="nonzero"/><path fill="#ed9077" d="M 171.515625 269.605469 C 171.515625 269.605469 175.839844 287.375 200.890625 284.121094 C 225.941406 280.863281 290.5 247.0625 290.5 247.0625 L 290.5 242.558594 C 290.5 242.558594 254.871094 255.597656 223.332031 264.609375 C 191.796875 273.617188 171.515625 269.605469 171.515625 269.605469 Z M 171.515625 269.605469 " fill-opacity="1" fill-rule="nonzero"/><path fill="#f9e6e1" d="M 170.113281 252.292969 C 169.914062 254.445312 169.976562 257.121094 169.910156 259.496094 C 178.011719 254.84375 269.644531 239.464844 269.644531 239.464844 C 269.644531 239.464844 241.128906 241.472656 216.089844 244.929688 C 208.554688 245.972656 181.933594 250.039062 170.113281 252.292969 Z M 170.113281 252.292969 " fill-opacity="1" fill-rule="nonzero"/><path fill="#720c0c" d="M 185.320312 109.9375 C 186.089844 109.9375 186.714844 110.5625 186.714844 111.332031 L 186.714844 166.667969 L 183.925781 166.667969 L 183.925781 111.332031 C 183.917969 110.5625 184.542969 109.9375 185.320312 109.9375 Z M 185.320312 109.9375 " fill-opacity="1" fill-rule="nonzero"/><path fill="#720c0c" d="M 246.554688 202.578125 L 240.023438 202.578125 C 231.679688 202.578125 223.589844 200.949219 215.964844 197.738281 C 208.605469 194.636719 201.984375 190.1875 196.300781 184.527344 C 190.609375 178.867188 186.132812 172.273438 182.996094 164.921875 C 180.128906 158.222656 178.484375 151.148438 178.101562 143.851562 C 175.789062 143.546875 173.683594 142.839844 171.832031 141.746094 C 169.507812 140.375 167.609375 138.425781 166.183594 135.941406 C 164.34375 132.726562 163.355469 128.582031 163.40625 124.277344 C 163.449219 120.394531 164.320312 116.746094 165.78125 114.246094 C 167.828125 110.769531 171.347656 108.707031 175.972656 108.285156 C 177.050781 108.1875 178.070312 108.191406 178.941406 108.242188 C 181.355469 94.5 188.375 81.925781 198.902344 72.585938 C 210.242188 62.523438 224.851562 56.984375 240.027344 56.984375 L 246.558594 56.984375 C 261.828125 56.984375 276.507812 62.589844 287.875 72.769531 C 298.34375 82.136719 305.296875 94.703125 307.664062 108.429688 C 308.527344 108.363281 309.519531 108.335938 310.574219 108.410156 C 315.203125 108.722656 318.738281 110.746094 320.800781 114.246094 C 322.265625 116.738281 323.128906 120.394531 323.171875 124.277344 C 323.222656 128.582031 322.238281 132.726562 320.394531 135.941406 C 318.976562 138.425781 317.078125 140.378906 314.75 141.746094 C 312.894531 142.839844 310.792969 143.546875 308.476562 143.851562 C 308.097656 151.140625 306.453125 158.210938 303.589844 164.90625 C 300.445312 172.257812 295.96875 178.855469 290.285156 184.515625 C 284.59375 190.175781 277.976562 194.625 270.613281 197.726562 C 262.984375 200.949219 254.894531 202.578125 246.554688 202.578125 Z M 180.863281 138.019531 C 180.871094 138.019531 180.875 138.019531 180.875 138.019531 C 182.441406 138.027344 183.714844 139.292969 183.726562 140.867188 C 183.769531 148.433594 185.292969 155.773438 188.242188 162.675781 C 191.09375 169.34375 195.160156 175.332031 200.324219 180.472656 C 205.488281 185.613281 211.5 189.644531 218.179688 192.464844 C 225.097656 195.378906 232.445312 196.855469 240.015625 196.855469 L 246.546875 196.855469 C 254.121094 196.855469 261.46875 195.378906 268.386719 192.457031 C 275.070312 189.640625 281.078125 185.605469 286.246094 180.460938 C 291.410156 175.320312 295.476562 169.332031 298.328125 162.65625 C 301.277344 155.757812 302.800781 148.417969 302.839844 140.84375 C 302.847656 139.273438 304.117188 138.003906 305.6875 137.996094 C 306.113281 137.996094 306.53125 138.09375 306.894531 138.257812 C 310.757812 137.96875 313.625 136.238281 315.417969 133.097656 C 318.414062 127.855469 317.695312 120.273438 315.855469 117.148438 C 314.789062 115.332031 312.972656 114.347656 310.308594 114.128906 C 309.007812 114.023438 307.804688 114.148438 307 114.269531 C 306.570312 114.59375 306.042969 114.800781 305.472656 114.839844 C 303.949219 114.9375 302.621094 113.835938 302.4375 112.320312 C 300.824219 98.730469 294.292969 86.203125 284.050781 77.039062 C 273.730469 67.800781 260.40625 62.714844 246.546875 62.714844 L 240.015625 62.714844 C 226.238281 62.714844 212.984375 67.746094 202.6875 76.878906 C 192.476562 85.9375 185.90625 98.34375 184.179688 111.816406 C 183.984375 113.316406 182.667969 114.40625 181.15625 114.308594 C 180.957031 114.296875 180.765625 114.261719 180.582031 114.214844 C 180.160156 114.128906 178.367188 113.804688 176.34375 114.007812 C 173.667969 114.28125 171.777344 115.335938 170.707031 117.15625 C 168.871094 120.277344 168.144531 127.863281 171.144531 133.101562 C 172.945312 136.253906 175.820312 137.988281 179.707031 138.269531 C 180.0625 138.109375 180.449219 138.019531 180.863281 138.019531 Z M 180.863281 138.019531 " fill-opacity="1" fill-rule="nonzero"/><path fill="#f4ae98" d="M 168.238281 115.703125 C 172.046875 109.21875 181.34375 111.449219 181.34375 111.449219 L 181.34375 111.453125 C 185.074219 82.347656 209.921875 59.859375 240.015625 59.859375 L 246.546875 59.859375 C 276.828125 59.859375 301.792969 82.628906 305.285156 111.992188 L 305.277344 111.703125 C 305.277344 111.703125 314.515625 109.222656 318.324219 115.707031 C 322.132812 122.195312 321.695312 141.175781 305.703125 141.175781 L 305.699219 140.871094 C 305.511719 173.410156 279.097656 199.726562 246.546875 199.726562 L 240.015625 199.726562 C 207.46875 199.726562 181.0625 173.421875 180.863281 140.894531 L 180.859375 141.183594 C 164.867188 141.171875 164.429688 122.191406 168.238281 115.703125 Z M 168.238281 115.703125 " fill-opacity="1" fill-rule="nonzero"/><path fill="#720c0c" d="M 265.460938 120.660156 C 265.460938 125.191406 269.128906 128.871094 273.664062 128.871094 C 278.191406 128.871094 281.867188 125.195312 281.867188 120.660156 C 281.867188 116.128906 278.195312 112.453125 273.664062 112.453125 C 269.128906 112.453125 265.460938 116.125 265.460938 120.660156 Z M 265.460938 120.660156 " fill-opacity="1" fill-rule="nonzero"/><path fill="#ed9077" d="M 243.347656 172.816406 C 246.972656 172.816406 249.238281 170.917969 249.238281 170.917969 C 249.238281 170.917969 248.640625 176.5 243.347656 176.5 C 238.058594 176.5 237.457031 170.917969 237.457031 170.917969 C 237.457031 170.917969 239.722656 172.816406 243.347656 172.816406 Z M 243.347656 172.816406 " fill-opacity="1" fill-rule="nonzero"/><path fill="#ed9077" d="M 309.933594 132.554688 C 309.933594 132.554688 312.902344 128.964844 309.835938 126.195312 C 306.761719 123.417969 309.53125 118.914062 312.90625 120.035156 C 316.277344 121.148438 316.441406 131.710938 309.933594 132.554688 Z M 309.933594 132.554688 " fill-opacity="1" fill-rule="nonzero"/><path fill="#f9e6e1" d="M 305.238281 111.777344 C 305.238281 111.777344 314.238281 108.789062 318.441406 115.804688 C 322.640625 122.816406 318.851562 132.582031 318.402344 133.449219 C 319.792969 129.003906 321.003906 110.292969 305.449219 113.726562 C 305.449219 113.066406 305.238281 112.578125 305.238281 111.777344 Z M 305.238281 111.777344 " fill-opacity="1" fill-rule="nonzero"/><path fill="#ed9077" d="M 305.699219 141.171875 C 305.699219 141.171875 300.773438 142.511719 297.773438 153.09375 C 294.777344 163.667969 287.992188 189.179688 260.550781 198.046875 C 285.160156 192.46875 305.273438 169.609375 305.699219 141.171875 Z M 305.699219 141.171875 " fill-opacity="1" fill-rule="nonzero"/><path fill="#ed9077" d="M 176.636719 132.554688 C 176.636719 132.554688 173.667969 128.964844 176.734375 126.195312 C 179.808594 123.417969 177.042969 118.914062 173.664062 120.035156 C 170.292969 121.148438 170.121094 131.710938 176.636719 132.554688 Z M 176.636719 132.554688 " fill-opacity="1" fill-rule="nonzero"/><path fill="#f9e6e1" d="M 181.328125 111.777344 C 181.328125 111.777344 172.324219 108.773438 168.121094 115.785156 C 163.921875 122.796875 167.722656 132.574219 168.167969 133.449219 C 166.777344 129.003906 165.566406 110.292969 181.117188 113.726562 C 181.117188 113.167969 181.328125 112.9375 181.328125 111.777344 Z M 181.328125 111.777344 " fill-opacity="1" fill-rule="nonzero"/><path fill="#ed9077" d="M 180.863281 141.171875 C 180.863281 141.171875 185.789062 142.511719 188.789062 153.09375 C 191.785156 163.667969 198.570312 189.179688 226.011719 198.046875 C 201.402344 192.46875 181.289062 169.609375 180.863281 141.171875 Z M 180.863281 141.171875 " fill-opacity="1" fill-rule="nonzero"/><path fill="#e04c34" d="M 290.128906 130.382812 C 293.875 130.382812 296.910156 131.75 296.910156 133.445312 C 296.910156 135.132812 293.871094 136.507812 290.128906 136.507812 C 286.382812 136.507812 283.347656 135.140625 283.347656 133.445312 C 283.347656 131.75 286.382812 130.382812 290.128906 130.382812 Z M 290.128906 130.382812 " fill-opacity="1" fill-rule="nonzero"/><path fill="#e04c34" d="M 196.4375 130.382812 C 200.1875 130.382812 203.21875 131.75 203.21875 133.445312 C 203.21875 135.132812 200.179688 136.507812 196.4375 136.507812 C 192.691406 136.507812 189.660156 135.140625 189.660156 133.445312 C 189.652344 131.75 192.691406 130.382812 196.4375 130.382812 Z M 196.4375 130.382812 " fill-opacity="1" fill-rule="nonzero"/><path fill="#ffffff" d="M 273.464844 118.738281 C 273.464844 120.265625 274.703125 121.507812 276.230469 121.507812 C 277.757812 121.507812 279 120.265625 279 118.738281 C 279 117.210938 277.757812 115.96875 276.230469 115.96875 C 274.703125 115.96875 273.464844 117.210938 273.464844 118.738281 Z M 273.464844 118.738281 " fill-opacity="1" fill-rule="nonzero"/><path fill="#720c0c" d="M 204.691406 120.660156 C 204.691406 125.191406 208.363281 128.871094 212.894531 128.871094 C 217.421875 128.871094 221.097656 125.195312 221.097656 120.660156 C 221.097656 116.128906 217.429688 112.453125 212.894531 112.453125 C 208.363281 112.453125 204.691406 116.125 204.691406 120.660156 Z M 204.691406 120.660156 " fill-opacity="1" fill-rule="nonzero"/><path fill="#ffffff" d="M 212.695312 118.738281 C 212.695312 120.265625 213.933594 121.507812 215.464844 121.507812 C 216.992188 121.507812 218.230469 120.265625 218.230469 118.738281 C 218.230469 117.210938 216.992188 115.96875 215.464844 115.96875 C 213.933594 115.96875 212.695312 117.210938 212.695312 118.738281 Z M 212.695312 118.738281 " fill-opacity="1" fill-rule="nonzero"/><path fill="#720c0c" d="M 243.214844 167.871094 L 243.1875 167.871094 C 240.535156 167.871094 238.292969 167.3125 236.519531 166.214844 C 235.011719 165.285156 233.839844 163.964844 233.03125 162.296875 C 232.859375 161.945312 233.003906 161.511719 233.363281 161.339844 C 233.71875 161.167969 234.148438 161.3125 234.320312 161.671875 C 235.859375 164.835938 238.847656 166.4375 243.191406 166.4375 L 243.222656 166.4375 C 247.664062 166.4375 250.683594 164.761719 252.191406 161.46875 C 252.359375 161.105469 252.78125 160.953125 253.140625 161.113281 C 253.5 161.277344 253.652344 161.699219 253.492188 162.058594 C 251.289062 166.863281 246.6875 167.871094 243.214844 167.871094 Z M 243.214844 167.871094 " fill-opacity="1" fill-rule="nonzero"/><path fill="#f4ae98" d="M 298.636719 284.988281 C 280.089844 290.0625 251.355469 274.253906 192.414062 247.820312 C 192.414062 237.863281 192.414062 236.054688 192.414062 236.054688 C 192.414062 236.054688 277.289062 242.742188 318.035156 251.25 C 318.878906 266.253906 317.871094 279.726562 298.636719 284.988281 Z M 298.636719 284.988281 " fill-opacity="1" fill-rule="nonzero"/><path fill="#720c0c" d="M 291.179688 287.359375 C 284.976562 287.359375 277.539062 285.773438 268.128906 282.519531 C 255.296875 278.074219 239.074219 270.652344 218.539062 261.257812 C 210.566406 257.609375 201.519531 253.476562 191.828125 249.128906 C 191.3125 248.894531 190.980469 248.386719 190.980469 247.820312 L 190.980469 236.054688 C 190.980469 235.65625 191.148438 235.277344 191.441406 235.003906 C 191.734375 234.734375 192.128906 234.59375 192.527344 234.628906 C 193.378906 234.695312 277.953125 241.417969 318.332031 249.847656 C 318.96875 249.980469 319.433594 250.523438 319.464844 251.171875 C 319.933594 259.609375 319.730469 266.4375 317.179688 272.34375 C 314.191406 279.257812 308.25 283.84375 299.011719 286.367188 L 298.636719 284.988281 L 299.011719 286.367188 C 296.617188 287.027344 294.027344 287.359375 291.179688 287.359375 Z M 193.847656 246.898438 C 203.230469 251.105469 211.980469 255.109375 219.730469 258.65625 C 254.683594 274.640625 276.242188 284.5 291.132812 284.5 C 293.695312 284.5 296.058594 284.207031 298.253906 283.609375 C 302.714844 282.386719 306.238281 280.710938 309.003906 278.492188 C 311.472656 276.507812 313.289062 274.125 314.550781 271.207031 C 316.773438 266.066406 317.035156 259.957031 316.664062 252.4375 C 279.125 244.769531 205.429688 238.558594 193.84375 237.613281 L 193.84375 246.898438 Z M 193.847656 246.898438 " fill-opacity="1" fill-rule="nonzero"/><path fill="#ed9077" d="M 315.148438 269.605469 C 315.148438 269.605469 310.742188 287.375 285.226562 284.121094 C 259.710938 280.863281 193.941406 247.0625 193.941406 247.0625 L 193.941406 242.558594 C 193.941406 242.558594 230.234375 255.597656 262.367188 264.609375 C 294.484375 273.617188 315.148438 269.605469 315.148438 269.605469 Z M 315.148438 269.605469 " fill-opacity="1" fill-rule="nonzero"/><path fill="#f9e6e1" d="M 316.570312 252.292969 C 316.769531 254.445312 316.714844 257.121094 316.78125 259.496094 C 308.523438 254.84375 215.179688 239.464844 215.179688 239.464844 C 215.179688 239.464844 244.234375 241.472656 269.738281 244.929688 C 277.414062 245.972656 304.539062 250.039062 316.570312 252.292969 Z M 316.570312 252.292969 " fill-opacity="1" fill-rule="nonzero"/><path fill="#ed9077" d="M 182.53125 91.058594 C 185.296875 80.796875 243.371094 79.457031 243.371094 79.457031 L 243.492188 79.457031 C 243.492188 79.457031 301.566406 80.796875 304.332031 91.058594 C 308.21875 105.484375 306.730469 130.785156 306.730469 130.785156 C 306.730469 130.785156 303.957031 137.863281 301.539062 136.609375 C 299.117188 135.355469 299.300781 112.328125 293.925781 98.804688 C 293.390625 106.332031 293.925781 107.40625 289.984375 106.507812 C 286.042969 105.609375 272.710938 102.925781 269.933594 102.476562 C 267.160156 102.027344 266.441406 98.175781 266.441406 98.175781 C 266.441406 98.175781 266.441406 102.121094 263.394531 102.121094 C 260.351562 102.121094 250.777344 101.945312 247.011719 101.945312 C 243.25 101.945312 243.429688 98.808594 243.429688 98.808594 L 243.414062 98.808594 C 243.414062 98.808594 243.589844 101.945312 239.832031 101.945312 C 236.074219 101.945312 226.496094 102.121094 223.449219 102.121094 C 220.40625 102.121094 220.40625 98.175781 220.40625 98.175781 C 220.40625 98.175781 219.691406 102.027344 216.914062 102.476562 C 214.132812 102.925781 200.800781 105.609375 196.859375 106.507812 C 192.917969 107.40625 193.457031 106.332031 192.917969 98.804688 C 187.550781 112.328125 187.726562 135.355469 185.308594 136.609375 C 182.890625 137.859375 180.117188 130.785156 180.117188 130.785156 C 180.117188 130.785156 178.644531 105.484375 182.53125 91.058594 Z M 182.53125 91.058594 " fill-opacity="1" fill-rule="nonzero"/><path fill="#720c0c" d="M 243.613281 37.851562 L 243.203125 37.851562 C 171.488281 37.851562 169.511719 95.390625 169.433594 111.160156 C 172.894531 110.125 176 109.789062 176 109.789062 C 176 109.789062 178.941406 132.230469 182.878906 132.121094 C 186.261719 132.503906 184.3125 104.226562 195.859375 88.671875 C 197.558594 86.386719 193.230469 104.421875 196.910156 103.707031 C 196.910156 103.707031 204.847656 101.621094 216.660156 99.527344 C 218.976562 99.121094 219.355469 85.5 220.570312 85.304688 C 221.484375 85.15625 221.390625 98.796875 224.121094 98.796875 C 228.640625 98.796875 233.792969 98.664062 239.789062 98.664062 C 242.003906 98.664062 242.113281 83.675781 243.363281 83.675781 L 243.453125 83.675781 C 244.703125 83.675781 244.816406 98.664062 247.027344 98.664062 C 253.023438 98.664062 258.175781 98.796875 262.699219 98.796875 C 265.421875 98.796875 265.332031 85.15625 266.246094 85.304688 C 267.464844 85.503906 267.839844 99.121094 270.160156 99.527344 C 281.976562 101.617188 289.910156 103.707031 289.910156 103.707031 C 293.589844 104.421875 289.261719 86.386719 290.960938 88.671875 C 302.507812 104.226562 300.558594 132.507812 303.9375 132.121094 C 307.875 132.230469 310.820312 109.789062 310.820312 109.789062 C 310.820312 109.789062 313.925781 110.125 317.382812 111.160156 C 317.304688 95.386719 315.332031 37.851562 243.613281 37.851562 Z M 243.613281 37.851562 " fill-opacity="1" fill-rule="nonzero"/><path fill="#ed9077" d="M 236.855469 147.34375 C 240.164062 147.34375 244.78125 147.34375 249.90625 147.34375 C 251.5625 155.074219 249.824219 157.339844 243.6875 157.339844 L 243.117188 157.339844 C 236.976562 157.339844 235.199219 155.074219 236.855469 147.34375 Z M 236.855469 147.34375 " fill-opacity="1" fill-rule="nonzero"/><path fill="#f4ae98" d="M 249.003906 145.164062 L 242.019531 133.839844 C 242.019531 133.839844 239.054688 138.429688 237.800781 145.164062 C 236.644531 151.378906 238.285156 153.152344 243.175781 153.152344 L 243.628906 153.152344 C 248.523438 153.152344 250.320312 151.339844 249.003906 145.164062 Z M 249.003906 145.164062 " fill-opacity="1" fill-rule="nonzero"/><path fill="#720c0c" d="M 243.628906 153.75 L 243.175781 153.75 C 240.503906 153.75 238.875 153.226562 237.894531 152.046875 C 236.777344 150.699219 236.566406 148.542969 237.214844 145.058594 C 238.476562 138.292969 241.398438 133.710938 241.523438 133.515625 C 241.699219 133.238281 242.070312 133.164062 242.347656 133.339844 C 242.625 133.515625 242.699219 133.886719 242.523438 134.164062 C 242.496094 134.210938 239.601562 138.75 238.390625 145.277344 C 237.820312 148.339844 237.953125 150.246094 238.816406 151.28125 C 239.546875 152.160156 240.890625 152.554688 243.183594 152.554688 L 243.636719 152.554688 C 245.945312 152.554688 247.359375 152.128906 248.097656 151.21875 C 248.960938 150.15625 249.066406 148.273438 248.429688 145.292969 C 248.363281 144.972656 248.566406 144.65625 248.886719 144.585938 C 249.210938 144.515625 249.523438 144.722656 249.597656 145.042969 C 250.316406 148.402344 250.132812 150.605469 249.027344 151.972656 C 248.023438 153.203125 246.363281 153.75 243.628906 153.75 Z M 243.628906 153.75 " fill-opacity="1" fill-rule="nonzero"/><path fill="#720c0c" d="M 281.277344 103.878906 C 283.027344 104.851562 282.136719 106.136719 280.6875 105.476562 C 280.6875 105.476562 275.644531 102.859375 268.238281 105.628906 C 267.078125 106.058594 265.820312 106.675781 265.210938 105.847656 C 264.027344 104.296875 271.792969 99.695312 281.277344 103.878906 Z M 281.277344 103.878906 " fill-opacity="1" fill-rule="nonzero"/><path fill="#720c0c" d="M 205.3125 103.878906 C 203.5625 104.851562 204.453125 106.136719 205.902344 105.476562 C 205.902344 105.476562 210.945312 102.859375 218.351562 105.628906 C 219.515625 106.058594 220.769531 106.675781 221.378906 105.847656 C 222.5625 104.296875 214.796875 99.695312 205.3125 103.878906 Z M 205.3125 103.878906 " fill-opacity="1" fill-rule="nonzero"/><g clip-path="url(#9fe77299e9)"><path fill="#720c0c" d="M 193.074219 75.953125 C 192.613281 75.953125 192.160156 75.949219 191.710938 75.945312 C 183.820312 75.84375 179.414062 74.820312 176.96875 72.53125 C 175.644531 71.296875 174.945312 69.691406 174.945312 67.894531 C 174.945312 57.558594 182.511719 46.992188 195.707031 38.902344 C 202.128906 34.972656 209.457031 31.859375 217.5 29.664062 C 226.027344 27.339844 234.953125 26.160156 244.027344 26.160156 C 253.105469 26.160156 262.035156 27.339844 270.558594 29.664062 C 278.601562 31.859375 285.929688 34.972656 292.347656 38.902344 C 305.542969 46.996094 313.117188 57.566406 313.117188 67.902344 C 313.117188 69.679688 312.429688 71.257812 311.136719 72.46875 C 306.796875 76.535156 296.40625 76.050781 276.890625 74.757812 C 267.429688 74.132812 256.710938 73.421875 245.988281 73.484375 C 235.417969 73.546875 224.617188 74.265625 215.085938 74.898438 C 206.613281 75.460938 199.210938 75.953125 193.074219 75.953125 Z M 244.027344 31.886719 C 235.460938 31.886719 227.042969 33 219.003906 35.191406 C 211.488281 37.246094 204.652344 40.140625 198.699219 43.789062 C 193.058594 47.246094 188.429688 51.304688 185.308594 55.527344 C 182.226562 59.699219 180.664062 63.855469 180.664062 67.902344 C 180.664062 68.09375 180.691406 68.1875 180.875 68.355469 C 181.574219 69.007812 183.917969 70.121094 191.785156 70.222656 C 197.949219 70.300781 205.710938 69.785156 214.699219 69.1875 C 224.308594 68.542969 235.199219 67.816406 245.949219 67.757812 C 256.875 67.695312 267.707031 68.410156 277.261719 69.042969 C 285.296875 69.574219 292.238281 70.035156 297.695312 69.949219 C 304.546875 69.84375 306.601562 68.863281 307.214844 68.289062 C 307.355469 68.15625 307.382812 68.09375 307.382812 67.902344 C 307.382812 63.855469 305.820312 59.699219 302.738281 55.527344 C 299.617188 51.304688 294.988281 47.246094 289.347656 43.789062 C 283.394531 40.140625 276.558594 37.242188 269.042969 35.191406 C 261.015625 33 252.597656 31.886719 244.027344 31.886719 Z M 244.027344 31.886719 " fill-opacity="1" fill-rule="nonzero"/></g><path fill="#e16c00" d="M 177.808594 67.902344 C 177.808594 77.570312 212.226562 70.808594 245.972656 70.621094 C 278.421875 70.4375 310.253906 77.199219 310.253906 67.902344 C 310.253906 48.933594 280.605469 29.023438 244.035156 29.023438 C 207.453125 29.023438 177.808594 48.929688 177.808594 67.902344 Z M 177.808594 67.902344 " fill-opacity="1" fill-rule="nonzero"/><path fill="#720c0c" d="M 321.007812 100.738281 C 318.3125 100.738281 316.582031 100.636719 316.4375 100.632812 C 315.273438 100.566406 314.273438 99.796875 313.898438 98.691406 C 311.988281 93.066406 303.574219 88.515625 289.566406 85.542969 C 283.015625 84.152344 268.804688 81.820312 247.207031 81.820312 L 239.867188 81.820312 C 230.59375 81.820312 212.765625 82.300781 197.507812 85.542969 C 183.5 88.515625 175.085938 93.066406 173.175781 98.691406 C 172.800781 99.796875 171.796875 100.558594 170.636719 100.632812 C 170.351562 100.648438 163.65625 101.03125 155.613281 100.242188 C 144.476562 99.148438 136.496094 96.394531 131.894531 92.0625 C 128.851562 89.191406 127.3125 85.6875 127.3125 81.636719 C 127.3125 76.109375 130.390625 71.167969 136.46875 66.941406 C 141.824219 63.214844 149.609375 60.019531 159.597656 57.4375 C 178.886719 52.453125 206.074219 49.816406 238.222656 49.816406 C 238.257812 49.816406 238.285156 49.816406 238.316406 49.816406 L 244.558594 50.015625 C 277.074219 50.015625 304.980469 52.613281 325.265625 57.519531 C 335.847656 60.078125 344.117188 63.242188 349.839844 66.910156 C 356.421875 71.128906 359.757812 76.082031 359.757812 81.632812 C 359.757812 85.679688 358.214844 89.1875 355.175781 92.058594 C 350.578125 96.394531 342.601562 99.148438 331.460938 100.238281 C 327.425781 100.636719 323.726562 100.738281 321.007812 100.738281 Z M 170.46875 97.773438 Z M 318.523438 94.976562 C 320.976562 95.035156 325.71875 95.054688 330.976562 94.53125 C 340.648438 93.574219 347.660156 91.277344 351.253906 87.886719 C 353.125 86.117188 354.035156 84.074219 354.035156 81.632812 C 354.035156 78.164062 351.585938 74.832031 346.753906 71.734375 C 341.566406 68.410156 333.882812 65.503906 323.921875 63.09375 C 314.074219 60.710938 302.222656 58.871094 288.683594 57.621094 C 275.207031 56.375 260.347656 55.75 244.515625 55.75 C 244.484375 55.75 244.457031 55.75 244.421875 55.75 L 238.179688 55.546875 C 206.53125 55.546875 179.851562 58.125 161.03125 62.988281 C 151.707031 65.398438 144.539062 68.316406 139.738281 71.652344 C 135.292969 74.742188 133.042969 78.105469 133.042969 81.644531 C 133.042969 84.085938 133.953125 86.128906 135.824219 87.898438 C 139.417969 91.285156 146.425781 93.585938 156.101562 94.542969 C 161.359375 95.066406 166.101562 95.046875 168.554688 94.988281 C 170.3125 91.523438 173.585938 88.507812 178.308594 85.992188 C 182.882812 83.546875 188.945312 81.519531 196.324219 79.953125 C 203.09375 78.515625 217.75 76.105469 239.871094 76.105469 L 247.207031 76.105469 C 256.699219 76.105469 274.984375 76.601562 290.753906 79.953125 C 298.132812 81.519531 304.195312 83.554688 308.769531 85.992188 C 313.492188 88.496094 316.765625 91.515625 318.523438 94.976562 Z M 318.523438 94.976562 " fill-opacity="1" fill-rule="nonzero"/><path fill="#e16c00" d="M 239.871094 78.957031 C 212.773438 78.957031 175.5625 82.785156 170.46875 97.773438 C 170.46875 97.773438 130.179688 100.167969 130.179688 81.632812 C 130.179688 63.097656 174.527344 52.675781 238.222656 52.675781 L 244.511719 52.878906 C 308.207031 52.878906 356.890625 63.097656 356.890625 81.632812 C 356.890625 100.167969 316.601562 97.773438 316.601562 97.773438 C 311.515625 82.785156 274.304688 78.957031 247.199219 78.957031 Z M 239.871094 78.957031 " fill-opacity="1" fill-rule="nonzero"/><path fill="#ffffff" d="M 205.457031 40.660156 C 220.914062 33.105469 258.546875 29.195312 282.105469 41.023438 C 290.203125 46.375 271.050781 41.074219 244.105469 41.46875 C 227.160156 41.710938 198.996094 43.816406 205.457031 40.660156 Z M 205.457031 40.660156 " fill-opacity="1" fill-rule="nonzero"/><path fill="#720c0c" d="M 306.320312 108.074219 C 307.109375 108.019531 307.792969 108.613281 307.847656 109.40625 C 309.042969 126.433594 308.535156 142.976562 308.527344 143.144531 C 308.503906 143.917969 307.871094 144.527344 307.101562 144.527344 C 307.082031 144.527344 307.066406 144.527344 307.054688 144.527344 C 306.265625 144.5 305.644531 143.839844 305.671875 143.050781 C 305.675781 142.882812 306.179688 126.480469 304.996094 109.605469 C 304.9375 108.8125 305.527344 108.132812 306.320312 108.074219 Z M 306.320312 108.074219 " fill-opacity="1" fill-rule="nonzero"/><path fill="#720c0c" d="M 178.695312 109.40625 C 178.75 108.617188 179.429688 108.019531 180.222656 108.074219 C 181.007812 108.132812 181.605469 108.816406 181.550781 109.605469 C 180.367188 126.480469 180.871094 142.882812 180.875 143.050781 C 180.902344 143.839844 180.28125 144.5 179.492188 144.527344 C 179.476562 144.527344 179.457031 144.527344 179.445312 144.527344 C 178.675781 144.527344 178.042969 143.917969 178.019531 143.144531 C 178.011719 142.972656 177.5 126.433594 178.695312 109.40625 Z M 178.695312 109.40625 " fill-opacity="1" fill-rule="nonzero"/></svg>