<svg xmlns="http://www.w3.org/2000/svg" xmlns:xlink="http://www.w3.org/1999/xlink" width="650" zoomAndPan="magnify" viewBox="0 0 487.5 337.499995" height="450" preserveAspectRatio="xMidYMid meet" version="1.0"><defs><clipPath id="bd05f70fd6"><path d="M 0.109375 0 L 486.890625 0 L 486.890625 337 L 0.109375 337 Z M 0.109375 0 " clip-rule="nonzero"/></clipPath><clipPath id="3f23e884a1"><path d="M 110 49 L 350.222656 49 L 350.222656 289 L 110 289 Z M 110 49 " clip-rule="nonzero"/></clipPath><clipPath id="8cf65d166e"><path d="M 165 33.699219 L 293 33.699219 L 293 80 L 165 80 Z M 165 33.699219 " clip-rule="nonzero"/></clipPath></defs><g clip-path="url(#bd05f70fd6)"><path fill="#ffffff" d="M 0.109375 0 L 486.890625 0 L 486.890625 337 L 0.109375 337 Z M 0.109375 0 " fill-opacity="1" fill-rule="nonzero"/><path fill="#f8fffa" d="M 0.109375 0 L 486.890625 0 L 486.890625 337 L 0.109375 337 Z M 0.109375 0 " fill-opacity="1" fill-rule="nonzero"/></g><g clip-path="url(#3f23e884a1)"><path fill="#720c0c" d="M 230.394531 288.777344 C 214.226562 288.777344 198.539062 285.613281 183.777344 279.367188 C 176.679688 276.367188 169.832031 272.652344 163.433594 268.328125 C 157.089844 264.046875 151.128906 259.125 145.714844 253.703125 C 140.292969 248.285156 135.375 242.324219 131.085938 235.988281 C 126.761719 229.585938 123.046875 222.742188 120.046875 215.648438 C 113.800781 200.886719 110.632812 185.207031 110.632812 169.042969 C 110.632812 152.878906 113.800781 137.195312 120.046875 122.433594 C 123.046875 115.339844 126.761719 108.492188 131.085938 102.097656 C 135.371094 95.753906 140.292969 89.792969 145.714844 84.378906 C 151.132812 78.957031 157.097656 74.042969 163.433594 69.757812 C 169.835938 65.433594 176.679688 61.714844 183.777344 58.71875 C 198.539062 52.472656 214.226562 49.304688 230.394531 49.304688 C 246.558594 49.304688 262.246094 52.472656 277.007812 58.71875 C 284.105469 61.714844 290.953125 65.433594 297.351562 69.757812 C 303.695312 74.039062 309.65625 78.957031 315.070312 84.378906 C 320.488281 89.796875 325.410156 95.761719 329.699219 102.097656 C 334.023438 108.5 337.738281 115.339844 340.738281 122.433594 C 346.984375 137.195312 350.152344 152.878906 350.152344 169.042969 C 350.152344 185.207031 346.984375 200.886719 340.738281 215.648438 C 337.738281 222.742188 334.023438 229.589844 329.699219 235.988281 C 325.414062 242.328125 320.492188 248.289062 315.070312 253.703125 C 309.652344 259.125 303.6875 264.039062 297.351562 268.328125 C 290.949219 272.652344 284.105469 276.367188 277.007812 279.367188 C 262.246094 285.617188 246.558594 288.777344 230.394531 288.777344 Z M 230.394531 54.566406 C 214.9375 54.566406 199.9375 57.597656 185.824219 63.566406 C 172.191406 69.328125 159.945312 77.585938 149.429688 88.101562 C 138.914062 98.617188 130.652344 110.859375 124.890625 124.488281 C 118.921875 138.597656 115.890625 153.59375 115.890625 169.046875 C 115.890625 184.5 118.921875 199.496094 124.890625 213.609375 C 130.652344 227.234375 138.914062 239.480469 149.429688 249.996094 C 159.945312 260.511719 172.191406 268.765625 185.824219 274.53125 C 199.9375 280.5 214.9375 283.527344 230.394531 283.527344 C 245.847656 283.527344 260.847656 280.5 274.960938 274.53125 C 288.59375 268.765625 300.839844 260.511719 311.355469 249.996094 C 321.871094 239.480469 330.132812 227.234375 335.894531 213.609375 C 341.863281 199.496094 344.894531 184.5 344.894531 169.046875 C 344.894531 153.59375 341.863281 138.597656 335.894531 124.488281 C 330.132812 110.859375 321.871094 98.617188 311.355469 88.101562 C 300.839844 77.585938 288.59375 69.328125 274.960938 63.566406 C 260.847656 57.589844 245.847656 54.566406 230.394531 54.566406 Z M 230.394531 54.566406 " fill-opacity="1" fill-rule="nonzero"/></g><path fill="#ffce00" d="M 347.527344 169.042969 C 347.527344 170.957031 347.480469 172.875 347.386719 174.789062 C 347.292969 176.703125 347.152344 178.613281 346.964844 180.519531 C 346.773438 182.429688 346.539062 184.328125 346.257812 186.226562 C 345.976562 188.121094 345.652344 190.007812 345.277344 191.890625 C 344.902344 193.769531 344.484375 195.636719 344.015625 197.496094 C 343.550781 199.355469 343.039062 201.203125 342.484375 203.039062 C 341.925781 204.871094 341.324219 206.691406 340.679688 208.496094 C 340.035156 210.300781 339.34375 212.085938 338.609375 213.859375 C 337.878906 215.628906 337.101562 217.378906 336.28125 219.113281 C 335.460938 220.847656 334.601562 222.558594 333.695312 224.246094 C 332.792969 225.9375 331.847656 227.605469 330.863281 229.25 C 329.875 230.894531 328.851562 232.511719 327.785156 234.105469 C 326.722656 235.699219 325.617188 237.265625 324.476562 238.804688 C 323.335938 240.34375 322.15625 241.855469 320.9375 243.335938 C 319.722656 244.816406 318.472656 246.269531 317.183594 247.6875 C 315.894531 249.109375 314.574219 250.496094 313.21875 251.851562 C 311.863281 253.207031 310.476562 254.527344 309.054688 255.816406 C 307.636719 257.101562 306.183594 258.355469 304.703125 259.570312 C 303.21875 260.785156 301.710938 261.964844 300.167969 263.105469 C 298.628906 264.25 297.0625 265.351562 295.46875 266.417969 C 293.875 267.480469 292.257812 268.507812 290.613281 269.492188 C 288.96875 270.476562 287.300781 271.421875 285.609375 272.324219 C 283.917969 273.230469 282.207031 274.089844 280.472656 274.910156 C 278.742188 275.730469 276.988281 276.503906 275.21875 277.238281 C 273.445312 277.972656 271.660156 278.660156 269.855469 279.308594 C 268.050781 279.953125 266.230469 280.554688 264.394531 281.109375 C 262.558594 281.667969 260.714844 282.179688 258.855469 282.644531 C 256.996094 283.109375 255.125 283.53125 253.246094 283.902344 C 251.363281 284.277344 249.476562 284.605469 247.578125 284.886719 C 245.683594 285.167969 243.78125 285.402344 241.875 285.589844 C 239.964844 285.777344 238.054688 285.917969 236.140625 286.011719 C 234.226562 286.105469 232.308594 286.152344 230.394531 286.152344 C 228.476562 286.152344 226.558594 286.105469 224.644531 286.011719 C 222.730469 285.917969 220.820312 285.777344 218.910156 285.589844 C 217.003906 285.402344 215.101562 285.167969 213.207031 284.886719 C 211.308594 284.605469 209.421875 284.277344 207.539062 283.902344 C 205.660156 283.53125 203.789062 283.109375 201.929688 282.644531 C 200.070312 282.179688 198.226562 281.667969 196.390625 281.109375 C 194.554688 280.554688 192.734375 279.953125 190.929688 279.308594 C 189.125 278.660156 187.339844 277.972656 185.566406 277.238281 C 183.796875 276.503906 182.042969 275.730469 180.3125 274.910156 C 178.578125 274.089844 176.867188 273.230469 175.175781 272.324219 C 173.484375 271.421875 171.816406 270.476562 170.171875 269.492188 C 168.527344 268.507812 166.910156 267.480469 165.316406 266.417969 C 163.722656 265.351562 162.15625 264.25 160.617188 263.105469 C 159.074219 261.964844 157.566406 260.785156 156.082031 259.570312 C 154.601562 258.355469 153.148438 257.101562 151.730469 255.816406 C 150.308594 254.527344 148.921875 253.207031 147.566406 251.851562 C 146.210938 250.496094 144.890625 249.109375 143.601562 247.6875 C 142.3125 246.269531 141.0625 244.816406 139.847656 243.335938 C 138.628906 241.855469 137.449219 240.34375 136.308594 238.804688 C 135.167969 237.265625 134.0625 235.699219 133 234.105469 C 131.933594 232.511719 130.910156 230.894531 129.921875 229.25 C 128.9375 227.605469 127.992188 225.9375 127.089844 224.246094 C 126.183594 222.558594 125.324219 220.847656 124.503906 219.113281 C 123.683594 217.378906 122.90625 215.628906 122.175781 213.859375 C 121.441406 212.085938 120.75 210.300781 120.105469 208.496094 C 119.460938 206.691406 118.859375 204.871094 118.300781 203.039062 C 117.746094 201.203125 117.234375 199.355469 116.769531 197.496094 C 116.300781 195.636719 115.882812 193.769531 115.507812 191.890625 C 115.132812 190.007812 114.808594 188.121094 114.527344 186.226562 C 114.246094 184.328125 114.011719 182.429688 113.820312 180.519531 C 113.632812 178.613281 113.492188 176.703125 113.398438 174.789062 C 113.304688 172.875 113.257812 170.957031 113.257812 169.042969 C 113.257812 167.125 113.304688 165.210938 113.398438 163.296875 C 113.492188 161.382812 113.632812 159.46875 113.820312 157.5625 C 114.011719 155.65625 114.246094 153.753906 114.527344 151.859375 C 114.808594 149.960938 115.132812 148.074219 115.507812 146.195312 C 115.882812 144.316406 116.300781 142.445312 116.769531 140.585938 C 117.234375 138.726562 117.746094 136.878906 118.300781 135.046875 C 118.859375 133.210938 119.460938 131.390625 120.105469 129.589844 C 120.75 127.785156 121.441406 125.996094 122.175781 124.226562 C 122.90625 122.453125 123.683594 120.703125 124.503906 118.96875 C 125.324219 117.238281 126.183594 115.527344 127.089844 113.835938 C 127.992188 112.144531 128.9375 110.476562 129.921875 108.835938 C 130.910156 107.191406 131.933594 105.570312 133 103.976562 C 134.0625 102.382812 135.167969 100.816406 136.308594 99.277344 C 137.449219 97.738281 138.628906 96.226562 139.847656 94.746094 C 141.0625 93.265625 142.3125 91.8125 143.601562 90.394531 C 144.890625 88.972656 146.210938 87.585938 147.566406 86.230469 C 148.921875 84.875 150.308594 83.554688 151.730469 82.269531 C 153.148438 80.980469 154.601562 79.730469 156.082031 78.511719 C 157.566406 77.296875 159.074219 76.117188 160.617188 74.976562 C 162.15625 73.835938 163.722656 72.730469 165.316406 71.667969 C 166.910156 70.601562 168.527344 69.578125 170.171875 68.589844 C 171.816406 67.605469 173.484375 66.660156 175.175781 65.757812 C 176.867188 64.855469 178.578125 63.992188 180.3125 63.175781 C 182.042969 62.355469 183.796875 61.578125 185.566406 60.84375 C 187.339844 60.109375 189.125 59.421875 190.929688 58.777344 C 192.734375 58.128906 194.554688 57.527344 196.390625 56.972656 C 198.226562 56.417969 200.070312 55.90625 201.929688 55.441406 C 203.789062 54.972656 205.660156 54.554688 207.539062 54.179688 C 209.421875 53.804688 211.308594 53.480469 213.207031 53.199219 C 215.101562 52.917969 217.003906 52.683594 218.910156 52.492188 C 220.820312 52.304688 222.730469 52.164062 224.644531 52.070312 C 226.558594 51.976562 228.476562 51.929688 230.394531 51.929688 C 232.308594 51.929688 234.226562 51.976562 236.140625 52.070312 C 238.054688 52.164062 239.964844 52.304688 241.875 52.492188 C 243.78125 52.683594 245.683594 52.917969 247.578125 53.199219 C 249.476562 53.480469 251.363281 53.804688 253.246094 54.179688 C 255.125 54.554688 256.996094 54.972656 258.855469 55.441406 C 260.714844 55.90625 262.558594 56.417969 264.394531 56.972656 C 266.230469 57.527344 268.050781 58.128906 269.855469 58.777344 C 271.660156 59.421875 273.445312 60.109375 275.21875 60.84375 C 276.988281 61.578125 278.742188 62.355469 280.472656 63.175781 C 282.207031 63.992188 283.917969 64.855469 285.609375 65.757812 C 287.300781 66.660156 288.96875 67.605469 290.613281 68.589844 C 292.257812 69.578125 293.875 70.601562 295.46875 71.667969 C 297.0625 72.730469 298.628906 73.835938 300.167969 74.976562 C 301.710938 76.117188 303.21875 77.296875 304.703125 78.511719 C 306.183594 79.730469 307.636719 80.980469 309.054688 82.269531 C 310.476562 83.554688 311.863281 84.875 313.21875 86.230469 C 314.574219 87.585938 315.894531 88.972656 317.183594 90.394531 C 318.472656 91.8125 319.722656 93.265625 320.9375 94.746094 C 322.15625 96.226562 323.335938 97.738281 324.476562 99.277344 C 325.617188 100.816406 326.722656 102.382812 327.785156 103.976562 C 328.851562 105.570312 329.875 107.191406 330.863281 108.835938 C 331.847656 110.476562 332.792969 112.144531 333.695312 113.835938 C 334.601562 115.527344 335.460938 117.238281 336.28125 118.96875 C 337.101562 120.703125 337.878906 122.453125 338.609375 124.226562 C 339.34375 125.996094 340.035156 127.785156 340.679688 129.589844 C 341.324219 131.390625 341.925781 133.210938 342.484375 135.046875 C 343.039062 136.878906 343.550781 138.726562 344.015625 140.585938 C 344.484375 142.445312 344.902344 144.316406 345.277344 146.195312 C 345.652344 148.074219 345.976562 149.960938 346.257812 151.859375 C 346.539062 153.753906 346.773438 155.65625 346.964844 157.5625 C 347.152344 159.46875 347.292969 161.382812 347.386719 163.296875 C 347.480469 165.210938 347.527344 167.125 347.527344 169.042969 Z M 347.527344 169.042969 " fill-opacity="1" fill-rule="nonzero"/><path fill="#ffb700" d="M 230.394531 66.460938 L 225.628906 108.535156 L 214.339844 67.71875 L 216.21875 110.027344 L 198.683594 71.480469 L 207.160156 112.96875 L 183.8125 77.640625 L 198.671875 117.292969 L 170.085938 86.054688 L 190.96875 122.890625 L 157.839844 96.507812 L 184.234375 129.625 L 147.382812 108.746094 L 178.632812 137.328125 L 138.972656 122.46875 L 174.308594 145.820312 L 132.808594 137.347656 L 171.363281 154.878906 L 129.050781 152.996094 L 169.875 164.277344 L 127.785156 169.042969 L 169.875 173.804688 L 129.050781 185.089844 L 171.363281 183.210938 L 132.808594 200.742188 L 174.308594 192.269531 L 138.972656 215.613281 L 178.632812 200.753906 L 147.382812 229.339844 L 184.234375 208.457031 L 157.839844 241.582031 L 190.96875 215.199219 L 170.085938 252.035156 L 198.671875 220.792969 L 183.8125 260.445312 L 207.160156 225.117188 L 198.683594 266.605469 L 216.21875 228.0625 L 214.339844 270.363281 L 225.628906 229.550781 L 230.394531 271.628906 L 235.15625 229.550781 L 246.445312 270.363281 L 244.566406 228.0625 L 262.101562 266.605469 L 253.625 225.117188 L 276.972656 260.445312 L 262.113281 220.792969 L 290.699219 252.035156 L 269.816406 215.199219 L 302.945312 241.582031 L 276.550781 208.457031 L 313.402344 229.339844 L 282.152344 200.753906 L 321.8125 215.613281 L 286.476562 192.269531 L 327.976562 200.742188 L 289.417969 183.210938 L 331.734375 185.089844 L 290.910156 173.804688 L 333 169.042969 L 290.910156 164.277344 L 331.734375 152.996094 L 289.417969 154.878906 L 327.976562 137.347656 L 286.476562 145.820312 L 321.8125 122.46875 L 282.152344 137.328125 L 313.402344 108.746094 L 276.550781 129.625 L 302.945312 96.507812 L 269.816406 122.890625 L 290.699219 86.054688 L 262.113281 117.292969 L 276.972656 77.640625 L 253.625 112.96875 L 262.101562 71.480469 L 244.566406 110.027344 L 246.445312 67.71875 L 235.15625 108.535156 Z M 230.394531 66.460938 " fill-opacity="1" fill-rule="nonzero"/><path fill="#720c0c" d="M 160.652344 238.613281 C 160.652344 238.613281 131.0625 225.398438 148.75 170.421875 C 156.832031 145.296875 159.386719 134.359375 159.386719 134.359375 C 162.5 138.910156 170.109375 140.210938 170.109375 140.210938 L 287.28125 140.210938 C 287.28125 140.210938 294.886719 138.910156 298 134.359375 C 298 134.359375 300.777344 145.230469 308.640625 170.421875 C 323.289062 217.390625 304.390625 234.320312 298.378906 237.78125 C 298.378906 237.78125 273.847656 252.914062 228.574219 252.914062 C 183.300781 252.914062 160.652344 238.613281 160.652344 238.613281 Z M 160.652344 238.613281 " fill-opacity="1" fill-rule="nonzero"/><path fill="#720c0c" d="M 227.03125 288.136719 C 215.339844 288.136719 204.519531 285.816406 197.339844 283.804688 C 192.972656 282.582031 189.492188 281.355469 187.34375 280.535156 C 186.046875 280.039062 185.101562 279.648438 184.542969 279.414062 C 184.238281 279.28125 183.96875 279.167969 183.765625 279.070312 C 183.355469 278.882812 182.277344 278.382812 182.035156 277.015625 C 182.011719 276.867188 181.992188 276.710938 181.992188 276.558594 C 181.992188 268.4375 182.070312 249.039062 182.09375 241.96875 L 162.875 241.929688 C 161.421875 241.929688 160.246094 240.75 160.246094 239.300781 C 160.246094 226.542969 162.109375 215.371094 165.785156 206.105469 C 168.964844 198.070312 173.542969 191.347656 179.390625 186.113281 C 183.3125 182.609375 187.828125 179.753906 192.824219 177.628906 C 196.800781 175.9375 201.074219 174.703125 205.539062 173.960938 C 212.527344 172.800781 217.761719 173.203125 218.742188 173.300781 L 239.144531 173.300781 C 240.285156 173.089844 244.523438 172.433594 250.300781 172.914062 C 254.1875 173.238281 257.992188 174.023438 261.613281 175.234375 C 266.148438 176.75 270.394531 178.953125 274.246094 181.777344 C 280.929688 186.695312 286.460938 193.523438 290.683594 202.085938 C 295.632812 212.132812 298.84375 224.707031 300.222656 239.460938 C 300.300781 240.316406 299.964844 241.152344 299.308594 241.707031 C 298.65625 242.261719 297.773438 242.46875 296.941406 242.25 C 296.796875 242.214844 283.773438 238.839844 276.035156 238.089844 L 276.035156 277.046875 C 276.035156 278.082031 275.425781 279.023438 274.480469 279.449219 C 274.28125 279.539062 269.480469 281.671875 261.472656 283.8125 C 254.121094 285.773438 242.542969 288.117188 229.105469 288.117188 C 228.410156 288.121094 227.71875 288.136719 227.03125 288.136719 Z M 187.257812 274.84375 C 189.421875 275.730469 193.847656 277.398438 199.570312 278.957031 C 206.640625 280.882812 217.496094 283.128906 229.007812 282.847656 C 229.03125 282.847656 229.050781 282.847656 229.074219 282.847656 C 249.609375 282.847656 265.835938 277.203125 270.773438 275.269531 L 270.773438 235.300781 C 270.773438 233.847656 271.957031 232.667969 273.40625 232.667969 C 278.886719 232.667969 289.117188 234.925781 294.597656 236.238281 C 293.121094 223.753906 290.238281 213.078125 285.996094 204.464844 C 282.164062 196.671875 277.191406 190.480469 271.207031 186.066406 C 265.058594 181.527344 257.949219 178.863281 250.089844 178.164062 C 244.15625 177.636719 239.996094 178.484375 239.953125 178.492188 C 239.769531 178.527344 239.589844 178.546875 239.410156 178.546875 L 218.621094 178.546875 C 218.527344 178.546875 218.421875 178.539062 218.328125 178.527344 C 218.277344 178.519531 213.160156 177.984375 206.226562 179.164062 C 202.191406 179.851562 198.335938 180.976562 194.761719 182.515625 C 190.335938 184.417969 186.328125 186.957031 182.859375 190.066406 C 171.808594 199.980469 165.988281 215.644531 165.542969 236.660156 L 184.746094 236.699219 C 185.445312 236.699219 186.113281 236.980469 186.605469 237.472656 C 187.101562 237.96875 187.371094 238.644531 187.371094 239.339844 C 187.371094 239.601562 187.269531 263.816406 187.257812 274.84375 Z M 187.257812 274.84375 " fill-opacity="1" fill-rule="nonzero"/><path fill="#ff5500" d="M 162.886719 239.285156 C 162.886719 169.660156 218.621094 175.914062 218.621094 175.914062 L 239.410156 175.914062 C 239.410156 175.914062 290.632812 165 297.609375 239.695312 C 297.609375 239.695312 280.71875 235.300781 273.40625 235.300781 C 273.40625 241.953125 273.40625 277.035156 273.40625 277.035156 C 273.40625 277.035156 254.558594 285.472656 229.074219 285.472656 C 205.59375 286.046875 184.644531 276.648438 184.625 276.546875 C 184.625 266.460938 184.738281 239.328125 184.738281 239.328125 Z M 162.886719 239.285156 " fill-opacity="1" fill-rule="nonzero"/><path fill="#ffffff" d="M 251.199219 176.503906 C 265.269531 177.75 289.671875 184.867188 296.765625 232.410156 C 284.660156 191.425781 259.988281 182.03125 251.199219 176.503906 Z M 251.199219 176.503906 " fill-opacity="1" fill-rule="nonzero"/><path fill="#ffffff" d="M 206.757812 176.503906 C 191.445312 178.816406 166.355469 189.066406 163.199219 230.519531 C 175.300781 189.53125 197.972656 182.03125 206.757812 176.503906 Z M 206.757812 176.503906 " fill-opacity="1" fill-rule="nonzero"/><path fill="#ed2a00" d="M 280.660156 236.066406 C 280.660156 236.066406 277.640625 200.839844 273.601562 200.839844 C 271.117188 200.839844 269.039062 237.613281 264.335938 260.957031 C 261.367188 275.679688 256.1875 282.359375 256.1875 282.359375 C 256.1875 282.359375 263.582031 281.066406 273.40625 277.058594 C 273.40625 272.664062 273.8125 235.058594 273.8125 235.058594 Z M 280.660156 236.066406 " fill-opacity="1" fill-rule="nonzero"/><path fill="#ed2a00" d="M 176.921875 239.3125 C 176.921875 239.3125 180.414062 200.371094 184.460938 200.371094 C 186.945312 200.371094 189.023438 237.144531 193.726562 260.484375 C 196.695312 275.210938 201.980469 282.292969 201.980469 282.292969 C 201.980469 282.292969 193.636719 280.515625 184.65625 276.589844 C 184.65625 272.195312 184.667969 239.339844 184.667969 239.339844 Z M 176.921875 239.3125 " fill-opacity="1" fill-rule="nonzero"/><path fill="#720c0c" d="M 275.082031 208.929688 C 275.792969 208.929688 276.363281 209.5 276.363281 210.210938 L 276.363281 235.925781 L 273.796875 235.925781 L 273.796875 210.210938 C 273.796875 209.507812 274.371094 208.929688 275.082031 208.929688 Z M 275.082031 208.929688 " fill-opacity="1" fill-rule="nonzero"/><path fill="#720c0c" d="M 183.414062 208.910156 C 184.125 208.910156 184.699219 209.480469 184.699219 210.191406 L 184.699219 276.835938 L 182.132812 276.835938 L 182.132812 210.191406 C 182.132812 209.480469 182.710938 208.910156 183.414062 208.910156 Z M 183.414062 208.910156 " fill-opacity="1" fill-rule="nonzero"/><path fill="#329741" d="M 229.1875 198.625 C 229.1875 198.625 232.234375 210.570312 241.535156 209.277344 C 256.960938 207.132812 253.976562 186.398438 253.976562 186.398438 C 253.976562 186.398438 243.480469 198.625 229.1875 198.625 Z M 229.1875 198.625 " fill-opacity="1" fill-rule="nonzero"/><path fill="#720c0c" d="M 240.152344 210.691406 C 236.476562 210.691406 233.261719 208.808594 230.789062 205.175781 C 228.761719 202.195312 227.945312 199.082031 227.917969 198.949219 C 227.816406 198.558594 227.90625 198.136719 228.152344 197.816406 C 228.398438 197.496094 228.785156 197.3125 229.1875 197.3125 C 242.722656 197.3125 252.871094 185.664062 252.976562 185.550781 C 253.3125 185.15625 253.847656 185 254.34375 185.144531 C 254.835938 185.289062 255.203125 185.710938 255.277344 186.222656 C 255.292969 186.34375 255.691406 189.15625 255.4375 192.859375 C 255.101562 197.902344 253.769531 201.996094 251.492188 205.027344 C 249.148438 208.144531 245.855469 210.019531 241.710938 210.597656 C 241.1875 210.65625 240.664062 210.691406 240.152344 210.691406 Z M 230.988281 199.875 C 231.390625 200.929688 232.050781 202.371094 232.996094 203.75 C 235.234375 207.011719 238.046875 208.433594 241.347656 207.976562 C 244.777344 207.5 247.480469 205.972656 249.390625 203.429688 C 252.609375 199.152344 252.976562 192.960938 252.871094 189.398438 C 251.632812 190.566406 249.878906 192.070312 247.6875 193.589844 C 242.289062 197.339844 236.546875 199.492188 230.988281 199.875 Z M 230.988281 199.875 " fill-opacity="1" fill-rule="nonzero"/><path fill="#329741" d="M 229.175781 198.625 C 229.175781 198.625 226.128906 210.570312 216.828125 209.277344 C 201.402344 207.132812 204.390625 186.398438 204.390625 186.398438 C 204.390625 186.398438 214.882812 198.625 229.175781 198.625 Z M 229.175781 198.625 " fill-opacity="1" fill-rule="nonzero"/><path fill="#720c0c" d="M 218.210938 210.691406 C 217.699219 210.691406 217.175781 210.65625 216.648438 210.585938 C 212.503906 210.007812 209.214844 208.132812 206.863281 205.011719 C 204.585938 201.984375 203.261719 197.894531 202.917969 192.847656 C 202.671875 189.152344 203.070312 186.332031 203.082031 186.210938 C 203.152344 185.699219 203.519531 185.277344 204.015625 185.132812 C 204.507812 184.988281 205.046875 185.144531 205.382812 185.535156 C 205.40625 185.566406 207.984375 188.542969 212.226562 191.464844 C 216.082031 194.125 222.152344 197.300781 229.167969 197.300781 C 229.574219 197.300781 229.957031 197.484375 230.207031 197.804688 C 230.453125 198.125 230.542969 198.546875 230.441406 198.9375 C 230.40625 199.070312 229.597656 202.183594 227.566406 205.164062 C 225.105469 208.808594 221.886719 210.691406 218.210938 210.691406 Z M 205.492188 189.402344 C 205.394531 192.976562 205.761719 199.171875 208.972656 203.4375 C 210.882812 205.972656 213.585938 207.496094 217.007812 207.96875 C 220.328125 208.433594 223.152344 206.996094 225.398438 203.6875 C 226.332031 202.320312 226.972656 200.90625 227.375 199.871094 C 221.816406 199.484375 216.082031 197.335938 210.671875 193.589844 C 208.484375 192.078125 206.730469 190.570312 205.492188 189.402344 Z M 205.492188 189.402344 " fill-opacity="1" fill-rule="nonzero"/><path fill="#720c0c" d="M 228.941406 199.917969 C 222.464844 199.917969 216.351562 198.082031 211.714844 194.738281 C 209.375 193.058594 207.53125 191.078125 206.226562 188.855469 C 204.828125 186.476562 204.117188 183.933594 204.117188 181.304688 C 204.117188 178.671875 204.828125 176.128906 206.226562 173.75 C 207.527344 171.527344 209.375 169.554688 211.714844 167.867188 C 216.34375 164.53125 222.464844 162.6875 228.941406 162.6875 C 235.417969 162.6875 241.53125 164.523438 246.167969 167.867188 C 248.503906 169.546875 250.347656 171.527344 251.65625 173.75 C 253.054688 176.128906 253.765625 178.671875 253.765625 181.304688 C 253.765625 183.933594 253.054688 186.476562 251.65625 188.855469 C 250.355469 191.078125 248.503906 193.054688 246.167969 194.738281 C 241.535156 198.082031 235.417969 199.917969 228.941406 199.917969 Z M 228.941406 167.953125 C 223.5625 167.953125 218.539062 169.4375 214.792969 172.136719 C 211.304688 174.648438 209.386719 177.90625 209.386719 181.304688 C 209.386719 184.707031 211.308594 187.957031 214.792969 190.46875 C 218.539062 193.167969 223.5625 194.65625 228.941406 194.65625 C 234.320312 194.65625 239.34375 193.167969 243.089844 190.46875 C 246.578125 187.957031 248.492188 184.699219 248.492188 181.304688 C 248.492188 177.902344 246.570312 174.648438 243.089844 172.136719 C 239.34375 169.4375 234.320312 167.953125 228.941406 167.953125 Z M 228.941406 167.953125 " fill-opacity="1" fill-rule="nonzero"/><path fill="#dddddd" d="M 251.125 181.304688 C 251.125 181.828125 251.089844 182.347656 251.019531 182.871094 C 250.949219 183.390625 250.839844 183.90625 250.699219 184.421875 C 250.558594 184.933594 250.382812 185.441406 250.171875 185.941406 C 249.960938 186.445312 249.714844 186.9375 249.4375 187.421875 C 249.160156 187.902344 248.847656 188.375 248.507812 188.835938 C 248.164062 189.300781 247.789062 189.746094 247.386719 190.183594 C 246.984375 190.617188 246.550781 191.039062 246.089844 191.441406 C 245.628906 191.847656 245.140625 192.234375 244.628906 192.605469 C 244.113281 192.976562 243.578125 193.328125 243.015625 193.660156 C 242.453125 193.992188 241.871094 194.300781 241.265625 194.59375 C 240.660156 194.882812 240.039062 195.152344 239.398438 195.398438 C 238.757812 195.644531 238.101562 195.871094 237.429688 196.070312 C 236.757812 196.269531 236.074219 196.445312 235.378906 196.597656 C 234.683594 196.75 233.980469 196.878906 233.269531 196.980469 C 232.554688 197.082031 231.839844 197.160156 231.117188 197.210938 C 230.390625 197.261719 229.667969 197.285156 228.941406 197.285156 C 228.214844 197.285156 227.488281 197.261719 226.765625 197.210938 C 226.042969 197.160156 225.324219 197.082031 224.613281 196.980469 C 223.898438 196.878906 223.195312 196.75 222.5 196.597656 C 221.804688 196.445312 221.121094 196.269531 220.449219 196.070312 C 219.78125 195.871094 219.125 195.644531 218.484375 195.398438 C 217.84375 195.152344 217.21875 194.882812 216.617188 194.59375 C 216.011719 194.300781 215.429688 193.992188 214.867188 193.660156 C 214.304688 193.328125 213.769531 192.976562 213.253906 192.605469 C 212.738281 192.234375 212.253906 191.847656 211.792969 191.441406 C 211.332031 191.039062 210.898438 190.617188 210.496094 190.183594 C 210.089844 189.746094 209.71875 189.300781 209.375 188.835938 C 209.03125 188.375 208.722656 187.902344 208.445312 187.421875 C 208.167969 186.9375 207.921875 186.445312 207.710938 185.941406 C 207.5 185.441406 207.324219 184.933594 207.183594 184.421875 C 207.039062 183.90625 206.933594 183.390625 206.863281 182.871094 C 206.792969 182.347656 206.757812 181.828125 206.757812 181.304688 C 206.757812 180.78125 206.792969 180.257812 206.863281 179.738281 C 206.933594 179.214844 207.039062 178.699219 207.183594 178.183594 C 207.324219 177.671875 207.5 177.164062 207.710938 176.664062 C 207.921875 176.164062 208.167969 175.671875 208.445312 175.1875 C 208.722656 174.703125 209.03125 174.230469 209.375 173.769531 C 209.71875 173.308594 210.089844 172.859375 210.496094 172.421875 C 210.898438 171.988281 211.332031 171.566406 211.792969 171.164062 C 212.253906 170.757812 212.738281 170.371094 213.253906 170 C 213.769531 169.632812 214.304688 169.28125 214.867188 168.949219 C 215.429688 168.617188 216.011719 168.304688 216.617188 168.011719 C 217.21875 167.722656 217.84375 167.453125 218.484375 167.207031 C 219.125 166.960938 219.78125 166.738281 220.449219 166.535156 C 221.121094 166.335938 221.804688 166.160156 222.5 166.007812 C 223.195312 165.855469 223.898438 165.730469 224.613281 165.628906 C 225.324219 165.523438 226.042969 165.449219 226.765625 165.398438 C 227.488281 165.34375 228.214844 165.320312 228.941406 165.320312 C 229.667969 165.320312 230.390625 165.34375 231.117188 165.398438 C 231.839844 165.449219 232.554688 165.523438 233.269531 165.628906 C 233.980469 165.730469 234.683594 165.855469 235.378906 166.007812 C 236.074219 166.160156 236.757812 166.335938 237.429688 166.535156 C 238.101562 166.738281 238.757812 166.960938 239.398438 167.207031 C 240.039062 167.453125 240.660156 167.722656 241.265625 168.011719 C 241.871094 168.304688 242.453125 168.617188 243.015625 168.949219 C 243.578125 169.28125 244.113281 169.632812 244.628906 170 C 245.140625 170.371094 245.628906 170.757812 246.089844 171.164062 C 246.550781 171.566406 246.984375 171.988281 247.386719 172.421875 C 247.789062 172.859375 248.164062 173.308594 248.507812 173.769531 C 248.847656 174.230469 249.160156 174.703125 249.4375 175.1875 C 249.714844 175.671875 249.960938 176.164062 250.171875 176.664062 C 250.382812 177.164062 250.558594 177.671875 250.699219 178.183594 C 250.839844 178.699219 250.949219 179.214844 251.019531 179.738281 C 251.089844 180.257812 251.125 180.78125 251.125 181.304688 Z M 251.125 181.304688 " fill-opacity="1" fill-rule="nonzero"/><path fill="#ff9a00" d="M 227.777344 287.085938 C 203.296875 287.085938 183.402344 277.800781 183.402344 277.800781 C 183.402344 277.800781 183.402344 257.382812 183.402344 234.175781 C 194.933594 216.648438 187.023438 181.394531 187.023438 181.394531 C 187.316406 181.675781 193.890625 177.660156 193.890625 177.660156 C 193.890625 177.660156 200.535156 206.640625 201.515625 225.832031 L 256.925781 225.832031 C 257.910156 206.640625 264.550781 177.660156 264.550781 177.660156 C 264.550781 177.660156 271.128906 181.675781 271.425781 181.394531 C 271.425781 181.394531 263.515625 216.648438 275.046875 234.175781 C 275.046875 257.382812 275.046875 278.535156 275.046875 278.535156 C 275.046875 278.535156 256.527344 287.085938 230.667969 287.085938 Z M 227.777344 287.085938 " fill-opacity="1" fill-rule="nonzero"/><path fill="#720c0c" d="M 230.667969 288.398438 L 227.777344 288.398438 C 214.976562 288.398438 203.457031 285.847656 196.046875 283.707031 C 188.003906 281.382812 183.054688 279.089844 182.847656 278.992188 C 182.382812 278.777344 182.089844 278.3125 182.089844 277.800781 L 182.089844 234.175781 C 182.089844 233.914062 182.160156 233.667969 182.304688 233.453125 C 184.832031 229.613281 186.589844 224.527344 187.535156 218.335938 C 188.300781 213.320312 188.535156 207.578125 188.226562 201.273438 C 187.703125 190.503906 185.765625 181.765625 185.746094 181.683594 C 185.621094 181.117188 185.878906 180.53125 186.382812 180.25 C 186.566406 180.148438 186.765625 180.09375 186.957031 180.082031 C 187.769531 179.753906 190.757812 178.039062 193.214844 176.535156 C 193.578125 176.3125 194.023438 176.28125 194.414062 176.441406 C 194.804688 176.605469 195.089844 176.949219 195.183594 177.363281 C 195.25 177.648438 201.582031 205.441406 202.773438 224.515625 L 255.703125 224.515625 C 256.894531 205.433594 263.226562 177.648438 263.292969 177.363281 C 263.390625 176.957031 263.671875 176.613281 264.0625 176.449219 C 264.457031 176.285156 264.902344 176.316406 265.261719 176.539062 C 267.722656 178.039062 270.703125 179.761719 271.523438 180.085938 C 271.71875 180.097656 271.914062 180.152344 272.09375 180.253906 C 272.601562 180.539062 272.859375 181.121094 272.730469 181.6875 C 272.714844 181.777344 270.769531 190.554688 270.246094 201.320312 C 269.9375 207.617188 270.171875 213.347656 270.9375 218.359375 C 271.882812 224.542969 273.640625 229.621094 276.160156 233.453125 C 276.296875 233.667969 276.375 233.914062 276.375 234.175781 L 276.375 278.535156 C 276.375 279.046875 276.074219 279.515625 275.613281 279.726562 C 275.417969 279.816406 270.792969 281.9375 262.914062 284.074219 C 255.648438 286.050781 244.175781 288.398438 230.667969 288.398438 Z M 184.714844 276.945312 C 186.390625 277.667969 190.746094 279.4375 196.828125 281.195312 C 204.0625 283.28125 215.308594 285.773438 227.777344 285.773438 L 230.667969 285.773438 C 243.855469 285.773438 255.058594 283.484375 262.144531 281.5625 C 268.027344 279.96875 272.117188 278.355469 273.730469 277.679688 L 273.730469 234.570312 C 271.113281 230.457031 269.292969 225.132812 268.316406 218.738281 C 267.527344 213.546875 267.285156 207.632812 267.601562 201.152344 C 268.027344 192.4375 269.363281 185 269.90625 182.25 C 269.816406 182.199219 269.71875 182.152344 269.628906 182.105469 C 269.027344 181.796875 268.222656 181.351562 267.226562 180.773438 C 266.605469 180.410156 265.980469 180.050781 265.445312 179.730469 C 264.003906 186.3125 259.070312 209.753906 258.238281 225.90625 C 258.203125 226.605469 257.625 227.152344 256.925781 227.152344 L 201.515625 227.152344 C 200.816406 227.152344 200.238281 226.605469 200.203125 225.90625 C 199.378906 209.757812 194.445312 186.3125 193 179.730469 C 192.460938 180.050781 191.839844 180.417969 191.214844 180.773438 C 190.222656 181.34375 189.414062 181.792969 188.8125 182.105469 C 188.722656 182.152344 188.625 182.199219 188.535156 182.25 C 189.082031 185 190.421875 192.4375 190.839844 201.152344 C 191.15625 207.628906 190.914062 213.546875 190.125 218.738281 C 189.148438 225.132812 187.328125 230.457031 184.710938 234.570312 L 184.710938 276.945312 Z M 187.933594 180.449219 Z M 270.523438 180.441406 C 270.523438 180.449219 270.523438 180.449219 270.523438 180.441406 C 270.523438 180.449219 270.523438 180.449219 270.523438 180.441406 Z M 270.523438 180.441406 " fill-opacity="1" fill-rule="nonzero"/><path fill="#720c0c" d="M 229.523438 267.765625 L 229.496094 267.765625 C 219.617188 267.648438 212.449219 264.78125 208.183594 259.25 C 201.957031 251.175781 204.507812 240.589844 204.625 240.140625 L 205.125 238.148438 L 253.933594 238.148438 L 254.433594 240.140625 C 254.546875 240.589844 257.09375 251.175781 250.871094 259.25 C 246.609375 264.78125 239.441406 267.648438 229.5625 267.765625 Z M 209.414062 243.40625 C 209.097656 246.308594 209.074219 251.8125 212.371094 256.066406 C 215.605469 260.234375 221.375 262.394531 229.519531 262.503906 C 237.6875 262.402344 243.464844 260.222656 246.691406 256.035156 C 249.992188 251.753906 249.957031 246.292969 249.636719 243.40625 Z M 209.414062 243.40625 " fill-opacity="1" fill-rule="nonzero"/><path fill="#ffcc00" d="M 207.171875 240.773438 C 207.171875 240.773438 213.820312 240.773438 229.496094 240.773438 L 229.542969 240.773438 C 245.222656 240.773438 251.867188 240.773438 251.867188 240.773438 C 251.867188 240.773438 257.871094 264.785156 229.519531 265.136719 C 201.167969 264.785156 207.171875 240.773438 207.171875 240.773438 Z M 207.171875 240.773438 " fill-opacity="1" fill-rule="nonzero"/><path fill="#720c0c" d="M 231.71875 195.8125 L 225.710938 195.8125 C 218.042969 195.8125 210.597656 194.3125 203.59375 191.359375 C 196.824219 188.511719 190.738281 184.429688 185.511719 179.226562 C 180.28125 174.027344 176.164062 167.96875 173.269531 161.21875 C 170.632812 155.0625 169.125 148.558594 168.769531 141.863281 C 166.644531 141.578125 164.710938 140.933594 163.007812 139.929688 C 160.867188 138.671875 159.121094 136.875 157.8125 134.59375 C 156.121094 131.636719 155.210938 127.832031 155.261719 123.878906 C 155.300781 120.3125 156.097656 116.953125 157.445312 114.664062 C 159.328125 111.46875 162.566406 109.578125 166.820312 109.191406 C 167.8125 109.101562 168.746094 109.105469 169.554688 109.15625 C 171.777344 96.527344 178.226562 84.980469 187.910156 76.398438 C 198.339844 67.15625 211.769531 62.066406 225.722656 62.066406 L 231.730469 62.066406 C 245.769531 62.066406 259.269531 67.214844 269.726562 76.566406 C 279.351562 85.171875 285.742188 96.71875 287.925781 109.324219 C 288.71875 109.257812 289.628906 109.238281 290.597656 109.304688 C 294.855469 109.59375 298.105469 111.449219 300 114.671875 C 301.351562 116.960938 302.144531 120.320312 302.1875 123.886719 C 302.234375 127.835938 301.328125 131.640625 299.632812 134.597656 C 298.328125 136.882812 296.585938 138.675781 294.441406 139.933594 C 292.738281 140.941406 290.804688 141.585938 288.675781 141.867188 C 288.320312 148.566406 286.816406 155.058594 284.183594 161.210938 C 281.292969 167.964844 277.179688 174.027344 271.941406 179.226562 C 266.707031 184.429688 260.625 188.511719 253.855469 191.367188 C 246.832031 194.3125 239.386719 195.8125 231.71875 195.8125 Z M 171.3125 136.503906 C 171.320312 136.503906 171.320312 136.503906 171.324219 136.503906 C 172.765625 136.507812 173.933594 137.675781 173.945312 139.117188 C 173.988281 146.070312 175.386719 152.8125 178.101562 159.148438 C 180.726562 165.273438 184.460938 170.777344 189.214844 175.496094 C 193.96875 180.21875 199.492188 183.929688 205.636719 186.511719 C 211.996094 189.191406 218.75 190.546875 225.710938 190.546875 L 231.71875 190.546875 C 238.679688 190.546875 245.441406 189.1875 251.800781 186.507812 C 257.945312 183.917969 263.46875 180.207031 268.222656 175.484375 C 272.96875 170.765625 276.707031 165.257812 279.328125 159.136719 C 282.039062 152.792969 283.4375 146.054688 283.476562 139.097656 C 283.484375 137.652344 284.652344 136.492188 286.097656 136.484375 C 286.503906 136.484375 286.871094 136.570312 287.214844 136.726562 C 290.765625 136.460938 293.398438 134.863281 295.050781 131.980469 C 297.800781 127.167969 297.140625 120.199219 295.453125 117.328125 C 294.453125 115.628906 292.742188 114.71875 290.230469 114.542969 C 289.074219 114.464844 288.019531 114.570312 287.316406 114.675781 C 286.917969 114.976562 286.4375 115.164062 285.90625 115.203125 C 284.507812 115.292969 283.285156 114.28125 283.117188 112.890625 C 281.628906 100.410156 275.628906 88.894531 266.207031 80.476562 C 256.714844 71.992188 244.46875 67.316406 231.71875 67.316406 L 225.710938 67.316406 C 213.042969 67.316406 200.859375 71.9375 191.390625 80.332031 C 182 88.65625 175.957031 100.050781 174.375 112.425781 C 174.199219 113.804688 172.980469 114.804688 171.597656 114.714844 C 171.414062 114.703125 171.234375 114.671875 171.066406 114.625 C 170.679688 114.542969 169.03125 114.242188 167.164062 114.4375 C 164.707031 114.683594 162.964844 115.660156 161.984375 117.328125 C 160.296875 120.199219 159.628906 127.160156 162.386719 131.980469 C 164.042969 134.875 166.6875 136.464844 170.257812 136.726562 C 170.578125 136.585938 170.933594 136.503906 171.3125 136.503906 Z M 171.3125 136.503906 " fill-opacity="1" fill-rule="nonzero"/><path fill="#f4ae98" d="M 159.707031 116.003906 C 163.210938 110.046875 171.757812 112.09375 171.757812 112.09375 L 171.757812 112.101562 C 175.1875 85.359375 198.035156 64.699219 225.710938 64.699219 L 231.71875 64.699219 C 259.566406 64.699219 282.515625 85.613281 285.726562 112.585938 L 285.71875 112.324219 C 285.71875 112.324219 294.210938 110.046875 297.71875 116.003906 C 301.222656 121.957031 300.820312 139.398438 286.109375 139.398438 L 286.105469 139.117188 C 285.929688 169.003906 261.648438 193.179688 231.710938 193.179688 L 225.707031 193.179688 C 195.773438 193.179688 171.492188 169.011719 171.3125 139.132812 L 171.308594 139.398438 C 156.609375 139.398438 156.207031 121.957031 159.707031 116.003906 Z M 159.707031 116.003906 " fill-opacity="1" fill-rule="nonzero"/><path fill="#ed9077" d="M 228.773438 180.496094 C 232.910156 180.496094 235.496094 178.75 235.496094 178.75 C 235.496094 178.75 234.8125 183.882812 228.773438 183.882812 C 222.730469 183.882812 222.050781 178.75 222.050781 178.75 C 222.050781 178.75 224.632812 180.496094 228.773438 180.496094 Z M 228.773438 180.496094 " fill-opacity="1" fill-rule="nonzero"/><path fill="#ed9077" d="M 289.996094 131.480469 C 289.996094 131.480469 292.726562 128.1875 289.898438 125.636719 C 287.074219 123.089844 289.617188 118.953125 292.726562 119.976562 C 295.832031 121 295.988281 130.703125 289.996094 131.480469 Z M 289.996094 131.480469 " fill-opacity="1" fill-rule="nonzero"/><path fill="#f9e6e1" d="M 285.683594 112.394531 C 285.683594 112.394531 293.960938 109.65625 297.820312 116.09375 C 301.683594 122.53125 298.195312 131.503906 297.785156 132.304688 C 299.0625 128.214844 300.175781 111.027344 285.875 114.183594 C 285.875 113.582031 285.683594 113.128906 285.683594 112.394531 Z M 285.683594 112.394531 " fill-opacity="1" fill-rule="nonzero"/><path fill="#ed9077" d="M 286.105469 139.398438 C 286.105469 139.398438 281.574219 140.632812 278.816406 150.347656 C 276.0625 160.0625 269.824219 183.5 244.585938 191.648438 C 267.214844 186.523438 285.714844 165.523438 286.105469 139.398438 Z M 286.105469 139.398438 " fill-opacity="1" fill-rule="nonzero"/><path fill="#ed9077" d="M 167.429688 131.480469 C 167.429688 131.480469 164.699219 128.1875 167.523438 125.636719 C 170.347656 123.089844 167.808594 118.953125 164.699219 119.976562 C 161.589844 121 161.441406 130.703125 167.429688 131.480469 Z M 167.429688 131.480469 " fill-opacity="1" fill-rule="nonzero"/><path fill="#f9e6e1" d="M 171.742188 112.394531 C 171.742188 112.394531 163.457031 109.636719 159.597656 116.082031 C 155.734375 122.519531 159.230469 131.503906 159.640625 132.304688 C 158.363281 128.214844 157.25 111.027344 171.546875 114.183594 C 171.546875 113.671875 171.742188 113.460938 171.742188 112.394531 Z M 171.742188 112.394531 " fill-opacity="1" fill-rule="nonzero"/><path fill="#ed9077" d="M 171.3125 139.398438 C 171.3125 139.398438 175.84375 140.632812 178.601562 150.347656 C 181.359375 160.0625 187.59375 183.5 212.832031 191.648438 C 190.203125 186.523438 171.703125 165.523438 171.3125 139.398438 Z M 171.3125 139.398438 " fill-opacity="1" fill-rule="nonzero"/><path fill="#e04c34" d="M 271.792969 129.488281 C 275.238281 129.488281 278.027344 130.746094 278.027344 132.300781 C 278.027344 133.851562 275.230469 135.113281 271.792969 135.113281 C 268.347656 135.113281 265.558594 133.851562 265.558594 132.300781 C 265.550781 130.746094 268.347656 129.488281 271.792969 129.488281 Z M 271.792969 129.488281 " fill-opacity="1" fill-rule="nonzero"/><path fill="#e04c34" d="M 185.636719 129.488281 C 189.082031 129.488281 191.871094 130.746094 191.871094 132.300781 C 191.871094 133.851562 189.078125 135.113281 185.636719 135.113281 C 182.191406 135.113281 179.402344 133.851562 179.402344 132.300781 C 179.398438 130.746094 182.191406 129.488281 185.636719 129.488281 Z M 185.636719 129.488281 " fill-opacity="1" fill-rule="nonzero"/><path fill="#720c0c" d="M 250.582031 122.832031 C 250.582031 122.832031 256.570312 116.292969 263.5 121.675781 C 264.855469 122.484375 265.878906 120.621094 264.238281 119.308594 C 262.601562 117.996094 256.042969 112.917969 249.4375 119.054688 C 247.214844 121.117188 249.144531 124.289062 250.582031 122.832031 Z M 250.582031 122.832031 " fill-opacity="1" fill-rule="nonzero"/><path fill="#720c0c" d="M 193.050781 120.507812 C 193.050781 124.667969 196.429688 128.046875 200.59375 128.046875 C 204.757812 128.046875 208.136719 124.667969 208.136719 120.507812 C 208.136719 116.34375 204.757812 112.96875 200.59375 112.96875 C 196.425781 112.96875 193.050781 116.339844 193.050781 120.507812 Z M 193.050781 120.507812 " fill-opacity="1" fill-rule="nonzero"/><path fill="#ffffff" d="M 200.40625 118.742188 C 200.40625 120.144531 201.546875 121.285156 202.957031 121.285156 C 204.359375 121.285156 205.496094 120.144531 205.496094 118.742188 C 205.496094 117.339844 204.359375 116.199219 202.957031 116.199219 C 201.550781 116.199219 200.40625 117.339844 200.40625 118.742188 Z M 200.40625 118.742188 " fill-opacity="1" fill-rule="nonzero"/><path fill="#ef7f68" d="M 218.027344 154.496094 L 239.675781 154.496094 C 239.675781 154.496094 241.855469 176.660156 228.863281 176.660156 L 228.839844 176.660156 C 215.84375 176.652344 218.027344 154.496094 218.027344 154.496094 Z M 218.027344 154.496094 " fill-opacity="1" fill-rule="nonzero"/><path fill="#720c0c" d="M 228.863281 177.203125 L 228.839844 177.203125 C 225.976562 177.203125 223.59375 176.171875 221.753906 174.144531 C 219.417969 171.566406 217.988281 167.457031 217.507812 161.929688 C 217.152344 157.851562 217.464844 154.574219 217.484375 154.4375 C 217.515625 154.15625 217.75 153.945312 218.03125 153.945312 L 239.679688 153.945312 C 239.964844 153.945312 240.199219 154.160156 240.230469 154.4375 C 240.242188 154.574219 240.554688 157.859375 240.203125 161.929688 C 239.722656 167.453125 238.296875 171.558594 235.957031 174.144531 C 234.109375 176.179688 231.722656 177.203125 228.863281 177.203125 Z M 218.53125 155.046875 C 218.460938 156.113281 218.332031 158.785156 218.597656 161.863281 C 218.910156 165.488281 219.855469 170.433594 222.5625 173.414062 C 224.1875 175.203125 226.296875 176.113281 228.832031 176.113281 L 228.855469 176.113281 C 231.390625 176.113281 233.507812 175.203125 235.128906 173.414062 C 236.621094 171.769531 238.519531 168.425781 239.089844 161.863281 C 239.363281 158.785156 239.230469 156.117188 239.15625 155.046875 Z M 218.53125 155.046875 " fill-opacity="1" fill-rule="nonzero"/><path fill="#e2e2e2" d="M 218.207031 154.496094 L 239.601562 154.496094 C 239.601562 154.496094 239.855469 157.097656 239.667969 160.519531 C 235.0625 160.519531 224.488281 160.527344 218.132812 160.527344 C 217.953125 157.097656 218.207031 154.496094 218.207031 154.496094 Z M 218.207031 154.496094 " fill-opacity="1" fill-rule="nonzero"/><path fill="#720c0c" d="M 218.132812 161.074219 C 217.84375 161.074219 217.605469 160.84375 217.585938 160.554688 C 217.398438 157.128906 217.648438 154.550781 217.660156 154.449219 C 217.6875 154.167969 217.921875 153.957031 218.207031 153.957031 L 239.601562 153.957031 C 239.886719 153.957031 240.121094 154.171875 240.152344 154.449219 C 240.164062 154.558594 240.402344 157.128906 240.222656 160.550781 C 240.203125 160.839844 239.964844 161.066406 239.675781 161.066406 C 237.554688 161.066406 234.175781 161.066406 230.519531 161.074219 C 226.230469 161.066406 221.566406 161.074219 218.132812 161.074219 Z M 218.710938 155.046875 C 218.660156 155.890625 218.5625 157.730469 218.660156 159.976562 C 222.03125 159.976562 226.441406 159.976562 230.511719 159.972656 C 233.878906 159.972656 237.011719 159.972656 239.144531 159.964844 C 239.242188 157.71875 239.152344 155.882812 239.089844 155.039062 L 218.710938 155.039062 Z M 218.710938 155.046875 " fill-opacity="1" fill-rule="nonzero"/><path fill="#c43d27" d="M 237.320312 170.714844 C 237.320312 170.714844 229.496094 166.535156 220.105469 170.714844 C 220.105469 170.714844 218.132812 166.355469 218.132812 160.519531 C 226.808594 160.519531 239.722656 160.519531 239.722656 160.519531 C 239.722656 160.519531 239.8125 167.453125 237.320312 170.714844 Z M 237.320312 170.714844 " fill-opacity="1" fill-rule="nonzero"/><path fill="#720c0c" d="M 220.109375 171.265625 C 219.898438 171.265625 219.699219 171.144531 219.609375 170.9375 C 219.527344 170.757812 217.585938 166.398438 217.585938 160.519531 C 217.585938 160.21875 217.832031 159.972656 218.132812 159.972656 L 239.722656 159.972656 C 240.023438 159.972656 240.265625 160.210938 240.269531 160.515625 C 240.269531 160.585938 240.289062 162.316406 240 164.46875 C 239.601562 167.410156 238.851562 169.621094 237.757812 171.054688 C 237.597656 171.265625 237.300781 171.332031 237.066406 171.203125 C 237.023438 171.179688 235.101562 170.179688 232.101562 169.6875 C 229.332031 169.226562 225.039062 169.125 220.332031 171.222656 C 220.261719 171.25 220.183594 171.265625 220.109375 171.265625 Z M 228.773438 168.320312 C 230.117188 168.320312 231.320312 168.445312 232.324219 168.613281 C 234.679688 169.003906 236.378906 169.6875 237.140625 170.03125 C 238.867188 167.375 239.125 162.664062 239.167969 161.078125 L 218.6875 161.078125 C 218.777344 165.351562 219.929688 168.765625 220.40625 170 C 223.472656 168.714844 226.351562 168.320312 228.773438 168.320312 Z M 228.773438 168.320312 " fill-opacity="1" fill-rule="nonzero"/><path fill="#f4ae98" d="M 183.359375 234.570312 L 164.386719 187.019531 L 141.992188 172.605469 C 141.992188 172.605469 147.664062 227.121094 160.195312 250.472656 C 166.921875 263.007812 183.246094 260.171875 183.246094 247.074219 C 183.238281 242.242188 183.359375 234.570312 183.359375 234.570312 Z M 183.359375 234.570312 " fill-opacity="1" fill-rule="nonzero"/><path fill="#720c0c" d="M 172.464844 259.835938 C 167.734375 259.835938 162.367188 257.3125 159.03125 251.097656 C 156.128906 245.683594 153.355469 238.183594 150.789062 228.800781 C 148.75 221.339844 146.832031 212.660156 145.09375 203.019531 C 142.136719 186.613281 140.6875 172.882812 140.675781 172.746094 C 140.621094 172.238281 140.863281 171.75 141.296875 171.488281 C 141.730469 171.222656 142.273438 171.226562 142.699219 171.5 L 165.097656 185.910156 C 165.324219 186.0625 165.507812 186.277344 165.609375 186.53125 L 184.582031 234.082031 C 184.648438 234.246094 184.679688 234.414062 184.679688 234.589844 C 184.679688 234.667969 184.558594 242.304688 184.558594 247.066406 C 184.558594 250.242188 183.65625 253.089844 181.949219 255.300781 C 180.355469 257.367188 178.136719 258.804688 175.535156 259.457031 C 174.566406 259.703125 173.53125 259.835938 172.464844 259.835938 Z M 143.605469 175.214844 C 144.171875 180.015625 145.519531 190.570312 147.6875 202.570312 C 151.566406 224.074219 156.289062 240.425781 161.351562 249.851562 C 163.8125 254.441406 168.953125 258.402344 174.890625 256.910156 C 176.910156 256.402344 178.632812 255.289062 179.859375 253.691406 C 181.210938 251.945312 181.921875 249.65625 181.921875 247.066406 C 181.921875 242.785156 182.015625 236.203125 182.035156 234.804688 L 163.3125 187.890625 Z M 143.605469 175.214844 " fill-opacity="1" fill-rule="nonzero"/><path fill="#f4ae98" d="M 177.660156 186.285156 C 177.660156 186.285156 181.253906 176.324219 171.941406 166.566406 C 162.628906 156.804688 154.433594 148.699219 154.433594 148.699219 C 154.433594 148.699219 144.796875 155.101562 149.730469 160.039062 C 157.753906 168.078125 171.8125 191.421875 177.660156 186.285156 Z M 177.660156 186.285156 " fill-opacity="1" fill-rule="nonzero"/><path fill="#720c0c" d="M 175.714844 188.324219 C 175.570312 188.324219 175.421875 188.320312 175.277344 188.308594 C 172.925781 188.085938 170.109375 186.15625 166.417969 182.226562 C 163.367188 178.984375 160.15625 174.871094 157.050781 170.890625 C 154 166.980469 151.121094 163.289062 148.796875 160.964844 C 147.472656 159.640625 146.863281 158.039062 147.039062 156.335938 C 147.238281 154.363281 148.441406 152.28125 150.621094 150.148438 C 152.164062 148.636719 153.644531 147.648438 153.707031 147.609375 C 154.222656 147.265625 154.917969 147.332031 155.355469 147.769531 C 155.441406 147.847656 163.667969 156.003906 172.886719 165.664062 C 177.964844 170.988281 179.34375 176.394531 179.601562 179.996094 C 179.886719 183.941406 178.9375 186.621094 178.898438 186.734375 C 178.824219 186.945312 178.691406 187.132812 178.53125 187.277344 C 177.734375 187.964844 176.769531 188.324219 175.714844 188.324219 Z M 177.660156 186.285156 Z M 177.660156 186.285156 Z M 154.296875 150.421875 C 152.578125 151.75 149.882812 154.292969 149.652344 156.597656 C 149.5625 157.519531 149.886719 158.339844 150.660156 159.109375 C 153.09375 161.550781 156.023438 165.308594 159.121094 169.277344 C 162.1875 173.210938 165.363281 177.273438 168.324219 180.425781 C 171.46875 183.765625 173.890625 185.535156 175.519531 185.6875 C 175.910156 185.722656 176.226562 185.664062 176.523438 185.488281 C 176.734375 184.710938 177.175781 182.707031 176.96875 180.050781 C 176.609375 175.484375 174.597656 171.257812 170.980469 167.46875 C 163.445312 159.570312 156.574219 152.683594 154.296875 150.421875 Z M 154.296875 150.421875 " fill-opacity="1" fill-rule="nonzero"/><path fill="#f4ae98" d="M 275.394531 236.535156 C 275.394531 236.535156 276.113281 252.652344 271.992188 286.882812 C 278.359375 292.074219 291.042969 295.121094 291.042969 295.121094 C 291.042969 295.121094 298.753906 270.394531 298.875 240.847656 C 286.398438 238.070312 275.394531 236.535156 275.394531 236.535156 Z M 275.394531 236.535156 " fill-opacity="1" fill-rule="nonzero"/><path fill="#720c0c" d="M 291.042969 296.433594 C 290.941406 296.433594 290.839844 296.421875 290.738281 296.398438 C 290.207031 296.269531 277.683594 293.222656 271.160156 287.898438 C 270.8125 287.617188 270.628906 287.171875 270.683594 286.726562 C 274.738281 253.03125 274.085938 236.75 274.082031 236.59375 C 274.0625 236.203125 274.21875 235.824219 274.507812 235.566406 C 274.796875 235.300781 275.191406 235.179688 275.574219 235.234375 C 275.683594 235.253906 286.773438 236.8125 299.15625 239.5625 C 299.761719 239.695312 300.1875 240.234375 300.1875 240.851562 C 300.121094 256.214844 297.984375 270.253906 296.199219 279.316406 C 294.265625 289.152344 292.316406 295.453125 292.296875 295.511719 C 292.121094 296.074219 291.609375 296.433594 291.042969 296.433594 Z M 273.390625 286.304688 C 278.425781 290.085938 286.988281 292.664062 290.140625 293.523438 C 290.785156 291.273438 292.210938 285.992188 293.628906 278.765625 C 295.34375 270.027344 297.398438 256.625 297.550781 241.902344 C 288.359375 239.894531 280.0625 238.570312 276.742188 238.066406 C 276.804688 242.886719 276.671875 258.75 273.390625 286.304688 Z M 273.390625 286.304688 " fill-opacity="1" fill-rule="nonzero"/><path fill="#f4ae98" d="M 271.484375 281.191406 C 271.484375 281.191406 281.652344 278.238281 290.804688 288.160156 C 299.953125 298.066406 307.519531 306.757812 307.519531 306.757812 C 307.519531 306.757812 300.519531 315.964844 295.898438 310.726562 C 288.386719 302.210938 265.980469 286.695312 271.484375 281.191406 Z M 271.484375 281.191406 " fill-opacity="1" fill-rule="nonzero"/><path fill="#720c0c" d="M 299.222656 313.652344 C 297.589844 313.652344 296.105469 312.941406 294.917969 311.597656 C 292.742188 309.136719 289.242188 306.019531 285.53125 302.734375 C 281.753906 299.382812 277.851562 295.914062 274.816406 292.667969 C 271.128906 288.730469 269.382812 285.796875 269.3125 283.445312 C 269.273438 282.214844 269.703125 281.113281 270.550781 280.261719 C 270.707031 280.105469 270.902344 279.992188 271.117188 279.933594 C 271.234375 279.894531 273.972656 279.125 277.886719 279.65625 C 281.464844 280.144531 286.78125 281.859375 291.765625 287.269531 C 300.828125 297.078125 308.433594 305.8125 308.511719 305.902344 C 308.921875 306.371094 308.945312 307.0625 308.566406 307.5625 C 308.519531 307.625 307.441406 309.039062 305.832031 310.476562 C 303.5625 312.511719 301.40625 313.585938 299.429688 313.65625 C 299.363281 313.652344 299.289062 313.652344 299.222656 313.652344 Z M 272.203125 282.371094 C 272.007812 282.65625 271.925781 282.96875 271.9375 283.359375 C 271.984375 284.992188 273.601562 287.519531 276.730469 290.867188 C 279.691406 294.03125 283.542969 297.453125 287.273438 300.765625 C 291.042969 304.113281 294.605469 307.269531 296.882812 309.859375 C 297.605469 310.675781 298.40625 311.054688 299.328125 311.019531 C 300.652344 310.972656 302.296875 310.105469 304.066406 308.515625 C 304.773438 307.882812 305.363281 307.257812 305.785156 306.78125 C 303.664062 304.367188 297.230469 297.070312 289.828125 289.050781 C 286.28125 285.207031 282.183594 282.925781 277.652344 282.28125 C 275.019531 281.894531 272.992188 282.207031 272.203125 282.371094 Z M 272.203125 282.371094 " fill-opacity="1" fill-rule="nonzero"/><path fill="#e5e3e3" d="M 137.003906 123.578125 L 117.015625 143.207031 C 116.914062 143.300781 116.816406 143.398438 116.714844 143.488281 L 103.355469 156.605469 C 99.613281 160.277344 93.601562 160.226562 89.929688 156.484375 L 87.644531 154.160156 L 54.738281 120.675781 L 54.617188 120.554688 C 52.9375 118.839844 52.960938 116.085938 54.671875 114.40625 C 56.382812 112.726562 59.136719 112.75 60.824219 114.460938 L 63.050781 116.730469 L 91.398438 145.574219 L 92.484375 146.675781 C 94.488281 148.714844 97.785156 148.726562 99.835938 146.703125 C 101.824219 144.753906 101.933594 141.609375 100.132812 139.5625 L 68.394531 107.269531 L 68.273438 107.148438 C 67.382812 106.238281 66.964844 105.035156 67.03125 103.855469 C 67.085938 102.808594 67.519531 101.777344 68.328125 100.988281 C 70.042969 99.300781 72.796875 99.332031 74.476562 101.042969 L 76.707031 103.3125 L 105.054688 132.15625 L 106.136719 133.257812 C 108.144531 135.296875 111.4375 135.308594 113.492188 133.285156 C 114.457031 132.339844 114.980469 131.113281 115.058594 129.871094 C 115.144531 128.460938 114.65625 127.03125 113.59375 125.953125 L 112.511719 124.847656 L 84.316406 96.160156 L 81.933594 93.738281 C 81.039062 92.820312 80.628906 91.617188 80.695312 90.429688 C 80.753906 89.390625 81.183594 88.359375 81.988281 87.570312 C 83.707031 85.890625 86.457031 85.914062 88.140625 87.625 L 88.261719 87.746094 L 120.039062 120.078125 C 122.058594 121.886719 125.179688 121.824219 127.160156 119.886719 C 129.21875 117.863281 129.261719 114.570312 127.261719 112.535156 L 126.179688 111.429688 L 97.980469 82.742188 L 95.609375 80.320312 C 93.929688 78.601562 93.953125 75.851562 95.664062 74.171875 C 97.378906 72.492188 100.132812 72.515625 101.8125 74.226562 L 101.933594 74.34375 L 134.839844 107.828125 L 137.125 110.15625 C 140.796875 113.894531 140.742188 119.90625 137.003906 123.578125 Z M 137.003906 123.578125 " fill-opacity="1" fill-rule="nonzero"/><path fill="#720c0c" d="M 96.699219 160.640625 C 93.898438 160.640625 91.097656 159.5625 88.984375 157.414062 L 86.699219 155.085938 L 53.792969 121.601562 L 53.679688 121.484375 C 51.484375 119.253906 51.523438 115.660156 53.75 113.472656 C 54.828125 112.414062 56.257812 111.835938 57.769531 111.851562 C 59.28125 111.863281 60.695312 112.46875 61.757812 113.550781 L 63.984375 115.820312 L 92.332031 144.664062 L 93.417969 145.769531 C 94.910156 147.289062 97.375 147.292969 98.914062 145.78125 C 100.390625 144.335938 100.5 142.007812 99.167969 140.472656 L 67.460938 108.199219 L 67.347656 108.078125 C 66.226562 106.9375 65.640625 105.371094 65.730469 103.78125 C 65.808594 102.375 66.40625 101.046875 67.417969 100.054688 C 69.648438 97.867188 73.238281 97.898438 75.429688 100.128906 L 77.660156 102.398438 L 107.089844 132.339844 C 107.8125 133.074219 108.777344 133.480469 109.8125 133.484375 C 109.820312 133.484375 109.824219 133.484375 109.832031 133.484375 C 110.867188 133.484375 111.84375 133.082031 112.582031 132.351562 C 113.28125 131.667969 113.699219 130.757812 113.757812 129.792969 C 113.824219 128.710938 113.425781 127.644531 112.667969 126.871094 L 111.582031 125.769531 L 81.007812 94.660156 C 79.886719 93.519531 79.304688 91.949219 79.394531 90.351562 C 79.472656 88.945312 80.066406 87.625 81.078125 86.632812 C 82.15625 85.570312 83.585938 84.992188 85.105469 85.011719 C 86.617188 85.023438 88.03125 85.625 89.089844 86.710938 L 89.207031 86.828125 L 120.957031 119.132812 C 122.46875 120.464844 124.785156 120.386719 126.246094 118.953125 C 127.78125 117.441406 127.824219 114.980469 126.328125 113.453125 L 125.246094 112.351562 L 97.042969 83.660156 L 94.667969 81.242188 C 92.484375 79.011719 92.511719 75.417969 94.742188 73.230469 C 95.820312 72.171875 97.246094 71.59375 98.765625 71.609375 C 100.277344 71.625 101.691406 72.226562 102.753906 73.308594 L 102.867188 73.429688 L 135.773438 106.914062 L 138.058594 109.238281 C 140.082031 111.296875 141.183594 114.019531 141.152344 116.910156 C 141.128906 119.796875 139.976562 122.5 137.917969 124.523438 L 117.933594 144.152344 C 117.828125 144.246094 117.726562 144.351562 117.605469 144.457031 L 104.265625 157.558594 C 102.175781 159.609375 99.433594 160.640625 96.699219 160.640625 Z M 57.71875 114.480469 C 56.917969 114.480469 56.167969 114.785156 55.59375 115.347656 C 54.402344 116.519531 54.382812 118.441406 55.550781 119.632812 L 55.667969 119.753906 L 88.574219 153.238281 L 90.855469 155.5625 C 94.019531 158.78125 99.203125 158.828125 102.421875 155.664062 L 115.78125 142.550781 C 115.792969 142.535156 115.8125 142.523438 115.824219 142.511719 C 115.921875 142.429688 116.003906 142.34375 116.089844 142.265625 L 136.074219 122.640625 C 137.636719 121.109375 138.503906 119.0625 138.519531 116.875 C 138.539062 114.6875 137.707031 112.628906 136.175781 111.070312 L 133.894531 108.746094 L 100.988281 75.261719 L 100.875 75.140625 C 100.300781 74.5625 99.542969 74.238281 98.734375 74.230469 C 97.921875 74.226562 97.164062 74.53125 96.585938 75.097656 C 95.390625 76.273438 95.375 78.195312 96.546875 79.386719 L 98.921875 81.820312 L 128.207031 111.617188 C 130.714844 114.171875 130.667969 118.308594 128.089844 120.832031 C 125.628906 123.246094 121.714844 123.351562 119.167969 121.066406 C 119.148438 121.050781 119.125 121.03125 119.105469 121.007812 L 87.332031 88.671875 L 87.21875 88.550781 C 86.644531 87.972656 85.886719 87.648438 85.078125 87.644531 C 84.265625 87.636719 83.507812 87.945312 82.929688 88.511719 C 82.386719 89.039062 82.066406 89.75 82.027344 90.503906 C 81.976562 91.363281 82.289062 92.203125 82.886719 92.816406 L 114.546875 125.03125 C 115.824219 126.332031 116.492188 128.125 116.382812 129.949219 C 116.28125 131.570312 115.589844 133.089844 114.425781 134.226562 C 113.1875 135.441406 111.558594 136.109375 109.832031 136.109375 C 109.820312 136.109375 109.8125 136.109375 109.800781 136.109375 C 108.058594 136.105469 106.425781 135.417969 105.210938 134.179688 L 73.550781 101.964844 C 72.375 100.773438 70.453125 100.753906 69.261719 101.929688 C 68.71875 102.457031 68.398438 103.167969 68.359375 103.925781 C 68.308594 104.78125 68.621094 105.625 69.21875 106.234375 L 69.332031 106.355469 L 101.070312 138.648438 C 101.089844 138.664062 101.109375 138.683594 101.121094 138.699219 C 103.398438 141.285156 103.242188 145.21875 100.757812 147.648438 C 98.1875 150.179688 94.046875 150.15625 91.542969 147.601562 L 90.457031 146.492188 L 62.113281 117.652344 L 59.882812 115.382812 C 59.316406 114.804688 58.558594 114.480469 57.746094 114.472656 C 57.738281 114.480469 57.726562 114.480469 57.71875 114.480469 Z M 137.003906 123.578125 Z M 137.003906 123.578125 " fill-opacity="1" fill-rule="nonzero"/><path fill="#e5e3e3" d="M 129.3125 159.640625 L 140.148438 149 L 125.90625 134.671875 L 115.070312 145.3125 Z M 129.3125 159.640625 " fill-opacity="1" fill-rule="nonzero"/><path fill="#720c0c" d="M 129.3125 160.953125 C 128.972656 160.953125 128.636719 160.820312 128.378906 160.566406 L 114.136719 146.242188 C 113.890625 145.992188 113.75 145.65625 113.757812 145.308594 C 113.757812 144.957031 113.902344 144.621094 114.148438 144.378906 L 124.984375 133.738281 C 125.503906 133.234375 126.328125 133.238281 126.839844 133.75 L 141.082031 148.078125 C 141.328125 148.324219 141.464844 148.660156 141.460938 149.011719 C 141.460938 149.359375 141.316406 149.699219 141.070312 149.9375 L 130.230469 160.582031 C 129.972656 160.832031 129.640625 160.953125 129.3125 160.953125 Z M 116.9375 145.324219 L 129.324219 157.785156 L 138.285156 148.988281 L 125.902344 136.527344 Z M 116.9375 145.324219 " fill-opacity="1" fill-rule="nonzero"/><path fill="#ef7f68" d="M 302.6875 331.929688 C 307.835938 337 316.222656 328.640625 311.152344 323.617188 C 304.464844 316.886719 139.085938 150.160156 139.085938 150.160156 L 130.625 158.472656 C 130.625 158.464844 295.90625 325.335938 302.6875 331.929688 Z M 302.6875 331.929688 " fill-opacity="1" fill-rule="nonzero"/><path fill="#720c0c" d="M 306.339844 334.820312 C 304.765625 334.820312 303.164062 334.242188 301.765625 332.871094 C 295.011719 326.304688 131.339844 161.0625 129.683594 159.394531 C 129.4375 159.148438 129.296875 158.808594 129.304688 158.460938 C 129.304688 158.109375 129.449219 157.773438 129.695312 157.53125 L 138.160156 149.222656 C 138.675781 148.714844 139.503906 148.722656 140.015625 149.234375 C 141.671875 150.902344 305.429688 316 312.078125 322.691406 C 315.15625 325.746094 314.242188 329.894531 311.746094 332.421875 C 310.3125 333.875 308.351562 334.820312 306.339844 334.820312 Z M 132.484375 158.484375 C 145.851562 171.980469 297.171875 324.734375 303.601562 330.992188 C 303.601562 330.992188 303.609375 330.996094 303.609375 330.996094 C 304.535156 331.90625 305.601562 332.304688 306.789062 332.171875 C 307.875 332.050781 309 331.472656 309.875 330.582031 C 311.457031 328.980469 312.175781 326.496094 310.222656 324.558594 C 310.222656 324.558594 310.21875 324.550781 310.21875 324.550781 C 303.867188 318.15625 152.398438 165.457031 139.074219 152.023438 Z M 132.484375 158.484375 " fill-opacity="1" fill-rule="nonzero"/><path fill="#f4ae98" d="M 279.070312 296.890625 C 285.738281 290.910156 278.617188 283.496094 272.339844 289.132812 C 279.394531 282.804688 271.152344 276.402344 265.292969 281.65625 C 255.382812 290.542969 256.042969 296.109375 266.703125 307.984375 C 277.363281 319.859375 282.828125 321.113281 292.738281 312.222656 C 298.589844 306.972656 293.117188 298.082031 286.0625 304.414062 C 292.339844 298.78125 285.738281 290.910156 279.070312 296.890625 Z M 279.070312 296.890625 " fill-opacity="1" fill-rule="nonzero"/><path fill="#720c0c" d="M 281.574219 319.347656 C 280.972656 319.347656 280.371094 319.292969 279.769531 319.191406 C 275.738281 318.488281 271.671875 315.5 265.722656 308.863281 C 259.769531 302.234375 257.234375 297.867188 256.96875 293.785156 C 256.691406 289.519531 258.921875 285.597656 264.414062 280.671875 C 266.707031 278.613281 269.625 277.898438 272.226562 278.746094 C 274.328125 279.433594 275.835938 281.035156 276.257812 283.023438 C 276.394531 283.691406 276.46875 284.679688 276.117188 285.863281 C 277.085938 285.738281 278.046875 285.824219 278.96875 286.125 C 281.015625 286.792969 282.496094 288.429688 282.9375 290.515625 C 283.148438 291.507812 283.097656 292.523438 282.820312 293.53125 C 283.152344 293.476562 283.492188 293.445312 283.820312 293.441406 C 285.605469 293.410156 287.226562 294.109375 288.375 295.398438 C 289.652344 296.820312 290.242188 298.871094 289.726562 301.023438 C 290.9375 300.804688 291.910156 300.988281 292.554688 301.199219 C 294.488281 301.828125 295.917969 303.496094 296.375 305.660156 C 296.941406 308.335938 295.90625 311.160156 293.609375 313.21875 C 288.898438 317.433594 285.1875 319.347656 281.574219 319.347656 Z M 270.023438 281.027344 C 268.703125 281.027344 267.335938 281.582031 266.167969 282.628906 C 261.339844 286.960938 259.371094 290.242188 259.589844 293.617188 C 259.804688 297.007812 262.226562 301.039062 267.671875 307.105469 C 273.117188 313.175781 276.871094 316.011719 280.214844 316.597656 C 283.539062 317.175781 287.015625 315.578125 291.84375 311.25 C 293.429688 309.828125 294.160156 307.9375 293.789062 306.191406 C 293.53125 304.957031 292.761719 304.023438 291.730469 303.683594 C 290.363281 303.238281 288.660156 303.847656 286.929688 305.394531 C 286.386719 305.882812 285.554688 305.835938 285.074219 305.292969 C 284.585938 304.75 284.636719 303.917969 285.175781 303.4375 C 287.796875 301.089844 287.652344 298.53125 286.410156 297.152344 C 285.152344 295.746094 282.664062 295.429688 279.941406 297.875 C 279.402344 298.359375 278.570312 298.3125 278.085938 297.769531 C 277.863281 297.519531 277.75 297.203125 277.75 296.890625 C 277.75 296.53125 277.894531 296.175781 278.191406 295.910156 C 279.894531 294.378906 280.691406 292.609375 280.359375 291.050781 C 280.117188 289.898438 279.292969 288.988281 278.148438 288.617188 C 276.625 288.117188 274.824219 288.660156 273.214844 290.105469 C 272.671875 290.59375 271.839844 290.542969 271.359375 290 C 270.871094 289.460938 270.917969 288.628906 271.460938 288.148438 C 271.460938 288.148438 271.460938 288.148438 271.46875 288.140625 C 273.191406 286.59375 273.980469 284.96875 273.683594 283.558594 C 273.460938 282.496094 272.613281 281.628906 271.414062 281.238281 C 270.960938 281.101562 270.496094 281.027344 270.023438 281.027344 Z M 270.023438 281.027344 " fill-opacity="1" fill-rule="nonzero"/><path fill="#720c0c" d="M 280.515625 310.34375 C 280.136719 310.34375 279.761719 310.183594 279.503906 309.871094 C 279.039062 309.308594 279.117188 308.484375 279.671875 308.015625 L 285.21875 303.40625 C 285.78125 302.945312 286.605469 303.023438 287.074219 303.578125 C 287.539062 304.136719 287.460938 304.960938 286.90625 305.429688 L 281.359375 310.039062 C 281.105469 310.242188 280.808594 310.34375 280.515625 310.34375 Z M 280.515625 310.34375 " fill-opacity="1" fill-rule="nonzero"/><path fill="#720c0c" d="M 273.949219 302.449219 C 273.570312 302.449219 273.195312 302.289062 272.9375 301.972656 C 272.472656 301.414062 272.550781 300.589844 273.105469 300.121094 L 278.652344 295.511719 C 279.214844 295.046875 280.039062 295.125 280.507812 295.679688 C 280.972656 296.242188 280.894531 297.066406 280.339844 297.535156 L 274.792969 302.144531 C 274.546875 302.355469 274.25 302.449219 273.949219 302.449219 Z M 273.949219 302.449219 " fill-opacity="1" fill-rule="nonzero"/><path fill="#720c0c" d="M 267.40625 294.5 C 267.027344 294.5 266.65625 294.339844 266.394531 294.023438 C 265.933594 293.464844 266.011719 292.640625 266.5625 292.167969 L 272.113281 287.5625 C 272.671875 287.097656 273.496094 287.175781 273.96875 287.730469 C 274.429688 288.292969 274.351562 289.117188 273.796875 289.585938 L 268.25 294.195312 C 268.003906 294.402344 267.703125 294.5 267.40625 294.5 Z M 267.40625 294.5 " fill-opacity="1" fill-rule="nonzero"/><path fill="#f4ae98" d="M 162.46875 177.714844 C 168.867188 171.4375 175.8125 179.015625 169.789062 184.921875 C 176.554688 178.285156 182.421875 186.921875 176.808594 192.425781 C 167.300781 201.75 161.789062 200.738281 150.609375 189.34375 C 139.429688 177.949219 138.527344 172.421875 148.03125 163.097656 C 153.644531 157.585938 162.167969 163.621094 155.40625 170.253906 C 161.421875 164.355469 168.863281 171.445312 162.46875 177.714844 Z M 162.46875 177.714844 " fill-opacity="1" fill-rule="nonzero"/><path fill="#720c0c" d="M 165.519531 200.050781 C 165.066406 200.050781 164.613281 200.019531 164.164062 199.960938 C 160.109375 199.4375 155.910156 196.628906 149.671875 190.269531 C 143.429688 183.910156 140.703125 179.660156 140.253906 175.59375 C 139.792969 171.347656 141.839844 167.332031 147.109375 162.164062 C 149.308594 160.007812 152.195312 159.160156 154.828125 159.886719 C 156.960938 160.476562 158.53125 162.011719 159.039062 163.984375 C 159.207031 164.640625 159.320312 165.628906 159.03125 166.820312 C 161.207031 166.441406 163.21875 167.15625 164.5625 168.523438 C 165.773438 169.757812 166.363281 171.414062 166.222656 173.195312 C 166.199219 173.527344 166.144531 173.859375 166.074219 174.183594 C 167.097656 173.96875 168.113281 173.984375 169.089844 174.257812 C 171.136719 174.828125 172.679688 176.414062 173.214844 178.496094 C 173.457031 179.4375 173.480469 180.398438 173.289062 181.359375 C 174.492188 181.085938 175.476562 181.21875 176.132812 181.398438 C 178.097656 181.949219 179.59375 183.550781 180.144531 185.6875 C 180.824219 188.332031 179.921875 191.203125 177.722656 193.359375 C 173.019531 197.984375 169.277344 200.050781 165.519531 200.050781 Z M 152.933594 162.265625 C 151.554688 162.265625 150.128906 162.894531 148.953125 164.042969 C 144.320312 168.585938 142.503906 171.949219 142.871094 175.304688 C 143.238281 178.683594 145.832031 182.605469 151.542969 188.429688 C 157.253906 194.25 161.128906 196.917969 164.496094 197.351562 C 167.84375 197.785156 171.246094 196.035156 175.875 191.492188 C 177.390625 190 178.035156 188.085938 177.589844 186.355469 C 177.277344 185.132812 176.464844 184.234375 175.421875 183.941406 C 174.035156 183.554688 172.359375 184.234375 170.703125 185.863281 C 170.1875 186.367188 169.355469 186.363281 168.84375 185.84375 C 168.335938 185.328125 168.34375 184.496094 168.863281 183.984375 C 170.402344 182.464844 171.058594 180.707031 170.664062 179.152344 C 170.363281 177.992188 169.507812 177.113281 168.375 176.792969 C 166.84375 176.363281 165.023438 177.046875 163.386719 178.648438 C 162.867188 179.152344 162.035156 179.148438 161.523438 178.628906 C 161.273438 178.371094 161.144531 178.039062 161.152344 177.707031 C 161.152344 177.363281 161.285156 177.027344 161.542969 176.769531 C 164.15625 174.207031 163.996094 171.703125 162.675781 170.359375 C 161.375 169.035156 158.832031 168.730469 156.316406 171.191406 C 155.796875 171.699219 154.964844 171.691406 154.453125 171.171875 C 153.945312 170.65625 153.953125 169.824219 154.472656 169.3125 C 154.472656 169.3125 154.476562 169.308594 154.476562 169.308594 C 156.128906 167.679688 156.84375 166.023438 156.484375 164.632812 C 156.210938 163.585938 155.328125 162.753906 154.109375 162.417969 C 153.738281 162.320312 153.339844 162.265625 152.933594 162.265625 Z M 152.933594 162.265625 " fill-opacity="1" fill-rule="nonzero"/><path fill="#720c0c" d="M 150.449219 176.816406 C 150.121094 176.816406 149.796875 176.695312 149.542969 176.457031 C 149.015625 175.957031 148.988281 175.125 149.488281 174.59375 L 154.441406 169.355469 C 154.941406 168.824219 155.773438 168.800781 156.300781 169.300781 C 156.832031 169.800781 156.855469 170.632812 156.355469 171.160156 L 151.40625 176.402344 C 151.144531 176.679688 150.796875 176.816406 150.449219 176.816406 Z M 150.449219 176.816406 " fill-opacity="1" fill-rule="nonzero"/><path fill="#720c0c" d="M 157.90625 183.867188 C 157.578125 183.867188 157.253906 183.75 157 183.507812 C 156.472656 183.007812 156.445312 182.175781 156.945312 181.648438 L 161.898438 176.40625 C 162.398438 175.878906 163.230469 175.851562 163.757812 176.351562 C 164.289062 176.851562 164.3125 177.683594 163.8125 178.214844 L 158.863281 183.453125 C 158.601562 183.730469 158.253906 183.867188 157.90625 183.867188 Z M 157.90625 183.867188 " fill-opacity="1" fill-rule="nonzero"/><path fill="#720c0c" d="M 165.421875 190.902344 C 165.097656 190.902344 164.773438 190.78125 164.519531 190.542969 C 163.988281 190.042969 163.964844 189.210938 164.464844 188.679688 L 169.414062 183.441406 C 169.914062 182.910156 170.746094 182.886719 171.277344 183.386719 C 171.808594 183.886719 171.832031 184.71875 171.332031 185.246094 L 166.378906 190.488281 C 166.121094 190.765625 165.773438 190.902344 165.421875 190.902344 Z M 165.421875 190.902344 " fill-opacity="1" fill-rule="nonzero"/><path fill="#ed9077" d="M 297.578125 242.027344 C 297.578125 242.027344 284.203125 238.539062 276.757812 238.167969 C 276.191406 260.683594 274.214844 279.433594 274.214844 279.433594 C 274.214844 279.433594 278.675781 265.628906 282.847656 249.457031 C 285.195312 241.0625 297.578125 242.027344 297.578125 242.027344 Z M 297.578125 242.027344 " fill-opacity="1" fill-rule="nonzero"/><path fill="#ed9077" d="M 172.777344 211.585938 C 172.777344 211.585938 181.667969 234.566406 174.410156 243.738281 C 165.585938 254.886719 148.429688 206.410156 148.429688 206.410156 C 148.429688 206.410156 154.394531 241.816406 163.277344 252.699219 C 172.164062 263.585938 182.332031 254.300781 182.332031 248.132812 C 182.332031 241.972656 182.332031 234.847656 182.332031 234.847656 Z M 172.777344 211.585938 " fill-opacity="1" fill-rule="nonzero"/><path fill="#ed9077" d="M 172.890625 93.320312 C 175.433594 83.890625 228.832031 82.664062 228.832031 82.664062 L 228.945312 82.664062 C 228.945312 82.664062 282.347656 83.890625 284.894531 93.320312 C 288.464844 106.570312 287.097656 129.816406 287.097656 129.816406 C 287.097656 129.816406 284.542969 136.320312 282.320312 135.164062 C 280.097656 134.015625 280.261719 112.863281 275.324219 100.433594 C 274.828125 107.347656 275.324219 108.335938 271.703125 107.511719 C 268.082031 106.6875 255.816406 104.214844 253.265625 103.808594 C 250.710938 103.398438 250.054688 99.855469 250.054688 99.855469 C 250.054688 99.855469 250.054688 103.476562 247.253906 103.476562 C 244.453125 103.476562 235.644531 103.3125 232.1875 103.3125 C 228.730469 103.3125 228.894531 100.433594 228.894531 100.433594 L 228.878906 100.433594 C 228.878906 100.433594 229.042969 103.3125 225.585938 103.3125 C 222.128906 103.3125 213.320312 103.476562 210.519531 103.476562 C 207.71875 103.476562 207.71875 99.855469 207.71875 99.855469 C 207.71875 99.855469 207.0625 103.398438 204.507812 103.808594 C 201.957031 104.214844 189.691406 106.6875 186.070312 107.511719 C 182.449219 108.335938 182.945312 107.347656 182.449219 100.433594 C 177.511719 112.859375 177.675781 134.007812 175.453125 135.164062 C 173.230469 136.316406 170.675781 129.816406 170.675781 129.816406 C 170.675781 129.816406 169.320312 106.570312 172.890625 93.320312 Z M 172.890625 93.320312 " fill-opacity="1" fill-rule="nonzero"/><path fill="#720c0c" d="M 229.066406 44.4375 L 228.695312 44.4375 C 162.753906 44.4375 160.933594 97.296875 160.855469 111.785156 C 164.035156 110.835938 166.890625 110.527344 166.890625 110.527344 C 166.890625 110.527344 169.601562 131.148438 173.222656 131.046875 C 176.332031 131.402344 174.542969 105.421875 185.15625 91.128906 C 186.714844 89.027344 182.738281 105.59375 186.121094 104.9375 C 186.121094 104.9375 193.417969 103.023438 204.28125 101.101562 C 206.414062 100.722656 206.757812 88.214844 207.875 88.035156 C 208.714844 87.894531 208.628906 100.429688 211.140625 100.429688 C 215.296875 100.429688 220.039062 100.308594 225.550781 100.308594 C 227.585938 100.308594 227.6875 86.539062 228.839844 86.539062 L 228.917969 86.539062 C 230.066406 86.539062 230.167969 100.308594 232.207031 100.308594 C 237.71875 100.308594 242.457031 100.429688 246.613281 100.429688 C 249.121094 100.429688 249.035156 87.894531 249.878906 88.035156 C 251 88.214844 251.34375 100.730469 253.476562 101.101562 C 264.339844 103.023438 271.636719 104.9375 271.636719 104.9375 C 275.019531 105.59375 271.039062 89.027344 272.601562 91.128906 C 283.214844 105.421875 281.425781 131.394531 284.53125 131.046875 C 288.152344 131.148438 290.863281 110.527344 290.863281 110.527344 C 290.863281 110.527344 293.71875 110.835938 296.898438 111.785156 C 296.828125 97.296875 295.007812 44.4375 229.066406 44.4375 Z M 229.066406 44.4375 " fill-opacity="1" fill-rule="nonzero"/><path fill="#ed9077" d="M 222.851562 140.152344 C 225.894531 140.152344 230.140625 140.152344 234.855469 140.152344 C 236.375 147.257812 234.785156 149.335938 229.132812 149.335938 L 228.609375 149.335938 C 222.960938 149.335938 221.328125 147.253906 222.851562 140.152344 Z M 222.851562 140.152344 " fill-opacity="1" fill-rule="nonzero"/><path fill="#f4ae98" d="M 234.023438 138.152344 L 227.605469 127.746094 C 227.605469 127.746094 224.875 131.96875 223.722656 138.152344 C 222.664062 143.863281 224.171875 145.488281 228.667969 145.488281 L 229.085938 145.488281 C 233.578125 145.488281 235.234375 143.824219 234.023438 138.152344 Z M 234.023438 138.152344 " fill-opacity="1" fill-rule="nonzero"/><path fill="#720c0c" d="M 229.078125 146.035156 L 228.664062 146.035156 C 226.207031 146.035156 224.707031 145.554688 223.808594 144.46875 C 222.777344 143.234375 222.585938 141.253906 223.183594 138.050781 C 224.339844 131.828125 227.027344 127.625 227.140625 127.445312 C 227.300781 127.191406 227.644531 127.121094 227.898438 127.28125 C 228.152344 127.445312 228.222656 127.789062 228.0625 128.042969 C 228.039062 128.082031 225.375 132.25 224.261719 138.25 C 223.738281 141.0625 223.863281 142.8125 224.652344 143.765625 C 225.328125 144.574219 226.5625 144.933594 228.664062 144.933594 L 229.078125 144.933594 C 231.199219 144.933594 232.507812 144.542969 233.179688 143.707031 C 233.96875 142.722656 234.074219 140.996094 233.484375 138.261719 C 233.417969 137.964844 233.609375 137.671875 233.90625 137.609375 C 234.199219 137.542969 234.496094 137.738281 234.554688 138.03125 C 235.210938 141.117188 235.046875 143.140625 234.03125 144.398438 C 233.121094 145.53125 231.589844 146.035156 229.078125 146.035156 Z M 229.078125 146.035156 " fill-opacity="1" fill-rule="nonzero"/><path fill="#720c0c" d="M 263.703125 105.097656 C 265.3125 105.988281 264.492188 107.167969 263.160156 106.566406 C 263.160156 106.566406 258.523438 104.164062 251.714844 106.703125 C 250.648438 107.101562 249.492188 107.667969 248.933594 106.910156 C 247.835938 105.488281 254.976562 101.253906 263.703125 105.097656 Z M 263.703125 105.097656 " fill-opacity="1" fill-rule="nonzero"/><path fill="#720c0c" d="M 193.839844 105.097656 C 192.234375 105.988281 193.050781 107.167969 194.382812 106.566406 C 194.382812 106.566406 199.023438 104.164062 205.828125 106.703125 C 206.894531 107.101562 208.050781 107.667969 208.609375 106.910156 C 209.707031 105.488281 202.570312 101.253906 193.839844 105.097656 Z M 193.839844 105.097656 " fill-opacity="1" fill-rule="nonzero"/><g clip-path="url(#8cf65d166e)"><path fill="#720c0c" d="M 182.59375 79.445312 C 182.171875 79.445312 181.753906 79.445312 181.34375 79.441406 C 174.085938 79.351562 170.03125 78.410156 167.785156 76.300781 C 166.566406 75.164062 165.929688 73.695312 165.929688 72.042969 C 165.929688 62.554688 172.886719 52.84375 185.023438 45.40625 C 190.925781 41.792969 197.667969 38.941406 205.0625 36.921875 C 212.894531 34.785156 221.097656 33.699219 229.445312 33.699219 C 237.796875 33.699219 246 34.785156 253.84375 36.921875 C 261.238281 38.941406 267.980469 41.792969 273.882812 45.40625 C 286.015625 52.839844 292.972656 62.546875 292.972656 72.042969 C 292.972656 73.675781 292.339844 75.128906 291.152344 76.242188 C 287.164062 79.976562 277.613281 79.53125 259.660156 78.34375 C 250.964844 77.773438 241.101562 77.117188 231.246094 77.167969 C 221.527344 77.222656 211.59375 77.886719 202.835938 78.46875 C 195.039062 78.996094 188.234375 79.445312 182.59375 79.445312 Z M 229.445312 38.964844 C 221.566406 38.964844 213.828125 39.988281 206.4375 42 C 199.523438 43.882812 193.238281 46.539062 187.761719 49.894531 C 182.578125 53.066406 178.324219 56.796875 175.453125 60.675781 C 172.621094 64.503906 171.179688 68.328125 171.179688 72.042969 C 171.179688 72.226562 171.210938 72.308594 171.375 72.460938 C 172.019531 73.0625 174.175781 74.085938 181.410156 74.175781 C 187.078125 74.25 194.214844 73.773438 202.480469 73.226562 C 211.316406 72.636719 221.332031 71.964844 231.210938 71.914062 C 241.257812 71.859375 251.214844 72.515625 260.003906 73.09375 C 267.394531 73.582031 273.773438 74.003906 278.796875 73.921875 C 285.097656 73.828125 286.988281 72.925781 287.550781 72.398438 C 287.675781 72.28125 287.707031 72.21875 287.707031 72.042969 C 287.707031 68.328125 286.273438 64.503906 283.4375 60.675781 C 280.570312 56.796875 276.308594 53.066406 271.125 49.894531 C 265.648438 46.539062 259.367188 43.882812 252.449219 42 C 245.066406 39.980469 237.324219 38.964844 229.445312 38.964844 Z M 229.445312 38.964844 " fill-opacity="1" fill-rule="nonzero"/></g><path fill="#e16c00" d="M 168.554688 72.042969 C 168.554688 80.929688 200.203125 74.71875 231.230469 74.542969 C 261.070312 74.375 290.339844 80.585938 290.339844 72.042969 C 290.339844 54.621094 263.078125 36.332031 229.445312 36.332031 C 195.816406 36.332031 168.554688 54.621094 168.554688 72.042969 Z M 168.554688 72.042969 " fill-opacity="1" fill-rule="nonzero"/><path fill="#720c0c" d="M 300.230469 102.210938 C 297.75 102.210938 296.15625 102.121094 296.027344 102.113281 C 294.960938 102.046875 294.03125 101.351562 293.6875 100.332031 C 291.929688 95.164062 284.195312 90.984375 271.316406 88.25 C 265.292969 86.972656 252.226562 84.832031 232.363281 84.832031 L 225.617188 84.832031 C 217.09375 84.832031 200.695312 85.277344 186.660156 88.25 C 173.78125 90.984375 166.042969 95.160156 164.289062 100.332031 C 163.945312 101.34375 163.023438 102.046875 161.953125 102.113281 C 161.695312 102.132812 155.53125 102.480469 148.140625 101.757812 C 137.898438 100.753906 130.5625 98.222656 126.335938 94.242188 C 123.539062 91.605469 122.117188 88.382812 122.117188 84.667969 C 122.117188 79.589844 124.949219 75.050781 130.535156 71.171875 C 135.460938 67.75 142.617188 64.8125 151.804688 62.4375 C 169.542969 57.863281 194.539062 55.441406 224.097656 55.441406 C 224.128906 55.441406 224.152344 55.441406 224.183594 55.441406 L 229.921875 55.628906 C 259.816406 55.628906 285.476562 58.011719 304.132812 62.523438 C 313.867188 64.878906 321.46875 67.78125 326.726562 71.148438 C 332.78125 75.027344 335.847656 79.574219 335.847656 84.671875 C 335.847656 88.394531 334.433594 91.613281 331.632812 94.25 C 327.402344 98.230469 320.066406 100.757812 309.824219 101.765625 C 306.128906 102.121094 302.730469 102.210938 300.230469 102.210938 Z M 161.800781 99.488281 Z M 297.945312 96.921875 C 300.199219 96.976562 304.5625 96.996094 309.398438 96.515625 C 318.289062 95.632812 324.734375 93.519531 328.039062 90.40625 C 329.765625 88.78125 330.601562 86.902344 330.601562 84.660156 C 330.601562 81.476562 328.347656 78.417969 323.902344 75.566406 C 319.136719 72.515625 312.074219 69.839844 302.910156 67.628906 C 293.855469 65.445312 282.953125 63.75 270.507812 62.601562 C 258.113281 61.457031 244.453125 60.878906 229.894531 60.878906 C 229.863281 60.878906 229.839844 60.878906 229.808594 60.878906 L 224.066406 60.691406 C 194.960938 60.691406 170.433594 63.058594 153.128906 67.527344 C 144.550781 69.746094 137.960938 72.417969 133.546875 75.488281 C 129.460938 78.324219 127.390625 81.414062 127.390625 84.667969 C 127.390625 86.90625 128.226562 88.785156 129.949219 90.414062 C 133.25 93.527344 139.695312 95.640625 148.59375 96.519531 C 153.429688 97 157.789062 96.984375 160.042969 96.929688 C 161.664062 93.75 164.667969 90.972656 169.011719 88.667969 C 173.222656 86.425781 178.792969 84.558594 185.578125 83.121094 C 191.800781 81.800781 205.28125 79.585938 225.621094 79.585938 L 232.367188 79.585938 C 241.097656 79.585938 257.914062 80.042969 272.414062 83.121094 C 279.195312 84.558594 284.765625 86.425781 288.976562 88.667969 C 293.320312 90.96875 296.328125 93.742188 297.945312 96.921875 Z M 297.945312 96.921875 " fill-opacity="1" fill-rule="nonzero"/><path fill="#e16c00" d="M 225.621094 82.203125 C 200.703125 82.203125 166.480469 85.722656 161.808594 99.488281 C 161.808594 99.488281 124.761719 101.6875 124.761719 84.660156 C 124.761719 67.636719 165.542969 58.0625 224.109375 58.0625 L 229.894531 58.246094 C 288.464844 58.246094 333.234375 67.636719 333.234375 84.660156 C 333.234375 101.6875 296.1875 99.488281 296.1875 99.488281 C 291.507812 85.722656 257.292969 82.203125 232.375 82.203125 Z M 225.621094 82.203125 " fill-opacity="1" fill-rule="nonzero"/><path fill="#ffffff" d="M 193.972656 47.023438 C 208.191406 40.082031 242.796875 36.488281 264.457031 47.359375 C 271.902344 52.273438 254.292969 47.40625 229.519531 47.761719 C 213.929688 47.992188 188.035156 49.925781 193.972656 47.023438 Z M 193.972656 47.023438 " fill-opacity="1" fill-rule="nonzero"/><path fill="#720c0c" d="M 286.675781 108.992188 C 287.398438 108.945312 288.03125 109.484375 288.082031 110.214844 C 289.183594 125.855469 288.714844 141.054688 288.707031 141.207031 C 288.683594 141.917969 288.097656 142.476562 287.394531 142.476562 C 287.382812 142.476562 287.363281 142.476562 287.351562 142.476562 C 286.621094 142.453125 286.054688 141.84375 286.082031 141.121094 C 286.085938 140.972656 286.550781 125.902344 285.460938 110.394531 C 285.40625 109.671875 285.949219 109.046875 286.675781 108.992188 Z M 286.675781 108.992188 " fill-opacity="1" fill-rule="nonzero"/><path fill="#720c0c" d="M 169.320312 110.214844 C 169.367188 109.492188 170 108.945312 170.722656 108.992188 C 171.445312 109.039062 171.992188 109.671875 171.945312 110.394531 C 170.855469 125.898438 171.320312 140.972656 171.324219 141.121094 C 171.347656 141.851562 170.777344 142.453125 170.054688 142.476562 C 170.042969 142.476562 170.023438 142.476562 170.011719 142.476562 C 169.308594 142.476562 168.722656 141.917969 168.699219 141.207031 C 168.691406 141.054688 168.222656 125.855469 169.320312 110.214844 Z M 169.320312 110.214844 " fill-opacity="1" fill-rule="nonzero"/></svg>