<svg xmlns="http://www.w3.org/2000/svg" xmlns:xlink="http://www.w3.org/1999/xlink" width="650" zoomAndPan="magnify" viewBox="0 0 487.5 337.499995" height="450" preserveAspectRatio="xMidYMid meet" version="1.0"><defs><clipPath id="0f995ecad7"><path d="M 0.109375 0 L 486.890625 0 L 486.890625 337 L 0.109375 337 Z M 0.109375 0 " clip-rule="nonzero"/></clipPath><clipPath id="533e989c09"><path d="M 112.40625 40 L 362.535156 40 L 362.535156 291.320312 L 112.40625 291.320312 Z M 112.40625 40 " clip-rule="nonzero"/></clipPath><clipPath id="e550a7df42"><path d="M 139 172 L 337 172 L 337 291.320312 L 139 291.320312 Z M 139 172 " clip-rule="nonzero"/></clipPath><clipPath id="c2f0cee1f3"><path d="M 188 174 L 288 174 L 288 291.320312 L 188 291.320312 Z M 188 174 " clip-rule="nonzero"/></clipPath><clipPath id="b5ad09b5cf"><path d="M 176 33.699219 L 299 33.699219 L 299 78 L 176 78 Z M 176 33.699219 " clip-rule="nonzero"/></clipPath></defs><g clip-path="url(#0f995ecad7)"><path fill="#ffffff" d="M 0.109375 0 L 486.890625 0 L 486.890625 337 L 0.109375 337 Z M 0.109375 0 " fill-opacity="1" fill-rule="nonzero"/><path fill="#f8fffa" d="M 0.109375 0 L 486.890625 0 L 486.890625 337 L 0.109375 337 Z M 0.109375 0 " fill-opacity="1" fill-rule="nonzero"/></g><g clip-path="url(#533e989c09)"><path fill="#720c0c" d="M 237.472656 291.320312 C 220.59375 291.320312 204.21875 288.007812 188.800781 281.476562 C 181.390625 278.335938 174.246094 274.449219 167.5625 269.925781 C 160.941406 265.445312 154.71875 260.304688 149.058594 254.636719 C 143.402344 248.96875 138.269531 242.734375 133.792969 236.105469 C 129.277344 229.40625 125.398438 222.253906 122.265625 214.832031 C 115.742188 199.390625 112.4375 182.992188 112.4375 166.085938 C 112.4375 149.179688 115.742188 132.78125 122.265625 117.339844 C 125.398438 109.917969 129.277344 102.757812 133.792969 96.066406 C 138.269531 89.433594 143.402344 83.203125 149.058594 77.535156 C 154.71875 71.867188 160.945312 66.726562 167.5625 62.246094 C 174.25 57.722656 181.390625 53.835938 188.800781 50.695312 C 204.21875 44.164062 220.59375 40.855469 237.472656 40.855469 C 254.351562 40.855469 270.726562 44.164062 286.140625 50.695312 C 293.550781 53.835938 300.699219 57.722656 307.382812 62.246094 C 314.003906 66.726562 320.226562 71.867188 325.882812 77.535156 C 331.542969 83.203125 336.675781 89.4375 341.148438 96.066406 C 345.664062 102.765625 349.546875 109.917969 352.679688 117.339844 C 359.199219 132.78125 362.507812 149.179688 362.507812 166.085938 C 362.507812 182.992188 359.199219 199.390625 352.679688 214.832031 C 349.546875 222.253906 345.664062 229.414062 341.148438 236.105469 C 336.675781 242.738281 331.542969 248.96875 325.882812 254.636719 C 320.226562 260.304688 314 265.445312 307.382812 269.925781 C 300.695312 274.449219 293.550781 278.335938 286.140625 281.476562 C 270.726562 288.007812 254.351562 291.320312 237.472656 291.320312 Z M 237.472656 46.355469 C 221.332031 46.355469 205.675781 49.519531 190.941406 55.761719 C 176.710938 61.792969 163.925781 70.425781 152.945312 81.421875 C 141.964844 92.417969 133.34375 105.222656 127.328125 119.480469 C 121.097656 134.238281 117.933594 149.921875 117.933594 166.085938 C 117.933594 182.25 121.097656 197.933594 127.328125 212.691406 C 133.351562 226.949219 141.964844 239.753906 152.945312 250.75 C 163.925781 261.746094 176.710938 270.382812 190.945312 276.410156 C 205.679688 282.652344 221.339844 285.816406 237.476562 285.816406 C 253.617188 285.816406 269.273438 282.652344 284.007812 276.410156 C 298.246094 270.378906 311.03125 261.746094 322.007812 250.75 C 332.988281 239.753906 341.609375 226.949219 347.625 212.691406 C 353.859375 197.933594 357.019531 182.25 357.019531 166.085938 C 357.019531 149.921875 353.859375 134.238281 347.625 119.480469 C 341.605469 105.222656 332.988281 92.417969 322.007812 81.421875 C 311.03125 70.425781 298.246094 61.789062 284.007812 55.761719 C 269.269531 49.519531 253.609375 46.355469 237.472656 46.355469 Z M 237.472656 46.355469 " fill-opacity="1" fill-rule="nonzero"/></g><path fill="#ffcc00" d="M 359.761719 166.085938 C 359.761719 168.089844 359.714844 170.09375 359.617188 172.097656 C 359.519531 174.097656 359.371094 176.097656 359.175781 178.089844 C 358.976562 180.085938 358.734375 182.074219 358.441406 184.058594 C 358.144531 186.042969 357.804688 188.015625 357.414062 189.980469 C 357.023438 191.949219 356.585938 193.902344 356.097656 195.847656 C 355.613281 197.792969 355.078125 199.722656 354.496094 201.640625 C 353.917969 203.558594 353.289062 205.460938 352.613281 207.351562 C 351.941406 209.238281 351.21875 211.105469 350.453125 212.957031 C 349.6875 214.8125 348.878906 216.644531 348.023438 218.453125 C 347.167969 220.265625 346.265625 222.058594 345.324219 223.824219 C 344.378906 225.59375 343.394531 227.335938 342.363281 229.054688 C 341.335938 230.773438 340.265625 232.46875 339.152344 234.136719 C 338.042969 235.800781 336.890625 237.441406 335.699219 239.050781 C 334.503906 240.660156 333.273438 242.238281 332.003906 243.789062 C 330.734375 245.339844 329.429688 246.855469 328.082031 248.339844 C 326.738281 249.828125 325.359375 251.277344 323.945312 252.695312 C 322.53125 254.113281 321.082031 255.496094 319.597656 256.839844 C 318.113281 258.1875 316.601562 259.496094 315.050781 260.769531 C 313.503906 262.039062 311.929688 263.273438 310.320312 264.464844 C 308.714844 265.660156 307.078125 266.816406 305.414062 267.929688 C 303.75 269.042969 302.058594 270.113281 300.34375 271.144531 C 298.625 272.175781 296.882812 273.164062 295.121094 274.109375 C 293.355469 275.054688 291.566406 275.953125 289.757812 276.8125 C 287.949219 277.667969 286.121094 278.480469 284.269531 279.246094 C 282.421875 280.015625 280.554688 280.734375 278.671875 281.410156 C 276.785156 282.085938 274.886719 282.714844 272.972656 283.296875 C 271.054688 283.878906 269.128906 284.414062 267.1875 284.898438 C 265.246094 285.386719 263.292969 285.824219 261.328125 286.21875 C 259.367188 286.609375 257.394531 286.949219 255.414062 287.246094 C 253.4375 287.539062 251.449219 287.785156 249.457031 287.980469 C 247.464844 288.175781 245.472656 288.324219 243.472656 288.421875 C 241.472656 288.519531 239.472656 288.570312 237.472656 288.570312 C 235.46875 288.570312 233.46875 288.519531 231.472656 288.421875 C 229.472656 288.324219 227.476562 288.175781 225.484375 287.980469 C 223.492188 287.785156 221.507812 287.539062 219.527344 287.246094 C 217.546875 286.949219 215.578125 286.609375 213.613281 286.21875 C 211.652344 285.824219 209.699219 285.386719 207.757812 284.898438 C 205.816406 284.414062 203.886719 283.878906 201.972656 283.296875 C 200.058594 282.714844 198.15625 282.085938 196.273438 281.410156 C 194.386719 280.734375 192.523438 280.015625 190.671875 279.246094 C 188.824219 278.480469 186.996094 277.667969 185.183594 276.8125 C 183.375 275.953125 181.589844 275.054688 179.824219 274.109375 C 178.058594 273.164062 176.316406 272.175781 174.601562 271.144531 C 172.882812 270.113281 171.195312 269.042969 169.53125 267.929688 C 167.867188 266.816406 166.230469 265.660156 164.621094 264.464844 C 163.015625 263.273438 161.4375 262.039062 159.890625 260.769531 C 158.34375 259.496094 156.828125 258.1875 155.347656 256.839844 C 153.863281 255.496094 152.414062 254.113281 151 252.695312 C 149.582031 251.277344 148.203125 249.828125 146.859375 248.339844 C 145.515625 246.855469 144.207031 245.339844 142.9375 243.789062 C 141.667969 242.238281 140.4375 240.660156 139.246094 239.050781 C 138.054688 237.441406 136.902344 235.800781 135.789062 234.136719 C 134.679688 232.46875 133.609375 230.773438 132.578125 229.054688 C 131.550781 227.335938 130.5625 225.59375 129.621094 223.824219 C 128.675781 222.058594 127.777344 220.265625 126.921875 218.453125 C 126.066406 216.644531 125.253906 214.8125 124.488281 212.957031 C 123.722656 211.105469 123.003906 209.238281 122.328125 207.351562 C 121.65625 205.460938 121.027344 203.558594 120.445312 201.640625 C 119.863281 199.722656 119.332031 197.792969 118.84375 195.847656 C 118.359375 193.902344 117.921875 191.949219 117.53125 189.980469 C 117.140625 188.015625 116.796875 186.042969 116.503906 184.058594 C 116.210938 182.074219 115.964844 180.085938 115.769531 178.089844 C 115.574219 176.097656 115.425781 174.097656 115.328125 172.097656 C 115.230469 170.09375 115.179688 168.089844 115.179688 166.085938 C 115.179688 164.082031 115.230469 162.078125 115.328125 160.074219 C 115.425781 158.074219 115.574219 156.074219 115.769531 154.082031 C 115.964844 152.085938 116.210938 150.097656 116.503906 148.113281 C 116.796875 146.132812 117.140625 144.15625 117.53125 142.191406 C 117.921875 140.222656 118.359375 138.269531 118.84375 136.324219 C 119.332031 134.378906 119.863281 132.449219 120.445312 130.53125 C 121.027344 128.613281 121.65625 126.710938 122.328125 124.824219 C 123.003906 122.933594 123.722656 121.066406 124.488281 119.214844 C 125.253906 117.363281 126.066406 115.53125 126.921875 113.71875 C 127.777344 111.90625 128.675781 110.113281 129.621094 108.347656 C 130.5625 106.578125 131.550781 104.835938 132.578125 103.117188 C 133.609375 101.398438 134.679688 99.703125 135.789062 98.039062 C 136.902344 96.371094 138.054688 94.730469 139.246094 93.121094 C 140.4375 91.511719 141.667969 89.933594 142.9375 88.382812 C 144.207031 86.832031 145.515625 85.316406 146.859375 83.832031 C 148.203125 82.34375 149.582031 80.894531 151 79.476562 C 152.414062 78.058594 153.863281 76.675781 155.347656 75.332031 C 156.828125 73.984375 158.34375 72.675781 159.890625 71.40625 C 161.4375 70.132812 163.015625 68.898438 164.621094 67.707031 C 166.230469 66.511719 167.867188 65.359375 169.53125 64.242188 C 171.195312 63.128906 172.882812 62.058594 174.601562 61.027344 C 176.316406 59.996094 178.058594 59.007812 179.824219 58.066406 C 181.589844 57.121094 183.375 56.21875 185.183594 55.363281 C 186.996094 54.503906 188.824219 53.691406 190.671875 52.925781 C 192.523438 52.15625 194.386719 51.4375 196.273438 50.761719 C 198.15625 50.085938 200.058594 49.457031 201.972656 48.875 C 203.886719 48.292969 205.816406 47.757812 207.757812 47.273438 C 209.699219 46.785156 211.652344 46.347656 213.613281 45.957031 C 215.578125 45.5625 217.546875 45.222656 219.527344 44.925781 C 221.507812 44.632812 223.492188 44.386719 225.484375 44.191406 C 227.476562 43.996094 229.472656 43.847656 231.472656 43.75 C 233.46875 43.652344 235.46875 43.601562 237.472656 43.601562 C 239.472656 43.601562 241.472656 43.652344 243.472656 43.75 C 245.472656 43.847656 247.464844 43.996094 249.457031 44.191406 C 251.449219 44.386719 253.4375 44.632812 255.414062 44.925781 C 257.394531 45.222656 259.367188 45.5625 261.328125 45.957031 C 263.292969 46.347656 265.246094 46.785156 267.1875 47.273438 C 269.128906 47.757812 271.054688 48.292969 272.972656 48.875 C 274.886719 49.457031 276.785156 50.085938 278.671875 50.761719 C 280.554688 51.4375 282.421875 52.15625 284.269531 52.925781 C 286.121094 53.691406 287.949219 54.503906 289.757812 55.363281 C 291.566406 56.21875 293.355469 57.121094 295.121094 58.066406 C 296.882812 59.007812 298.625 59.996094 300.34375 61.027344 C 302.058594 62.058594 303.75 63.128906 305.414062 64.242188 C 307.078125 65.359375 308.714844 66.511719 310.320312 67.707031 C 311.929688 68.898438 313.503906 70.132812 315.050781 71.40625 C 316.601562 72.675781 318.113281 73.984375 319.597656 75.332031 C 321.082031 76.675781 322.53125 78.058594 323.945312 79.476562 C 325.359375 80.894531 326.738281 82.34375 328.082031 83.832031 C 329.429688 85.316406 330.734375 86.832031 332.003906 88.382812 C 333.273438 89.933594 334.503906 91.511719 335.695312 93.121094 C 336.890625 94.730469 338.042969 96.371094 339.152344 98.039062 C 340.265625 99.703125 341.335938 101.398438 342.363281 103.117188 C 343.394531 104.835938 344.378906 106.578125 345.324219 108.347656 C 346.265625 110.113281 347.167969 111.90625 348.023438 113.71875 C 348.878906 115.53125 349.6875 117.363281 350.453125 119.214844 C 351.21875 121.066406 351.941406 122.933594 352.613281 124.824219 C 353.289062 126.710938 353.917969 128.613281 354.496094 130.53125 C 355.078125 132.449219 355.613281 134.378906 356.097656 136.324219 C 356.585938 138.269531 357.023438 140.222656 357.414062 142.191406 C 357.804688 144.15625 358.144531 146.132812 358.441406 148.113281 C 358.734375 150.097656 358.976562 152.085938 359.175781 154.082031 C 359.371094 156.074219 359.519531 158.074219 359.617188 160.074219 C 359.714844 162.078125 359.761719 164.082031 359.761719 166.085938 Z M 359.761719 166.085938 " fill-opacity="1" fill-rule="nonzero"/><path fill="#ffb700" d="M 237.472656 58.792969 L 242.445312 102.800781 L 254.230469 60.113281 L 252.269531 104.359375 L 270.574219 64.042969 L 261.730469 107.4375 L 286.101562 70.488281 L 270.589844 111.960938 L 300.4375 79.285156 L 278.632812 117.816406 L 313.222656 90.21875 L 285.667969 124.859375 L 324.136719 103.023438 L 291.515625 132.917969 L 332.917969 117.378906 L 296.027344 141.792969 L 339.355469 132.929688 L 299.101562 151.269531 L 343.277344 149.300781 L 300.65625 161.105469 L 344.59375 166.085938 L 300.65625 171.066406 L 343.277344 182.867188 L 299.101562 180.902344 L 339.355469 199.242188 L 296.027344 190.375 L 332.917969 214.792969 L 291.515625 199.253906 L 324.136719 229.152344 L 285.667969 207.3125 L 313.222656 241.949219 L 278.632812 214.355469 L 300.4375 252.886719 L 270.589844 220.210938 L 286.101562 261.683594 L 261.730469 224.734375 L 270.574219 268.125 L 252.269531 227.808594 L 254.230469 272.058594 L 242.445312 229.371094 L 237.472656 273.378906 L 232.5 229.371094 L 220.714844 272.058594 L 222.675781 227.808594 L 204.367188 268.125 L 213.21875 224.734375 L 188.839844 261.683594 L 204.359375 220.210938 L 174.507812 252.886719 L 196.308594 214.355469 L 161.726562 241.949219 L 189.28125 207.3125 L 150.808594 229.152344 L 183.433594 199.253906 L 142.023438 214.792969 L 178.917969 190.375 L 135.59375 199.242188 L 175.847656 180.902344 L 131.667969 182.867188 L 174.292969 171.066406 L 130.347656 166.085938 L 174.292969 161.105469 L 131.667969 149.300781 L 175.847656 151.269531 L 135.59375 132.929688 L 178.917969 141.792969 L 142.023438 117.378906 L 183.433594 132.917969 L 150.808594 103.023438 L 189.28125 124.859375 L 161.726562 90.21875 L 196.308594 117.816406 L 174.507812 79.285156 L 204.359375 111.960938 L 188.839844 70.488281 L 213.21875 107.4375 L 204.367188 64.042969 L 222.675781 104.359375 L 220.714844 60.113281 L 232.5 102.800781 Z M 237.472656 58.792969 " fill-opacity="1" fill-rule="nonzero"/><g clip-path="url(#e550a7df42)"><path fill="#720c0c" d="M 237.960938 291.285156 L 237.703125 291.285156 C 237.6875 291.285156 237.671875 291.285156 237.652344 291.285156 C 229.890625 291.265625 217.867188 290.453125 204.132812 286.777344 C 195.773438 284.539062 190.765625 282.3125 190.554688 282.214844 C 189.570312 281.769531 188.929688 280.789062 188.929688 279.703125 L 188.929688 222.121094 C 178.652344 221.882812 169.339844 220.316406 161.207031 217.445312 C 153.171875 214.605469 146.101562 210.441406 140.207031 205.058594 C 139.625 204.527344 139.296875 203.765625 139.3125 202.976562 C 139.367188 200.089844 141.480469 194.453125 144.574219 188.949219 C 146.773438 185.035156 151.390625 177.824219 157.621094 173.40625 C 158.46875 172.8125 159.578125 172.734375 160.488281 173.21875 C 176.640625 181.757812 197 178.949219 197.203125 178.917969 C 198.703125 178.703125 200.097656 179.746094 200.3125 181.246094 C 200.527344 182.75 199.488281 184.144531 197.988281 184.359375 C 197.761719 184.390625 192.324219 185.160156 184.6875 184.785156 C 178.003906 184.457031 168.378906 183.152344 159.503906 178.875 C 155.957031 181.773438 152.398438 186.238281 149.359375 191.636719 C 146.851562 196.097656 145.4375 199.890625 144.976562 201.929688 C 150.105469 206.359375 156.171875 209.824219 163.035156 212.246094 C 171.296875 215.160156 180.9375 216.640625 191.679688 216.640625 C 193.195312 216.640625 194.429688 217.875 194.429688 219.394531 L 194.429688 277.859375 C 196.480469 278.664062 200.398438 280.085938 205.6875 281.492188 C 213 283.441406 224.5 285.765625 237.832031 285.78125 C 245.21875 285.769531 256.75 284.992188 269.953125 281.347656 C 275.261719 279.882812 279.191406 278.40625 281.238281 277.574219 L 281.238281 219.398438 C 281.238281 217.878906 282.46875 216.644531 283.988281 216.644531 C 294.730469 216.644531 304.371094 215.171875 312.632812 212.25 C 319.492188 209.832031 325.5625 206.363281 330.6875 201.9375 C 330.230469 199.894531 328.8125 196.101562 326.304688 191.640625 C 323.273438 186.242188 319.714844 181.773438 316.164062 178.878906 C 307.289062 183.15625 297.660156 184.460938 290.980469 184.789062 C 283.347656 185.164062 277.910156 184.398438 277.679688 184.363281 C 276.179688 184.152344 275.136719 182.753906 275.355469 181.253906 C 275.570312 179.75 276.960938 178.703125 278.460938 178.921875 C 278.515625 178.929688 283.703125 179.652344 290.835938 179.292969 C 297.324219 178.964844 306.820312 177.644531 315.175781 173.222656 C 316.09375 172.742188 317.203125 172.8125 318.042969 173.410156 C 320.71875 175.304688 325.972656 179.847656 331.089844 188.953125 C 334.183594 194.460938 336.300781 200.09375 336.351562 202.980469 C 336.371094 203.769531 336.042969 204.535156 335.457031 205.066406 C 329.5625 210.449219 322.496094 214.617188 314.460938 217.449219 C 306.324219 220.320312 297.011719 221.890625 286.734375 222.125 L 286.734375 279.40625 C 286.734375 280.476562 286.113281 281.449219 285.144531 281.898438 C 284.933594 281.996094 279.925781 284.304688 271.554688 286.621094 C 263.925781 288.738281 251.933594 291.253906 238.007812 291.292969 C 237.992188 291.285156 237.976562 291.285156 237.960938 291.285156 Z M 237.960938 291.285156 " fill-opacity="1" fill-rule="nonzero"/></g><path fill="#008300" d="M 316.453125 175.648438 C 299.328125 184.707031 278.066406 181.640625 278.066406 181.640625 L 197.59375 181.640625 C 197.59375 181.640625 176.335938 184.703125 159.210938 175.648438 C 149.351562 182.625 142.144531 198.597656 142.0625 203.019531 C 152.683594 212.722656 168.394531 219.394531 191.679688 219.394531 C 191.679688 226.355469 191.679688 279.703125 191.679688 279.703125 C 191.679688 279.703125 211.292969 288.5 237.832031 288.53125 C 264.371094 288.5 283.988281 279.394531 283.988281 279.394531 C 283.988281 279.394531 283.988281 226.355469 283.988281 219.394531 C 307.273438 219.394531 322.984375 212.722656 333.605469 203.019531 C 333.519531 198.597656 326.3125 182.632812 316.453125 175.648438 Z M 316.453125 175.648438 " fill-opacity="1" fill-rule="nonzero"/><path fill="#720c0c" d="M 238.097656 198.960938 C 231.34375 198.960938 224.953125 197.042969 220.117188 193.546875 C 217.679688 191.789062 215.75 189.714844 214.386719 187.390625 C 212.929688 184.902344 212.191406 182.246094 212.191406 179.492188 C 212.191406 176.738281 212.929688 174.082031 214.386719 171.59375 C 215.75 169.269531 217.679688 167.195312 220.117188 165.4375 C 224.953125 161.941406 231.34375 160.023438 238.097656 160.023438 C 244.855469 160.023438 251.242188 161.941406 256.082031 165.4375 C 258.519531 167.195312 260.449219 169.269531 261.808594 171.59375 C 263.265625 174.082031 264.007812 176.738281 264.007812 179.492188 C 264.007812 182.246094 263.265625 184.902344 261.808594 187.390625 C 260.449219 189.714844 258.519531 191.789062 256.082031 193.546875 C 251.242188 197.042969 244.855469 198.960938 238.097656 198.960938 Z M 238.097656 165.535156 C 232.484375 165.535156 227.238281 167.089844 223.324219 169.914062 C 219.6875 172.535156 217.683594 175.945312 217.683594 179.503906 C 217.683594 183.0625 219.6875 186.464844 223.324219 189.09375 C 227.238281 191.917969 232.484375 193.472656 238.097656 193.472656 C 243.714844 193.472656 248.960938 191.917969 252.871094 189.09375 C 256.507812 186.46875 258.511719 183.0625 258.511719 179.503906 C 258.511719 175.945312 256.507812 172.542969 252.871094 169.914062 C 248.960938 167.085938 243.714844 165.535156 238.097656 165.535156 Z M 238.097656 165.535156 " fill-opacity="1" fill-rule="nonzero"/><path fill="#dddddd" d="M 261.261719 179.496094 C 261.261719 180.046875 261.226562 180.589844 261.152344 181.136719 C 261.078125 181.679688 260.964844 182.222656 260.816406 182.757812 C 260.667969 183.296875 260.484375 183.828125 260.265625 184.351562 C 260.042969 184.875 259.789062 185.390625 259.5 185.894531 C 259.207031 186.402344 258.886719 186.894531 258.527344 187.378906 C 258.167969 187.859375 257.78125 188.328125 257.359375 188.785156 C 256.9375 189.242188 256.484375 189.679688 256.003906 190.101562 C 255.523438 190.527344 255.015625 190.929688 254.476562 191.320312 C 253.941406 191.707031 253.378906 192.074219 252.792969 192.421875 C 252.207031 192.765625 251.597656 193.09375 250.96875 193.398438 C 250.335938 193.703125 249.6875 193.984375 249.019531 194.242188 C 248.347656 194.5 247.664062 194.734375 246.964844 194.941406 C 246.261719 195.152344 245.546875 195.335938 244.824219 195.496094 C 244.097656 195.652344 243.363281 195.785156 242.617188 195.894531 C 241.875 196 241.125 196.082031 240.371094 196.132812 C 239.613281 196.1875 238.855469 196.214844 238.097656 196.214844 C 237.339844 196.214844 236.582031 196.1875 235.828125 196.132812 C 235.074219 196.082031 234.324219 196 233.578125 195.894531 C 232.835938 195.785156 232.101562 195.652344 231.375 195.496094 C 230.648438 195.335938 229.933594 195.152344 229.234375 194.941406 C 228.535156 194.734375 227.847656 194.5 227.179688 194.242188 C 226.511719 193.984375 225.859375 193.703125 225.230469 193.398438 C 224.597656 193.09375 223.988281 192.765625 223.402344 192.421875 C 222.816406 192.074219 222.257812 191.707031 221.71875 191.320312 C 221.183594 190.929688 220.675781 190.527344 220.191406 190.101562 C 219.710938 189.679688 219.261719 189.242188 218.839844 188.785156 C 218.417969 188.328125 218.027344 187.859375 217.671875 187.378906 C 217.3125 186.894531 216.988281 186.402344 216.699219 185.894531 C 216.40625 185.390625 216.152344 184.875 215.933594 184.351562 C 215.710938 183.828125 215.527344 183.296875 215.378906 182.757812 C 215.230469 182.222656 215.121094 181.679688 215.046875 181.136719 C 214.972656 180.589844 214.933594 180.046875 214.933594 179.496094 C 214.933594 178.949219 214.972656 178.402344 215.046875 177.859375 C 215.121094 177.3125 215.230469 176.773438 215.378906 176.234375 C 215.527344 175.699219 215.710938 175.167969 215.933594 174.644531 C 216.152344 174.121094 216.40625 173.605469 216.699219 173.101562 C 216.988281 172.59375 217.3125 172.101562 217.671875 171.617188 C 218.027344 171.132812 218.417969 170.664062 218.839844 170.210938 C 219.261719 169.753906 219.710938 169.316406 220.191406 168.890625 C 220.675781 168.46875 221.183594 168.0625 221.71875 167.675781 C 222.257812 167.289062 222.816406 166.921875 223.402344 166.574219 C 223.988281 166.226562 224.597656 165.902344 225.230469 165.597656 C 225.859375 165.292969 226.511719 165.011719 227.179688 164.753906 C 227.847656 164.496094 228.535156 164.261719 229.234375 164.054688 C 229.933594 163.84375 230.648438 163.660156 231.375 163.5 C 232.101562 163.339844 232.835938 163.207031 233.578125 163.101562 C 234.324219 162.996094 235.074219 162.914062 235.828125 162.859375 C 236.582031 162.808594 237.339844 162.78125 238.097656 162.78125 C 238.855469 162.78125 239.613281 162.808594 240.371094 162.859375 C 241.125 162.914062 241.875 162.996094 242.617188 163.101562 C 243.363281 163.207031 244.097656 163.339844 244.824219 163.5 C 245.546875 163.660156 246.261719 163.84375 246.964844 164.054688 C 247.664062 164.261719 248.347656 164.496094 249.019531 164.753906 C 249.6875 165.011719 250.335938 165.292969 250.96875 165.597656 C 251.597656 165.902344 252.207031 166.226562 252.792969 166.574219 C 253.378906 166.921875 253.941406 167.289062 254.476562 167.675781 C 255.015625 168.0625 255.523438 168.46875 256.003906 168.890625 C 256.484375 169.316406 256.9375 169.753906 257.359375 170.210938 C 257.78125 170.664062 258.167969 171.132812 258.527344 171.617188 C 258.886719 172.101562 259.207031 172.59375 259.5 173.101562 C 259.789062 173.605469 260.042969 174.121094 260.265625 174.644531 C 260.484375 175.167969 260.667969 175.699219 260.816406 176.234375 C 260.964844 176.773438 261.078125 177.3125 261.152344 177.859375 C 261.226562 178.402344 261.261719 178.949219 261.261719 179.496094 Z M 261.261719 179.496094 " fill-opacity="1" fill-rule="nonzero"/><path fill="#ffffff" d="M 197.402344 181.660156 C 197.402344 181.660156 176.09375 184.253906 159.042969 175.515625 C 164.683594 182.796875 182.703125 187.9375 197.402344 181.660156 Z M 197.402344 181.660156 " fill-opacity="1" fill-rule="nonzero"/><path fill="#006600" d="M 196.339844 223.691406 C 196.339844 223.691406 194.445312 193.238281 191.316406 193.238281 C 188.1875 193.238281 185.195312 210.789062 185.195312 210.789062 C 185.195312 210.789062 161.898438 210.136719 144.234375 195.824219 C 142.628906 198.535156 142.03125 202.203125 141.898438 203.121094 C 155.929688 215.460938 175.835938 220.015625 191.550781 220.015625 L 191.550781 279.6875 C 191.550781 279.6875 200.140625 284 213.617188 286.128906 C 205.226562 277.246094 198.824219 265.226562 196.339844 223.691406 Z M 196.339844 223.691406 " fill-opacity="1" fill-rule="nonzero"/><path fill="#720c0c" d="M 190.339844 208.363281 C 189.601562 208.363281 189 208.964844 189 209.707031 L 189 233.949219 L 191.679688 233.949219 L 191.679688 209.707031 C 191.679688 208.964844 191.078125 208.363281 190.339844 208.363281 Z M 190.339844 208.363281 " fill-opacity="1" fill-rule="nonzero"/><path fill="#f4ae98" d="M 159.445312 174.109375 C 159.445312 174.109375 146.339844 168.671875 143.253906 149.453125 C 133.144531 149.453125 122.101562 150.207031 118.550781 143.265625 C 118.550781 157.929688 121.546875 180.382812 141.382812 199.128906 C 146.992188 182.160156 159.445312 174.109375 159.445312 174.109375 Z M 159.445312 174.109375 " fill-opacity="1" fill-rule="nonzero"/><path fill="#720c0c" d="M 141.382812 200.503906 C 141.035156 200.503906 140.695312 200.375 140.4375 200.128906 C 131.464844 191.640625 124.996094 181.542969 121.222656 170.09375 C 118.503906 161.839844 117.179688 153.0625 117.179688 143.265625 C 117.179688 142.632812 117.613281 142.082031 118.230469 141.929688 C 118.84375 141.78125 119.484375 142.074219 119.773438 142.640625 C 121.035156 145.109375 123.507812 146.621094 127.542969 147.410156 C 131.339844 148.152344 136.019531 148.117188 140.539062 148.089844 C 141.429688 148.085938 142.355469 148.082031 143.257812 148.082031 C 143.933594 148.082031 144.507812 148.570312 144.613281 149.238281 C 145.453125 154.484375 147.660156 161.980469 153.394531 167.925781 C 156.828125 171.492188 159.949219 172.832031 159.980469 172.84375 C 160.453125 173.042969 160.773438 173.480469 160.816406 173.992188 C 160.859375 174.5 160.625 174.988281 160.195312 175.269531 C 160.125 175.316406 157.101562 177.308594 153.464844 181.261719 C 150.101562 184.921875 145.496094 191.074219 142.691406 199.5625 C 142.539062 200.007812 142.175781 200.347656 141.71875 200.464844 C 141.605469 200.492188 141.496094 200.503906 141.382812 200.503906 Z M 119.996094 147.175781 C 120.300781 155.121094 121.566406 162.371094 123.828125 169.238281 C 127.242188 179.582031 132.949219 188.796875 140.796875 196.648438 C 143.796875 188.703125 148.207031 182.894531 151.503906 179.320312 C 153.640625 177.003906 155.558594 175.339844 156.878906 174.285156 C 155.5 173.4375 153.5625 172.042969 151.515625 169.945312 C 148.164062 166.503906 143.878906 160.433594 142.089844 150.832031 C 141.570312 150.832031 141.054688 150.839844 140.546875 150.84375 C 132.730469 150.894531 124.6875 150.945312 119.996094 147.175781 Z M 119.996094 147.175781 " fill-opacity="1" fill-rule="nonzero"/><path fill="#ed9077" d="M 153.277344 177.542969 C 153.277344 177.542969 131.03125 186.980469 124.980469 149.503906 C 122.820312 148.984375 119.96875 147.253906 119.96875 147.253906 C 119.96875 147.253906 118.523438 176.582031 140.820312 196.664062 C 144.929688 185.351562 153.277344 177.542969 153.277344 177.542969 Z M 153.277344 177.542969 " fill-opacity="1" fill-rule="nonzero"/><path fill="#ffffff" d="M 278.328125 181.660156 C 278.328125 181.660156 299.636719 184.253906 316.6875 175.515625 C 311.050781 182.796875 293.027344 187.9375 278.328125 181.660156 Z M 278.328125 181.660156 " fill-opacity="1" fill-rule="nonzero"/><path fill="#006600" d="M 279.390625 223.691406 C 279.390625 223.691406 281.285156 193.238281 284.414062 193.238281 C 287.542969 193.238281 290.535156 210.789062 290.535156 210.789062 C 290.535156 210.789062 313.832031 210.136719 331.5 195.824219 C 333.101562 198.535156 333.699219 202.203125 333.835938 203.121094 C 319.800781 215.460938 299.894531 220.015625 284.179688 220.015625 L 284.179688 279.6875 C 284.179688 279.6875 275.589844 284 262.113281 286.128906 C 270.503906 277.246094 276.910156 265.226562 279.390625 223.691406 Z M 279.390625 223.691406 " fill-opacity="1" fill-rule="nonzero"/><path fill="#f4ae98" d="M 316.285156 174.109375 C 316.285156 174.109375 329.394531 168.671875 332.480469 149.453125 C 342.585938 149.453125 353.628906 150.207031 357.179688 143.265625 C 357.179688 157.929688 354.183594 180.382812 334.347656 199.128906 C 328.738281 182.160156 316.285156 174.109375 316.285156 174.109375 Z M 316.285156 174.109375 " fill-opacity="1" fill-rule="nonzero"/><path fill="#720c0c" d="M 334.355469 200.503906 C 334.242188 200.503906 334.128906 200.488281 334.015625 200.460938 C 333.5625 200.347656 333.195312 200.003906 333.046875 199.558594 C 330.238281 191.066406 325.636719 184.917969 322.273438 181.257812 C 318.605469 177.277344 315.570312 175.28125 315.542969 175.261719 C 315.113281 174.984375 314.871094 174.492188 314.921875 173.984375 C 314.96875 173.476562 315.289062 173.035156 315.757812 172.84375 C 315.789062 172.832031 318.90625 171.492188 322.339844 167.925781 C 325.503906 164.640625 329.597656 158.738281 331.125 149.238281 C 331.230469 148.574219 331.804688 148.082031 332.480469 148.082031 C 333.378906 148.082031 334.300781 148.085938 335.195312 148.089844 C 339.71875 148.125 344.394531 148.152344 348.195312 147.410156 C 352.230469 146.621094 354.695312 145.109375 355.964844 142.640625 C 356.253906 142.074219 356.890625 141.78125 357.507812 141.929688 C 358.125 142.082031 358.558594 142.632812 358.558594 143.265625 C 358.558594 153.066406 357.234375 161.839844 354.511719 170.09375 C 350.738281 181.535156 344.273438 191.640625 335.296875 200.128906 C 335.035156 200.375 334.699219 200.503906 334.355469 200.503906 Z M 318.847656 174.285156 C 320.164062 175.332031 322.089844 177.003906 324.222656 179.320312 C 327.515625 182.894531 331.925781 188.703125 334.929688 196.648438 C 342.78125 188.796875 348.488281 179.582031 351.898438 169.238281 C 354.160156 162.371094 355.421875 155.121094 355.730469 147.175781 C 351.039062 150.945312 342.996094 150.894531 335.167969 150.839844 C 334.660156 150.832031 334.144531 150.832031 333.625 150.828125 C 331.832031 160.433594 327.542969 166.503906 324.199219 169.941406 C 322.164062 172.046875 320.226562 173.4375 318.847656 174.285156 Z M 318.847656 174.285156 " fill-opacity="1" fill-rule="nonzero"/><path fill="#ed9077" d="M 322.453125 177.542969 C 322.453125 177.542969 344.703125 186.980469 350.75 149.503906 C 352.910156 148.984375 355.761719 147.253906 355.761719 147.253906 C 355.761719 147.253906 357.207031 176.582031 334.910156 196.664062 C 330.800781 185.351562 322.453125 177.542969 322.453125 177.542969 Z M 322.453125 177.542969 " fill-opacity="1" fill-rule="nonzero"/><path fill="#720c0c" d="M 285.566406 208.363281 C 284.828125 208.363281 284.226562 208.964844 284.226562 209.707031 L 284.226562 233.949219 L 286.90625 233.949219 L 286.90625 209.707031 C 286.90625 208.964844 286.308594 208.363281 285.566406 208.363281 Z M 285.566406 208.363281 " fill-opacity="1" fill-rule="nonzero"/><path fill="#ff5500" d="M 238.191406 197.90625 C 238.191406 197.90625 235.007812 210.40625 225.296875 209.050781 C 209.191406 206.808594 212.308594 185.121094 212.308594 185.121094 C 212.308594 185.121094 223.265625 197.90625 238.191406 197.90625 Z M 238.191406 197.90625 " fill-opacity="1" fill-rule="nonzero"/><path fill="#720c0c" d="M 226.746094 210.527344 C 226.207031 210.527344 225.664062 210.492188 225.109375 210.410156 C 220.78125 209.808594 217.347656 207.84375 214.898438 204.585938 C 212.519531 201.421875 211.136719 197.136719 210.78125 191.867188 C 210.519531 188 210.9375 185.050781 210.953125 184.929688 C 211.027344 184.390625 211.414062 183.953125 211.929688 183.800781 C 212.449219 183.652344 213.007812 183.816406 213.355469 184.226562 C 213.382812 184.257812 216.078125 187.363281 220.496094 190.425781 C 224.519531 193.210938 230.859375 196.527344 238.191406 196.527344 C 238.613281 196.527344 239.015625 196.726562 239.273438 197.058594 C 239.535156 197.390625 239.625 197.832031 239.519531 198.242188 C 239.480469 198.382812 238.640625 201.636719 236.519531 204.757812 C 233.941406 208.558594 230.585938 210.527344 226.746094 210.527344 Z M 213.464844 188.261719 C 213.363281 191.996094 213.75 198.480469 217.105469 202.9375 C 219.097656 205.589844 221.921875 207.191406 225.496094 207.683594 C 228.941406 208.167969 231.878906 206.675781 234.21875 203.261719 C 235.210938 201.816406 235.890625 200.316406 236.3125 199.210938 C 230.511719 198.808594 224.519531 196.554688 218.878906 192.640625 C 216.589844 191.058594 214.757812 189.480469 213.464844 188.261719 Z M 213.464844 188.261719 " fill-opacity="1" fill-rule="nonzero"/><path fill="#ff5500" d="M 238.199219 197.90625 C 238.199219 197.90625 241.382812 210.40625 251.09375 209.050781 C 267.199219 206.808594 264.082031 185.121094 264.082031 185.121094 C 264.082031 185.121094 253.128906 197.90625 238.199219 197.90625 Z M 238.199219 197.90625 " fill-opacity="1" fill-rule="nonzero"/><path fill="#720c0c" d="M 249.644531 210.527344 C 245.808594 210.527344 242.453125 208.558594 239.871094 204.757812 C 237.75 201.640625 236.902344 198.382812 236.871094 198.242188 C 236.765625 197.832031 236.855469 197.394531 237.117188 197.058594 C 237.378906 196.71875 237.777344 196.527344 238.199219 196.527344 C 245.523438 196.527344 251.863281 193.210938 255.894531 190.425781 C 260.320312 187.363281 263.007812 184.253906 263.035156 184.226562 C 263.390625 183.816406 263.945312 183.652344 264.460938 183.800781 C 264.976562 183.953125 265.363281 184.390625 265.4375 184.921875 C 265.453125 185.046875 265.871094 187.992188 265.609375 191.863281 C 265.253906 197.136719 263.867188 201.414062 261.492188 204.582031 C 259.042969 207.84375 255.609375 209.804688 251.28125 210.40625 C 250.726562 210.492188 250.179688 210.527344 249.644531 210.527344 Z M 240.085938 199.214844 C 240.511719 200.316406 241.195312 201.824219 242.183594 203.265625 C 244.523438 206.679688 247.460938 208.167969 250.90625 207.6875 C 254.480469 207.191406 257.300781 205.597656 259.296875 202.945312 C 262.648438 198.484375 263.035156 192.003906 262.933594 188.265625 C 261.644531 189.484375 259.804688 191.0625 257.523438 192.652344 C 251.878906 196.558594 245.890625 198.8125 240.085938 199.214844 Z M 240.085938 199.214844 " fill-opacity="1" fill-rule="nonzero"/><path fill="#e16c00" d="M 239.375 289.722656 C 264.933594 289.722656 285.707031 280.015625 285.707031 280.015625 C 285.707031 280.015625 285.707031 259.011719 285.707031 234.738281 C 273.671875 216.40625 281.929688 179.535156 281.929688 179.535156 C 281.625 179.832031 274.753906 175.628906 274.753906 175.628906 C 274.753906 175.628906 267.820312 205.9375 266.792969 226.011719 L 208.9375 226.011719 C 207.910156 205.9375 200.976562 175.628906 200.976562 175.628906 C 200.976562 175.628906 194.113281 179.832031 193.800781 179.535156 C 193.800781 179.535156 202.058594 216.40625 190.023438 234.738281 C 190.023438 259.011719 190.023438 280.316406 190.023438 280.316406 C 190.023438 280.316406 210.796875 289.730469 236.355469 289.730469 L 239.375 289.730469 Z M 239.375 289.722656 " fill-opacity="1" fill-rule="nonzero"/><g clip-path="url(#c2f0cee1f3)"><path fill="#720c0c" d="M 239.375 291.097656 L 236.355469 291.097656 C 223 291.097656 210.976562 288.511719 203.238281 286.34375 C 194.847656 283.988281 189.675781 281.664062 189.460938 281.566406 C 188.96875 281.339844 188.652344 280.851562 188.652344 280.3125 L 188.652344 234.730469 C 188.652344 234.464844 188.734375 234.199219 188.878906 233.976562 C 191.507812 229.964844 193.347656 224.652344 194.332031 218.1875 C 195.128906 212.941406 195.378906 206.949219 195.054688 200.363281 C 194.507812 189.097656 192.476562 179.917969 192.460938 179.824219 C 192.328125 179.234375 192.601562 178.621094 193.125 178.328125 C 193.3125 178.21875 193.519531 178.167969 193.726562 178.152344 C 194.578125 177.8125 197.691406 176.015625 200.257812 174.441406 C 200.632812 174.210938 201.101562 174.179688 201.507812 174.34375 C 201.914062 174.515625 202.214844 174.875 202.3125 175.304688 C 202.378906 175.601562 208.992188 204.671875 210.230469 224.621094 L 265.488281 224.621094 C 266.734375 204.667969 273.34375 175.601562 273.410156 175.304688 C 273.507812 174.875 273.804688 174.515625 274.214844 174.34375 C 274.621094 174.171875 275.085938 174.210938 275.460938 174.441406 C 278.027344 176.015625 281.140625 177.808594 281.992188 178.152344 C 282.195312 178.160156 282.40625 178.21875 282.59375 178.328125 C 283.125 178.621094 283.390625 179.234375 283.257812 179.824219 C 283.238281 179.917969 281.207031 189.09375 280.664062 200.363281 C 280.347656 206.949219 280.589844 212.941406 281.386719 218.1875 C 282.375 224.652344 284.210938 229.964844 286.84375 233.976562 C 286.988281 234.199219 287.066406 234.464844 287.066406 234.730469 L 287.066406 280.011719 C 287.066406 280.546875 286.757812 281.03125 286.273438 281.257812 C 286.058594 281.359375 280.890625 283.757812 272.492188 286.1875 C 264.765625 288.429688 252.738281 291.097656 239.375 291.097656 Z M 191.394531 279.402344 C 193.152344 280.140625 197.691406 281.933594 204.03125 283.707031 C 211.585938 285.824219 223.332031 288.34375 236.351562 288.34375 L 239.367188 288.34375 C 252.410156 288.34375 264.167969 285.738281 271.738281 283.542969 C 278.078125 281.707031 282.589844 279.867188 284.328125 279.113281 L 284.328125 235.132812 C 281.597656 230.832031 279.695312 225.265625 278.675781 218.578125 C 277.851562 213.148438 277.601562 206.960938 277.925781 200.1875 C 278.371094 191.074219 279.769531 183.292969 280.335938 180.414062 C 280.242188 180.367188 280.144531 180.320312 280.046875 180.265625 C 279.421875 179.941406 278.574219 179.476562 277.535156 178.875 C 276.886719 178.5 276.234375 178.117188 275.675781 177.785156 C 274.171875 184.671875 269.019531 209.1875 268.160156 226.074219 C 268.121094 226.804688 267.515625 227.378906 266.785156 227.378906 L 208.9375 227.378906 C 208.210938 227.378906 207.605469 226.804688 207.566406 226.074219 C 206.703125 209.1875 201.554688 184.664062 200.050781 177.785156 C 199.492188 178.117188 198.84375 178.5 198.191406 178.875 C 197.152344 179.476562 196.308594 179.941406 195.675781 180.265625 C 195.582031 180.3125 195.484375 180.367188 195.386719 180.414062 C 195.957031 183.292969 197.355469 191.074219 197.800781 200.1875 C 198.132812 206.960938 197.878906 213.148438 197.050781 218.578125 C 196.03125 225.265625 194.128906 230.835938 191.394531 235.132812 Z M 280.980469 178.53125 C 280.980469 178.53125 280.976562 178.535156 280.980469 178.53125 C 280.976562 178.535156 280.980469 178.53125 280.980469 178.53125 Z M 194.75 178.53125 C 194.75 178.53125 194.75 178.535156 194.75 178.53125 C 194.75 178.535156 194.75 178.53125 194.75 178.53125 Z M 280.980469 178.53125 Z M 194.746094 178.53125 Z M 194.746094 178.53125 " fill-opacity="1" fill-rule="nonzero"/></g><path fill="#720c0c" d="M 237.550781 269.863281 L 237.519531 269.863281 C 227.210938 269.734375 219.726562 266.738281 215.273438 260.953125 C 208.773438 252.507812 211.4375 241.433594 211.554688 240.96875 L 212.074219 238.886719 L 263.03125 238.886719 L 263.550781 240.96875 C 263.667969 241.433594 266.332031 252.511719 259.832031 260.953125 C 255.378906 266.738281 247.894531 269.734375 237.585938 269.863281 Z M 216.558594 244.386719 C 216.238281 247.417969 216.203125 253.175781 219.648438 257.625 C 223.027344 261.984375 229.046875 264.25 237.558594 264.355469 C 246.066406 264.25 252.089844 261.980469 255.464844 257.625 C 258.910156 253.175781 258.878906 247.425781 258.554688 244.386719 Z M 216.558594 244.386719 " fill-opacity="1" fill-rule="nonzero"/><path fill="#ffcc00" d="M 260.886719 241.632812 C 260.886719 241.632812 253.949219 241.632812 237.578125 241.632812 L 237.523438 241.632812 C 221.15625 241.632812 214.21875 241.632812 214.21875 241.632812 C 214.21875 241.632812 207.949219 266.75 237.550781 267.109375 C 267.15625 266.75 260.886719 241.632812 260.886719 241.632812 Z M 260.886719 241.632812 " fill-opacity="1" fill-rule="nonzero"/><path fill="#720c0c" d="M 293.558594 105.871094 C 292.816406 105.871094 292.21875 106.472656 292.21875 107.214844 L 292.21875 160.382812 L 294.894531 160.382812 L 294.894531 107.214844 C 294.894531 106.472656 294.296875 105.871094 293.558594 105.871094 Z M 293.558594 105.871094 " fill-opacity="1" fill-rule="nonzero"/><path fill="#720c0c" d="M 241.046875 194.882812 L 234.769531 194.882812 C 226.765625 194.882812 218.992188 193.316406 211.671875 190.230469 C 204.605469 187.246094 198.25 182.976562 192.789062 177.535156 C 187.328125 172.089844 183.03125 165.753906 180.015625 158.691406 C 177.265625 152.257812 175.691406 145.460938 175.320312 138.457031 C 173.097656 138.164062 171.082031 137.488281 169.304688 136.433594 C 167.070312 135.113281 165.246094 133.242188 163.886719 130.855469 C 162.117188 127.761719 161.171875 123.78125 161.21875 119.648438 C 161.261719 115.917969 162.089844 112.410156 163.5 110.007812 C 165.476562 106.644531 168.871094 104.703125 173.316406 104.402344 C 174.328125 104.332031 175.285156 104.359375 176.113281 104.421875 C 178.386719 91.238281 185.0625 79.160156 195.109375 70.160156 C 206.03125 60.382812 220.117188 54.996094 234.777344 54.996094 L 241.050781 54.996094 C 255.621094 54.996094 269.636719 60.320312 280.53125 69.988281 C 290.636719 78.964844 297.371094 91.039062 299.691406 104.246094 C 300.53125 104.195312 301.507812 104.191406 302.546875 104.289062 C 306.984375 104.691406 310.367188 106.664062 312.332031 110.015625 C 313.734375 112.410156 314.570312 115.921875 314.613281 119.648438 C 314.664062 123.78125 313.714844 127.761719 311.945312 130.855469 C 310.585938 133.238281 308.761719 135.113281 306.527344 136.433594 C 304.75 137.488281 302.730469 138.164062 300.507812 138.457031 C 300.136719 145.460938 298.5625 152.261719 295.808594 158.703125 C 292.789062 165.757812 288.492188 172.097656 283.03125 177.535156 C 277.574219 182.976562 271.21875 187.242188 264.152344 190.226562 C 256.820312 193.320312 249.050781 194.882812 241.046875 194.882812 Z M 177.984375 132.839844 C 177.988281 132.839844 177.988281 132.839844 177.996094 132.839844 C 179.5 132.84375 180.722656 134.0625 180.734375 135.578125 C 180.777344 142.847656 182.234375 149.898438 185.066406 156.535156 C 187.804688 162.941406 191.707031 168.699219 196.667969 173.636719 C 201.628906 178.578125 207.394531 182.453125 213.808594 185.164062 C 220.449219 187.964844 227.503906 189.386719 234.777344 189.386719 L 241.050781 189.386719 C 248.320312 189.386719 255.375 187.964844 262.011719 185.164062 C 268.425781 182.460938 274.191406 178.578125 279.152344 173.640625 C 284.109375 168.707031 288.015625 162.953125 290.753906 156.542969 C 293.589844 149.917969 295.046875 142.863281 295.09375 135.59375 C 295.105469 134.085938 296.320312 132.867188 297.828125 132.855469 C 297.832031 132.855469 297.839844 132.855469 297.839844 132.855469 C 298.234375 132.855469 298.609375 132.941406 298.953125 133.089844 C 302.683594 132.824219 305.441406 131.152344 307.171875 128.128906 C 310.050781 123.09375 309.351562 115.8125 307.589844 112.804688 C 306.566406 111.0625 304.746094 110.046875 302.179688 109.785156 C 300.179688 109.578125 298.421875 109.914062 298.066406 109.988281 C 297.902344 110.03125 297.726562 110.058594 297.546875 110.074219 C 296.101562 110.164062 294.832031 109.117188 294.648438 107.679688 C 292.992188 94.734375 286.683594 82.816406 276.882812 74.113281 C 266.996094 65.335938 254.269531 60.5 241.046875 60.5 L 234.769531 60.5 C 221.460938 60.5 208.675781 65.390625 198.765625 74.265625 C 188.929688 83.074219 182.664062 95.113281 181.109375 108.167969 C 180.9375 109.621094 179.65625 110.6875 178.199219 110.589844 C 177.648438 110.550781 177.144531 110.351562 176.730469 110.042969 C 175.964844 109.921875 174.808594 109.8125 173.554688 109.90625 C 170.996094 110.113281 169.253906 111.0625 168.226562 112.804688 C 166.464844 115.8125 165.765625 123.09375 168.644531 128.128906 C 170.371094 131.144531 173.117188 132.808594 176.828125 133.085938 C 177.1875 132.925781 177.570312 132.839844 177.984375 132.839844 Z M 177.984375 132.839844 " fill-opacity="1" fill-rule="nonzero"/><path fill="#f4ae98" d="M 309.953125 111.410156 C 306.292969 105.179688 297.371094 107.324219 297.371094 107.324219 L 297.371094 107.332031 C 293.792969 79.367188 269.9375 57.753906 241.046875 57.753906 L 234.769531 57.753906 C 205.703125 57.753906 181.734375 79.628906 178.382812 107.839844 L 178.386719 107.5625 C 178.386719 107.5625 169.519531 105.179688 165.859375 111.410156 C 162.199219 117.640625 162.621094 135.882812 177.972656 135.882812 L 177.980469 135.585938 C 178.160156 166.847656 203.515625 192.128906 234.765625 192.128906 L 241.039062 192.128906 C 272.289062 192.128906 297.640625 166.855469 297.828125 135.601562 L 297.832031 135.875 C 313.1875 135.882812 313.613281 117.640625 309.953125 111.410156 Z M 309.953125 111.410156 " fill-opacity="1" fill-rule="nonzero"/><path fill="#ed9077" d="M 246.933594 134.203125 C 242.375 134.203125 236.007812 134.203125 228.941406 134.203125 C 226.664062 143.960938 229.054688 146.820312 237.519531 146.820312 L 238.300781 146.820312 C 246.761719 146.820312 249.210938 143.960938 246.933594 134.203125 Z M 246.933594 134.203125 " fill-opacity="1" fill-rule="nonzero"/><path fill="#ed9077" d="M 237.847656 177.441406 C 235 177.441406 233.222656 175.617188 233.222656 175.617188 C 233.222656 175.617188 233.6875 180.984375 237.847656 180.984375 C 242 180.984375 242.472656 175.617188 242.472656 175.617188 C 242.472656 175.617188 240.691406 177.441406 237.847656 177.441406 Z M 237.847656 177.441406 " fill-opacity="1" fill-rule="nonzero"/><path fill="#ed9077" d="M 178.40625 107.644531 C 178.40625 107.644531 194.21875 108.414062 205.699219 91.691406 C 233.570312 91.691406 270.976562 91.484375 270.976562 91.484375 C 270.976562 91.484375 279.882812 105.234375 297.414062 107.324219 C 290.722656 83.027344 270.582031 69.378906 242.417969 69.378906 C 214.242188 69.378906 189.203125 81.597656 178.40625 107.644531 Z M 178.40625 107.644531 " fill-opacity="1" fill-rule="nonzero"/><path fill="#720c0c" d="M 238.121094 49.886719 C 174.226562 49.886719 173.332031 107.164062 173.332031 107.164062 L 178.375 107.644531 C 178.375 107.644531 195.777344 103.84375 206.089844 82.269531 C 206.089844 82.269531 240.558594 76.472656 270.660156 82.269531 C 280.96875 103.84375 297.382812 107.332031 297.382812 107.332031 L 302.488281 107.058594 C 302.484375 107.050781 302.011719 49.886719 238.121094 49.886719 Z M 238.121094 49.886719 " fill-opacity="1" fill-rule="nonzero"/><path fill="#ed9077" d="M 173.921875 127.601562 C 173.921875 127.601562 171.070312 124.15625 174.019531 121.488281 C 176.964844 118.828125 174.3125 114.496094 171.070312 115.570312 C 167.835938 116.644531 167.667969 126.792969 173.921875 127.601562 Z M 173.921875 127.601562 " fill-opacity="1" fill-rule="nonzero"/><path fill="#f9e6e1" d="M 178.429688 107.644531 C 178.429688 107.644531 169.785156 104.769531 165.757812 111.511719 C 161.726562 118.246094 165.367188 127.628906 165.792969 128.472656 C 164.464844 124.195312 163.296875 106.214844 178.230469 109.515625 C 178.226562 108.882812 178.429688 108.410156 178.429688 107.644531 Z M 178.429688 107.644531 " fill-opacity="1" fill-rule="nonzero"/><path fill="#ed9077" d="M 177.988281 135.882812 C 177.988281 135.882812 182.722656 137.171875 185.597656 147.335938 C 188.476562 157.492188 194.984375 182.007812 221.332031 190.53125 C 197.707031 185.175781 178.398438 163.203125 177.988281 135.882812 Z M 177.988281 135.882812 " fill-opacity="1" fill-rule="nonzero"/><path fill="#ed9077" d="M 301.894531 127.601562 C 301.894531 127.601562 304.746094 124.15625 301.796875 121.488281 C 298.851562 118.828125 301.503906 114.496094 304.746094 115.570312 C 307.980469 116.644531 308.148438 126.792969 301.894531 127.601562 Z M 301.894531 127.601562 " fill-opacity="1" fill-rule="nonzero"/><path fill="#f9e6e1" d="M 297.386719 107.644531 C 297.386719 107.644531 306.035156 104.761719 310.066406 111.496094 C 314.09375 118.230469 310.453125 127.628906 310.023438 128.464844 C 311.351562 124.1875 312.519531 106.210938 297.585938 109.511719 C 297.589844 108.972656 297.386719 108.753906 297.386719 107.644531 Z M 297.386719 107.644531 " fill-opacity="1" fill-rule="nonzero"/><path fill="#ed9077" d="M 297.839844 135.882812 C 297.839844 135.882812 293.105469 137.171875 290.230469 147.335938 C 287.351562 157.492188 280.839844 182.007812 254.496094 190.53125 C 278.113281 185.175781 297.425781 163.203125 297.839844 135.882812 Z M 297.839844 135.882812 " fill-opacity="1" fill-rule="nonzero"/><path fill="#e04c34" d="M 192.933594 125.515625 C 189.339844 125.515625 186.421875 126.828125 186.421875 128.453125 C 186.421875 130.082031 189.339844 131.394531 192.933594 131.394531 C 196.53125 131.394531 199.445312 130.082031 199.445312 128.453125 C 199.445312 126.835938 196.53125 125.515625 192.933594 125.515625 Z M 192.933594 125.515625 " fill-opacity="1" fill-rule="nonzero"/><path fill="#e04c34" d="M 282.882812 125.515625 C 279.289062 125.515625 276.371094 126.828125 276.371094 128.453125 C 276.371094 130.082031 279.289062 131.394531 282.882812 131.394531 C 286.476562 131.394531 289.394531 130.082031 289.394531 128.453125 C 289.394531 126.835938 286.476562 125.515625 282.882812 125.515625 Z M 282.882812 125.515625 " fill-opacity="1" fill-rule="nonzero"/><path fill="#f4ae98" d="M 245.632812 131.453125 C 243.90625 122.960938 239.8125 117.15625 239.8125 117.15625 L 230.183594 131.453125 C 228.367188 139.246094 230.847656 141.535156 237.59375 141.535156 L 238.222656 141.535156 C 244.96875 141.535156 247.222656 139.296875 245.632812 131.453125 Z M 245.632812 131.453125 " fill-opacity="1" fill-rule="nonzero"/><path fill="#720c0c" d="M 238.222656 142.390625 L 237.59375 142.390625 C 233.683594 142.390625 231.34375 141.636719 229.992188 139.933594 C 228.585938 138.15625 228.378906 135.40625 229.347656 131.257812 C 229.457031 130.792969 229.917969 130.503906 230.378906 130.613281 C 230.839844 130.71875 231.128906 131.179688 231.019531 131.644531 C 230.195312 135.183594 230.296875 137.546875 231.335938 138.859375 C 232.3125 140.09375 234.300781 140.667969 237.59375 140.667969 L 238.222656 140.667969 C 241.484375 140.667969 243.371094 140.136719 244.339844 138.945312 C 245.398438 137.648438 245.542969 135.324219 244.792969 131.625 C 243.125 123.421875 239.152344 117.710938 239.113281 117.65625 C 238.839844 117.269531 238.929688 116.734375 239.320312 116.460938 C 239.707031 116.1875 240.242188 116.277344 240.515625 116.664062 C 240.6875 116.90625 244.730469 122.707031 246.472656 131.28125 C 247.347656 135.585938 247.101562 138.285156 245.667969 140.035156 C 244.339844 141.667969 242.046875 142.390625 238.222656 142.390625 Z M 238.222656 142.390625 " fill-opacity="1" fill-rule="nonzero"/><path fill="#720c0c" d="M 201.246094 101.476562 C 198.941406 102.378906 199.738281 104.21875 201.671875 103.589844 C 201.671875 103.589844 206.074219 102.234375 213.160156 104.21875 C 214.308594 104.539062 215.703125 105.222656 216.316406 104.460938 C 217.960938 103.589844 212.308594 97.613281 201.246094 101.476562 Z M 201.246094 101.476562 " fill-opacity="1" fill-rule="nonzero"/><path fill="#720c0c" d="M 274.589844 101.476562 C 276.890625 102.378906 276.09375 104.21875 274.160156 103.589844 C 274.160156 103.589844 269.761719 102.234375 262.671875 104.21875 C 261.523438 104.539062 260.132812 105.222656 259.515625 104.460938 C 257.871094 103.589844 263.523438 97.613281 274.589844 101.476562 Z M 274.589844 101.476562 " fill-opacity="1" fill-rule="nonzero"/><path fill="#720c0c" d="M 177.394531 104.085938 C 176.640625 104.03125 175.980469 104.601562 175.925781 105.363281 C 174.78125 121.726562 175.269531 137.617188 175.273438 137.777344 C 175.292969 138.523438 175.90625 139.109375 176.644531 139.109375 C 176.660156 139.109375 176.675781 139.109375 176.6875 139.109375 C 177.441406 139.082031 178.039062 138.449219 178.015625 137.691406 C 178.011719 137.535156 177.523438 121.773438 178.664062 105.554688 C 178.722656 104.792969 178.152344 104.136719 177.394531 104.085938 Z M 177.394531 104.085938 " fill-opacity="1" fill-rule="nonzero"/><path fill="#720c0c" d="M 299.917969 105.355469 C 299.863281 104.601562 299.210938 104.027344 298.449219 104.078125 C 297.691406 104.132812 297.121094 104.789062 297.171875 105.550781 C 298.308594 121.761719 297.828125 137.523438 297.820312 137.683594 C 297.796875 138.441406 298.390625 139.082031 299.152344 139.101562 C 299.167969 139.101562 299.183594 139.101562 299.195312 139.101562 C 299.933594 139.101562 300.542969 138.515625 300.566406 137.769531 C 300.570312 137.617188 301.0625 121.71875 299.917969 105.355469 Z M 299.917969 105.355469 " fill-opacity="1" fill-rule="nonzero"/><path fill="#720c0c" d="M 260.898438 118.554688 C 260.898438 118.554688 267.144531 111.710938 274.386719 117.339844 C 275.800781 118.183594 276.867188 116.234375 275.15625 114.867188 C 273.445312 113.496094 266.59375 108.183594 259.703125 114.601562 C 257.386719 116.765625 259.398438 120.078125 260.898438 118.554688 Z M 260.898438 118.554688 " fill-opacity="1" fill-rule="nonzero"/><path fill="#720c0c" d="M 215.074219 118.554688 C 215.074219 118.554688 208.828125 111.710938 201.585938 117.339844 C 200.171875 118.183594 199.105469 116.234375 200.816406 114.867188 C 202.53125 113.496094 209.378906 108.183594 216.269531 114.601562 C 218.589844 116.765625 216.574219 120.078125 215.074219 118.554688 Z M 215.074219 118.554688 " fill-opacity="1" fill-rule="nonzero"/><path fill="#ef7f68" d="M 243.050781 150.210938 L 232.75 150.210938 C 232.75 150.210938 231.71875 173.390625 237.894531 173.390625 L 237.90625 173.390625 C 244.082031 173.390625 243.050781 150.210938 243.050781 150.210938 Z M 243.050781 150.210938 " fill-opacity="1" fill-rule="nonzero"/><path fill="#720c0c" d="M 237.90625 174.25 L 237.894531 174.25 C 236.957031 174.25 236.109375 173.863281 235.382812 173.09375 C 233.554688 171.183594 232.417969 166.714844 232 159.816406 C 231.695312 154.789062 231.894531 150.222656 231.898438 150.175781 C 231.921875 149.710938 232.296875 149.351562 232.757812 149.351562 L 243.054688 149.351562 C 243.515625 149.351562 243.890625 149.710938 243.914062 150.175781 C 243.914062 150.214844 244.109375 154.789062 243.8125 159.816406 C 243.394531 166.71875 242.257812 171.183594 240.429688 173.09375 C 239.695312 173.855469 238.847656 174.25 237.90625 174.25 Z M 233.582031 151.070312 C 233.410156 156.523438 233.667969 168.808594 236.621094 171.902344 C 237.023438 172.324219 237.433594 172.527344 237.894531 172.527344 L 237.90625 172.527344 C 238.367188 172.527344 238.777344 172.324219 239.179688 171.902344 C 242.140625 168.808594 242.390625 156.515625 242.21875 151.070312 Z M 233.582031 151.070312 " fill-opacity="1" fill-rule="nonzero"/><path fill="#e2e2e2" d="M 242.796875 150.210938 L 232.953125 150.210938 C 232.953125 150.210938 232.835938 152.933594 232.921875 156.507812 C 235.042969 156.507812 239.90625 156.511719 242.828125 156.511719 C 242.914062 152.933594 242.796875 150.210938 242.796875 150.210938 Z M 242.796875 150.210938 " fill-opacity="1" fill-rule="nonzero"/><path fill="#720c0c" d="M 242.828125 157.085938 C 241.25 157.085938 239.105469 157.085938 237.132812 157.082031 C 235.453125 157.082031 233.898438 157.074219 232.921875 157.074219 C 232.613281 157.074219 232.359375 156.828125 232.347656 156.515625 C 232.261719 152.964844 232.382812 150.210938 232.382812 150.183594 C 232.390625 149.878906 232.644531 149.636719 232.953125 149.636719 L 242.796875 149.636719 C 243.101562 149.636719 243.355469 149.878906 243.371094 150.183594 C 243.371094 150.210938 243.488281 152.96875 243.402344 156.527344 C 243.398438 156.839844 243.140625 157.085938 242.828125 157.085938 Z M 233.484375 155.933594 C 234.445312 155.933594 235.75 155.933594 237.132812 155.9375 C 238.882812 155.9375 240.761719 155.941406 242.265625 155.941406 C 242.308594 153.601562 242.265625 151.683594 242.242188 150.785156 L 233.5 150.785156 C 233.484375 151.683594 233.441406 153.597656 233.484375 155.933594 Z M 233.484375 155.933594 " fill-opacity="1" fill-rule="nonzero"/><path fill="#c43d27" d="M 234.003906 167.175781 C 234.003906 167.175781 237.605469 162.800781 241.925781 167.175781 C 241.925781 167.175781 242.828125 162.613281 242.828125 156.511719 C 238.839844 156.511719 232.902344 156.511719 232.902344 156.511719 C 232.902344 156.511719 232.859375 163.761719 234.003906 167.175781 Z M 234.003906 167.175781 " fill-opacity="1" fill-rule="nonzero"/><path fill="#720c0c" d="M 241.925781 167.75 C 241.773438 167.75 241.625 167.691406 241.515625 167.578125 C 240.300781 166.347656 239.050781 165.753906 237.792969 165.808594 C 235.835938 165.894531 234.460938 167.523438 234.445312 167.539062 C 234.308594 167.703125 234.101562 167.777344 233.898438 167.738281 C 233.695312 167.703125 233.527344 167.558594 233.457031 167.359375 C 232.296875 163.890625 232.324219 156.808594 232.324219 156.511719 C 232.324219 156.195312 232.578125 155.941406 232.894531 155.941406 L 242.824219 155.941406 C 243.140625 155.941406 243.398438 156.199219 243.398438 156.515625 C 243.398438 162.601562 242.488281 167.246094 242.480469 167.292969 C 242.4375 167.503906 242.289062 167.667969 242.085938 167.726562 C 242.035156 167.746094 241.976562 167.75 241.925781 167.75 Z M 233.472656 157.085938 C 233.492188 158.675781 233.601562 163.210938 234.292969 166.097656 C 235.011719 165.5 236.210938 164.734375 237.734375 164.664062 C 239.046875 164.597656 240.324219 165.070312 241.539062 166.046875 C 241.785156 164.460938 242.21875 161.132812 242.261719 157.085938 Z M 233.472656 157.085938 " fill-opacity="1" fill-rule="nonzero"/><g clip-path="url(#b5ad09b5cf)"><path fill="#720c0c" d="M 282.179688 77.367188 C 277.074219 77.367188 270.625 76.976562 262.613281 76.453125 C 254.226562 75.898438 244.722656 75.277344 235.417969 75.226562 C 225.988281 75.175781 216.554688 75.792969 208.226562 76.332031 C 190.945312 77.460938 181.746094 77.878906 177.886719 74.257812 C 176.714844 73.15625 176.097656 71.730469 176.097656 70.125 C 176.097656 61.070312 182.808594 51.828125 194.503906 44.773438 C 200.171875 41.351562 206.640625 38.652344 213.738281 36.75 C 221.261719 34.726562 229.140625 33.699219 237.144531 33.699219 C 245.148438 33.699219 253.027344 34.726562 260.550781 36.742188 C 267.648438 38.648438 274.117188 41.347656 279.785156 44.765625 C 291.484375 51.824219 298.191406 61.066406 298.191406 70.117188 C 298.191406 71.738281 297.558594 73.1875 296.363281 74.304688 C 293.9375 76.589844 289.402344 77.367188 282.179688 77.367188 Z M 234.292969 69.722656 C 234.679688 69.722656 235.066406 69.722656 235.457031 69.726562 C 244.925781 69.78125 254.515625 70.410156 262.976562 70.960938 C 271.523438 71.519531 278.902344 72.007812 284.480469 71.832031 C 291.929688 71.59375 292.683594 70.214844 292.6875 70.199219 C 292.6875 70.199219 292.695312 70.175781 292.695312 70.117188 C 292.695312 55.820312 268.425781 39.199219 237.144531 39.199219 C 205.863281 39.199219 181.597656 55.820312 181.597656 70.117188 C 181.597656 70.152344 181.597656 70.171875 181.601562 70.183594 C 181.675781 70.285156 182.679688 71.410156 188.957031 71.601562 C 193.871094 71.75 200.359375 71.324219 207.878906 70.835938 C 215.953125 70.316406 225.0625 69.722656 234.292969 69.722656 Z M 234.292969 69.722656 " fill-opacity="1" fill-rule="nonzero"/></g><path fill="#ff9a00" d="M 295.441406 70.125 C 295.441406 78.496094 265.148438 72.640625 235.441406 72.480469 C 206.871094 72.324219 178.851562 78.179688 178.851562 70.125 C 178.851562 53.695312 204.953125 36.453125 237.148438 36.453125 C 269.34375 36.453125 295.441406 53.695312 295.441406 70.125 Z M 295.441406 70.125 " fill-opacity="1" fill-rule="nonzero"/><path fill="#720c0c" d="M 304.824219 98.40625 C 302.484375 98.40625 300.976562 98.320312 300.855469 98.316406 C 299.738281 98.25 298.777344 97.515625 298.417969 96.453125 C 297.609375 94.070312 295.378906 91.890625 291.78125 89.976562 C 288.253906 88.089844 283.46875 86.503906 277.5625 85.246094 C 271.902344 84.046875 259.628906 82.027344 240.960938 82.027344 L 234.609375 82.027344 C 226.601562 82.027344 211.191406 82.445312 198.007812 85.246094 C 192.101562 86.503906 187.320312 88.089844 183.789062 89.976562 C 180.191406 91.890625 177.964844 94.070312 177.152344 96.453125 C 176.792969 97.511719 175.832031 98.246094 174.714844 98.316406 C 174.46875 98.332031 168.648438 98.664062 161.675781 97.976562 C 151.976562 97.023438 145.015625 94.613281 140.992188 90.816406 C 138.300781 88.28125 136.941406 85.175781 136.941406 81.59375 C 136.941406 76.6875 139.871094 72.324219 145.648438 68.617188 C 150.625 65.421875 157.804688 62.675781 166.996094 60.449219 C 184.570312 56.191406 208.742188 53.9375 236.894531 53.9375 L 242.289062 53.761719 C 242.320312 53.761719 242.347656 53.761719 242.378906 53.761719 C 270.222656 53.761719 293.769531 56.046875 310.484375 60.367188 C 319.160156 62.609375 325.921875 65.394531 330.582031 68.644531 C 335.914062 72.355469 338.621094 76.707031 338.621094 81.59375 C 338.621094 85.175781 337.257812 88.28125 334.570312 90.816406 C 330.542969 94.617188 323.589844 97.023438 313.886719 97.976562 C 310.390625 98.320312 307.183594 98.40625 304.824219 98.40625 Z M 242.429688 59.261719 L 237.03125 59.4375 C 237 59.4375 236.972656 59.4375 236.941406 59.4375 C 223.25 59.4375 210.402344 59.984375 198.742188 61.058594 C 187.039062 62.136719 176.792969 63.730469 168.285156 65.792969 C 159.691406 67.875 153.070312 70.382812 148.609375 73.242188 C 144.511719 75.871094 142.433594 78.679688 142.433594 81.585938 C 142.433594 83.621094 143.191406 85.332031 144.757812 86.808594 C 147.832031 89.710938 153.867188 91.675781 162.210938 92.496094 C 166.621094 92.933594 170.585938 92.925781 172.722656 92.878906 C 174.289062 89.890625 177.132812 87.285156 181.203125 85.113281 C 185.191406 82.988281 190.457031 81.21875 196.867188 79.859375 C 202.734375 78.613281 215.445312 76.519531 234.609375 76.519531 L 240.960938 76.519531 C 249.183594 76.519531 265.03125 76.957031 278.703125 79.859375 C 285.113281 81.222656 290.378906 82.988281 294.367188 85.113281 C 298.433594 87.28125 301.277344 89.890625 302.84375 92.878906 C 304.996094 92.925781 309.003906 92.933594 313.4375 92.492188 C 321.742188 91.664062 327.746094 89.703125 330.8125 86.808594 C 332.378906 85.332031 333.136719 83.625 333.136719 81.59375 C 333.136719 75.351562 324.609375 69.707031 309.121094 65.695312 C 292.855469 61.488281 269.792969 59.265625 242.429688 59.261719 Z M 242.429688 59.261719 " fill-opacity="1" fill-rule="nonzero"/><path fill="#ff9a00" d="M 240.960938 79.273438 C 264.414062 79.273438 296.617188 82.589844 301.015625 95.566406 C 301.015625 95.566406 335.882812 97.640625 335.882812 81.59375 C 335.882812 65.546875 297.503906 56.507812 242.386719 56.507812 L 236.941406 56.6875 C 181.820312 56.6875 139.6875 65.539062 139.6875 81.585938 C 139.6875 97.632812 174.554688 95.5625 174.554688 95.5625 C 178.960938 82.582031 211.164062 79.269531 234.609375 79.269531 L 240.960938 79.269531 Z M 240.960938 79.273438 " fill-opacity="1" fill-rule="nonzero"/><path fill="#ffffff" d="M 271.433594 45.867188 C 257.824219 39.324219 224.691406 35.933594 203.957031 46.183594 C 196.824219 50.820312 213.6875 46.226562 237.40625 46.5625 C 252.332031 46.777344 277.121094 48.601562 271.433594 45.867188 Z M 271.433594 45.867188 " fill-opacity="1" fill-rule="nonzero"/><path fill="#f4ae98" d="M 129.921875 98.214844 C 129.921875 98.214844 131.148438 92.09375 130.195312 81.054688 C 129.117188 68.5625 145.984375 68.480469 148.433594 80.320312 C 150.65625 91.101562 145.613281 99.667969 145.613281 99.667969 C 145.613281 99.667969 140.507812 97.789062 129.921875 98.214844 Z M 129.921875 98.214844 " fill-opacity="1" fill-rule="nonzero"/><path fill="#720c0c" d="M 145.613281 101.046875 C 145.460938 101.046875 145.300781 101.019531 145.144531 100.960938 C 145.101562 100.945312 140.097656 99.183594 129.980469 99.585938 C 129.554688 99.601562 129.15625 99.425781 128.882812 99.105469 C 128.609375 98.78125 128.496094 98.351562 128.582031 97.945312 C 128.59375 97.886719 129.753906 91.84375 128.832031 81.175781 C 128.574219 78.164062 129.257812 75.535156 130.816406 73.574219 C 132.21875 71.808594 134.296875 70.644531 136.683594 70.296875 C 139.398438 69.898438 142.316406 70.585938 144.675781 72.183594 C 146.527344 73.433594 148.914062 75.8125 149.789062 80.046875 C 152.097656 91.21875 147.023438 100.003906 146.804688 100.371094 C 146.542969 100.800781 146.085938 101.046875 145.613281 101.046875 Z M 132.96875 96.773438 C 139.148438 96.773438 143.085938 97.554688 144.90625 98.027344 C 146.058594 95.589844 148.761719 88.707031 147.082031 80.601562 C 145.90625 74.894531 141.042969 72.4375 137.070312 73.015625 C 132.5625 73.675781 131.269531 77.539062 131.558594 80.933594 C 132.242188 88.816406 131.828125 94.21875 131.515625 96.785156 C 132.015625 96.78125 132.503906 96.773438 132.96875 96.773438 Z M 132.96875 96.773438 " fill-opacity="1" fill-rule="nonzero"/><path fill="#f4ae98" d="M 117.027344 121.097656 C 116.371094 140.578125 116.089844 148.835938 132.894531 149.265625 C 152.242188 149.761719 153.476562 144.328125 152.941406 136.777344 C 152.941406 136.777344 157.195312 131.410156 153.363281 124.328125 L 153.363281 124.304688 C 157.664062 117.496094 153.785156 111.855469 153.785156 111.855469 C 154.832031 104.359375 153.96875 98.851562 134.628906 98.035156 C 117.839844 97.328125 117.554688 105.582031 116.894531 125.070312 Z M 117.027344 121.097656 " fill-opacity="1" fill-rule="nonzero"/><path fill="#720c0c" d="M 135.316406 150.671875 C 134.527344 150.671875 133.710938 150.664062 132.863281 150.640625 C 126.195312 150.46875 122.023438 149.121094 119.339844 146.261719 C 115.46875 142.144531 115.238281 135.265625 115.527344 125.152344 C 115.523438 125.105469 115.523438 125.0625 115.527344 125.015625 C 115.527344 125 115.527344 124.984375 115.527344 124.972656 L 115.652344 121.332031 C 115.65625 121.238281 115.65625 121.140625 115.664062 121.042969 C 115.664062 120.996094 115.667969 120.953125 115.671875 120.902344 C 116.070312 110.796875 116.761719 103.949219 120.902344 100.109375 C 123.78125 97.441406 128.03125 96.371094 134.695312 96.65625 C 144.871094 97.085938 150.65625 98.777344 153.453125 102.136719 C 155.769531 104.917969 155.628906 108.421875 155.222656 111.558594 C 155.59375 112.226562 156.214844 113.53125 156.546875 115.269531 C 156.964844 117.441406 156.996094 120.738281 154.9375 124.371094 C 156.746094 128.132812 156.492188 131.417969 155.929688 133.558594 C 155.480469 135.269531 154.773438 136.53125 154.355469 137.164062 C 154.550781 140.324219 154.457031 143.832031 151.953125 146.445312 C 149.179688 149.347656 144.003906 150.671875 135.316406 150.671875 Z M 118.335938 123.140625 C 117.988281 133.71875 117.957031 140.78125 121.335938 144.371094 C 123.453125 146.621094 127.140625 147.738281 132.933594 147.886719 C 142.019531 148.117188 147.59375 147.027344 149.960938 144.542969 C 151.632812 142.792969 151.816406 140.308594 151.574219 136.871094 C 151.546875 136.527344 151.652344 136.1875 151.867188 135.914062 C 152.011719 135.726562 155.484375 131.128906 152.15625 124.972656 C 152.039062 124.757812 151.984375 124.515625 151.992188 124.269531 L 151.992188 124.246094 C 152.003906 124.003906 152.070312 123.765625 152.207031 123.558594 C 155.945312 117.640625 152.789062 112.820312 152.652344 112.617188 C 152.457031 112.332031 152.378906 111.996094 152.425781 111.652344 C 152.902344 108.238281 152.886719 105.75 151.335938 103.886719 C 149.140625 101.25 143.660156 99.78125 134.578125 99.394531 C 128.785156 99.148438 125.035156 100.011719 122.765625 102.113281 C 119.144531 105.492188 118.707031 112.546875 118.335938 123.140625 Z M 118.335938 123.140625 " fill-opacity="1" fill-rule="nonzero"/><path fill="#f9e6e1" d="M 144.753906 79.863281 C 143.617188 74.984375 135.488281 74.984375 136.832031 81.78125 C 138.238281 88.902344 146.996094 89.53125 144.753906 79.863281 Z M 144.753906 79.863281 " fill-opacity="1" fill-rule="nonzero"/><path fill="#ed9077" d="M 119.257812 110.25 C 119.257812 110.25 118.390625 133.859375 125.207031 140.058594 C 132.019531 146.257812 151.550781 140.976562 151.550781 140.976562 C 151.550781 140.976562 151.730469 146.882812 141.777344 147.722656 C 132.1875 148.53125 122.269531 148.03125 119.859375 142.546875 C 116.78125 137.34375 118.152344 117.621094 119.257812 110.25 Z M 119.257812 110.25 " fill-opacity="1" fill-rule="nonzero"/><path fill="#ed9077" d="M 152.113281 136.371094 C 152.113281 136.371094 153.335938 133.402344 153.554688 131.035156 C 147.492188 134.824219 135.535156 134.636719 132.101562 132.824219 C 128.667969 131.007812 128.703125 137.617188 136.242188 137.925781 C 143.78125 138.238281 148.90625 137.257812 152.113281 136.371094 Z M 152.113281 136.371094 " fill-opacity="1" fill-rule="nonzero"/><path fill="#ed9077" d="M 152.800781 123.308594 C 152.800781 123.308594 154.011719 120.414062 153.984375 117.871094 C 149.429688 120.148438 139.0625 119.605469 132.753906 118.988281 C 127.101562 118.433594 129.0625 123.871094 136.601562 124.183594 C 144.140625 124.492188 149.589844 124.199219 152.800781 123.308594 Z M 152.800781 123.308594 " fill-opacity="1" fill-rule="nonzero"/><path fill="#ed9077" d="M 152.570312 110.515625 C 152.570312 110.515625 152.898438 108.539062 152.617188 106.964844 C 145.476562 105.25 140.539062 104.582031 132.78125 105.765625 C 128.34375 106.441406 129.289062 109.886719 136.828125 110.195312 C 144.367188 110.507812 149.359375 111.40625 152.570312 110.515625 Z M 152.570312 110.515625 " fill-opacity="1" fill-rule="nonzero"/><path fill="#720c0c" d="M 141.585938 139.46875 C 139.371094 139.46875 136.78125 139.375 133.730469 139.152344 C 133.179688 139.109375 132.765625 138.628906 132.804688 138.078125 C 132.847656 137.523438 133.324219 137.105469 133.875 137.148438 C 148.691406 138.238281 152.339844 136.089844 152.378906 136.070312 C 152.839844 135.765625 153.460938 135.882812 153.765625 136.34375 C 154.074219 136.804688 153.953125 137.429688 153.492188 137.734375 C 153.175781 137.953125 150.597656 139.46875 141.585938 139.46875 Z M 141.585938 139.46875 " fill-opacity="1" fill-rule="nonzero"/><path fill="#720c0c" d="M 153.363281 125.308594 C 153.359375 125.308594 153.347656 125.308594 153.339844 125.308594 L 133.5625 124.886719 C 133.011719 124.875 132.574219 124.414062 132.582031 123.859375 C 132.59375 123.3125 133.039062 122.878906 133.585938 122.878906 C 133.589844 122.878906 133.601562 122.878906 133.605469 122.878906 L 153.382812 123.300781 C 153.9375 123.3125 154.375 123.773438 154.363281 124.328125 C 154.355469 124.875 153.90625 125.308594 153.363281 125.308594 Z M 153.363281 125.308594 " fill-opacity="1" fill-rule="nonzero"/><path fill="#720c0c" d="M 153.230469 112.6875 C 153.191406 112.660156 149.144531 110.164062 134.304688 110.777344 C 133.746094 110.796875 133.285156 110.367188 133.265625 109.816406 C 133.242188 109.261719 133.671875 108.796875 134.222656 108.773438 C 140.777344 108.507812 146.109375 108.78125 150.078125 109.597656 C 153.121094 110.21875 154.242188 110.953125 154.359375 111.035156 L 153.21875 112.683594 Z M 153.230469 112.6875 " fill-opacity="1" fill-rule="nonzero"/><path fill="#f9e6e1" d="M 119.949219 107.128906 C 119.949219 107.128906 120.597656 104.34375 122.226562 102.566406 C 124.097656 100.527344 128.011719 98.789062 135.445312 99.339844 C 149.472656 100.382812 151.519531 103.210938 152.421875 106.015625 C 150.066406 102.453125 140.621094 101.894531 134.527344 101.765625 C 126.691406 101.601562 122.289062 103.453125 119.949219 107.128906 Z M 119.949219 107.128906 " fill-opacity="1" fill-rule="nonzero"/><path fill="#f4ae98" d="M 345.808594 98.214844 C 345.808594 98.214844 344.582031 92.09375 345.539062 81.054688 C 346.613281 68.5625 329.746094 68.480469 327.296875 80.320312 C 325.074219 91.101562 330.117188 99.667969 330.117188 99.667969 C 330.117188 99.667969 335.222656 97.789062 345.808594 98.214844 Z M 345.808594 98.214844 " fill-opacity="1" fill-rule="nonzero"/><path fill="#720c0c" d="M 330.121094 101.042969 C 329.644531 101.042969 329.1875 100.792969 328.9375 100.367188 C 328.71875 99.996094 323.648438 91.214844 325.953125 80.042969 C 326.433594 77.707031 327.714844 74.445312 331.066406 72.179688 C 333.425781 70.585938 336.34375 69.898438 339.058594 70.289062 C 341.445312 70.640625 343.523438 71.804688 344.925781 73.570312 C 346.480469 75.527344 347.167969 78.15625 346.910156 81.167969 C 345.992188 91.835938 347.148438 97.878906 347.160156 97.941406 C 347.242188 98.351562 347.128906 98.78125 346.855469 99.105469 C 346.582031 99.425781 346.179688 99.601562 345.757812 99.585938 C 335.640625 99.183594 330.640625 100.945312 330.585938 100.960938 C 330.4375 101.015625 330.277344 101.042969 330.121094 101.042969 Z M 337.503906 72.9375 C 333.792969 72.9375 329.707031 75.441406 328.648438 80.601562 C 326.972656 88.707031 329.671875 95.589844 330.824219 98.027344 C 332.785156 97.515625 337.199219 96.652344 344.214844 96.785156 C 343.902344 94.21875 343.492188 88.820312 344.171875 80.933594 C 344.464844 77.535156 343.167969 73.671875 338.664062 73.015625 C 338.28125 72.964844 337.894531 72.9375 337.503906 72.9375 Z M 337.503906 72.9375 " fill-opacity="1" fill-rule="nonzero"/><path fill="#f4ae98" d="M 358.703125 121.097656 C 359.363281 140.578125 359.640625 148.835938 342.835938 149.265625 C 323.488281 149.761719 322.253906 144.328125 322.792969 136.777344 C 322.792969 136.777344 318.535156 131.410156 322.367188 124.328125 L 322.367188 124.304688 C 318.066406 117.496094 321.945312 111.855469 321.945312 111.855469 C 320.898438 104.359375 321.761719 98.851562 341.101562 98.035156 C 357.894531 97.328125 358.175781 105.582031 358.835938 125.070312 Z M 358.703125 121.097656 " fill-opacity="1" fill-rule="nonzero"/><path fill="#720c0c" d="M 340.421875 150.671875 C 331.730469 150.671875 326.554688 149.347656 323.789062 146.449219 C 321.292969 143.832031 321.195312 140.324219 321.386719 137.171875 C 320.976562 136.53125 320.261719 135.269531 319.8125 133.5625 C 319.25 131.421875 318.996094 128.136719 320.804688 124.375 C 318.746094 120.742188 318.777344 117.449219 319.195312 115.273438 C 319.527344 113.535156 320.148438 112.230469 320.519531 111.566406 C 320.113281 108.425781 319.96875 104.921875 322.289062 102.140625 C 325.085938 98.78125 330.867188 97.097656 341.046875 96.664062 C 347.707031 96.378906 351.960938 97.445312 354.839844 100.113281 C 358.980469 103.957031 359.671875 110.804688 360.070312 120.910156 C 360.074219 120.953125 360.078125 121 360.078125 121.046875 C 360.085938 121.15625 360.085938 121.257812 360.089844 121.367188 L 360.214844 124.984375 C 360.214844 124.992188 360.214844 125.007812 360.214844 125.019531 C 360.214844 125.070312 360.214844 125.109375 360.214844 125.160156 C 360.503906 135.269531 360.273438 142.152344 356.402344 146.265625 C 353.714844 149.121094 349.546875 150.472656 342.878906 150.644531 C 342.023438 150.664062 341.207031 150.671875 340.421875 150.671875 Z M 342.992188 99.367188 C 342.402344 99.367188 341.796875 99.382812 341.160156 99.410156 C 332.078125 99.796875 326.589844 101.261719 324.398438 103.902344 C 322.851562 105.765625 322.835938 108.253906 323.3125 111.667969 C 323.359375 112.003906 323.277344 112.355469 323.082031 112.640625 C 322.945312 112.835938 319.796875 117.65625 323.53125 123.578125 C 323.660156 123.78125 323.734375 124.023438 323.746094 124.261719 L 323.746094 124.285156 C 323.753906 124.53125 323.695312 124.773438 323.578125 124.988281 C 320.21875 131.203125 323.832031 135.882812 323.867188 135.929688 C 324.082031 136.199219 324.183594 136.542969 324.164062 136.886719 C 323.921875 140.324219 324.105469 142.804688 325.777344 144.558594 C 328.144531 147.046875 333.71875 148.132812 342.804688 147.902344 C 348.601562 147.753906 352.28125 146.636719 354.398438 144.386719 C 357.78125 140.792969 357.742188 133.734375 357.398438 123.152344 C 357.03125 112.558594 356.589844 105.5 352.96875 102.140625 C 350.953125 100.257812 347.753906 99.367188 342.992188 99.367188 Z M 342.992188 99.367188 " fill-opacity="1" fill-rule="nonzero"/><path fill="#f9e6e1" d="M 330.980469 79.863281 C 332.113281 74.984375 340.242188 74.984375 338.898438 81.78125 C 337.496094 88.902344 328.734375 89.53125 330.980469 79.863281 Z M 330.980469 79.863281 " fill-opacity="1" fill-rule="nonzero"/><path fill="#ed9077" d="M 356.472656 110.25 C 356.472656 110.25 357.339844 133.859375 350.527344 140.058594 C 343.714844 146.25 324.179688 140.976562 324.179688 140.976562 C 324.179688 140.976562 324.003906 146.882812 333.953125 147.722656 C 343.542969 148.53125 353.460938 148.03125 355.875 142.546875 C 358.949219 137.34375 357.582031 117.621094 356.472656 110.25 Z M 356.472656 110.25 " fill-opacity="1" fill-rule="nonzero"/><path fill="#ed9077" d="M 323.617188 136.371094 C 323.617188 136.371094 322.394531 133.402344 322.175781 131.035156 C 328.242188 134.824219 340.195312 134.636719 343.628906 132.824219 C 347.0625 131.007812 347.027344 137.617188 339.488281 137.925781 C 331.941406 138.238281 326.824219 137.257812 323.617188 136.371094 Z M 323.617188 136.371094 " fill-opacity="1" fill-rule="nonzero"/><path fill="#ed9077" d="M 322.929688 123.308594 C 322.929688 123.308594 321.71875 120.414062 321.746094 117.871094 C 326.300781 120.148438 336.667969 119.605469 342.976562 118.988281 C 348.628906 118.433594 346.667969 123.871094 339.128906 124.183594 C 331.585938 124.492188 326.140625 124.199219 322.929688 123.308594 Z M 322.929688 123.308594 " fill-opacity="1" fill-rule="nonzero"/><path fill="#ed9077" d="M 323.160156 110.515625 C 323.160156 110.515625 322.835938 108.539062 323.113281 106.964844 C 330.253906 105.25 335.191406 104.582031 342.949219 105.765625 C 347.386719 106.441406 346.441406 109.886719 338.902344 110.195312 C 331.359375 110.515625 326.375 111.40625 323.160156 110.515625 Z M 323.160156 110.515625 " fill-opacity="1" fill-rule="nonzero"/><path fill="#720c0c" d="M 334.144531 139.46875 C 325.128906 139.46875 322.550781 137.949219 322.234375 137.738281 L 323.347656 136.074219 L 323.328125 136.066406 C 323.363281 136.085938 327.097656 138.238281 341.84375 137.152344 C 342.398438 137.109375 342.875 137.53125 342.917969 138.082031 C 342.960938 138.636719 342.542969 139.113281 341.988281 139.15625 C 338.957031 139.375 336.359375 139.46875 334.144531 139.46875 Z M 334.144531 139.46875 " fill-opacity="1" fill-rule="nonzero"/><path fill="#720c0c" d="M 322.367188 125.308594 C 321.828125 125.308594 321.375 124.875 321.367188 124.328125 C 321.355469 123.773438 321.792969 123.3125 322.347656 123.300781 L 342.125 122.878906 C 342.128906 122.878906 342.140625 122.878906 342.144531 122.878906 C 342.6875 122.878906 343.136719 123.3125 343.148438 123.859375 C 343.15625 124.414062 342.71875 124.875 342.167969 124.886719 L 322.390625 125.308594 C 322.382812 125.308594 322.378906 125.308594 322.367188 125.308594 Z M 322.367188 125.308594 " fill-opacity="1" fill-rule="nonzero"/><path fill="#720c0c" d="M 321.949219 112.859375 C 321.632812 112.859375 321.324219 112.707031 321.125 112.429688 C 320.808594 111.972656 320.921875 111.351562 321.375 111.035156 C 321.496094 110.953125 322.613281 110.21875 325.65625 109.597656 C 329.628906 108.785156 334.960938 108.507812 341.511719 108.773438 C 342.066406 108.796875 342.492188 109.261719 342.472656 109.816406 C 342.449219 110.367188 341.984375 110.796875 341.433594 110.777344 C 326.578125 110.164062 322.5625 112.65625 322.523438 112.683594 C 322.347656 112.800781 322.148438 112.859375 321.949219 112.859375 Z M 321.949219 112.859375 " fill-opacity="1" fill-rule="nonzero"/><path fill="#f9e6e1" d="M 355.78125 107.128906 C 355.78125 107.128906 355.132812 104.34375 353.503906 102.566406 C 351.636719 100.527344 347.71875 98.789062 340.285156 99.339844 C 326.257812 100.382812 324.210938 103.210938 323.3125 106.015625 C 325.664062 102.453125 335.109375 101.894531 341.203125 101.765625 C 349.042969 101.601562 353.441406 103.453125 355.78125 107.128906 Z M 355.78125 107.128906 " fill-opacity="1" fill-rule="nonzero"/></svg>