<svg xmlns="http://www.w3.org/2000/svg" xmlns:xlink="http://www.w3.org/1999/xlink" width="650" zoomAndPan="magnify" viewBox="0 0 487.5 337.499995" height="450" preserveAspectRatio="xMidYMid meet" version="1.0"><defs><clipPath id="8e1f6c28bf"><path d="M 0.109375 0 L 486.890625 0 L 486.890625 337 L 0.109375 337 Z M 0.109375 0 " clip-rule="nonzero"/></clipPath><clipPath id="ca9c490136"><path d="M 101.554688 167 L 385.382812 167 L 385.382812 231 L 101.554688 231 Z M 101.554688 167 " clip-rule="nonzero"/></clipPath><clipPath id="c90f2b010e"><path d="M 119 82.976562 L 199 82.976562 L 199 153 L 119 153 Z M 119 82.976562 " clip-rule="nonzero"/></clipPath><clipPath id="ff94a2e209"><path d="M 101.554688 167 L 385.382812 167 L 385.382812 231 L 101.554688 231 Z M 101.554688 167 " clip-rule="nonzero"/></clipPath><clipPath id="ba047673a3"><path d="M 119 82.976562 L 199 82.976562 L 199 153 L 119 153 Z M 119 82.976562 " clip-rule="nonzero"/></clipPath><clipPath id="4f1964b9fe"><path d="M 101.554688 167 L 385.382812 167 L 385.382812 231 L 101.554688 231 Z M 101.554688 167 " clip-rule="nonzero"/></clipPath><clipPath id="2f0e5300bb"><path d="M 119 82.976562 L 199 82.976562 L 199 153 L 119 153 Z M 119 82.976562 " clip-rule="nonzero"/></clipPath><clipPath id="3b94d0e87f"><path d="M 101.554688 167 L 385.382812 167 L 385.382812 231 L 101.554688 231 Z M 101.554688 167 " clip-rule="nonzero"/></clipPath><clipPath id="6487c8ca38"><path d="M 119 82.976562 L 199 82.976562 L 199 153 L 119 153 Z M 119 82.976562 " clip-rule="nonzero"/></clipPath><clipPath id="411bf2260b"><path d="M 126 227 L 193 227 L 193 253.726562 L 126 253.726562 Z M 126 227 " clip-rule="nonzero"/></clipPath></defs><g clip-path="url(#8e1f6c28bf)"><path fill="#ffffff" d="M 0.109375 0 L 486.890625 0 L 486.890625 337 L 0.109375 337 Z M 0.109375 0 " fill-opacity="1" fill-rule="nonzero"/><path fill="#f8fffa" d="M 0.109375 0 L 486.890625 0 L 486.890625 337 L 0.109375 337 Z M 0.109375 0 " fill-opacity="1" fill-rule="nonzero"/></g><path fill="#e8e3dd" d="M 182.101562 135.804688 L 220.972656 135.804688 L 213.6875 117.726562 L 207.515625 112.886719 C 209.109375 108.867188 211.175781 105.152344 213.625 101.839844 L 192.84375 101.839844 C 194.761719 104.6875 196.410156 107.792969 197.730469 111.113281 L 188.277344 117.304688 L 182.101562 135.804688 " fill-opacity="1" fill-rule="nonzero"/><path fill="#e8e3dd" d="M 275.027344 101.839844 C 277.679688 105.425781 279.882812 109.472656 281.523438 113.871094 L 276.285156 117.304688 L 270.113281 135.804688 L 308.980469 135.804688 L 301.695312 117.726562 L 296.195312 113.410156 C 297.785156 109.195312 299.894531 105.304688 302.417969 101.839844 L 275.027344 101.839844 " fill-opacity="1" fill-rule="nonzero"/><path fill="#e8e3dd" d="M 120.402344 131.027344 C 120.402344 120.011719 123.632812 109.878906 129.046875 101.839844 L 123.28125 101.839844 C 118.441406 101.839844 114.519531 105.757812 114.519531 110.589844 L 114.519531 120.917969 C 114.519531 125.789062 116.222656 130.511719 119.335938 134.265625 L 120.609375 135.804688 C 120.476562 134.234375 120.402344 132.640625 120.402344 131.027344 " fill-opacity="1" fill-rule="nonzero"/><path fill="#e8e3dd" d="M 364.214844 101.839844 C 370.230469 110.089844 373.863281 120.777344 373.863281 132.457031 C 373.863281 132.46875 373.863281 132.480469 373.863281 132.492188 C 373.863281 133.605469 373.761719 134.710938 373.578125 135.804688 C 377.175781 132.945312 379.273438 128.605469 379.273438 124.011719 L 379.273438 110.589844 C 379.273438 105.757812 375.347656 101.839844 370.507812 101.839844 L 364.214844 101.839844 " fill-opacity="1" fill-rule="nonzero"/><path fill="#e8e3dd" d="M 374.746094 171.769531 C 374.757812 172.046875 375.75 173.875 376.664062 175.496094 C 377.710938 177.359375 378.199219 179.488281 378.015625 181.613281 C 376.058594 204.40625 355.085938 222.351562 329.503906 222.351562 C 315.390625 222.351562 302.683594 216.882812 293.796875 208.160156 L 281.121094 208.160156 C 271.671875 216.882812 258.160156 222.351562 243.152344 222.351562 C 228.140625 222.351562 214.632812 216.882812 205.179688 208.160156 L 189.253906 208.160156 C 181.011719 216.882812 169.226562 222.351562 156.136719 222.351562 C 138.71875 222.351562 123.601562 212.683594 116.078125 198.523438 C 111.1875 189.320312 111.453125 178.207031 116.761719 169.238281 C 117.046875 168.753906 117.21875 168.429688 117.222656 168.347656 L 115.355469 169.390625 C 107.394531 173.824219 102.460938 182.21875 102.460938 191.320312 L 102.460938 197.933594 C 102.460938 215.230469 116.503906 229.253906 133.824219 229.253906 L 353.117188 229.253906 C 370.4375 229.253906 384.476562 215.230469 384.476562 197.933594 L 384.476562 187.417969 C 384.476562 180.777344 380.703125 174.714844 374.746094 171.769531 " fill-opacity="1" fill-rule="nonzero"/><path fill="#000000" d="M 183.171875 135.035156 L 219.832031 135.035156 L 213.050781 118.203125 L 207.039062 113.488281 C 206.769531 113.28125 206.675781 112.917969 206.800781 112.601562 C 208.214844 109.035156 210.003906 105.679688 212.132812 102.609375 L 194.261719 102.609375 C 195.894531 105.191406 197.300781 107.949219 198.445312 110.824219 C 198.582031 111.164062 198.460938 111.550781 198.15625 111.75 L 188.921875 117.800781 Z M 220.972656 136.570312 L 182.101562 136.570312 C 181.855469 136.570312 181.625 136.449219 181.480469 136.253906 C 181.335938 136.050781 181.296875 135.792969 181.375 135.5625 L 187.546875 117.0625 C 187.601562 116.898438 187.710938 116.757812 187.855469 116.664062 L 196.78125 110.8125 C 195.535156 107.800781 193.996094 104.933594 192.203125 102.269531 C 192.046875 102.035156 192.03125 101.730469 192.164062 101.480469 C 192.296875 101.226562 192.558594 101.074219 192.84375 101.074219 L 213.625 101.074219 C 213.914062 101.074219 214.183594 101.234375 214.3125 101.496094 C 214.445312 101.753906 214.417969 102.066406 214.246094 102.296875 C 211.921875 105.4375 209.96875 108.914062 208.445312 112.636719 L 214.160156 117.125 C 214.265625 117.207031 214.351562 117.316406 214.398438 117.441406 L 221.683594 135.515625 C 221.78125 135.753906 221.75 136.019531 221.609375 136.234375 C 221.464844 136.445312 221.226562 136.570312 220.972656 136.570312 " fill-opacity="1" fill-rule="nonzero"/><path fill="#000000" d="M 271.179688 135.035156 L 307.84375 135.035156 L 301.058594 118.203125 L 295.71875 114.015625 C 295.457031 113.808594 295.355469 113.453125 295.476562 113.140625 C 296.898438 109.378906 298.730469 105.839844 300.941406 102.609375 L 276.523438 102.609375 C 278.855469 105.976562 280.777344 109.667969 282.25 113.605469 C 282.371094 113.941406 282.25 114.316406 281.949219 114.515625 L 276.933594 117.800781 Z M 308.980469 136.570312 L 270.113281 136.570312 C 269.867188 136.570312 269.632812 136.449219 269.488281 136.253906 C 269.34375 136.050781 269.304688 135.792969 269.382812 135.5625 L 275.558594 117.0625 C 275.613281 116.898438 275.71875 116.757812 275.867188 116.664062 L 280.589844 113.570312 C 279.011719 109.5 276.9375 105.710938 274.410156 102.296875 C 274.238281 102.066406 274.210938 101.753906 274.339844 101.496094 C 274.472656 101.234375 274.738281 101.074219 275.027344 101.074219 L 302.417969 101.074219 C 302.707031 101.074219 302.972656 101.234375 303.105469 101.492188 C 303.238281 101.75 303.210938 102.058594 303.042969 102.292969 C 300.636719 105.59375 298.644531 109.242188 297.113281 113.160156 L 302.171875 117.125 C 302.277344 117.207031 302.359375 117.316406 302.410156 117.441406 L 309.695312 135.515625 C 309.789062 135.753906 309.757812 136.019531 309.617188 136.234375 C 309.472656 136.445312 309.238281 136.570312 308.980469 136.570312 " fill-opacity="1" fill-rule="nonzero"/><path fill="#000000" d="M 123.28125 102.609375 C 118.875 102.609375 115.289062 106.1875 115.289062 110.589844 L 115.289062 120.917969 C 115.289062 125.472656 116.847656 129.921875 119.6875 133.480469 C 119.652344 132.65625 119.632812 131.835938 119.632812 131.027344 C 119.632812 120.675781 122.390625 110.882812 127.625 102.609375 Z M 120.609375 136.570312 C 120.386719 136.570312 120.167969 136.472656 120.019531 136.292969 L 118.742188 134.753906 C 115.523438 130.871094 113.75 125.957031 113.75 120.917969 L 113.75 110.589844 C 113.75 105.34375 118.027344 101.074219 123.28125 101.074219 L 129.046875 101.074219 C 129.328125 101.074219 129.589844 101.226562 129.722656 101.480469 C 129.859375 101.730469 129.84375 102.035156 129.683594 102.269531 C 124.113281 110.535156 121.171875 120.480469 121.171875 131.027344 C 121.171875 132.574219 121.242188 134.160156 121.375 135.738281 C 121.40625 136.070312 121.210938 136.386719 120.902344 136.515625 C 120.808594 136.554688 120.707031 136.570312 120.609375 136.570312 " fill-opacity="1" fill-rule="nonzero"/><path fill="#000000" d="M 365.699219 102.609375 C 371.46875 111.074219 374.632812 121.613281 374.632812 132.457031 L 374.632812 132.492188 C 374.632812 132.941406 374.617188 133.390625 374.585938 133.84375 C 377.09375 131.203125 378.503906 127.71875 378.503906 124.011719 L 378.503906 110.589844 C 378.503906 106.1875 374.917969 102.609375 370.507812 102.609375 Z M 373.578125 136.570312 C 373.445312 136.570312 373.308594 136.535156 373.183594 136.464844 C 372.914062 136.304688 372.765625 135.988281 372.820312 135.671875 C 373 134.605469 373.09375 133.535156 373.09375 132.492188 L 373.09375 132.457031 C 373.09375 121.40625 369.722656 110.691406 363.59375 102.292969 C 363.421875 102.058594 363.398438 101.75 363.53125 101.492188 C 363.660156 101.234375 363.925781 101.074219 364.214844 101.074219 L 370.507812 101.074219 C 375.765625 101.074219 380.039062 105.34375 380.039062 110.589844 L 380.039062 124.011719 C 380.039062 128.867188 377.859375 133.382812 374.054688 136.402344 C 373.917969 136.515625 373.746094 136.570312 373.578125 136.570312 " fill-opacity="1" fill-rule="nonzero"/><g clip-path="url(#ca9c490136)"><path fill="#000000" d="M 115.289062 170.308594 C 107.839844 174.667969 103.230469 182.671875 103.230469 191.320312 L 103.230469 197.933594 C 103.230469 214.78125 116.953125 228.480469 133.824219 228.480469 L 353.117188 228.480469 C 369.984375 228.480469 383.710938 214.78125 383.710938 197.933594 L 383.710938 187.417969 C 383.710938 181.867188 381.023438 176.816406 376.558594 173.726562 C 376.769531 174.113281 377.027344 174.578125 377.332031 175.121094 C 378.476562 177.148438 378.976562 179.417969 378.78125 181.679688 C 377.816406 192.945312 372.25 203.402344 363.117188 211.117188 C 353.949219 218.855469 342.011719 223.117188 329.503906 223.117188 C 315.90625 223.117188 302.796875 217.949219 293.480469 208.925781 L 281.421875 208.925781 C 271.527344 217.949219 257.59375 223.117188 243.152344 223.117188 C 228.707031 223.117188 214.777344 217.949219 204.882812 208.925781 L 189.585938 208.925781 C 180.933594 217.949219 168.761719 223.117188 156.136719 223.117188 C 138.953125 223.117188 123.34375 213.832031 115.398438 198.886719 C 110.675781 190.003906 110.671875 179.203125 115.289062 170.308594 Z M 353.117188 230.019531 L 133.824219 230.019531 C 116.105469 230.019531 101.691406 215.625 101.691406 197.933594 L 101.691406 191.320312 C 101.691406 181.945312 106.78125 173.285156 114.980469 168.71875 L 116.847656 167.675781 C 117.089844 167.539062 117.386719 167.546875 117.625 167.691406 C 117.859375 167.835938 118 168.097656 117.992188 168.375 C 117.984375 168.589844 117.925781 168.78125 117.425781 169.628906 C 112.277344 178.320312 112.023438 189.257812 116.757812 198.164062 C 124.433594 212.613281 139.523438 221.585938 156.136719 221.585938 C 168.449219 221.585938 180.316406 216.5 188.695312 207.628906 C 188.839844 207.476562 189.042969 207.390625 189.253906 207.390625 L 205.179688 207.390625 C 205.375 207.390625 205.5625 207.460938 205.703125 207.59375 C 215.332031 216.484375 228.980469 221.585938 243.152344 221.585938 C 257.320312 221.585938 270.972656 216.484375 280.597656 207.59375 C 280.742188 207.460938 280.929688 207.390625 281.121094 207.390625 L 293.796875 207.390625 C 293.996094 207.390625 294.1875 207.46875 294.335938 207.609375 C 303.375 216.492188 316.195312 221.585938 329.503906 221.585938 C 341.648438 221.585938 353.238281 217.449219 362.125 209.945312 C 370.945312 202.492188 376.320312 192.410156 377.25 181.546875 C 377.417969 179.59375 376.980469 177.632812 375.992188 175.875 C 373.996094 172.324219 373.984375 172.046875 373.976562 171.800781 C 373.96875 171.53125 374.101562 171.273438 374.328125 171.128906 C 374.554688 170.980469 374.84375 170.960938 375.085938 171.082031 C 381.351562 174.175781 385.246094 180.433594 385.246094 187.417969 L 385.246094 197.933594 C 385.246094 215.625 370.835938 230.019531 353.117188 230.019531 " fill-opacity="1" fill-rule="nonzero"/></g><path fill="#000000" d="M 304.628906 215.261719 C 312.109375 219.398438 320.703125 221.585938 329.503906 221.585938 C 340.109375 221.585938 350.160156 218.5 358.566406 212.667969 C 366.664062 207.050781 372.675781 199.09375 375.5 190.261719 C 375.589844 188.980469 375.632812 187.699219 375.632812 186.449219 C 375.632812 160.800781 357.792969 139.933594 335.859375 139.933594 C 313.925781 139.933594 296.078125 160.800781 296.078125 186.449219 C 296.078125 197.023438 299.035156 206.980469 304.628906 215.261719 Z M 329.503906 223.117188 C 320.378906 223.117188 311.464844 220.835938 303.722656 216.515625 C 303.617188 216.457031 303.527344 216.375 303.460938 216.273438 C 297.625 207.710938 294.539062 197.398438 294.539062 186.449219 C 294.539062 159.953125 313.074219 138.394531 335.859375 138.394531 C 358.640625 138.394531 377.171875 159.953125 377.171875 186.449219 C 377.171875 187.765625 377.125 189.113281 377.027344 190.464844 C 377.023438 190.523438 377.011719 190.582031 376.996094 190.640625 C 374.078125 199.828125 367.84375 208.097656 359.445312 213.929688 C 350.78125 219.941406 340.425781 223.117188 329.503906 223.117188 " fill-opacity="1" fill-rule="nonzero"/><path fill="#000000" d="M 211.832031 212.402344 C 220.859375 218.40625 231.683594 221.585938 243.152344 221.585938 C 256.394531 221.585938 268.929688 217.273438 278.476562 209.4375 C 282.160156 202.246094 284.109375 193.996094 284.109375 185.570312 C 284.109375 159.921875 266.265625 139.054688 244.332031 139.054688 C 222.398438 139.054688 204.550781 159.921875 204.550781 185.570312 C 204.550781 195.253906 207.070312 204.527344 211.832031 212.402344 Z M 243.152344 223.117188 C 231.316406 223.117188 220.144531 219.820312 210.835938 213.582031 C 210.742188 213.523438 210.664062 213.441406 210.609375 213.34375 C 205.640625 205.199219 203.015625 195.59375 203.015625 185.570312 C 203.015625 159.074219 221.550781 137.519531 244.332031 137.519531 C 267.113281 137.519531 285.644531 159.074219 285.644531 185.570312 C 285.644531 194.292969 283.617188 202.839844 279.773438 210.28125 C 279.726562 210.371094 279.660156 210.453125 279.582031 210.519531 C 269.742188 218.644531 256.804688 223.117188 243.152344 223.117188 " fill-opacity="1" fill-rule="nonzero"/><path fill="#000000" d="M 117.464844 199.4375 C 125.332031 213.101562 140.136719 221.585938 156.136719 221.585938 C 168.449219 221.585938 180.316406 216.5 188.695312 207.628906 C 188.839844 207.476562 189.042969 207.390625 189.253906 207.390625 L 190.582031 207.390625 C 193.617188 200.714844 195.222656 193.179688 195.222656 185.570312 C 195.222656 159.921875 177.378906 139.054688 155.445312 139.054688 C 133.511719 139.054688 115.667969 159.921875 115.667969 185.570312 C 115.667969 190.296875 116.273438 194.964844 117.464844 199.4375 Z M 156.136719 223.117188 C 139.554688 223.117188 124.207031 214.304688 116.082031 200.117188 C 116.046875 200.054688 116.023438 199.996094 116.003906 199.929688 C 114.761719 195.300781 114.128906 190.464844 114.128906 185.570312 C 114.128906 159.074219 132.664062 137.519531 155.445312 137.519531 C 178.226562 137.519531 196.761719 159.074219 196.761719 185.570312 C 196.761719 193.574219 195.035156 201.496094 191.773438 208.480469 C 191.644531 208.75 191.375 208.925781 191.074219 208.925781 L 189.585938 208.925781 C 180.933594 217.949219 168.761719 223.117188 156.136719 223.117188 " fill-opacity="1" fill-rule="nonzero"/><path fill="#000000" d="M 373.722656 136.414062 L 373.726562 136.414062 Z M 335.859375 138.394531 C 346.460938 138.394531 356.492188 143.03125 364.1875 151.472656 C 368.226562 146.949219 371.175781 141.839844 372.960938 136.265625 C 373.050781 134.984375 373.09375 133.703125 373.09375 132.457031 C 373.09375 106.804688 355.25 85.9375 333.316406 85.9375 C 317.734375 85.9375 303.578125 96.605469 297.113281 113.160156 L 302.171875 117.125 C 302.277344 117.207031 302.359375 117.316406 302.410156 117.441406 L 313.835938 145.789062 C 320.425781 140.949219 328.015625 138.394531 335.859375 138.394531 Z M 364.179688 153.386719 C 364.179688 153.386719 364.171875 153.386719 364.171875 153.386719 C 363.953125 153.386719 363.746094 153.289062 363.605469 153.125 C 356.132812 144.617188 346.28125 139.933594 335.859375 139.933594 C 328.035156 139.933594 320.46875 142.589844 313.96875 147.609375 C 313.777344 147.757812 313.523438 147.808594 313.292969 147.746094 C 313.0625 147.683594 312.871094 147.515625 312.78125 147.292969 L 301.058594 118.203125 L 295.71875 114.015625 C 295.457031 113.808594 295.355469 113.453125 295.476562 113.140625 C 302.070312 95.683594 316.925781 84.402344 333.316406 84.402344 C 356.097656 84.402344 374.632812 105.960938 374.632812 132.457031 C 374.632812 133.769531 374.585938 135.117188 374.488281 136.46875 C 374.484375 136.527344 374.472656 136.589844 374.453125 136.644531 C 372.523438 142.726562 369.257812 148.28125 364.746094 153.140625 C 364.597656 153.296875 364.394531 153.386719 364.179688 153.386719 " fill-opacity="1" fill-rule="nonzero"/><g clip-path="url(#c90f2b010e)"><path fill="#000000" d="M 122.972656 144.894531 C 124.136719 146.921875 125.488281 148.878906 127 150.722656 C 134.710938 142.199219 144.777344 137.519531 155.445312 137.519531 C 163.550781 137.519531 171.359375 140.234375 178.09375 145.378906 L 187.546875 117.0625 C 187.601562 116.898438 187.710938 116.757812 187.855469 116.664062 L 196.78125 110.8125 C 193.609375 103.136719 188.703125 96.632812 182.566406 91.976562 C 176.132812 87.089844 168.65625 84.511719 160.949219 84.511719 C 139.015625 84.511719 121.171875 105.375 121.171875 131.027344 C 121.171875 135.753906 121.777344 140.417969 122.972656 144.894531 Z M 126.980469 152.667969 L 126.976562 152.667969 C 126.753906 152.667969 126.539062 152.566406 126.394531 152.394531 C 124.574219 150.257812 122.953125 147.960938 121.585938 145.570312 C 121.554688 145.511719 121.527344 145.453125 121.511719 145.386719 C 120.265625 140.753906 119.632812 135.921875 119.632812 131.027344 C 119.632812 104.53125 138.167969 82.972656 160.949219 82.972656 C 168.996094 82.972656 176.792969 85.664062 183.5 90.753906 C 190.011719 95.695312 195.179688 102.636719 198.445312 110.824219 C 198.582031 111.164062 198.460938 111.550781 198.15625 111.75 L 188.921875 117.800781 L 179.207031 146.902344 C 179.128906 147.140625 178.9375 147.324219 178.695312 147.398438 C 178.453125 147.464844 178.191406 147.414062 177.996094 147.257812 C 171.34375 141.890625 163.546875 139.054688 155.445312 139.054688 C 144.953125 139.054688 135.050781 143.796875 127.5625 152.402344 C 127.414062 152.570312 127.203125 152.667969 126.980469 152.667969 " fill-opacity="1" fill-rule="nonzero"/></g><path fill="#000000" d="M 244.332031 137.519531 C 252.140625 137.519531 259.707031 140.054688 266.277344 144.855469 L 275.558594 117.0625 C 275.613281 116.898438 275.71875 116.757812 275.867188 116.664062 L 280.589844 113.570312 C 274.148438 96.921875 259.976562 86.199219 244.332031 86.199219 C 236.609375 86.199219 229.125 88.789062 222.679688 93.691406 C 216.523438 98.375 211.609375 104.917969 208.445312 112.636719 L 214.160156 117.125 C 214.265625 117.207031 214.351562 117.316406 214.398438 117.441406 L 224.792969 143.222656 C 230.769531 139.488281 237.507812 137.519531 244.332031 137.519531 Z M 266.671875 146.878906 C 266.503906 146.878906 266.335938 146.824219 266.203125 146.71875 C 259.703125 141.707031 252.140625 139.054688 244.332031 139.054688 C 237.507812 139.054688 230.769531 141.117188 224.847656 145.011719 C 224.65625 145.140625 224.417969 145.175781 224.195312 145.105469 C 223.976562 145.035156 223.796875 144.875 223.710938 144.660156 L 213.050781 118.203125 L 207.039062 113.488281 C 206.769531 113.28125 206.675781 112.917969 206.800781 112.601562 C 210.058594 104.390625 215.226562 97.429688 221.75 92.472656 C 228.460938 87.367188 236.269531 84.667969 244.332031 84.667969 C 260.804688 84.667969 275.6875 96.023438 282.25 113.605469 C 282.371094 113.941406 282.25 114.316406 281.949219 114.515625 L 276.933594 117.800781 L 267.402344 146.355469 C 267.324219 146.589844 267.132812 146.773438 266.898438 146.847656 C 266.820312 146.867188 266.746094 146.878906 266.671875 146.878906 " fill-opacity="1" fill-rule="nonzero"/><path fill="#000000" d="M 214.496094 215.710938 C 214.363281 215.710938 214.230469 215.679688 214.113281 215.609375 C 213.121094 215.042969 212.136719 214.441406 211.1875 213.8125 C 211.070312 213.738281 210.957031 213.664062 210.84375 213.585938 C 210.488281 213.351562 210.394531 212.875 210.632812 212.523438 C 210.871094 212.171875 211.347656 212.074219 211.699219 212.3125 C 211.808594 212.382812 211.917969 212.457031 212.03125 212.53125 C 212.945312 213.132812 213.898438 213.71875 214.875 214.277344 C 215.183594 214.453125 215.332031 214.8125 215.234375 215.152344 C 215.167969 215.378906 215.003906 215.566406 214.785156 215.65625 C 214.691406 215.691406 214.59375 215.710938 214.496094 215.710938 " fill-opacity="1" fill-rule="nonzero"/><path fill="#000000" d="M 192.265625 207.390625 L 205.179688 207.390625 C 205.375 207.390625 205.5625 207.460938 205.703125 207.59375 C 206.710938 208.523438 207.777344 209.425781 208.886719 210.285156 C 205.035156 202.835938 203.015625 194.367188 203.015625 185.570312 C 203.015625 168.519531 210.839844 152.691406 223.476562 144.082031 L 213.050781 118.203125 L 204.828125 111.757812 C 203.011719 110.328125 200.488281 110.222656 198.554688 111.488281 L 188.921875 117.800781 L 179.375 146.398438 C 190.273438 155.414062 196.761719 170.011719 196.761719 185.570312 C 196.761719 193.160156 195.210938 200.675781 192.265625 207.390625 Z M 211.265625 213.710938 C 211.117188 213.710938 210.964844 213.667969 210.835938 213.582031 C 208.710938 212.15625 206.710938 210.59375 204.882812 208.925781 L 191.074219 208.925781 C 190.8125 208.925781 190.566406 208.792969 190.425781 208.570312 C 190.285156 208.347656 190.265625 208.070312 190.378906 207.832031 C 193.546875 201.046875 195.222656 193.351562 195.222656 185.570312 C 195.222656 170.28125 188.78125 155.953125 177.996094 147.253906 C 177.746094 147.050781 177.648438 146.71875 177.75 146.414062 L 187.546875 117.0625 C 187.601562 116.898438 187.710938 116.757812 187.855469 116.664062 L 197.710938 110.203125 C 200.199219 108.574219 203.441406 108.710938 205.777344 110.546875 L 214.160156 117.125 C 214.265625 117.207031 214.351562 117.316406 214.398438 117.441406 L 225.136719 144.082031 C 225.273438 144.421875 225.152344 144.808594 224.847656 145.011719 C 212.328125 153.253906 204.550781 168.796875 204.550781 185.570312 C 204.550781 195.3125 207.101562 204.640625 211.921875 212.542969 C 212.109375 212.851562 212.058594 213.25 211.796875 213.5 C 211.648438 213.640625 211.457031 213.710938 211.265625 213.710938 " fill-opacity="1" fill-rule="nonzero"/><path fill="#000000" d="M 275.582031 213.34375 C 275.496094 213.34375 275.410156 213.332031 275.328125 213.300781 C 275.101562 213.222656 274.917969 213.035156 274.847656 212.800781 C 274.746094 212.480469 274.871094 212.132812 275.144531 211.941406 C 276.335938 211.121094 277.496094 210.25 278.578125 209.351562 C 278.582031 209.351562 278.585938 209.347656 278.585938 209.347656 C 278.914062 209.078125 279.398438 209.121094 279.667969 209.449219 C 279.941406 209.777344 279.894531 210.261719 279.566406 210.53125 C 278.433594 211.464844 277.238281 212.367188 276.019531 213.207031 C 275.886719 213.296875 275.734375 213.34375 275.582031 213.34375 " fill-opacity="1" fill-rule="nonzero"/><path fill="#000000" d="M 281.148438 207.390625 L 293.796875 207.390625 C 293.996094 207.390625 294.1875 207.46875 294.335938 207.609375 C 296.558594 209.792969 299.035156 211.773438 301.710938 213.507812 C 297.015625 205.515625 294.539062 196.175781 294.539062 186.449219 C 294.539062 170.523438 301.269531 155.734375 312.566406 146.753906 L 301.058594 118.203125 L 292.839844 111.757812 C 291.019531 110.328125 288.5 110.222656 286.566406 111.488281 L 276.933594 117.800781 L 267.574219 145.835938 C 278.902344 154.8125 285.644531 169.621094 285.644531 185.570312 C 285.644531 193.1875 284.097656 200.664062 281.148438 207.390625 Z M 302.507812 215.683594 C 302.371094 215.683594 302.230469 215.648438 302.109375 215.574219 C 298.964844 213.660156 296.0625 211.425781 293.480469 208.925781 L 281.421875 208.925781 C 280.839844 209.453125 280.222656 209.988281 279.582031 210.519531 C 279.300781 210.753906 278.890625 210.753906 278.605469 210.527344 C 278.324219 210.296875 278.238281 209.902344 278.40625 209.574219 C 282.136719 202.351562 284.109375 194.050781 284.109375 185.570312 C 284.109375 169.890625 277.414062 155.367188 266.203125 146.714844 C 265.945312 146.519531 265.839844 146.175781 265.941406 145.863281 L 275.558594 117.0625 C 275.613281 116.898438 275.71875 116.757812 275.867188 116.664062 L 285.722656 110.203125 C 288.207031 108.574219 291.449219 108.710938 293.789062 110.546875 L 302.171875 117.125 C 302.277344 117.207031 302.359375 117.316406 302.410156 117.441406 L 314.207031 146.714844 C 314.335938 147.035156 314.238281 147.398438 313.964844 147.609375 C 302.765625 156.261719 296.078125 170.78125 296.078125 186.449219 C 296.078125 196.160156 298.613281 205.464844 303.410156 213.359375 C 303.511719 213.523438 303.546875 213.722656 303.507812 213.914062 L 303.261719 215.074219 C 303.210938 215.320312 303.042969 215.523438 302.816406 215.621094 C 302.714844 215.664062 302.613281 215.683594 302.507812 215.683594 " fill-opacity="1" fill-rule="nonzero"/><g clip-path="url(#ff94a2e209)"><path fill="#000000" d="M 115.289062 170.308594 C 107.839844 174.667969 103.230469 182.671875 103.230469 191.320312 L 103.230469 197.933594 C 103.230469 214.78125 116.953125 228.480469 133.824219 228.480469 L 353.117188 228.480469 C 369.984375 228.480469 383.710938 214.78125 383.710938 197.933594 L 383.710938 187.417969 C 383.710938 181.867188 381.023438 176.816406 376.558594 173.726562 C 376.769531 174.113281 377.027344 174.578125 377.332031 175.121094 C 378.476562 177.148438 378.976562 179.417969 378.78125 181.679688 C 377.816406 192.945312 372.25 203.402344 363.117188 211.117188 C 353.949219 218.855469 342.011719 223.117188 329.503906 223.117188 C 315.90625 223.117188 302.796875 217.949219 293.480469 208.925781 L 281.421875 208.925781 C 271.527344 217.949219 257.59375 223.117188 243.152344 223.117188 C 228.707031 223.117188 214.777344 217.949219 204.882812 208.925781 L 189.585938 208.925781 C 180.933594 217.949219 168.761719 223.117188 156.136719 223.117188 C 138.953125 223.117188 123.34375 213.832031 115.398438 198.886719 C 110.675781 190.003906 110.671875 179.203125 115.289062 170.308594 Z M 353.117188 230.019531 L 133.824219 230.019531 C 116.105469 230.019531 101.691406 215.625 101.691406 197.933594 L 101.691406 191.320312 C 101.691406 181.945312 106.78125 173.285156 114.980469 168.71875 L 116.847656 167.675781 C 117.089844 167.539062 117.386719 167.546875 117.625 167.691406 C 117.859375 167.835938 118 168.097656 117.992188 168.375 C 117.984375 168.589844 117.925781 168.78125 117.425781 169.628906 C 112.277344 178.320312 112.023438 189.257812 116.757812 198.164062 C 124.433594 212.613281 139.523438 221.585938 156.136719 221.585938 C 168.449219 221.585938 180.316406 216.5 188.695312 207.628906 C 188.839844 207.476562 189.042969 207.390625 189.253906 207.390625 L 205.179688 207.390625 C 205.375 207.390625 205.5625 207.460938 205.703125 207.59375 C 215.332031 216.484375 228.980469 221.585938 243.152344 221.585938 C 257.320312 221.585938 270.972656 216.484375 280.597656 207.59375 C 280.742188 207.460938 280.929688 207.390625 281.121094 207.390625 L 293.796875 207.390625 C 293.996094 207.390625 294.1875 207.46875 294.335938 207.609375 C 303.375 216.492188 316.195312 221.585938 329.503906 221.585938 C 341.648438 221.585938 353.238281 217.449219 362.125 209.945312 C 370.945312 202.492188 376.320312 192.410156 377.25 181.546875 C 377.417969 179.59375 376.980469 177.632812 375.992188 175.875 C 373.996094 172.324219 373.984375 172.046875 373.976562 171.800781 C 373.96875 171.53125 374.101562 171.273438 374.328125 171.128906 C 374.554688 170.980469 374.84375 170.960938 375.085938 171.082031 C 381.351562 174.175781 385.246094 180.433594 385.246094 187.417969 L 385.246094 197.933594 C 385.246094 215.625 370.835938 230.019531 353.117188 230.019531 " fill-opacity="1" fill-rule="nonzero"/></g><path fill="#000000" d="M 304.628906 215.261719 C 312.109375 219.398438 320.703125 221.585938 329.503906 221.585938 C 340.109375 221.585938 350.160156 218.5 358.566406 212.667969 C 366.664062 207.050781 372.675781 199.09375 375.5 190.261719 C 375.589844 188.980469 375.632812 187.699219 375.632812 186.449219 C 375.632812 160.800781 357.792969 139.933594 335.859375 139.933594 C 313.925781 139.933594 296.078125 160.800781 296.078125 186.449219 C 296.078125 197.023438 299.035156 206.980469 304.628906 215.261719 Z M 329.503906 223.117188 C 320.378906 223.117188 311.464844 220.835938 303.722656 216.515625 C 303.617188 216.457031 303.527344 216.375 303.460938 216.273438 C 297.625 207.710938 294.539062 197.398438 294.539062 186.449219 C 294.539062 159.953125 313.074219 138.394531 335.859375 138.394531 C 358.640625 138.394531 377.171875 159.953125 377.171875 186.449219 C 377.171875 187.765625 377.125 189.113281 377.027344 190.464844 C 377.023438 190.523438 377.011719 190.582031 376.996094 190.640625 C 374.078125 199.828125 367.84375 208.097656 359.445312 213.929688 C 350.78125 219.941406 340.425781 223.117188 329.503906 223.117188 " fill-opacity="1" fill-rule="nonzero"/><path fill="#000000" d="M 211.832031 212.402344 C 220.859375 218.40625 231.683594 221.585938 243.152344 221.585938 C 256.394531 221.585938 268.929688 217.273438 278.476562 209.4375 C 282.160156 202.246094 284.109375 193.996094 284.109375 185.570312 C 284.109375 159.921875 266.265625 139.054688 244.332031 139.054688 C 222.398438 139.054688 204.550781 159.921875 204.550781 185.570312 C 204.550781 195.253906 207.070312 204.527344 211.832031 212.402344 Z M 243.152344 223.117188 C 231.316406 223.117188 220.144531 219.820312 210.835938 213.582031 C 210.742188 213.523438 210.664062 213.441406 210.609375 213.34375 C 205.640625 205.199219 203.015625 195.59375 203.015625 185.570312 C 203.015625 159.074219 221.550781 137.519531 244.332031 137.519531 C 267.113281 137.519531 285.644531 159.074219 285.644531 185.570312 C 285.644531 194.292969 283.617188 202.839844 279.773438 210.28125 C 279.726562 210.371094 279.660156 210.453125 279.582031 210.519531 C 269.742188 218.644531 256.804688 223.117188 243.152344 223.117188 " fill-opacity="1" fill-rule="nonzero"/><path fill="#000000" d="M 117.464844 199.4375 C 125.332031 213.101562 140.136719 221.585938 156.136719 221.585938 C 168.449219 221.585938 180.316406 216.5 188.695312 207.628906 C 188.839844 207.476562 189.042969 207.390625 189.253906 207.390625 L 190.582031 207.390625 C 193.617188 200.714844 195.222656 193.179688 195.222656 185.570312 C 195.222656 159.921875 177.378906 139.054688 155.445312 139.054688 C 133.511719 139.054688 115.667969 159.921875 115.667969 185.570312 C 115.667969 190.296875 116.273438 194.964844 117.464844 199.4375 Z M 156.136719 223.117188 C 139.554688 223.117188 124.207031 214.304688 116.082031 200.117188 C 116.046875 200.054688 116.023438 199.996094 116.003906 199.929688 C 114.761719 195.300781 114.128906 190.464844 114.128906 185.570312 C 114.128906 159.074219 132.664062 137.519531 155.445312 137.519531 C 178.226562 137.519531 196.761719 159.074219 196.761719 185.570312 C 196.761719 193.574219 195.035156 201.496094 191.773438 208.480469 C 191.644531 208.75 191.375 208.925781 191.074219 208.925781 L 189.585938 208.925781 C 180.933594 217.949219 168.761719 223.117188 156.136719 223.117188 " fill-opacity="1" fill-rule="nonzero"/><path fill="#000000" d="M 335.859375 138.394531 C 346.460938 138.394531 356.492188 143.03125 364.1875 151.472656 C 367.214844 148.082031 369.652344 144.320312 371.433594 140.285156 C 372.535156 137.792969 373.089844 135.171875 373.09375 132.492188 L 373.09375 132.457031 C 373.09375 106.804688 355.25 85.9375 333.316406 85.9375 C 317.734375 85.9375 303.578125 96.605469 297.113281 113.160156 L 302.171875 117.125 C 302.277344 117.207031 302.359375 117.316406 302.410156 117.441406 L 313.835938 145.789062 C 320.425781 140.949219 328.015625 138.394531 335.859375 138.394531 Z M 364.179688 153.386719 C 364.179688 153.386719 364.171875 153.386719 364.171875 153.386719 C 363.953125 153.386719 363.746094 153.289062 363.605469 153.125 C 356.132812 144.617188 346.28125 139.933594 335.859375 139.933594 C 328.035156 139.933594 320.46875 142.589844 313.96875 147.609375 C 313.777344 147.757812 313.523438 147.808594 313.292969 147.746094 C 313.0625 147.683594 312.871094 147.515625 312.78125 147.292969 L 301.058594 118.203125 L 295.71875 114.015625 C 295.457031 113.808594 295.355469 113.453125 295.476562 113.140625 C 302.070312 95.683594 316.925781 84.402344 333.316406 84.402344 C 356.097656 84.402344 374.632812 105.960938 374.632812 132.457031 L 374.632812 132.492188 C 374.628906 135.390625 374.027344 138.21875 372.839844 140.90625 C 370.878906 145.347656 368.15625 149.464844 364.746094 153.140625 C 364.597656 153.296875 364.394531 153.386719 364.179688 153.386719 " fill-opacity="1" fill-rule="nonzero"/><g clip-path="url(#ba047673a3)"><path fill="#000000" d="M 160.949219 84.511719 C 139.015625 84.511719 121.171875 105.375 121.171875 131.027344 C 121.171875 133.230469 121.304688 135.449219 121.566406 137.617188 C 122.15625 142.472656 124.03125 146.984375 127.003906 150.714844 C 134.710938 142.199219 144.777344 137.519531 155.445312 137.519531 C 163.550781 137.519531 171.359375 140.234375 178.09375 145.378906 L 187.546875 117.0625 C 187.601562 116.898438 187.710938 116.757812 187.855469 116.664062 L 196.78125 110.8125 C 193.609375 103.136719 188.703125 96.632812 182.566406 91.976562 C 176.132812 87.089844 168.65625 84.511719 160.949219 84.511719 Z M 126.980469 152.667969 C 126.980469 152.667969 126.976562 152.667969 126.976562 152.667969 C 126.753906 152.667969 126.539062 152.566406 126.394531 152.394531 L 126.339844 152.332031 C 122.878906 148.253906 120.699219 143.230469 120.042969 137.800781 C 119.769531 135.570312 119.632812 133.292969 119.632812 131.027344 C 119.632812 104.53125 138.167969 82.972656 160.949219 82.972656 C 168.996094 82.972656 176.792969 85.664062 183.5 90.753906 C 190.011719 95.695312 195.179688 102.636719 198.445312 110.824219 C 198.582031 111.164062 198.460938 111.550781 198.15625 111.75 L 188.921875 117.800781 L 179.207031 146.902344 C 179.128906 147.140625 178.9375 147.324219 178.695312 147.398438 C 178.453125 147.464844 178.191406 147.414062 177.996094 147.257812 C 171.34375 141.890625 163.546875 139.054688 155.445312 139.054688 C 144.953125 139.054688 135.050781 143.796875 127.5625 152.402344 C 127.414062 152.570312 127.203125 152.667969 126.980469 152.667969 " fill-opacity="1" fill-rule="nonzero"/></g><path fill="#000000" d="M 244.332031 137.519531 C 252.140625 137.519531 259.707031 140.054688 266.277344 144.855469 L 275.558594 117.0625 C 275.613281 116.898438 275.71875 116.757812 275.867188 116.664062 L 280.589844 113.570312 C 274.148438 96.921875 259.976562 86.199219 244.332031 86.199219 C 236.609375 86.199219 229.125 88.789062 222.679688 93.691406 C 216.523438 98.375 211.609375 104.917969 208.445312 112.636719 L 214.160156 117.125 C 214.265625 117.207031 214.351562 117.316406 214.398438 117.441406 L 224.792969 143.222656 C 230.769531 139.488281 237.507812 137.519531 244.332031 137.519531 Z M 266.671875 146.878906 C 266.503906 146.878906 266.335938 146.824219 266.203125 146.71875 C 259.703125 141.707031 252.140625 139.054688 244.332031 139.054688 C 237.507812 139.054688 230.769531 141.117188 224.847656 145.011719 C 224.65625 145.140625 224.417969 145.175781 224.195312 145.105469 C 223.976562 145.035156 223.796875 144.875 223.710938 144.660156 L 213.050781 118.203125 L 207.039062 113.488281 C 206.769531 113.28125 206.675781 112.917969 206.800781 112.601562 C 210.058594 104.390625 215.226562 97.429688 221.75 92.472656 C 228.460938 87.367188 236.269531 84.667969 244.332031 84.667969 C 260.804688 84.667969 275.6875 96.023438 282.25 113.605469 C 282.371094 113.941406 282.25 114.316406 281.949219 114.515625 L 276.933594 117.800781 L 267.402344 146.355469 C 267.324219 146.589844 267.132812 146.773438 266.898438 146.847656 C 266.820312 146.867188 266.746094 146.878906 266.671875 146.878906 " fill-opacity="1" fill-rule="nonzero"/><path fill="#000000" d="M 214.496094 215.710938 C 214.363281 215.710938 214.230469 215.679688 214.113281 215.609375 C 213.121094 215.042969 212.136719 214.441406 211.1875 213.8125 C 211.070312 213.738281 210.957031 213.664062 210.84375 213.585938 C 210.488281 213.351562 210.394531 212.875 210.632812 212.523438 C 210.871094 212.171875 211.347656 212.074219 211.699219 212.3125 C 211.808594 212.382812 211.917969 212.457031 212.03125 212.53125 C 212.945312 213.132812 213.898438 213.71875 214.875 214.277344 C 215.183594 214.453125 215.332031 214.8125 215.234375 215.152344 C 215.167969 215.378906 215.003906 215.566406 214.785156 215.65625 C 214.691406 215.691406 214.59375 215.710938 214.496094 215.710938 " fill-opacity="1" fill-rule="nonzero"/><path fill="#000000" d="M 192.265625 207.390625 L 205.179688 207.390625 C 205.375 207.390625 205.5625 207.460938 205.703125 207.59375 C 206.710938 208.523438 207.777344 209.425781 208.886719 210.285156 C 205.035156 202.835938 203.015625 194.367188 203.015625 185.570312 C 203.015625 168.519531 210.839844 152.691406 223.476562 144.082031 L 213.050781 118.203125 L 204.828125 111.757812 C 203.011719 110.328125 200.488281 110.222656 198.554688 111.488281 L 188.921875 117.800781 L 179.375 146.398438 C 190.273438 155.414062 196.761719 170.011719 196.761719 185.570312 C 196.761719 193.160156 195.210938 200.675781 192.265625 207.390625 Z M 211.265625 213.710938 C 211.117188 213.710938 210.964844 213.667969 210.835938 213.582031 C 208.710938 212.15625 206.710938 210.59375 204.882812 208.925781 L 191.074219 208.925781 C 190.8125 208.925781 190.566406 208.792969 190.425781 208.570312 C 190.285156 208.347656 190.265625 208.070312 190.378906 207.832031 C 193.546875 201.046875 195.222656 193.351562 195.222656 185.570312 C 195.222656 170.28125 188.78125 155.953125 177.996094 147.253906 C 177.746094 147.050781 177.648438 146.71875 177.75 146.414062 L 187.546875 117.0625 C 187.601562 116.898438 187.710938 116.757812 187.855469 116.664062 L 197.710938 110.203125 C 200.199219 108.574219 203.441406 108.710938 205.777344 110.546875 L 214.160156 117.125 C 214.265625 117.207031 214.351562 117.316406 214.398438 117.441406 L 225.136719 144.082031 C 225.273438 144.421875 225.152344 144.808594 224.847656 145.011719 C 212.328125 153.253906 204.550781 168.796875 204.550781 185.570312 C 204.550781 195.3125 207.101562 204.640625 211.921875 212.542969 C 212.109375 212.851562 212.058594 213.25 211.796875 213.5 C 211.648438 213.640625 211.457031 213.710938 211.265625 213.710938 " fill-opacity="1" fill-rule="nonzero"/><path fill="#000000" d="M 275.582031 213.34375 C 275.496094 213.34375 275.410156 213.332031 275.328125 213.300781 C 275.101562 213.222656 274.917969 213.035156 274.847656 212.800781 C 274.746094 212.480469 274.871094 212.132812 275.144531 211.941406 C 276.335938 211.121094 277.496094 210.25 278.578125 209.351562 C 278.582031 209.351562 278.585938 209.347656 278.585938 209.347656 C 278.914062 209.078125 279.398438 209.121094 279.667969 209.449219 C 279.941406 209.777344 279.894531 210.261719 279.566406 210.53125 C 278.433594 211.464844 277.238281 212.367188 276.019531 213.207031 C 275.886719 213.296875 275.734375 213.34375 275.582031 213.34375 " fill-opacity="1" fill-rule="nonzero"/><path fill="#000000" d="M 281.148438 207.390625 L 293.796875 207.390625 C 293.996094 207.390625 294.1875 207.46875 294.335938 207.609375 C 296.558594 209.792969 299.035156 211.773438 301.710938 213.507812 C 297.015625 205.515625 294.539062 196.175781 294.539062 186.449219 C 294.539062 170.523438 301.269531 155.734375 312.566406 146.753906 L 301.058594 118.203125 L 292.839844 111.757812 C 291.019531 110.328125 288.5 110.222656 286.566406 111.488281 L 276.933594 117.800781 L 267.574219 145.835938 C 278.902344 154.8125 285.644531 169.621094 285.644531 185.570312 C 285.644531 193.1875 284.097656 200.664062 281.148438 207.390625 Z M 302.507812 215.683594 C 302.371094 215.683594 302.230469 215.648438 302.109375 215.574219 C 298.964844 213.660156 296.0625 211.425781 293.480469 208.925781 L 281.421875 208.925781 C 280.839844 209.453125 280.222656 209.988281 279.582031 210.519531 C 279.300781 210.753906 278.890625 210.753906 278.605469 210.527344 C 278.324219 210.296875 278.238281 209.902344 278.40625 209.574219 C 282.136719 202.351562 284.109375 194.050781 284.109375 185.570312 C 284.109375 169.890625 277.414062 155.367188 266.203125 146.714844 C 265.945312 146.519531 265.839844 146.175781 265.941406 145.863281 L 275.558594 117.0625 C 275.613281 116.898438 275.71875 116.757812 275.867188 116.664062 L 285.722656 110.203125 C 288.207031 108.574219 291.449219 108.710938 293.789062 110.546875 L 302.171875 117.125 C 302.277344 117.207031 302.359375 117.316406 302.410156 117.441406 L 314.207031 146.714844 C 314.335938 147.035156 314.238281 147.398438 313.964844 147.609375 C 302.765625 156.261719 296.078125 170.78125 296.078125 186.449219 C 296.078125 196.160156 298.613281 205.464844 303.410156 213.359375 C 303.511719 213.523438 303.546875 213.722656 303.507812 213.914062 L 303.261719 215.074219 C 303.210938 215.320312 303.042969 215.523438 302.816406 215.621094 C 302.714844 215.664062 302.613281 215.683594 302.507812 215.683594 " fill-opacity="1" fill-rule="nonzero"/><g clip-path="url(#4f1964b9fe)"><path fill="#000000" d="M 115.289062 170.308594 C 107.839844 174.667969 103.230469 182.671875 103.230469 191.320312 L 103.230469 197.933594 C 103.230469 214.78125 116.953125 228.480469 133.824219 228.480469 L 353.117188 228.480469 C 369.984375 228.480469 383.710938 214.78125 383.710938 197.933594 L 383.710938 187.417969 C 383.710938 181.867188 381.023438 176.816406 376.558594 173.726562 C 376.769531 174.113281 377.027344 174.578125 377.332031 175.121094 C 378.476562 177.148438 378.976562 179.417969 378.78125 181.679688 C 377.816406 192.945312 372.25 203.402344 363.117188 211.117188 C 353.949219 218.855469 342.011719 223.117188 329.503906 223.117188 C 315.90625 223.117188 302.796875 217.949219 293.480469 208.925781 L 281.421875 208.925781 C 271.527344 217.949219 257.59375 223.117188 243.152344 223.117188 C 228.707031 223.117188 214.777344 217.949219 204.882812 208.925781 L 189.585938 208.925781 C 180.933594 217.949219 168.761719 223.117188 156.136719 223.117188 C 138.953125 223.117188 123.34375 213.832031 115.398438 198.886719 C 110.675781 190.003906 110.671875 179.203125 115.289062 170.308594 Z M 353.117188 230.019531 L 133.824219 230.019531 C 116.105469 230.019531 101.691406 215.625 101.691406 197.933594 L 101.691406 191.320312 C 101.691406 181.945312 106.78125 173.285156 114.980469 168.71875 L 116.847656 167.675781 C 117.089844 167.539062 117.386719 167.546875 117.625 167.691406 C 117.859375 167.835938 118 168.097656 117.992188 168.375 C 117.984375 168.589844 117.925781 168.78125 117.425781 169.628906 C 112.277344 178.320312 112.023438 189.257812 116.757812 198.164062 C 124.433594 212.613281 139.523438 221.585938 156.136719 221.585938 C 168.449219 221.585938 180.316406 216.5 188.695312 207.628906 C 188.839844 207.476562 189.042969 207.390625 189.253906 207.390625 L 205.179688 207.390625 C 205.375 207.390625 205.5625 207.460938 205.703125 207.59375 C 215.332031 216.484375 228.980469 221.585938 243.152344 221.585938 C 257.320312 221.585938 270.972656 216.484375 280.597656 207.59375 C 280.742188 207.460938 280.929688 207.390625 281.121094 207.390625 L 293.796875 207.390625 C 293.996094 207.390625 294.1875 207.46875 294.335938 207.609375 C 303.375 216.492188 316.195312 221.585938 329.503906 221.585938 C 341.648438 221.585938 353.238281 217.449219 362.125 209.945312 C 370.945312 202.492188 376.320312 192.410156 377.25 181.546875 C 377.417969 179.59375 376.980469 177.632812 375.992188 175.875 C 373.996094 172.324219 373.984375 172.046875 373.976562 171.800781 C 373.96875 171.53125 374.101562 171.273438 374.328125 171.128906 C 374.554688 170.980469 374.84375 170.960938 375.085938 171.082031 C 381.351562 174.175781 385.246094 180.433594 385.246094 187.417969 L 385.246094 197.933594 C 385.246094 215.625 370.835938 230.019531 353.117188 230.019531 " fill-opacity="1" fill-rule="nonzero"/></g><path fill="#000000" d="M 304.628906 215.261719 C 312.109375 219.398438 320.703125 221.585938 329.503906 221.585938 C 340.109375 221.585938 350.160156 218.5 358.566406 212.667969 C 366.664062 207.050781 372.675781 199.09375 375.5 190.261719 C 375.589844 188.980469 375.632812 187.699219 375.632812 186.449219 C 375.632812 160.800781 357.792969 139.933594 335.859375 139.933594 C 313.925781 139.933594 296.078125 160.800781 296.078125 186.449219 C 296.078125 197.023438 299.035156 206.980469 304.628906 215.261719 Z M 329.503906 223.117188 C 320.378906 223.117188 311.464844 220.835938 303.722656 216.515625 C 303.617188 216.457031 303.527344 216.375 303.460938 216.273438 C 297.625 207.710938 294.539062 197.398438 294.539062 186.449219 C 294.539062 159.953125 313.074219 138.394531 335.859375 138.394531 C 358.640625 138.394531 377.171875 159.953125 377.171875 186.449219 C 377.171875 187.765625 377.125 189.113281 377.027344 190.464844 C 377.023438 190.523438 377.011719 190.582031 376.996094 190.640625 C 374.078125 199.828125 367.84375 208.097656 359.445312 213.929688 C 350.78125 219.941406 340.425781 223.117188 329.503906 223.117188 " fill-opacity="1" fill-rule="nonzero"/><path fill="#000000" d="M 211.832031 212.402344 C 220.859375 218.40625 231.683594 221.585938 243.152344 221.585938 C 256.394531 221.585938 268.929688 217.273438 278.476562 209.4375 C 282.160156 202.246094 284.109375 193.996094 284.109375 185.570312 C 284.109375 159.921875 266.265625 139.054688 244.332031 139.054688 C 222.398438 139.054688 204.550781 159.921875 204.550781 185.570312 C 204.550781 195.253906 207.070312 204.527344 211.832031 212.402344 Z M 243.152344 223.117188 C 231.316406 223.117188 220.144531 219.820312 210.835938 213.582031 C 210.742188 213.523438 210.664062 213.441406 210.609375 213.34375 C 205.640625 205.199219 203.015625 195.59375 203.015625 185.570312 C 203.015625 159.074219 221.550781 137.519531 244.332031 137.519531 C 267.113281 137.519531 285.644531 159.074219 285.644531 185.570312 C 285.644531 194.292969 283.617188 202.839844 279.773438 210.28125 C 279.726562 210.371094 279.660156 210.453125 279.582031 210.519531 C 269.742188 218.644531 256.804688 223.117188 243.152344 223.117188 " fill-opacity="1" fill-rule="nonzero"/><path fill="#000000" d="M 117.464844 199.4375 C 125.332031 213.101562 140.136719 221.585938 156.136719 221.585938 C 168.449219 221.585938 180.316406 216.5 188.695312 207.628906 C 188.839844 207.476562 189.042969 207.390625 189.253906 207.390625 L 190.582031 207.390625 C 193.617188 200.714844 195.222656 193.179688 195.222656 185.570312 C 195.222656 159.921875 177.378906 139.054688 155.445312 139.054688 C 133.511719 139.054688 115.667969 159.921875 115.667969 185.570312 C 115.667969 190.296875 116.273438 194.964844 117.464844 199.4375 Z M 156.136719 223.117188 C 139.554688 223.117188 124.207031 214.304688 116.082031 200.117188 C 116.046875 200.054688 116.023438 199.996094 116.003906 199.929688 C 114.761719 195.300781 114.128906 190.464844 114.128906 185.570312 C 114.128906 159.074219 132.664062 137.519531 155.445312 137.519531 C 178.226562 137.519531 196.761719 159.074219 196.761719 185.570312 C 196.761719 193.574219 195.035156 201.496094 191.773438 208.480469 C 191.644531 208.75 191.375 208.925781 191.074219 208.925781 L 189.585938 208.925781 C 180.933594 217.949219 168.761719 223.117188 156.136719 223.117188 " fill-opacity="1" fill-rule="nonzero"/><path fill="#000000" d="M 373.722656 136.414062 L 373.726562 136.414062 Z M 335.859375 138.394531 C 346.460938 138.394531 356.492188 143.03125 364.1875 151.472656 C 368.226562 146.949219 371.175781 141.839844 372.960938 136.265625 C 373.050781 134.984375 373.09375 133.703125 373.09375 132.457031 C 373.09375 106.804688 355.25 85.9375 333.316406 85.9375 C 317.734375 85.9375 303.578125 96.605469 297.113281 113.160156 L 302.171875 117.125 C 302.277344 117.207031 302.359375 117.316406 302.410156 117.441406 L 313.835938 145.789062 C 320.425781 140.949219 328.015625 138.394531 335.859375 138.394531 Z M 364.179688 153.386719 C 364.179688 153.386719 364.171875 153.386719 364.171875 153.386719 C 363.953125 153.386719 363.746094 153.289062 363.605469 153.125 C 356.132812 144.617188 346.28125 139.933594 335.859375 139.933594 C 328.035156 139.933594 320.46875 142.589844 313.96875 147.609375 C 313.777344 147.757812 313.523438 147.808594 313.292969 147.746094 C 313.0625 147.683594 312.871094 147.515625 312.78125 147.292969 L 301.058594 118.203125 L 295.71875 114.015625 C 295.457031 113.808594 295.355469 113.453125 295.476562 113.140625 C 302.070312 95.683594 316.925781 84.402344 333.316406 84.402344 C 356.097656 84.402344 374.632812 105.960938 374.632812 132.457031 C 374.632812 133.769531 374.585938 135.117188 374.488281 136.46875 C 374.484375 136.527344 374.472656 136.589844 374.453125 136.644531 C 372.523438 142.726562 369.257812 148.28125 364.746094 153.140625 C 364.597656 153.296875 364.394531 153.386719 364.179688 153.386719 " fill-opacity="1" fill-rule="nonzero"/><g clip-path="url(#2f0e5300bb)"><path fill="#000000" d="M 122.972656 144.894531 C 124.136719 146.921875 125.488281 148.878906 127 150.722656 C 134.710938 142.199219 144.777344 137.519531 155.445312 137.519531 C 163.550781 137.519531 171.359375 140.234375 178.09375 145.378906 L 187.546875 117.0625 C 187.601562 116.898438 187.710938 116.757812 187.855469 116.664062 L 196.78125 110.8125 C 193.609375 103.136719 188.703125 96.632812 182.566406 91.976562 C 176.132812 87.089844 168.65625 84.511719 160.949219 84.511719 C 139.015625 84.511719 121.171875 105.375 121.171875 131.027344 C 121.171875 135.753906 121.777344 140.417969 122.972656 144.894531 Z M 126.980469 152.667969 L 126.976562 152.667969 C 126.753906 152.667969 126.539062 152.566406 126.394531 152.394531 C 124.574219 150.257812 122.953125 147.960938 121.585938 145.570312 C 121.554688 145.511719 121.527344 145.453125 121.511719 145.386719 C 120.265625 140.753906 119.632812 135.921875 119.632812 131.027344 C 119.632812 104.53125 138.167969 82.972656 160.949219 82.972656 C 168.996094 82.972656 176.792969 85.664062 183.5 90.753906 C 190.011719 95.695312 195.179688 102.636719 198.445312 110.824219 C 198.582031 111.164062 198.460938 111.550781 198.15625 111.75 L 188.921875 117.800781 L 179.207031 146.902344 C 179.128906 147.140625 178.9375 147.324219 178.695312 147.398438 C 178.453125 147.464844 178.191406 147.414062 177.996094 147.257812 C 171.34375 141.890625 163.546875 139.054688 155.445312 139.054688 C 144.953125 139.054688 135.050781 143.796875 127.5625 152.402344 C 127.414062 152.570312 127.203125 152.667969 126.980469 152.667969 " fill-opacity="1" fill-rule="nonzero"/></g><path fill="#000000" d="M 244.332031 137.519531 C 252.140625 137.519531 259.707031 140.054688 266.277344 144.855469 L 275.558594 117.0625 C 275.613281 116.898438 275.71875 116.757812 275.867188 116.664062 L 280.589844 113.570312 C 274.148438 96.921875 259.976562 86.199219 244.332031 86.199219 C 236.609375 86.199219 229.125 88.789062 222.679688 93.691406 C 216.523438 98.375 211.609375 104.917969 208.445312 112.636719 L 214.160156 117.125 C 214.265625 117.207031 214.351562 117.316406 214.398438 117.441406 L 224.792969 143.222656 C 230.769531 139.488281 237.507812 137.519531 244.332031 137.519531 Z M 266.671875 146.878906 C 266.503906 146.878906 266.335938 146.824219 266.203125 146.71875 C 259.703125 141.707031 252.140625 139.054688 244.332031 139.054688 C 237.507812 139.054688 230.769531 141.117188 224.847656 145.011719 C 224.65625 145.140625 224.417969 145.175781 224.195312 145.105469 C 223.976562 145.035156 223.796875 144.875 223.710938 144.660156 L 213.050781 118.203125 L 207.039062 113.488281 C 206.769531 113.28125 206.675781 112.917969 206.800781 112.601562 C 210.058594 104.390625 215.226562 97.429688 221.75 92.472656 C 228.460938 87.367188 236.269531 84.667969 244.332031 84.667969 C 260.804688 84.667969 275.6875 96.023438 282.25 113.605469 C 282.371094 113.941406 282.25 114.316406 281.949219 114.515625 L 276.933594 117.800781 L 267.402344 146.355469 C 267.324219 146.589844 267.132812 146.773438 266.898438 146.847656 C 266.820312 146.867188 266.746094 146.878906 266.671875 146.878906 " fill-opacity="1" fill-rule="nonzero"/><path fill="#000000" d="M 214.496094 215.710938 C 214.363281 215.710938 214.230469 215.679688 214.113281 215.609375 C 213.121094 215.042969 212.136719 214.441406 211.1875 213.8125 C 211.070312 213.738281 210.957031 213.664062 210.84375 213.585938 C 210.488281 213.351562 210.394531 212.875 210.632812 212.523438 C 210.871094 212.171875 211.347656 212.074219 211.699219 212.3125 C 211.808594 212.382812 211.917969 212.457031 212.03125 212.53125 C 212.945312 213.132812 213.898438 213.71875 214.875 214.277344 C 215.183594 214.453125 215.332031 214.8125 215.234375 215.152344 C 215.167969 215.378906 215.003906 215.566406 214.785156 215.65625 C 214.691406 215.691406 214.59375 215.710938 214.496094 215.710938 " fill-opacity="1" fill-rule="nonzero"/><path fill="#000000" d="M 192.265625 207.390625 L 205.179688 207.390625 C 205.375 207.390625 205.5625 207.460938 205.703125 207.59375 C 206.710938 208.523438 207.777344 209.425781 208.886719 210.285156 C 205.035156 202.835938 203.015625 194.367188 203.015625 185.570312 C 203.015625 168.519531 210.839844 152.691406 223.476562 144.082031 L 213.050781 118.203125 L 204.828125 111.757812 C 203.011719 110.328125 200.488281 110.222656 198.554688 111.488281 L 188.921875 117.800781 L 179.375 146.398438 C 190.273438 155.414062 196.761719 170.011719 196.761719 185.570312 C 196.761719 193.160156 195.210938 200.675781 192.265625 207.390625 Z M 211.265625 213.710938 C 211.117188 213.710938 210.964844 213.667969 210.835938 213.582031 C 208.710938 212.15625 206.710938 210.59375 204.882812 208.925781 L 191.074219 208.925781 C 190.8125 208.925781 190.566406 208.792969 190.425781 208.570312 C 190.285156 208.347656 190.265625 208.070312 190.378906 207.832031 C 193.546875 201.046875 195.222656 193.351562 195.222656 185.570312 C 195.222656 170.28125 188.78125 155.953125 177.996094 147.253906 C 177.746094 147.050781 177.648438 146.71875 177.75 146.414062 L 187.546875 117.0625 C 187.601562 116.898438 187.710938 116.757812 187.855469 116.664062 L 197.710938 110.203125 C 200.199219 108.574219 203.441406 108.710938 205.777344 110.546875 L 214.160156 117.125 C 214.265625 117.207031 214.351562 117.316406 214.398438 117.441406 L 225.136719 144.082031 C 225.273438 144.421875 225.152344 144.808594 224.847656 145.011719 C 212.328125 153.253906 204.550781 168.796875 204.550781 185.570312 C 204.550781 195.3125 207.101562 204.640625 211.921875 212.542969 C 212.109375 212.851562 212.058594 213.25 211.796875 213.5 C 211.648438 213.640625 211.457031 213.710938 211.265625 213.710938 " fill-opacity="1" fill-rule="nonzero"/><path fill="#000000" d="M 275.582031 213.34375 C 275.496094 213.34375 275.410156 213.332031 275.328125 213.300781 C 275.101562 213.222656 274.917969 213.035156 274.847656 212.800781 C 274.746094 212.480469 274.871094 212.132812 275.144531 211.941406 C 276.335938 211.121094 277.496094 210.25 278.578125 209.351562 C 278.582031 209.351562 278.585938 209.347656 278.585938 209.347656 C 278.914062 209.078125 279.398438 209.121094 279.667969 209.449219 C 279.941406 209.777344 279.894531 210.261719 279.566406 210.53125 C 278.433594 211.464844 277.238281 212.367188 276.019531 213.207031 C 275.886719 213.296875 275.734375 213.34375 275.582031 213.34375 " fill-opacity="1" fill-rule="nonzero"/><path fill="#000000" d="M 281.148438 207.390625 L 293.796875 207.390625 C 293.996094 207.390625 294.1875 207.46875 294.335938 207.609375 C 296.558594 209.792969 299.035156 211.773438 301.710938 213.507812 C 297.015625 205.515625 294.539062 196.175781 294.539062 186.449219 C 294.539062 170.523438 301.269531 155.734375 312.566406 146.753906 L 301.058594 118.203125 L 292.839844 111.757812 C 291.019531 110.328125 288.5 110.222656 286.566406 111.488281 L 276.933594 117.800781 L 267.574219 145.835938 C 278.902344 154.8125 285.644531 169.621094 285.644531 185.570312 C 285.644531 193.1875 284.097656 200.664062 281.148438 207.390625 Z M 302.507812 215.683594 C 302.371094 215.683594 302.230469 215.648438 302.109375 215.574219 C 298.964844 213.660156 296.0625 211.425781 293.480469 208.925781 L 281.421875 208.925781 C 280.839844 209.453125 280.222656 209.988281 279.582031 210.519531 C 279.300781 210.753906 278.890625 210.753906 278.605469 210.527344 C 278.324219 210.296875 278.238281 209.902344 278.40625 209.574219 C 282.136719 202.351562 284.109375 194.050781 284.109375 185.570312 C 284.109375 169.890625 277.414062 155.367188 266.203125 146.714844 C 265.945312 146.519531 265.839844 146.175781 265.941406 145.863281 L 275.558594 117.0625 C 275.613281 116.898438 275.71875 116.757812 275.867188 116.664062 L 285.722656 110.203125 C 288.207031 108.574219 291.449219 108.710938 293.789062 110.546875 L 302.171875 117.125 C 302.277344 117.207031 302.359375 117.316406 302.410156 117.441406 L 314.207031 146.714844 C 314.335938 147.035156 314.238281 147.398438 313.964844 147.609375 C 302.765625 156.261719 296.078125 170.78125 296.078125 186.449219 C 296.078125 196.160156 298.613281 205.464844 303.410156 213.359375 C 303.511719 213.523438 303.546875 213.722656 303.507812 213.914062 L 303.261719 215.074219 C 303.210938 215.320312 303.042969 215.523438 302.816406 215.621094 C 302.714844 215.664062 302.613281 215.683594 302.507812 215.683594 " fill-opacity="1" fill-rule="nonzero"/><g clip-path="url(#3b94d0e87f)"><path fill="#000000" d="M 115.289062 170.308594 C 107.839844 174.667969 103.230469 182.671875 103.230469 191.320312 L 103.230469 197.933594 C 103.230469 214.78125 116.953125 228.480469 133.824219 228.480469 L 353.117188 228.480469 C 369.984375 228.480469 383.710938 214.78125 383.710938 197.933594 L 383.710938 187.417969 C 383.710938 181.867188 381.023438 176.816406 376.558594 173.726562 C 376.769531 174.113281 377.027344 174.578125 377.332031 175.121094 C 378.476562 177.148438 378.976562 179.417969 378.78125 181.679688 C 377.816406 192.945312 372.25 203.402344 363.117188 211.117188 C 353.949219 218.855469 342.011719 223.117188 329.503906 223.117188 C 315.90625 223.117188 302.796875 217.949219 293.480469 208.925781 L 281.421875 208.925781 C 271.527344 217.949219 257.59375 223.117188 243.152344 223.117188 C 228.707031 223.117188 214.777344 217.949219 204.882812 208.925781 L 189.585938 208.925781 C 180.933594 217.949219 168.761719 223.117188 156.136719 223.117188 C 138.953125 223.117188 123.34375 213.832031 115.398438 198.886719 C 110.675781 190.003906 110.671875 179.203125 115.289062 170.308594 Z M 353.117188 230.019531 L 133.824219 230.019531 C 116.105469 230.019531 101.691406 215.625 101.691406 197.933594 L 101.691406 191.320312 C 101.691406 181.945312 106.78125 173.285156 114.980469 168.71875 L 116.847656 167.675781 C 117.089844 167.539062 117.386719 167.546875 117.625 167.691406 C 117.859375 167.835938 118 168.097656 117.992188 168.375 C 117.984375 168.589844 117.925781 168.78125 117.425781 169.628906 C 112.277344 178.320312 112.023438 189.257812 116.757812 198.164062 C 124.433594 212.613281 139.523438 221.585938 156.136719 221.585938 C 168.449219 221.585938 180.316406 216.5 188.695312 207.628906 C 188.839844 207.476562 189.042969 207.390625 189.253906 207.390625 L 205.179688 207.390625 C 205.375 207.390625 205.5625 207.460938 205.703125 207.59375 C 215.332031 216.484375 228.980469 221.585938 243.152344 221.585938 C 257.320312 221.585938 270.972656 216.484375 280.597656 207.59375 C 280.742188 207.460938 280.929688 207.390625 281.121094 207.390625 L 293.796875 207.390625 C 293.996094 207.390625 294.1875 207.46875 294.335938 207.609375 C 303.375 216.492188 316.195312 221.585938 329.503906 221.585938 C 341.648438 221.585938 353.238281 217.449219 362.125 209.945312 C 370.945312 202.492188 376.320312 192.410156 377.25 181.546875 C 377.417969 179.59375 376.980469 177.632812 375.992188 175.875 C 373.996094 172.324219 373.984375 172.046875 373.976562 171.800781 C 373.96875 171.53125 374.101562 171.273438 374.328125 171.128906 C 374.554688 170.980469 374.84375 170.960938 375.085938 171.082031 C 381.351562 174.175781 385.246094 180.433594 385.246094 187.417969 L 385.246094 197.933594 C 385.246094 215.625 370.835938 230.019531 353.117188 230.019531 " fill-opacity="1" fill-rule="nonzero"/></g><path fill="#ea9c5d" d="M 329.503906 222.351562 C 351.6875 222.351562 370.402344 208.855469 376.261719 190.40625 C 376.355469 189.101562 376.40625 187.785156 376.40625 186.449219 C 376.40625 160.335938 358.25 139.164062 335.859375 139.164062 C 313.464844 139.164062 295.308594 160.335938 295.308594 186.449219 C 295.308594 197.5625 298.597656 207.773438 304.097656 215.84375 C 311.492188 219.972656 320.1875 222.351562 329.503906 222.351562 " fill-opacity="1" fill-rule="nonzero"/><path fill="#dd8b52" d="M 358.574219 147.277344 C 365.332031 155.726562 369.472656 167.0625 369.472656 179.527344 C 369.472656 180.859375 369.417969 182.179688 369.328125 183.484375 C 363.46875 201.9375 344.753906 215.429688 322.570312 215.429688 C 314.882812 215.429688 307.617188 213.800781 301.15625 210.917969 C 302.046875 212.632812 303.03125 214.277344 304.097656 215.84375 C 311.492188 219.972656 320.1875 222.351562 329.503906 222.351562 C 351.6875 222.351562 370.402344 208.855469 376.261719 190.40625 C 376.355469 189.101562 376.40625 187.785156 376.40625 186.449219 C 376.40625 170.152344 369.332031 155.777344 358.574219 147.277344 " fill-opacity="1" fill-rule="nonzero"/><path fill="#000000" d="M 304.628906 215.261719 C 312.109375 219.398438 320.703125 221.585938 329.503906 221.585938 C 340.109375 221.585938 350.160156 218.5 358.566406 212.667969 C 366.664062 207.050781 372.675781 199.09375 375.5 190.261719 C 375.589844 188.980469 375.632812 187.699219 375.632812 186.449219 C 375.632812 160.800781 357.792969 139.933594 335.859375 139.933594 C 313.925781 139.933594 296.078125 160.800781 296.078125 186.449219 C 296.078125 197.023438 299.035156 206.980469 304.628906 215.261719 Z M 329.503906 223.117188 C 320.378906 223.117188 311.464844 220.835938 303.722656 216.515625 C 303.617188 216.457031 303.527344 216.375 303.460938 216.273438 C 297.625 207.710938 294.539062 197.398438 294.539062 186.449219 C 294.539062 159.953125 313.074219 138.394531 335.859375 138.394531 C 358.640625 138.394531 377.171875 159.953125 377.171875 186.449219 C 377.171875 187.765625 377.125 189.113281 377.027344 190.464844 C 377.023438 190.523438 377.011719 190.582031 376.996094 190.640625 C 374.078125 199.828125 367.84375 208.097656 359.445312 213.929688 C 350.78125 219.941406 340.425781 223.117188 329.503906 223.117188 " fill-opacity="1" fill-rule="nonzero"/><path fill="#ea9c5d" d="M 243.152344 222.351562 C 257.117188 222.351562 269.78125 217.617188 279.089844 209.925781 C 282.765625 202.816406 284.878906 194.480469 284.878906 185.570312 C 284.878906 159.457031 266.726562 138.285156 244.332031 138.285156 C 221.9375 138.285156 203.785156 159.457031 203.785156 185.570312 C 203.785156 195.773438 206.554688 205.21875 211.265625 212.945312 C 220.050781 218.835938 231.117188 222.351562 243.152344 222.351562 " fill-opacity="1" fill-rule="nonzero"/><path fill="#dd8b52" d="M 266.761719 146.179688 C 273.375 154.59375 277.410156 165.804688 277.410156 178.117188 C 277.410156 183.609375 276.605469 188.886719 275.128906 193.792969 C 273.335938 199.726562 269.320312 204.714844 263.898438 207.738281 C 255.785156 212.261719 246.097656 214.894531 235.683594 214.894531 C 225.855469 214.894531 216.675781 212.550781 208.855469 208.480469 C 209.585938 210.023438 210.390625 211.515625 211.265625 212.945312 C 220.050781 218.835938 231.117188 222.351562 243.152344 222.351562 C 257.117188 222.351562 269.78125 217.617188 279.089844 209.925781 C 282.765625 202.816406 284.878906 194.480469 284.878906 185.570312 C 284.878906 169.132812 277.679688 154.652344 266.761719 146.179688 " fill-opacity="1" fill-rule="nonzero"/><path fill="#000000" d="M 211.832031 212.402344 C 220.859375 218.40625 231.683594 221.585938 243.152344 221.585938 C 256.394531 221.585938 268.929688 217.273438 278.476562 209.4375 C 282.160156 202.246094 284.109375 193.996094 284.109375 185.570312 C 284.109375 159.921875 266.265625 139.054688 244.332031 139.054688 C 222.398438 139.054688 204.550781 159.921875 204.550781 185.570312 C 204.550781 195.253906 207.070312 204.527344 211.832031 212.402344 Z M 243.152344 223.117188 C 231.316406 223.117188 220.144531 219.820312 210.835938 213.582031 C 210.742188 213.523438 210.664062 213.441406 210.609375 213.34375 C 205.640625 205.199219 203.015625 195.59375 203.015625 185.570312 C 203.015625 159.074219 221.550781 137.519531 244.332031 137.519531 C 267.113281 137.519531 285.644531 159.074219 285.644531 185.570312 C 285.644531 194.292969 283.617188 202.839844 279.773438 210.28125 C 279.726562 210.371094 279.660156 210.453125 279.582031 210.519531 C 269.742188 218.644531 256.804688 223.117188 243.152344 223.117188 " fill-opacity="1" fill-rule="nonzero"/><path fill="#ea9c5d" d="M 156.136719 222.351562 C 169.226562 222.351562 181.011719 216.882812 189.253906 208.160156 L 191.074219 208.160156 C 194.210938 201.445312 195.992188 193.753906 195.992188 185.570312 C 195.992188 159.457031 177.835938 138.285156 155.445312 138.285156 C 133.050781 138.285156 114.898438 159.457031 114.898438 185.570312 C 114.898438 190.503906 115.546875 195.261719 116.75 199.734375 C 124.476562 213.230469 139.21875 222.351562 156.136719 222.351562 " fill-opacity="1" fill-rule="nonzero"/><path fill="#dd8b52" d="M 178.296875 146.507812 C 185.117188 154.972656 189.296875 166.359375 189.296875 178.886719 C 189.296875 186.390625 187.796875 193.484375 185.128906 199.789062 C 184.695312 200.8125 183.675781 201.472656 182.558594 201.472656 C 174.316406 210.199219 162.53125 215.664062 149.4375 215.664062 C 138.539062 215.664062 128.546875 211.875 120.75 205.574219 C 129.015625 215.792969 141.792969 222.351562 156.136719 222.351562 C 169.226562 222.351562 181.011719 216.882812 189.253906 208.160156 L 191.074219 208.160156 C 194.210938 201.445312 195.992188 193.753906 195.992188 185.570312 C 195.992188 169.339844 188.980469 155.023438 178.296875 146.507812 " fill-opacity="1" fill-rule="nonzero"/><path fill="#000000" d="M 117.464844 199.4375 C 125.332031 213.101562 140.136719 221.585938 156.136719 221.585938 C 168.449219 221.585938 180.316406 216.5 188.695312 207.628906 C 188.839844 207.476562 189.042969 207.390625 189.253906 207.390625 L 190.582031 207.390625 C 193.617188 200.714844 195.222656 193.179688 195.222656 185.570312 C 195.222656 159.921875 177.378906 139.054688 155.445312 139.054688 C 133.511719 139.054688 115.667969 159.921875 115.667969 185.570312 C 115.667969 190.296875 116.273438 194.964844 117.464844 199.4375 Z M 156.136719 223.117188 C 139.554688 223.117188 124.207031 214.304688 116.082031 200.117188 C 116.046875 200.054688 116.023438 199.996094 116.003906 199.929688 C 114.761719 195.300781 114.128906 190.464844 114.128906 185.570312 C 114.128906 159.074219 132.664062 137.519531 155.445312 137.519531 C 178.226562 137.519531 196.761719 159.074219 196.761719 185.570312 C 196.761719 193.574219 195.035156 201.496094 191.773438 208.480469 C 191.644531 208.75 191.375 208.925781 191.074219 208.925781 L 189.585938 208.925781 C 180.933594 217.949219 168.761719 223.117188 156.136719 223.117188 " fill-opacity="1" fill-rule="nonzero"/><path fill="#ea9c5d" d="M 333.316406 85.171875 C 316.734375 85.171875 302.476562 96.78125 296.195312 113.410156 L 301.695312 117.726562 L 313.496094 147.003906 C 319.90625 142.050781 327.589844 139.164062 335.859375 139.164062 C 346.878906 139.164062 356.871094 144.296875 364.179688 152.621094 C 367.492188 149.050781 370.195312 144.996094 372.140625 140.59375 C 373.265625 138.042969 373.863281 135.285156 373.863281 132.492188 C 373.863281 132.480469 373.863281 132.46875 373.863281 132.457031 C 373.863281 106.339844 355.710938 85.171875 333.316406 85.171875 " fill-opacity="1" fill-rule="nonzero"/><path fill="#ea9c5d" d="M 188.277344 117.304688 L 197.730469 111.113281 C 191.285156 94.949219 177.242188 83.738281 160.949219 83.738281 C 138.554688 83.738281 120.402344 104.910156 120.402344 131.027344 C 120.402344 133.292969 120.539062 135.523438 120.804688 137.710938 C 121.4375 142.90625 123.535156 147.839844 126.929688 151.839844 C 126.945312 151.859375 126.964844 151.878906 126.980469 151.898438 C 134.300781 143.480469 144.351562 138.285156 155.445312 138.285156 C 164 138.285156 171.9375 141.378906 178.480469 146.660156 L 188.277344 117.304688 " fill-opacity="1" fill-rule="nonzero"/><path fill="#ea9c5d" d="M 276.285156 117.304688 L 281.523438 113.871094 C 275.28125 97.136719 260.980469 85.433594 244.332031 85.433594 C 228.011719 85.433594 213.945312 96.675781 207.515625 112.886719 L 213.6875 117.726562 L 224.425781 144.375 C 230.304688 140.5 237.097656 138.285156 244.332031 138.285156 C 252.585938 138.285156 260.265625 141.167969 266.671875 146.113281 L 276.285156 117.304688 " fill-opacity="1" fill-rule="nonzero"/><path fill="#000000" d="M 335.859375 138.394531 C 346.460938 138.394531 356.492188 143.03125 364.1875 151.472656 C 367.214844 148.082031 369.652344 144.320312 371.433594 140.285156 C 372.535156 137.792969 373.089844 135.171875 373.09375 132.492188 L 373.09375 132.457031 C 373.09375 106.804688 355.25 85.9375 333.316406 85.9375 C 317.734375 85.9375 303.578125 96.605469 297.113281 113.160156 L 302.171875 117.125 C 302.277344 117.207031 302.359375 117.316406 302.410156 117.441406 L 313.835938 145.789062 C 320.425781 140.949219 328.015625 138.394531 335.859375 138.394531 Z M 364.179688 153.386719 C 364.179688 153.386719 364.171875 153.386719 364.171875 153.386719 C 363.953125 153.386719 363.746094 153.289062 363.605469 153.125 C 356.132812 144.617188 346.28125 139.933594 335.859375 139.933594 C 328.035156 139.933594 320.46875 142.589844 313.96875 147.609375 C 313.777344 147.757812 313.523438 147.808594 313.292969 147.746094 C 313.0625 147.683594 312.871094 147.515625 312.78125 147.292969 L 301.058594 118.203125 L 295.71875 114.015625 C 295.457031 113.808594 295.355469 113.453125 295.476562 113.140625 C 302.070312 95.683594 316.925781 84.402344 333.316406 84.402344 C 356.097656 84.402344 374.632812 105.960938 374.632812 132.457031 L 374.632812 132.492188 C 374.628906 135.390625 374.027344 138.21875 372.839844 140.90625 C 370.878906 145.347656 368.15625 149.464844 364.746094 153.140625 C 364.597656 153.296875 364.394531 153.386719 364.179688 153.386719 " fill-opacity="1" fill-rule="nonzero"/><g clip-path="url(#6487c8ca38)"><path fill="#000000" d="M 160.949219 84.511719 C 139.015625 84.511719 121.171875 105.375 121.171875 131.027344 C 121.171875 133.230469 121.304688 135.449219 121.566406 137.617188 C 122.15625 142.472656 124.03125 146.984375 127.003906 150.714844 C 134.710938 142.199219 144.777344 137.519531 155.445312 137.519531 C 163.550781 137.519531 171.359375 140.234375 178.09375 145.378906 L 187.546875 117.0625 C 187.601562 116.898438 187.710938 116.757812 187.855469 116.664062 L 196.78125 110.8125 C 193.609375 103.136719 188.703125 96.632812 182.566406 91.976562 C 176.132812 87.089844 168.65625 84.511719 160.949219 84.511719 Z M 126.980469 152.667969 C 126.980469 152.667969 126.976562 152.667969 126.976562 152.667969 C 126.753906 152.667969 126.539062 152.566406 126.394531 152.394531 L 126.339844 152.332031 C 122.878906 148.253906 120.699219 143.230469 120.042969 137.800781 C 119.769531 135.570312 119.632812 133.292969 119.632812 131.027344 C 119.632812 104.53125 138.167969 82.972656 160.949219 82.972656 C 168.996094 82.972656 176.792969 85.664062 183.5 90.753906 C 190.011719 95.695312 195.179688 102.636719 198.445312 110.824219 C 198.582031 111.164062 198.460938 111.550781 198.15625 111.75 L 188.921875 117.800781 L 179.207031 146.902344 C 179.128906 147.140625 178.9375 147.324219 178.695312 147.398438 C 178.453125 147.464844 178.191406 147.414062 177.996094 147.257812 C 171.34375 141.890625 163.546875 139.054688 155.445312 139.054688 C 144.953125 139.054688 135.050781 143.796875 127.5625 152.402344 C 127.414062 152.570312 127.203125 152.667969 126.980469 152.667969 " fill-opacity="1" fill-rule="nonzero"/></g><path fill="#000000" d="M 244.332031 137.519531 C 252.140625 137.519531 259.707031 140.054688 266.277344 144.855469 L 275.558594 117.0625 C 275.613281 116.898438 275.71875 116.757812 275.867188 116.664062 L 280.589844 113.570312 C 274.148438 96.921875 259.976562 86.199219 244.332031 86.199219 C 236.609375 86.199219 229.125 88.789062 222.679688 93.691406 C 216.523438 98.375 211.609375 104.917969 208.445312 112.636719 L 214.160156 117.125 C 214.265625 117.207031 214.351562 117.316406 214.398438 117.441406 L 224.792969 143.222656 C 230.769531 139.488281 237.507812 137.519531 244.332031 137.519531 Z M 266.671875 146.878906 C 266.503906 146.878906 266.335938 146.824219 266.203125 146.71875 C 259.703125 141.707031 252.140625 139.054688 244.332031 139.054688 C 237.507812 139.054688 230.769531 141.117188 224.847656 145.011719 C 224.65625 145.140625 224.417969 145.175781 224.195312 145.105469 C 223.976562 145.035156 223.796875 144.875 223.710938 144.660156 L 213.050781 118.203125 L 207.039062 113.488281 C 206.769531 113.28125 206.675781 112.917969 206.800781 112.601562 C 210.058594 104.390625 215.226562 97.429688 221.75 92.472656 C 228.460938 87.367188 236.269531 84.667969 244.332031 84.667969 C 260.804688 84.667969 275.6875 96.023438 282.25 113.605469 C 282.371094 113.941406 282.25 114.316406 281.949219 114.515625 L 276.933594 117.800781 L 267.402344 146.355469 C 267.324219 146.589844 267.132812 146.773438 266.898438 146.847656 C 266.820312 146.867188 266.746094 146.878906 266.671875 146.878906 " fill-opacity="1" fill-rule="nonzero"/><path fill="#dabba8" d="M 214.496094 214.945312 L 214.496094 214.941406 C 213.390625 214.3125 212.3125 213.648438 211.273438 212.949219 C 212.3125 213.648438 213.390625 214.3125 214.496094 214.945312 " fill-opacity="1" fill-rule="nonzero"/><path fill="#dabba8" d="M 195.992188 185.570312 C 195.992188 193.753906 194.210938 201.445312 191.074219 208.160156 L 205.179688 208.160156 C 207.054688 209.890625 209.09375 211.488281 211.265625 212.945312 C 206.554688 205.21875 203.785156 195.773438 203.785156 185.570312 C 203.785156 167.890625 212.105469 152.484375 224.425781 144.371094 L 213.6875 117.726562 L 205.304688 111.152344 C 203.226562 109.523438 200.339844 109.402344 198.132812 110.847656 L 188.277344 117.304688 L 178.480469 146.65625 C 189.058594 155.191406 195.992188 169.433594 195.992188 185.570312 " fill-opacity="1" fill-rule="nonzero"/><path fill="#000000" d="M 214.496094 215.710938 C 214.363281 215.710938 214.230469 215.679688 214.113281 215.609375 C 213.121094 215.042969 212.136719 214.441406 211.1875 213.8125 C 211.070312 213.738281 210.957031 213.664062 210.84375 213.585938 C 210.488281 213.351562 210.394531 212.875 210.632812 212.523438 C 210.871094 212.171875 211.347656 212.074219 211.699219 212.3125 C 211.808594 212.382812 211.917969 212.457031 212.03125 212.53125 C 212.945312 213.132812 213.898438 213.71875 214.875 214.277344 C 215.183594 214.453125 215.332031 214.8125 215.234375 215.152344 C 215.167969 215.378906 215.003906 215.566406 214.785156 215.65625 C 214.691406 215.691406 214.59375 215.710938 214.496094 215.710938 " fill-opacity="1" fill-rule="nonzero"/><path fill="#000000" d="M 192.265625 207.390625 L 205.179688 207.390625 C 205.375 207.390625 205.5625 207.460938 205.703125 207.59375 C 206.710938 208.523438 207.777344 209.425781 208.886719 210.285156 C 205.035156 202.835938 203.015625 194.367188 203.015625 185.570312 C 203.015625 168.519531 210.839844 152.691406 223.476562 144.082031 L 213.050781 118.203125 L 204.828125 111.757812 C 203.011719 110.328125 200.488281 110.222656 198.554688 111.488281 L 188.921875 117.800781 L 179.375 146.398438 C 190.273438 155.414062 196.761719 170.011719 196.761719 185.570312 C 196.761719 193.160156 195.210938 200.675781 192.265625 207.390625 Z M 211.265625 213.710938 C 211.117188 213.710938 210.964844 213.667969 210.835938 213.582031 C 208.710938 212.15625 206.710938 210.59375 204.882812 208.925781 L 191.074219 208.925781 C 190.8125 208.925781 190.566406 208.792969 190.425781 208.570312 C 190.285156 208.347656 190.265625 208.070312 190.378906 207.832031 C 193.546875 201.046875 195.222656 193.351562 195.222656 185.570312 C 195.222656 170.28125 188.78125 155.953125 177.996094 147.253906 C 177.746094 147.050781 177.648438 146.71875 177.75 146.414062 L 187.546875 117.0625 C 187.601562 116.898438 187.710938 116.757812 187.855469 116.664062 L 197.710938 110.203125 C 200.199219 108.574219 203.441406 108.710938 205.777344 110.546875 L 214.160156 117.125 C 214.265625 117.207031 214.351562 117.316406 214.398438 117.441406 L 225.136719 144.082031 C 225.273438 144.421875 225.152344 144.808594 224.847656 145.011719 C 212.328125 153.253906 204.550781 168.796875 204.550781 185.570312 C 204.550781 195.3125 207.101562 204.640625 211.921875 212.542969 C 212.109375 212.851562 212.058594 213.25 211.796875 213.5 C 211.648438 213.640625 211.457031 213.710938 211.265625 213.710938 " fill-opacity="1" fill-rule="nonzero"/><path fill="#dabba8" d="M 275.582031 212.574219 C 276.792969 211.742188 277.957031 210.863281 279.078125 209.941406 C 277.957031 210.859375 276.792969 211.738281 275.582031 212.574219 " fill-opacity="1" fill-rule="nonzero"/><path fill="#dabba8" d="M 284.878906 185.570312 C 284.878906 194.480469 282.765625 202.816406 279.089844 209.925781 C 279.785156 209.351562 280.464844 208.765625 281.121094 208.160156 L 293.796875 208.160156 C 296.390625 210.710938 299.316406 212.980469 302.507812 214.917969 L 302.753906 213.753906 C 298.066406 206.042969 295.308594 196.625 295.308594 186.449219 C 295.308594 169.972656 302.539062 155.46875 313.496094 147.003906 L 301.695312 117.726562 L 293.3125 111.152344 C 291.238281 109.523438 288.351562 109.402344 286.144531 110.847656 L 276.285156 117.304688 L 266.671875 146.109375 C 277.644531 154.570312 284.878906 169.085938 284.878906 185.570312 " fill-opacity="1" fill-rule="nonzero"/><path fill="#000000" d="M 275.582031 213.34375 C 275.496094 213.34375 275.410156 213.332031 275.328125 213.300781 C 275.101562 213.222656 274.917969 213.035156 274.847656 212.800781 C 274.746094 212.480469 274.871094 212.132812 275.144531 211.941406 C 276.335938 211.121094 277.496094 210.25 278.578125 209.351562 C 278.582031 209.351562 278.585938 209.347656 278.585938 209.347656 C 278.914062 209.078125 279.398438 209.121094 279.667969 209.449219 C 279.941406 209.777344 279.894531 210.261719 279.566406 210.53125 C 278.433594 211.464844 277.238281 212.367188 276.019531 213.207031 C 275.886719 213.296875 275.734375 213.34375 275.582031 213.34375 " fill-opacity="1" fill-rule="nonzero"/><path fill="#000000" d="M 281.148438 207.390625 L 293.796875 207.390625 C 293.996094 207.390625 294.1875 207.46875 294.335938 207.609375 C 296.558594 209.792969 299.035156 211.773438 301.710938 213.507812 C 297.015625 205.515625 294.539062 196.175781 294.539062 186.449219 C 294.539062 170.523438 301.269531 155.734375 312.566406 146.753906 L 301.058594 118.203125 L 292.839844 111.757812 C 291.019531 110.328125 288.5 110.222656 286.566406 111.488281 L 276.933594 117.800781 L 267.574219 145.835938 C 278.902344 154.8125 285.644531 169.621094 285.644531 185.570312 C 285.644531 193.1875 284.097656 200.664062 281.148438 207.390625 Z M 302.507812 215.683594 C 302.371094 215.683594 302.230469 215.648438 302.109375 215.574219 C 298.964844 213.660156 296.0625 211.425781 293.480469 208.925781 L 281.421875 208.925781 C 280.839844 209.453125 280.222656 209.988281 279.582031 210.519531 C 279.300781 210.753906 278.890625 210.753906 278.605469 210.527344 C 278.324219 210.296875 278.238281 209.902344 278.40625 209.574219 C 282.136719 202.351562 284.109375 194.050781 284.109375 185.570312 C 284.109375 169.890625 277.414062 155.367188 266.203125 146.714844 C 265.945312 146.519531 265.839844 146.175781 265.941406 145.863281 L 275.558594 117.0625 C 275.613281 116.898438 275.71875 116.757812 275.867188 116.664062 L 285.722656 110.203125 C 288.207031 108.574219 291.449219 108.710938 293.789062 110.546875 L 302.171875 117.125 C 302.277344 117.207031 302.359375 117.316406 302.410156 117.441406 L 314.207031 146.714844 C 314.335938 147.035156 314.238281 147.398438 313.964844 147.609375 C 302.765625 156.261719 296.078125 170.78125 296.078125 186.449219 C 296.078125 196.160156 298.613281 205.464844 303.410156 213.359375 C 303.511719 213.523438 303.546875 213.722656 303.507812 213.914062 L 303.261719 215.074219 C 303.210938 215.320312 303.042969 215.523438 302.816406 215.621094 C 302.714844 215.664062 302.613281 215.683594 302.507812 215.683594 " fill-opacity="1" fill-rule="nonzero"/><path fill="#dabba8" d="M 133.824219 229.253906 C 131.652344 229.253906 129.53125 229.03125 127.484375 228.609375 L 148.105469 249.207031 C 152.140625 253.234375 158.515625 253.71875 163.113281 250.347656 L 191.910156 229.253906 L 133.824219 229.253906 " fill-opacity="1" fill-rule="nonzero"/><path fill="#dabba8" d="M 353.117188 229.253906 L 301.929688 229.253906 L 321.171875 248.464844 C 325.398438 252.6875 332.15625 252.988281 336.75 249.160156 L 362.242188 227.902344 C 359.355469 228.777344 356.292969 229.253906 353.117188 229.253906 " fill-opacity="1" fill-rule="nonzero"/><path fill="#dabba8" d="M 217.867188 229.253906 L 235.839844 247.195312 C 240.066406 251.414062 246.816406 251.722656 251.40625 247.898438 L 273.820312 229.253906 L 217.867188 229.253906 " fill-opacity="1" fill-rule="nonzero"/><g clip-path="url(#411bf2260b)"><path fill="#000000" d="M 129.71875 229.761719 L 148.652344 248.660156 C 152.445312 252.449219 158.335938 252.898438 162.660156 249.730469 L 189.558594 230.019531 L 133.824219 230.019531 C 132.449219 230.019531 131.078125 229.933594 129.71875 229.761719 Z M 156.269531 253.375 C 153.105469 253.375 149.964844 252.148438 147.5625 249.75 L 126.9375 229.152344 C 126.699219 228.914062 126.644531 228.546875 126.804688 228.246094 C 126.96875 227.949219 127.304688 227.789062 127.636719 227.859375 C 129.660156 228.273438 131.742188 228.480469 133.824219 228.480469 L 191.910156 228.480469 C 192.242188 228.480469 192.535156 228.699219 192.640625 229.011719 C 192.742188 229.328125 192.632812 229.671875 192.363281 229.871094 L 163.570312 250.96875 C 161.367188 252.582031 158.8125 253.375 156.269531 253.375 " fill-opacity="1" fill-rule="nonzero"/></g><path fill="#000000" d="M 303.785156 230.019531 L 321.714844 247.921875 C 325.691406 251.890625 331.941406 252.171875 336.253906 248.570312 L 359.195312 229.445312 C 357.199219 229.828125 355.164062 230.019531 353.117188 230.019531 Z M 329.335938 252.632812 C 326.179688 252.632812 323.039062 251.414062 320.628906 249.007812 L 301.386719 229.796875 C 301.164062 229.574219 301.101562 229.246094 301.21875 228.957031 C 301.335938 228.671875 301.617188 228.480469 301.929688 228.480469 L 353.117188 228.480469 C 356.148438 228.480469 359.140625 228.042969 362.023438 227.167969 C 362.371094 227.058594 362.746094 227.214844 362.921875 227.539062 C 363.09375 227.859375 363.015625 228.257812 362.734375 228.492188 L 337.242188 249.75 C 334.929688 251.679688 332.128906 252.632812 329.335938 252.632812 " fill-opacity="1" fill-rule="nonzero"/><path fill="#000000" d="M 219.722656 230.019531 L 236.382812 246.652344 C 240.351562 250.617188 246.601562 250.902344 250.914062 247.3125 L 271.695312 230.019531 Z M 244.007812 251.363281 C 240.847656 251.363281 237.703125 250.144531 235.292969 247.738281 L 217.324219 229.796875 C 217.101562 229.574219 217.039062 229.246094 217.15625 228.957031 C 217.277344 228.671875 217.554688 228.480469 217.867188 228.480469 L 273.820312 228.480469 C 274.144531 228.480469 274.433594 228.6875 274.542969 228.988281 C 274.652344 229.292969 274.5625 229.636719 274.3125 229.839844 L 251.898438 248.492188 C 249.589844 250.414062 246.792969 251.363281 244.007812 251.363281 " fill-opacity="1" fill-rule="nonzero"/><path fill="#f4a773" d="M 133.441406 156.769531 C 128.925781 162.109375 127.648438 168.441406 130.585938 170.917969 C 133.519531 173.390625 139.558594 171.066406 144.074219 165.730469 C 148.585938 160.386719 149.863281 154.054688 146.929688 151.582031 C 143.992188 149.109375 137.953125 151.429688 133.441406 156.769531 " fill-opacity="1" fill-rule="nonzero"/><path fill="#f4a773" d="M 139.539062 98.921875 C 135.027344 104.257812 133.746094 110.59375 136.683594 113.066406 C 139.621094 115.542969 145.65625 113.21875 150.171875 107.878906 C 154.683594 102.539062 155.960938 96.207031 153.027344 93.730469 C 150.089844 91.257812 144.050781 93.582031 139.539062 98.921875 " fill-opacity="1" fill-rule="nonzero"/><path fill="#f4a773" d="M 224.917969 98.921875 C 220.402344 104.257812 219.125 110.59375 222.0625 113.066406 C 224.996094 115.542969 231.035156 113.21875 235.550781 107.878906 C 240.0625 102.539062 241.339844 96.207031 238.40625 93.730469 C 235.46875 91.257812 229.429688 93.582031 224.917969 98.921875 " fill-opacity="1" fill-rule="nonzero"/><path fill="#f4a773" d="M 312.90625 100.226562 C 308.394531 105.5625 307.117188 111.898438 310.054688 114.371094 C 312.988281 116.847656 319.027344 114.523438 323.542969 109.183594 C 328.054688 103.847656 329.332031 97.511719 326.394531 95.035156 C 323.460938 92.5625 317.421875 94.886719 312.90625 100.226562 " fill-opacity="1" fill-rule="nonzero"/><path fill="#f4a773" d="M 225.0625 156.769531 C 220.546875 162.109375 219.269531 168.441406 222.207031 170.917969 C 225.140625 173.390625 231.179688 171.066406 235.691406 165.730469 C 240.203125 160.386719 241.484375 154.054688 238.546875 151.582031 C 235.613281 149.109375 229.574219 151.429688 225.0625 156.769531 " fill-opacity="1" fill-rule="nonzero"/><path fill="#f4a773" d="M 316.683594 156.769531 C 312.167969 162.109375 310.886719 168.441406 313.824219 170.917969 C 316.761719 173.390625 322.796875 171.066406 327.3125 165.730469 C 331.824219 160.386719 333.101562 154.054688 330.167969 151.582031 C 327.230469 149.109375 321.191406 151.429688 316.683594 156.769531 " fill-opacity="1" fill-rule="nonzero"/></svg>