<svg xmlns="http://www.w3.org/2000/svg" xmlns:xlink="http://www.w3.org/1999/xlink" width="590" zoomAndPan="magnify" viewBox="0 0 442.5 225" height="300" preserveAspectRatio="xMidYMid meet" version="1.0"><defs><filter x="0%" y="0%" width="100%" height="100%" id="7d4a202d2c"><feColorMatrix values="0 0 0 0 1 0 0 0 0 1 0 0 0 0 1 0 0 0 1 0" color-interpolation-filters="sRGB"/></filter><g/><clipPath id="cc42c573fd"><path d="M 0 0.128906 L 442 0.128906 L 442 224.871094 L 0 224.871094 Z M 0 0.128906 " clip-rule="nonzero"/></clipPath><clipPath id="5335bc268b"><path d="M 0 36 L 442 36 L 442 224.871094 L 0 224.871094 Z M 0 36 " clip-rule="nonzero"/></clipPath><clipPath id="d7a684d42d"><path d="M 753.554688 359.910156 L 236.5 830.289062 L -238.925781 307.683594 L 278.128906 -162.691406 Z M 753.554688 359.910156 " clip-rule="nonzero"/></clipPath><clipPath id="464ccaadf3"><path d="M 753.554688 359.910156 L 236.5 830.289062 L -238.925781 307.683594 L 278.128906 -162.691406 Z M 753.554688 359.910156 " clip-rule="nonzero"/></clipPath><clipPath id="2f45f24914"><path d="M 0 0.128906 L 442 0.128906 L 442 224.871094 L 0 224.871094 Z M 0 0.128906 " clip-rule="nonzero"/></clipPath><clipPath id="11625b87a6"><path d="M 753.554688 359.910156 L 236.5 830.289062 L -238.925781 307.683594 L 278.128906 -162.691406 Z M 753.554688 359.910156 " clip-rule="nonzero"/></clipPath><clipPath id="e216550df1"><path d="M 753.554688 359.910156 L 236.5 830.289062 L -238.925781 307.683594 L 278.128906 -162.691406 Z M 753.554688 359.910156 " clip-rule="nonzero"/></clipPath><mask id="30d9bff0f8"><g filter="url(#7d4a202d2c)"><rect x="-44.25" width="531" fill="#000000" y="-22.5" height="270" fill-opacity="0.3"/></g></mask><clipPath id="1bdf4db285"><path d="M 0 46 L 442 46 L 442 224.871094 L 0 224.871094 Z M 0 46 " clip-rule="nonzero"/></clipPath><clipPath id="bf13426bef"><path d="M 753.554688 359.910156 L 236.5 830.289062 L -238.925781 307.683594 L 278.128906 -162.691406 Z M 753.554688 359.910156 " clip-rule="nonzero"/></clipPath><clipPath id="e1720fd1e9"><path d="M 753.554688 359.910156 L 236.5 830.289062 L -238.925781 307.683594 L 278.128906 -162.691406 Z M 753.554688 359.910156 " clip-rule="nonzero"/></clipPath><clipPath id="24f82c4794"><rect x="0" width="442" y="0" height="225"/></clipPath><clipPath id="39ccb3e802"><path d="M 74.71875 8 L 367.96875 8 L 367.96875 224.871094 L 74.71875 224.871094 Z M 74.71875 8 " clip-rule="nonzero"/></clipPath><clipPath id="edbd9e220f"><path d="M 219 42 L 366 42 L 366 224.871094 L 219 224.871094 Z M 219 42 " clip-rule="nonzero"/></clipPath><clipPath id="211aa41b35"><path d="M 239.515625 42.464844 L 259.195312 42.464844 L 259.195312 53.730469 L 239.515625 53.730469 Z M 239.515625 42.464844 " clip-rule="nonzero"/></clipPath><clipPath id="f8acfac494"><path d="M 254.097656 42.464844 L 273.773438 42.464844 L 273.773438 53.730469 L 254.097656 53.730469 Z M 254.097656 42.464844 " clip-rule="nonzero"/></clipPath><clipPath id="fc96e33c23"><path d="M 254.097656 48.097656 L 273.773438 48.097656 L 273.773438 59.183594 L 254.097656 59.183594 Z M 254.097656 48.097656 " clip-rule="nonzero"/></clipPath><clipPath id="e863262a22"><path d="M 261.503906 47.921875 L 281.183594 47.921875 L 281.183594 59.183594 L 261.503906 59.183594 Z M 261.503906 47.921875 " clip-rule="nonzero"/></clipPath><clipPath id="3156121e86"><path d="M 249 75 L 282 75 L 282 105.382812 L 249 105.382812 Z M 249 75 " clip-rule="nonzero"/></clipPath></defs><g clip-path="url(#cc42c573fd)"><path fill="#ffffff" d="M 0 0.128906 L 442.5 0.128906 L 442.5 225.128906 L 0 225.128906 Z M 0 0.128906 " fill-opacity="1" fill-rule="nonzero"/><path fill="#4c644b" d="M 0 0.128906 L 442.5 0.128906 L 442.5 225.128906 L 0 225.128906 Z M 0 0.128906 " fill-opacity="1" fill-rule="nonzero"/></g><g clip-path="url(#5335bc268b)"><g clip-path="url(#d7a684d42d)"><g clip-path="url(#464ccaadf3)"><path fill="#f8fffa" d="M 342.023438 48.304688 C 415.394531 20.367188 464.769531 43.503906 490.152344 117.710938 C 515.535156 191.917969 535.496094 267.480469 550.039062 344.410156 C 564.578125 421.335938 549.578125 493.222656 505.03125 560.074219 C 460.484375 626.921875 402.496094 628.65625 331.058594 565.277344 C 259.625 501.894531 191.042969 494.566406 125.316406 543.289062 C 59.589844 592.015625 13.941406 583.695312 -11.625 518.324219 C -37.195312 452.957031 -58.660156 384.726562 -76.019531 313.636719 C -93.382812 242.542969 -73.304688 185.496094 -15.785156 142.496094 C 41.730469 99.492188 97.402344 80.027344 151.226562 84.101562 C 205.050781 88.171875 268.652344 76.242188 342.023438 48.304688 Z M 342.023438 48.304688 " fill-opacity="1" fill-rule="nonzero"/></g></g></g><g clip-path="url(#2f45f24914)"><g clip-path="url(#11625b87a6)"><g clip-path="url(#e216550df1)"><g mask="url(#30d9bff0f8)"><g transform="matrix(1, 0, 0, 1, 0, -0.00000000000001113)"><g clip-path="url(#24f82c4794)"><g clip-path="url(#1bdf4db285)"><g clip-path="url(#bf13426bef)"><g clip-path="url(#e1720fd1e9)"><path fill="#f8fffa" d="M 459.464844 122.621094 C 537.707031 128.992188 572.308594 171.132812 563.265625 249.042969 C 554.222656 326.957031 539.707031 403.765625 519.710938 479.46875 C 499.714844 555.171875 455.226562 613.605469 386.246094 654.777344 C 317.265625 695.945312 264.183594 672.546875 227.003906 584.578125 C 189.820312 496.609375 131.085938 460.472656 50.792969 476.160156 C -29.5 491.851562 -67.109375 464.6875 -62.042969 394.671875 C -56.976562 324.652344 -46.972656 253.820312 -32.03125 182.171875 C -17.09375 110.523438 25.585938 67.667969 96.007812 53.613281 C 166.429688 39.554688 225.050781 45.949219 271.871094 72.796875 C 318.691406 99.644531 381.222656 116.253906 459.464844 122.621094 Z M 459.464844 122.621094 " fill-opacity="1" fill-rule="nonzero"/></g></g></g></g></g></g></g></g></g><g clip-path="url(#39ccb3e802)"><path fill="#0d4336" d="M 366.929688 154.804688 C 365.726562 132.980469 365.179688 127.074219 365.140625 126.679688 L 365.496094 85.699219 C 365.496094 79.875 361.824219 74.597656 356.363281 72.566406 L 351.105469 70.613281 L 351.105469 64.660156 C 351.375 64.121094 352.820312 61.132812 353.746094 57.472656 C 355.105469 52.09375 354.722656 47.71875 352.632812 44.824219 C 349.089844 39.90625 340.09375 40.457031 336.757812 42.617188 C 333.113281 44.972656 333.246094 49.246094 333.25 49.425781 C 333.25 49.433594 333.253906 49.4375 333.257812 49.441406 C 333.257812 49.941406 333.300781 50.433594 333.34375 50.917969 C 333.421875 51.796875 333.5 52.625 333.332031 53.445312 C 333.175781 54.226562 332.492188 55.167969 331.890625 55.996094 C 331.246094 56.886719 330.738281 57.589844 330.738281 58.175781 C 330.738281 59.117188 332.375 60.015625 333.132812 60.378906 C 333.210938 61.152344 333.480469 63.738281 333.769531 64.6875 C 334.230469 66.1875 336.703125 66.476562 337.898438 66.527344 C 337.894531 67.742188 337.902344 69.265625 337.910156 70.566406 C 336.484375 70.898438 330.199219 72.605469 323.644531 78.179688 C 321.101562 80.339844 317.171875 85.417969 314.046875 89.695312 L 307.414062 85.613281 C 307.402344 85.59375 307.382812 85.570312 307.367188 85.546875 C 307.355469 85.53125 307.351562 85.519531 307.339844 85.503906 C 307.304688 85.453125 307.257812 85.394531 307.210938 85.324219 C 307.199219 85.308594 307.183594 85.289062 307.171875 85.273438 C 307.128906 85.21875 307.085938 85.15625 307.035156 85.09375 C 307.011719 85.0625 306.988281 85.035156 306.964844 85.003906 C 306.917969 84.941406 306.867188 84.878906 306.8125 84.808594 C 306.78125 84.773438 306.753906 84.734375 306.722656 84.695312 C 306.664062 84.625 306.601562 84.550781 306.539062 84.476562 C 306.503906 84.433594 306.472656 84.394531 306.433594 84.351562 C 306.363281 84.269531 306.289062 84.179688 306.210938 84.09375 C 306.175781 84.050781 306.140625 84.011719 306.101562 83.972656 C 305.984375 83.839844 305.863281 83.703125 305.730469 83.5625 C 304.609375 82.371094 301.46875 79.585938 299.691406 78.105469 L 299.691406 59.378906 C 299.691406 59.320312 299.675781 59.265625 299.652344 59.21875 C 299.644531 59.203125 299.632812 59.191406 299.625 59.179688 C 299.605469 59.148438 299.582031 59.117188 299.554688 59.089844 C 299.546875 59.085938 299.546875 59.078125 299.539062 59.074219 L 276.878906 41.753906 C 276.8125 41.703125 276.730469 41.675781 276.644531 41.675781 L 219.429688 41.675781 C 219.421875 41.675781 219.414062 41.679688 219.40625 41.679688 C 219.378906 41.679688 219.355469 41.6875 219.328125 41.695312 C 219.304688 41.703125 219.285156 41.707031 219.261719 41.71875 C 219.242188 41.726562 219.222656 41.742188 219.203125 41.757812 C 219.183594 41.773438 219.164062 41.789062 219.144531 41.808594 C 219.140625 41.816406 219.132812 41.816406 219.125 41.824219 C 219.117188 41.835938 219.113281 41.851562 219.105469 41.867188 C 219.09375 41.886719 219.082031 41.910156 219.074219 41.933594 C 219.0625 41.960938 219.058594 41.984375 219.058594 42.011719 C 219.054688 42.027344 219.046875 42.039062 219.046875 42.058594 L 219.046875 76.511719 L 217.332031 76.488281 C 216.128906 74.296875 214.375 71.125 212.425781 67.667969 C 207.769531 59.402344 201.757812 49.050781 199.554688 46.671875 C 196.125 42.976562 190.566406 40.40625 189.226562 39.820312 C 189.5625 38.566406 189.953125 37.101562 190.257812 35.933594 C 191.425781 36.1875 193.894531 36.535156 194.71875 35.199219 C 195.238281 34.355469 196.15625 31.925781 196.425781 31.195312 C 197.253906 31.035156 199.0625 30.582031 199.300781 29.671875 C 199.453125 29.105469 199.136719 28.292969 198.738281 27.269531 C 198.371094 26.316406 197.949219 25.230469 197.992188 24.4375 C 198.042969 23.601562 198.324219 22.820312 198.625 21.988281 C 198.84375 21.390625 199.0625 20.769531 199.195312 20.121094 C 199.195312 20.117188 199.199219 20.109375 199.203125 20.105469 C 199.253906 19.949219 200.402344 16.246094 197.046875 12.617188 C 194.886719 10.28125 188.796875 7.777344 184.179688 9.183594 C 183.257812 9.464844 182.417969 9.886719 181.6875 10.441406 C 181.65625 10.464844 181.628906 10.488281 181.605469 10.511719 L 181.585938 10.527344 C 179.492188 11.933594 177.894531 13.816406 176.351562 15.632812 C 174.59375 17.707031 172.933594 19.664062 170.800781 20.523438 C 168.78125 21.339844 166.925781 20.914062 164.773438 20.421875 C 162.117188 19.8125 159.117188 19.128906 155.015625 20.5625 L 153.488281 17.378906 C 152.769531 15.886719 151.234375 14.921875 149.578125 14.921875 L 84.785156 14.921875 C 84.199219 14.921875 83.636719 15.0625 83.132812 15.3125 L 81.394531 15.3125 C 80.207031 15.3125 79.109375 15.941406 78.511719 16.964844 L 75.328125 22.410156 C 74.769531 23.367188 74.722656 24.539062 75.199219 25.539062 L 130.96875 141.550781 C 131.625 142.917969 133.011719 143.792969 134.535156 143.792969 L 202.71875 143.792969 C 203.90625 143.792969 205.003906 143.160156 205.605469 142.136719 L 208.785156 136.683594 C 209.34375 135.726562 209.390625 134.554688 208.910156 133.554688 L 208.085938 131.839844 C 208.089844 131.285156 207.976562 130.726562 207.722656 130.207031 L 190.046875 93.429688 L 190.539062 91.542969 C 194.226562 91.390625 199.804688 91.058594 205.132812 90.722656 C 208.148438 95.265625 213.332031 96.960938 217.542969 96.976562 C 217.925781 96.976562 218.433594 96.976562 219.050781 96.980469 L 219.050781 99.238281 C 219.050781 99.359375 219.105469 99.46875 219.199219 99.542969 L 241.859375 116.863281 C 241.878906 116.875 241.898438 116.882812 241.914062 116.890625 C 241.929688 116.898438 241.941406 116.910156 241.957031 116.914062 C 242 116.929688 242.042969 116.941406 242.09375 116.941406 L 299.308594 116.941406 C 299.519531 116.941406 299.691406 116.769531 299.691406 116.558594 L 299.691406 109.132812 C 300.785156 109.890625 301.78125 110.550781 302.597656 111.042969 C 304.242188 112.039062 306.089844 112.511719 307.988281 112.511719 C 311.074219 112.511719 314.292969 111.25 317.003906 108.925781 C 319.519531 110.746094 321.890625 112.449219 323.804688 113.792969 L 323.9375 126.679688 C 323.902344 127.078125 323.355469 132.992188 322.152344 154.804688 C 320.90625 177.324219 321.710938 231.484375 321.71875 232.027344 C 321.722656 232.238281 321.894531 232.40625 322.101562 232.40625 L 325.160156 232.40625 C 324.375 233.421875 322.132812 235.636719 316.730469 237.253906 C 315.773438 237.542969 314.910156 237.851562 314.109375 238.171875 C 314.101562 238.175781 314.097656 238.175781 314.089844 238.175781 C 314.085938 238.179688 314.082031 238.183594 314.078125 238.183594 C 304.695312 241.984375 305.417969 248.007812 305.492188 248.496094 C 305.496094 248.507812 305.496094 248.515625 305.496094 248.519531 C 305.527344 248.703125 305.6875 248.835938 305.875 248.835938 L 329.066406 248.835938 C 329.121094 248.988281 329.257812 249.089844 329.421875 249.089844 L 366.363281 249.089844 C 366.574219 249.089844 366.746094 248.921875 366.746094 248.710938 L 366.746094 227.410156 C 367.085938 213.757812 367.960938 173.445312 366.929688 154.804688 Z M 197.488281 76.191406 L 194.582031 76.148438 L 195.503906 72.628906 C 195.796875 73.15625 196.09375 73.679688 196.386719 74.207031 C 196.769531 74.894531 197.132812 75.550781 197.488281 76.191406 Z M 343.199219 236.460938 L 343.199219 232.207031 C 343.230469 232.15625 343.25 232.097656 343.253906 232.03125 L 344.539062 172.800781 L 345.828125 232.03125 C 345.832031 232.238281 346.003906 232.40625 346.210938 232.40625 L 348.890625 232.40625 C 348.421875 233.09375 346.925781 234.867188 343.199219 236.460938 Z M 343.199219 236.460938 " fill-opacity="1" fill-rule="nonzero"/></g><path fill="#c9f3f4" d="M 206.871094 133.390625 C 206.328125 134.257812 205.390625 134.773438 204.371094 134.773438 L 190.335938 134.773438 L 188.550781 98.066406 C 188.714844 98.058594 188.859375 97.949219 188.902344 97.785156 L 189.746094 94.570312 L 207.035156 130.535156 C 207.476562 131.457031 207.417969 132.523438 206.871094 133.390625 Z M 166.652344 134.773438 L 168.96875 134.773438 L 167.394531 119.496094 Z M 148.289062 87.136719 C 148.265625 87.238281 148.277344 87.339844 148.332031 87.429688 C 148.371094 87.5 148.441406 87.550781 148.515625 87.582031 C 142.632812 101.574219 142.078125 120.011719 143.316406 134.773438 L 139.574219 134.773438 C 138.210938 134.773438 136.945312 133.976562 136.355469 132.75 L 82.117188 19.921875 C 81.675781 19 81.734375 17.933594 82.28125 17.070312 C 82.824219 16.203125 83.761719 15.6875 84.785156 15.6875 L 149.578125 15.6875 C 150.941406 15.6875 152.207031 16.480469 152.796875 17.710938 L 154.296875 20.832031 C 151.597656 21.945312 150.304688 24.035156 149.160156 25.886719 C 148.140625 27.535156 147.179688 29.09375 145.367188 29.820312 C 143.84375 30.425781 142.011719 30.53125 140.070312 30.640625 C 136.855469 30.820312 133.527344 31.007812 130.863281 33.4375 C 127.339844 36.644531 126.054688 41.339844 127.425781 45.988281 C 128.699219 50.316406 131.964844 53.417969 135.953125 54.089844 C 137 54.269531 137.925781 54.347656 138.75 54.347656 C 141.835938 54.347656 143.542969 53.261719 145.203125 52.203125 C 146.496094 51.378906 147.71875 50.601562 149.574219 50.402344 C 151.507812 50.191406 153.304688 50.640625 155.039062 51.074219 C 155.90625 51.289062 156.757812 51.5 157.609375 51.632812 Z M 113.851562 20.601562 L 127.007812 20.601562 C 127.75 20.601562 128.351562 20 128.351562 19.257812 C 128.351562 18.515625 127.75 17.914062 127.007812 17.914062 L 113.851562 17.914062 C 113.109375 17.914062 112.507812 18.515625 112.507812 19.257812 C 112.507812 20 113.109375 20.601562 113.851562 20.601562 Z M 113.851562 20.601562 " fill-opacity="1" fill-rule="nonzero"/><path fill="#fbbb0b" d="M 96.21875 56.542969 C 96.378906 56.871094 96.402344 57.238281 96.28125 57.585938 C 96.164062 57.929688 95.914062 58.207031 95.589844 58.367188 C 95.257812 58.527344 94.890625 58.546875 94.542969 58.429688 C 94.199219 58.308594 93.921875 58.0625 93.761719 57.734375 L 88.136719 46.152344 C 87.976562 45.824219 87.953125 45.453125 88.074219 45.109375 C 88.191406 44.761719 88.4375 44.484375 88.765625 44.328125 C 88.957031 44.234375 89.160156 44.1875 89.363281 44.1875 C 89.511719 44.1875 89.664062 44.214844 89.8125 44.265625 C 90.15625 44.382812 90.433594 44.628906 90.59375 44.957031 Z M 188.960938 40.539062 C 188.480469 41.246094 186.90625 42.527344 182.035156 41.25 C 179.453125 40.574219 177.71875 39.65625 176.875 38.523438 C 176.699219 38.285156 176.578125 38.058594 176.5 37.855469 C 175.796875 38.292969 175.007812 38.644531 174.105469 38.867188 C 170.121094 39.863281 168.578125 42.726562 167.085938 45.492188 C 165.996094 47.507812 164.96875 49.417969 163.078125 50.613281 C 161.457031 51.644531 159.914062 51.855469 158.375 51.722656 L 149.125 86.964844 L 188.261719 97.21875 L 189.742188 91.578125 C 188.609375 91.617188 187.703125 91.640625 187.109375 91.632812 C 182.839844 91.589844 178.902344 89.015625 175.726562 84.195312 C 170.351562 76.035156 167.917969 71.601562 167.894531 71.558594 C 167.84375 71.464844 167.835938 71.347656 167.871094 71.246094 C 167.90625 71.144531 167.988281 71.0625 168.089844 71.019531 L 183.785156 64.726562 C 183.960938 64.652344 184.164062 64.726562 184.257812 64.890625 L 190.710938 76.089844 L 193.792969 76.136719 L 195.003906 71.523438 C 195.042969 71.371094 195.171875 71.261719 195.324219 71.242188 C 195.480469 71.222656 195.628906 71.296875 195.707031 71.433594 C 196.101562 72.132812 196.496094 72.835938 196.890625 73.542969 L 211.546875 67.664062 C 205.019531 56.085938 200.679688 49.011719 198.992188 47.195312 C 195.742188 43.6875 190.328125 41.148438 188.960938 40.539062 Z M 356.097656 73.28125 L 350.992188 71.386719 C 350.660156 72.210938 349.386719 73.753906 344.503906 73.753906 C 339.519531 73.753906 338.296875 72.148438 337.996094 71.335938 C 336.480469 71.707031 330.378906 73.457031 324.136719 78.761719 C 321.6875 80.847656 317.808594 85.855469 314.703125 90.101562 L 332.664062 101.164062 L 339.375 93.15625 C 339.503906 93 339.734375 92.972656 339.898438 93.09375 L 352.238281 102.433594 C 352.402344 102.558594 352.4375 102.796875 352.3125 102.964844 C 352.261719 103.03125 347.234375 109.796875 341.144531 115.230469 C 338.957031 117.183594 336.285156 118 333.710938 118 C 331.402344 118 329.175781 117.34375 327.441406 116.265625 C 326.816406 115.878906 325.820312 115.203125 324.574219 114.332031 L 324.699219 126.316406 L 364.378906 126.316406 L 364.730469 85.695312 C 364.730469 80.191406 361.261719 75.203125 356.097656 73.28125 Z M 356.097656 73.28125 " fill-opacity="1" fill-rule="nonzero"/><g clip-path="url(#edbd9e220f)"><path fill="#cfe2ce" d="M 329.609375 245.226562 L 306.785156 245.226562 C 307.597656 243.328125 309.535156 240.925781 314.039062 239.027344 L 315.15625 241.660156 C 315.195312 241.753906 315.273438 241.828125 315.367188 241.867188 C 315.414062 241.882812 315.460938 241.894531 315.507812 241.894531 C 315.5625 241.894531 315.617188 241.882812 315.667969 241.859375 C 316.738281 241.367188 317.933594 240.921875 319.222656 240.535156 C 326.414062 238.382812 327.90625 235.753906 328.394531 234.890625 C 328.421875 234.84375 328.449219 234.800781 328.46875 234.765625 C 329.019531 233.851562 329.203125 232.914062 329.261719 232.40625 L 342.433594 232.40625 L 342.433594 236.769531 C 341.777344 237.027344 341.0625 237.273438 340.277344 237.507812 C 339.320312 237.796875 338.457031 238.105469 337.65625 238.425781 C 337.652344 238.429688 337.644531 238.429688 337.640625 238.429688 C 337.632812 238.433594 337.628906 238.4375 337.625 238.4375 C 332.632812 240.460938 330.496094 243.113281 329.609375 245.226562 Z M 319.003906 239.804688 C 325.902344 237.738281 327.277344 235.3125 327.730469 234.515625 C 327.761719 234.460938 327.789062 234.410156 327.816406 234.367188 C 328.261719 233.632812 328.429688 232.855469 328.492188 232.40625 L 326.09375 232.40625 C 325.601562 233.21875 323.492188 236.027344 316.949219 237.988281 C 316.15625 238.226562 315.429688 238.476562 314.746094 238.742188 L 315.707031 241.003906 C 316.714844 240.558594 317.820312 240.15625 319.003906 239.804688 Z M 306.226562 248.074219 L 329 248.074219 C 329 247.578125 329.066406 246.851562 329.332031 245.992188 L 306.527344 245.992188 C 306.238281 246.921875 306.210938 247.671875 306.226562 248.074219 Z M 352.832031 232.40625 C 352.808594 232.777344 352.683594 233.917969 352.015625 235.019531 C 351.996094 235.054688 351.96875 235.097656 351.941406 235.144531 C 351.453125 236.007812 349.960938 238.636719 342.769531 240.789062 C 341.476562 241.175781 340.28125 241.621094 339.214844 242.113281 C 339.164062 242.136719 339.109375 242.148438 339.054688 242.148438 C 339.007812 242.148438 338.960938 242.140625 338.914062 242.121094 C 338.820312 242.085938 338.742188 242.007812 338.703125 241.914062 L 337.585938 239.28125 C 333.082031 241.179688 331.144531 243.582031 330.332031 245.480469 L 365.980469 245.480469 L 365.980469 232.40625 Z M 338.292969 238.996094 L 339.253906 241.257812 C 340.261719 240.816406 341.367188 240.414062 342.550781 240.058594 C 349.449219 237.992188 350.824219 235.566406 351.277344 234.769531 C 351.308594 234.714844 351.335938 234.664062 351.363281 234.621094 C 351.808594 233.882812 351.976562 233.105469 352.039062 232.652344 L 349.644531 232.652344 C 349.15625 233.464844 347.050781 236.277344 340.496094 238.242188 C 339.703125 238.480469 338.972656 238.730469 338.292969 238.996094 Z M 329.773438 248.328125 L 365.980469 248.328125 L 365.980469 246.246094 L 330.074219 246.246094 C 329.785156 247.175781 329.757812 247.925781 329.773438 248.328125 Z M 239.945312 42.441406 L 220.558594 42.441406 L 242.222656 58.996094 L 261.804688 58.996094 Z M 219.8125 76.523438 L 220.480469 76.535156 C 220.496094 76.527344 220.519531 76.519531 220.539062 76.511719 C 220.558594 76.503906 220.578125 76.496094 220.605469 76.484375 C 220.664062 76.460938 220.730469 76.433594 220.804688 76.402344 C 220.828125 76.394531 220.855469 76.382812 220.878906 76.375 C 220.941406 76.351562 221.003906 76.328125 221.078125 76.300781 C 221.117188 76.289062 221.15625 76.273438 221.195312 76.257812 C 221.265625 76.234375 221.339844 76.210938 221.414062 76.183594 C 221.464844 76.164062 221.511719 76.148438 221.5625 76.132812 C 221.648438 76.105469 221.734375 76.078125 221.824219 76.046875 C 221.878906 76.03125 221.929688 76.015625 221.988281 75.996094 C 222.089844 75.964844 222.199219 75.933594 222.308594 75.902344 C 222.363281 75.886719 222.414062 75.871094 222.46875 75.855469 C 222.640625 75.808594 222.816406 75.757812 223.003906 75.710938 C 224.707031 75.277344 229.375 74.542969 231.519531 74.292969 C 231.789062 74.257812 232.128906 74.234375 232.480469 74.238281 C 233.039062 74.246094 233.632812 74.332031 234.066406 74.597656 C 234.070312 74.597656 234.074219 74.601562 234.082031 74.605469 C 234.101562 74.617188 234.117188 74.632812 234.136719 74.644531 C 234.273438 74.738281 234.394531 74.851562 234.488281 74.992188 C 234.628906 75.207031 234.691406 75.464844 234.675781 75.746094 C 234.667969 75.839844 234.652344 75.933594 234.628906 76.03125 C 234.46875 76.671875 233.933594 77.292969 233.1875 77.699219 C 232.335938 78.164062 231.617188 78.496094 231.058594 78.734375 C 231.304688 78.78125 231.582031 78.832031 231.875 78.886719 C 233.945312 79.273438 237.011719 79.84375 238.875 80.164062 C 240.21875 80.398438 241.152344 80.730469 241.710938 81.175781 L 241.710938 59.566406 L 219.8125 42.832031 Z M 298.179688 58.996094 L 276.515625 42.441406 L 258.917969 42.441406 L 280.777344 58.996094 Z M 241.65625 86.9375 C 241.617188 86.957031 241.570312 86.980469 241.527344 87 C 241.488281 87.019531 241.453125 87.039062 241.410156 87.054688 C 241.386719 87.066406 241.355469 87.078125 241.328125 87.089844 C 241.261719 87.117188 241.199219 87.144531 241.132812 87.167969 C 241.128906 87.167969 241.128906 87.167969 241.128906 87.167969 C 241.128906 87.171875 241.132812 87.175781 241.136719 87.179688 C 241.199219 87.234375 241.257812 87.292969 241.308594 87.355469 C 241.320312 87.367188 241.332031 87.378906 241.34375 87.394531 C 241.386719 87.445312 241.425781 87.5 241.460938 87.550781 C 241.464844 87.558594 241.472656 87.566406 241.476562 87.578125 C 241.515625 87.636719 241.542969 87.695312 241.570312 87.753906 C 241.578125 87.765625 241.582031 87.78125 241.589844 87.796875 C 241.609375 87.847656 241.628906 87.902344 241.640625 87.953125 C 241.644531 87.960938 241.648438 87.96875 241.648438 87.972656 C 241.664062 88.03125 241.671875 88.089844 241.679688 88.144531 C 241.679688 88.160156 241.679688 88.171875 241.683594 88.1875 C 241.6875 88.238281 241.6875 88.289062 241.6875 88.339844 C 241.6875 88.34375 241.6875 88.347656 241.6875 88.351562 C 241.6875 88.40625 241.679688 88.457031 241.671875 88.511719 C 241.671875 88.523438 241.667969 88.535156 241.667969 88.546875 C 241.65625 88.597656 241.648438 88.648438 241.636719 88.695312 C 241.617188 88.761719 241.589844 88.824219 241.5625 88.886719 C 241.550781 88.910156 241.539062 88.929688 241.527344 88.949219 C 241.503906 88.988281 241.480469 89.027344 241.449219 89.066406 C 241.433594 89.089844 241.417969 89.113281 241.398438 89.132812 C 241.367188 89.167969 241.335938 89.203125 241.300781 89.234375 C 241.277344 89.257812 241.257812 89.277344 241.234375 89.296875 C 241.191406 89.335938 241.140625 89.371094 241.085938 89.410156 C 241.070312 89.421875 241.054688 89.433594 241.039062 89.445312 C 240.964844 89.492188 240.886719 89.535156 240.804688 89.578125 C 240.78125 89.585938 240.757812 89.597656 240.734375 89.609375 C 240.664062 89.640625 240.59375 89.671875 240.515625 89.699219 C 240.488281 89.710938 240.464844 89.71875 240.4375 89.730469 C 240.351562 89.761719 240.257812 89.789062 240.164062 89.816406 C 240.148438 89.824219 240.132812 89.828125 240.113281 89.832031 C 239.996094 89.867188 239.871094 89.898438 239.738281 89.925781 C 239.746094 89.933594 239.75 89.941406 239.753906 89.945312 C 239.796875 90 239.835938 90.050781 239.871094 90.101562 C 239.871094 90.105469 239.875 90.109375 239.875 90.109375 C 239.910156 90.167969 239.941406 90.222656 239.964844 90.273438 C 239.972656 90.289062 239.980469 90.304688 239.984375 90.316406 C 240.003906 90.363281 240.023438 90.40625 240.035156 90.453125 C 240.039062 90.460938 240.042969 90.472656 240.046875 90.484375 C 240.0625 90.535156 240.074219 90.585938 240.082031 90.636719 C 240.085938 90.652344 240.085938 90.664062 240.085938 90.675781 C 240.09375 90.71875 240.097656 90.757812 240.097656 90.796875 C 240.097656 90.8125 240.101562 90.824219 240.101562 90.835938 C 240.101562 90.886719 240.097656 90.933594 240.09375 90.980469 C 240.09375 90.992188 240.09375 91 240.089844 91.011719 C 240.085938 91.046875 240.082031 91.085938 240.074219 91.121094 C 240.074219 91.136719 240.070312 91.148438 240.066406 91.164062 C 240.058594 91.207031 240.046875 91.246094 240.035156 91.285156 C 240.035156 91.289062 240.035156 91.289062 240.035156 91.289062 C 239.867188 91.859375 239.246094 92.246094 238.160156 92.457031 C 237.511719 92.582031 236.691406 92.648438 235.699219 92.648438 C 235.621094 92.648438 235.539062 92.644531 235.460938 92.644531 C 233.46875 92.625 231.457031 92.367188 229.683594 92.136719 L 229.429688 92.105469 C 229.234375 92.078125 229.039062 92.050781 228.835938 92.019531 C 228.667969 91.996094 228.492188 91.964844 228.320312 91.9375 C 228.28125 91.929688 228.25 91.925781 228.210938 91.917969 C 228.011719 91.882812 227.808594 91.847656 227.605469 91.808594 C 227.59375 91.804688 227.578125 91.804688 227.566406 91.800781 C 225.601562 91.429688 223.382812 90.878906 221.535156 90.382812 C 221.53125 90.378906 221.53125 90.378906 221.527344 90.378906 C 221.34375 90.332031 221.167969 90.28125 220.996094 90.234375 C 220.96875 90.226562 220.941406 90.21875 220.917969 90.214844 C 220.765625 90.171875 220.625 90.132812 220.480469 90.09375 C 220.433594 90.082031 220.382812 90.066406 220.335938 90.054688 C 220.214844 90.019531 220.101562 89.988281 219.988281 89.957031 C 219.929688 89.941406 219.871094 89.921875 219.816406 89.90625 L 219.816406 99.050781 L 241.710938 115.785156 L 241.710938 86.902344 C 241.710938 86.902344 241.710938 86.902344 241.707031 86.90625 C 241.691406 86.914062 241.675781 86.925781 241.65625 86.9375 Z M 241.574219 83.574219 C 241.519531 83.605469 241.464844 83.636719 241.40625 83.664062 C 241.382812 83.675781 241.359375 83.6875 241.332031 83.699219 C 241.253906 83.738281 241.167969 83.773438 241.078125 83.808594 C 241.070312 83.808594 241.066406 83.8125 241.058594 83.816406 C 240.957031 83.855469 240.847656 83.890625 240.734375 83.925781 C 240.855469 83.96875 240.964844 84.015625 241.074219 84.058594 C 241.101562 84.070312 241.128906 84.082031 241.152344 84.097656 C 241.269531 84.148438 241.378906 84.203125 241.476562 84.257812 C 241.488281 84.265625 241.496094 84.269531 241.507812 84.277344 C 241.578125 84.316406 241.648438 84.359375 241.710938 84.40625 L 241.710938 83.492188 C 241.691406 83.503906 241.671875 83.511719 241.65625 83.523438 C 241.628906 83.542969 241.601562 83.558594 241.574219 83.574219 Z M 262.941406 59.761719 L 242.476562 59.761719 L 242.476562 85.675781 C 242.476562 85.695312 242.480469 85.714844 242.480469 85.734375 C 242.480469 85.746094 242.476562 85.757812 242.476562 85.765625 L 242.476562 116.179688 L 298.925781 116.179688 L 298.925781 96.675781 C 298.894531 96.667969 298.867188 96.65625 298.835938 96.648438 C 298.722656 96.613281 298.609375 96.578125 298.496094 96.539062 C 298.398438 96.511719 298.300781 96.476562 298.203125 96.445312 C 298.085938 96.410156 297.972656 96.371094 297.855469 96.335938 C 297.75 96.300781 297.644531 96.265625 297.539062 96.230469 C 297.425781 96.191406 297.3125 96.15625 297.195312 96.117188 C 297.089844 96.082031 296.980469 96.046875 296.871094 96.007812 C 296.757812 95.96875 296.644531 95.933594 296.527344 95.894531 C 296.421875 95.855469 296.3125 95.816406 296.203125 95.78125 C 296.085938 95.742188 295.972656 95.703125 295.855469 95.660156 C 295.746094 95.625 295.636719 95.582031 295.527344 95.546875 C 295.414062 95.503906 295.300781 95.464844 295.1875 95.421875 C 295.078125 95.382812 294.96875 95.34375 294.859375 95.304688 C 294.75 95.265625 294.632812 95.222656 294.523438 95.179688 C 294.414062 95.140625 294.304688 95.101562 294.199219 95.058594 C 294.089844 95.019531 293.980469 94.976562 293.871094 94.9375 C 293.757812 94.890625 293.644531 94.847656 293.53125 94.800781 C 293.433594 94.765625 293.335938 94.726562 293.238281 94.6875 C 293.113281 94.636719 292.996094 94.589844 292.871094 94.539062 C 292.792969 94.503906 292.707031 94.472656 292.628906 94.4375 C 292.484375 94.378906 292.347656 94.320312 292.207031 94.257812 C 292.15625 94.234375 292.097656 94.210938 292.046875 94.1875 C 291.859375 94.105469 291.675781 94.023438 291.5 93.941406 L 291.261719 93.828125 C 289.644531 93.070312 287.808594 92.210938 286.121094 91.160156 C 283.746094 89.679688 282.722656 88.5 282.988281 87.558594 C 283.007812 87.5 283.027344 87.441406 283.054688 87.378906 C 283.058594 87.363281 283.066406 87.347656 283.074219 87.332031 C 283.097656 87.285156 283.121094 87.234375 283.152344 87.1875 C 283.160156 87.175781 283.167969 87.160156 283.175781 87.148438 C 283.214844 87.089844 283.257812 87.035156 283.304688 86.980469 C 283.320312 86.964844 283.335938 86.953125 283.347656 86.9375 C 283.386719 86.898438 283.425781 86.863281 283.472656 86.828125 C 283.496094 86.808594 283.519531 86.789062 283.542969 86.773438 C 283.59375 86.738281 283.644531 86.710938 283.703125 86.679688 C 283.738281 86.660156 283.78125 86.640625 283.820312 86.625 C 283.871094 86.605469 283.921875 86.582031 283.976562 86.566406 C 283.875 86.46875 283.789062 86.375 283.707031 86.28125 C 283.695312 86.273438 283.6875 86.261719 283.679688 86.253906 C 283.609375 86.175781 283.546875 86.097656 283.488281 86.019531 C 283.472656 86 283.457031 85.980469 283.441406 85.960938 C 283.390625 85.894531 283.34375 85.824219 283.304688 85.757812 C 283.289062 85.738281 283.277344 85.71875 283.265625 85.703125 C 283.214844 85.621094 283.171875 85.539062 283.136719 85.460938 C 283.128906 85.441406 283.121094 85.425781 283.113281 85.40625 C 283.089844 85.347656 283.066406 85.289062 283.050781 85.234375 C 283.039062 85.203125 283.035156 85.175781 283.027344 85.144531 C 283.015625 85.097656 283.007812 85.054688 283 85.007812 C 282.996094 84.980469 282.992188 84.949219 282.992188 84.921875 C 282.988281 84.875 282.988281 84.832031 282.992188 84.785156 C 282.992188 84.761719 282.992188 84.734375 282.996094 84.710938 C 283.003906 84.648438 283.015625 84.585938 283.035156 84.523438 C 283.035156 84.519531 283.035156 84.515625 283.039062 84.507812 C 283.039062 84.503906 283.039062 84.5 283.042969 84.496094 C 283.054688 84.453125 283.070312 84.414062 283.089844 84.371094 C 283.09375 84.359375 283.101562 84.34375 283.105469 84.328125 C 283.125 84.285156 283.148438 84.238281 283.175781 84.191406 C 283.179688 84.1875 283.183594 84.183594 283.1875 84.175781 C 283.210938 84.136719 283.238281 84.09375 283.269531 84.054688 C 283.277344 84.042969 283.285156 84.03125 283.296875 84.019531 C 283.332031 83.976562 283.371094 83.933594 283.410156 83.894531 C 283.417969 83.886719 283.425781 83.882812 283.433594 83.875 C 283.46875 83.839844 283.511719 83.808594 283.554688 83.777344 C 283.570312 83.765625 283.585938 83.757812 283.597656 83.746094 C 283.652344 83.710938 283.707031 83.679688 283.765625 83.652344 C 283.78125 83.644531 283.792969 83.640625 283.804688 83.636719 C 283.859375 83.609375 283.914062 83.589844 283.976562 83.570312 C 283.996094 83.5625 284.015625 83.554688 284.035156 83.550781 C 284.109375 83.53125 284.1875 83.511719 284.269531 83.5 C 284.273438 83.496094 284.277344 83.496094 284.285156 83.496094 C 284.28125 83.492188 284.28125 83.488281 284.277344 83.488281 C 284.238281 83.4375 284.207031 83.386719 284.171875 83.339844 C 284.148438 83.304688 284.125 83.273438 284.101562 83.242188 C 284.082031 83.210938 284.066406 83.183594 284.050781 83.15625 C 284.019531 83.105469 283.988281 83.058594 283.960938 83.007812 C 283.957031 83 283.953125 82.988281 283.945312 82.976562 C 283.757812 82.625 283.691406 82.300781 283.742188 82.007812 C 283.753906 81.945312 283.769531 81.886719 283.789062 81.828125 C 283.925781 81.441406 284.183594 81.160156 284.546875 81 C 284.648438 80.953125 284.761719 80.921875 284.878906 80.898438 C 284.917969 80.886719 284.960938 80.882812 285.003906 80.878906 C 285.085938 80.867188 285.171875 80.855469 285.265625 80.851562 C 285.316406 80.847656 285.371094 80.847656 285.421875 80.851562 C 285.515625 80.851562 285.613281 80.855469 285.710938 80.867188 C 285.765625 80.871094 285.824219 80.875 285.882812 80.882812 C 286 80.898438 286.125 80.921875 286.253906 80.949219 C 286.292969 80.957031 286.324219 80.960938 286.359375 80.96875 C 286.28125 80.878906 286.210938 80.789062 286.144531 80.699219 C 286.140625 80.695312 286.136719 80.691406 286.132812 80.6875 C 286.078125 80.609375 286.023438 80.53125 285.976562 80.457031 C 285.960938 80.433594 285.945312 80.410156 285.933594 80.386719 C 285.898438 80.332031 285.867188 80.277344 285.839844 80.222656 C 285.824219 80.195312 285.8125 80.164062 285.796875 80.132812 C 285.777344 80.089844 285.753906 80.042969 285.738281 79.996094 C 285.726562 79.964844 285.714844 79.933594 285.707031 79.902344 C 285.691406 79.859375 285.679688 79.820312 285.667969 79.777344 C 285.664062 79.746094 285.65625 79.714844 285.648438 79.6875 C 285.644531 79.644531 285.636719 79.601562 285.636719 79.5625 C 285.632812 79.535156 285.628906 79.507812 285.628906 79.480469 C 285.628906 79.433594 285.632812 79.390625 285.636719 79.347656 C 285.640625 79.328125 285.640625 79.304688 285.644531 79.28125 C 285.652344 79.21875 285.667969 79.15625 285.691406 79.09375 C 285.828125 78.703125 286.085938 78.425781 286.449219 78.261719 C 287.175781 77.941406 288.320312 78.117188 289.945312 78.796875 C 291.941406 79.628906 295.429688 81.03125 297.3125 81.785156 C 296.964844 81.285156 296.539062 80.617188 296.070312 79.769531 C 295.8125 79.304688 295.671875 78.8125 295.652344 78.359375 C 295.640625 78.082031 295.671875 77.824219 295.75 77.589844 C 295.875 77.210938 296.117188 76.925781 296.429688 76.789062 C 296.46875 76.769531 296.511719 76.757812 296.554688 76.746094 C 297.308594 76.503906 298.25 77.011719 298.925781 77.496094 L 298.925781 59.757812 L 262.941406 59.757812 Z M 262.941406 59.761719 " fill-opacity="1" fill-rule="nonzero"/></g><path fill="#f9eee4" d="M 197.265625 74.214844 L 211.925781 68.335938 C 213.695312 71.480469 215.296875 74.375 216.453125 76.476562 L 198.371094 76.203125 C 198.015625 75.5625 197.648438 74.902344 197.265625 74.214844 Z M 217.542969 96.210938 C 217.925781 96.210938 218.4375 96.214844 219.046875 96.214844 L 219.046875 89.792969 C 216.820312 89.949219 211.628906 90.304688 206.023438 90.664062 C 208.910156 94.6875 213.660156 96.199219 217.542969 96.210938 Z M 182.230469 40.511719 C 187.066406 41.78125 188.179688 40.386719 188.378906 40.023438 C 188.773438 38.566406 189.265625 36.71875 189.613281 35.378906 C 189.667969 35.175781 189.875 35.054688 190.078125 35.105469 C 192.011719 35.597656 193.652344 35.472656 194.066406 34.796875 C 194.628906 33.886719 195.773438 30.757812 195.785156 30.726562 C 195.832031 30.601562 195.945312 30.507812 196.078125 30.484375 C 197.179688 30.292969 198.46875 29.832031 198.5625 29.476562 C 198.648438 29.148438 198.320312 28.296875 198.027344 27.546875 C 197.628906 26.519531 197.175781 25.351562 197.230469 24.394531 C 197.285156 23.445312 197.601562 22.574219 197.90625 21.730469 C 198.066406 21.289062 198.21875 20.863281 198.335938 20.433594 C 197.429688 20.515625 195.535156 20.554688 193.222656 19.875 C 191.019531 19.222656 189.390625 17.984375 188.75 17.441406 L 186.546875 19.953125 C 186.464844 20.046875 186.34375 20.09375 186.21875 20.082031 C 186.097656 20.066406 185.988281 19.996094 185.925781 19.886719 C 185.449219 19.035156 184.566406 17.996094 183.082031 17.878906 C 182.269531 17.8125 181.527344 18.097656 180.992188 18.679688 C 180.265625 19.476562 179.984375 20.730469 180.222656 22.121094 C 180.417969 23.234375 181.085938 24.382812 181.609375 25.148438 C 181.652344 25.207031 181.675781 25.273438 181.675781 25.347656 C 181.679688 25.445312 181.953125 33.699219 177.15625 37.398438 C 177.34375 38.078125 178.226562 39.460938 182.230469 40.511719 Z M 333.652344 59.777344 C 333.773438 59.835938 333.859375 59.953125 333.871094 60.089844 C 333.875 60.125 334.1875 63.4375 334.5 64.464844 C 334.734375 65.21875 336.289062 65.757812 338.285156 65.773438 C 338.492188 65.773438 338.664062 65.945312 338.664062 66.15625 C 338.660156 67.535156 338.667969 69.453125 338.679688 70.960938 C 338.78125 71.363281 339.503906 72.992188 344.503906 72.992188 C 350.179688 72.992188 350.34375 70.890625 350.34375 70.871094 L 350.34375 64.667969 L 348.269531 60.085938 C 348.199219 59.925781 348.242188 59.738281 348.378906 59.628906 C 349.105469 59.050781 350.082031 58.148438 350.589844 57.140625 C 351.226562 55.882812 351.324219 54.601562 350.859375 53.625 C 350.519531 52.910156 349.894531 52.421875 349.097656 52.246094 C 347.644531 51.929688 346.496094 52.664062 345.789062 53.339844 C 345.699219 53.425781 345.574219 53.460938 345.453125 53.4375 C 345.332031 53.414062 345.230469 53.332031 345.175781 53.21875 L 343.804688 50.175781 C 343.03125 50.507812 341.105469 51.214844 338.816406 51.191406 C 336.527344 51.171875 334.882812 50.519531 334.042969 50.089844 C 334.0625 50.339844 334.082031 50.589844 334.105469 50.847656 C 334.1875 51.742188 334.269531 52.667969 334.082031 53.597656 C 333.890625 54.539062 333.160156 55.550781 332.511719 56.445312 C 332.039062 57.097656 331.503906 57.835938 331.503906 58.175781 C 331.503906 58.542969 332.636719 59.316406 333.652344 59.777344 Z M 301.0625 97.332031 C 300.976562 97.308594 300.894531 97.28125 300.808594 97.257812 C 300.730469 97.234375 300.652344 97.210938 300.574219 97.1875 C 300.476562 97.15625 300.382812 97.128906 300.28125 97.097656 C 300.195312 97.070312 300.101562 97.042969 300.011719 97.015625 C 299.914062 96.984375 299.820312 96.957031 299.71875 96.925781 C 299.710938 96.921875 299.699219 96.917969 299.691406 96.917969 L 299.691406 108.203125 C 300.945312 109.082031 302.082031 109.839844 302.992188 110.390625 C 306.984375 112.796875 312.257812 111.910156 316.371094 108.46875 C 310.53125 104.230469 304.132812 99.511719 301.261719 97.390625 C 301.199219 97.371094 301.128906 97.351562 301.0625 97.332031 Z M 241.210938 42.441406 L 263.070312 58.996094 L 279.511719 58.996094 L 257.652344 42.441406 Z M 241.707031 85.589844 C 241.703125 85.574219 241.699219 85.5625 241.695312 85.546875 C 241.6875 85.519531 241.683594 85.492188 241.671875 85.464844 C 241.667969 85.460938 241.667969 85.457031 241.664062 85.449219 C 241.648438 85.414062 241.632812 85.382812 241.609375 85.347656 C 241.566406 85.285156 241.511719 85.222656 241.4375 85.15625 C 241.414062 85.136719 241.390625 85.117188 241.367188 85.09375 C 241.363281 85.09375 241.359375 85.089844 241.355469 85.085938 C 241.027344 84.832031 240.402344 84.546875 239.226562 84.3125 C 239.222656 84.3125 239.222656 84.3125 239.222656 84.3125 C 239.128906 84.292969 239.035156 84.277344 238.9375 84.261719 C 238.59375 84.296875 238.226562 84.328125 237.828125 84.351562 C 237.4375 84.371094 236.988281 84.378906 236.515625 84.378906 C 234.507812 84.378906 232.09375 84.222656 231.96875 84.214844 C 231.757812 84.199219 231.597656 84.015625 231.613281 83.808594 C 231.625 83.597656 231.8125 83.433594 232.019531 83.449219 C 232.054688 83.453125 235.773438 83.699219 237.785156 83.585938 C 238.226562 83.5625 238.621094 83.527344 238.976562 83.484375 C 239.070312 83.476562 239.15625 83.464844 239.242188 83.453125 C 239.289062 83.445312 239.335938 83.4375 239.378906 83.433594 C 239.457031 83.421875 239.527344 83.410156 239.59375 83.398438 C 239.648438 83.390625 239.699219 83.382812 239.746094 83.371094 C 239.800781 83.363281 239.855469 83.351562 239.90625 83.339844 C 239.960938 83.332031 240.015625 83.320312 240.070312 83.308594 C 240.109375 83.300781 240.152344 83.289062 240.191406 83.28125 C 240.246094 83.265625 240.296875 83.253906 240.347656 83.242188 C 240.386719 83.230469 240.417969 83.222656 240.453125 83.210938 C 240.5 83.199219 240.542969 83.183594 240.585938 83.171875 C 240.625 83.160156 240.660156 83.148438 240.695312 83.136719 C 240.726562 83.125 240.757812 83.113281 240.789062 83.105469 C 240.832031 83.085938 240.871094 83.070312 240.910156 83.054688 C 240.925781 83.050781 240.941406 83.042969 240.957031 83.035156 C 241.003906 83.015625 241.050781 82.996094 241.089844 82.972656 C 241.382812 82.824219 241.496094 82.683594 241.539062 82.59375 C 241.546875 82.570312 241.558594 82.550781 241.5625 82.53125 C 241.605469 82.335938 241.578125 82.171875 241.476562 82.015625 C 241.261719 81.695312 240.613281 81.242188 238.746094 80.917969 C 238.371094 80.851562 237.945312 80.777344 237.488281 80.695312 C 234.300781 80.125 229.609375 79.238281 229.554688 79.226562 C 229.378906 79.195312 229.25 79.046875 229.246094 78.867188 C 229.238281 78.691406 229.355469 78.53125 229.523438 78.484375 C 229.535156 78.480469 230.65625 78.167969 232.457031 77.226562 C 232.574219 77.164062 232.699219 77.097656 232.824219 77.027344 C 233.480469 76.667969 233.804688 76.183594 233.890625 75.847656 C 233.933594 75.671875 233.917969 75.515625 233.851562 75.414062 C 233.617188 75.0625 232.734375 74.917969 231.609375 75.050781 C 229.484375 75.296875 224.871094 76.023438 223.195312 76.453125 C 221.664062 76.839844 220.726562 77.261719 220.714844 77.265625 C 220.671875 77.285156 220.625 77.292969 220.578125 77.296875 C 220.574219 77.296875 220.570312 77.300781 220.5625 77.300781 C 220.558594 77.300781 220.554688 77.300781 220.550781 77.300781 L 190.484375 76.851562 C 190.347656 76.851562 190.222656 76.777344 190.15625 76.660156 L 183.761719 65.558594 L 168.777344 71.566406 C 169.46875 72.792969 171.894531 76.988281 176.367188 83.777344 C 178.476562 86.984375 182.058594 90.816406 187.121094 90.871094 C 191.660156 90.917969 214.765625 89.324219 219.351562 89.007812 C 219.359375 89.007812 219.371094 89.007812 219.378906 89.007812 C 219.414062 89.007812 219.449219 89.011719 219.484375 89.019531 C 221.925781 89.722656 226.472656 90.953125 229.523438 91.347656 L 229.777344 91.378906 C 231.535156 91.605469 233.519531 91.863281 235.464844 91.882812 C 238.109375 91.910156 239.179688 91.480469 239.300781 91.074219 C 239.320312 91.003906 239.359375 90.886719 239.320312 90.734375 C 239.320312 90.730469 239.320312 90.726562 239.316406 90.726562 C 239.3125 90.707031 239.308594 90.6875 239.300781 90.667969 C 239.238281 90.5 239.085938 90.296875 238.746094 90.082031 C 238.257812 90.132812 237.710938 90.167969 237.097656 90.179688 C 237.003906 90.179688 236.902344 90.183594 236.800781 90.183594 C 234.691406 90.183594 231.207031 89.824219 231.054688 89.808594 C 230.84375 89.785156 230.691406 89.597656 230.710938 89.390625 C 230.734375 89.179688 230.925781 89.023438 231.132812 89.046875 C 231.171875 89.050781 235.070312 89.453125 237.082031 89.414062 C 237.746094 89.402344 238.308594 89.363281 238.78125 89.308594 C 238.785156 89.308594 238.785156 89.308594 238.789062 89.304688 C 240.378906 89.117188 240.773438 88.738281 240.871094 88.5625 C 240.878906 88.539062 240.890625 88.519531 240.894531 88.5 C 240.894531 88.5 240.894531 88.5 240.894531 88.496094 C 240.90625 88.457031 240.921875 88.394531 240.925781 88.320312 C 240.929688 88.207031 240.898438 88.066406 240.773438 87.902344 C 240.664062 87.757812 240.46875 87.597656 240.148438 87.429688 C 239.542969 87.550781 238.8125 87.632812 237.960938 87.679688 C 237.710938 87.695312 237.429688 87.699219 237.128906 87.699219 C 234.933594 87.699219 231.636719 87.378906 231.480469 87.363281 C 231.269531 87.34375 231.117188 87.15625 231.136719 86.945312 C 231.160156 86.738281 231.339844 86.582031 231.554688 86.605469 C 231.597656 86.609375 235.914062 87.027344 237.917969 86.917969 C 238.84375 86.867188 239.566406 86.773438 240.128906 86.652344 C 240.128906 86.652344 240.128906 86.652344 240.132812 86.652344 C 241.15625 86.433594 241.511719 86.164062 241.636719 85.984375 C 241.640625 85.976562 241.648438 85.964844 241.652344 85.957031 C 241.660156 85.949219 241.664062 85.941406 241.667969 85.929688 C 241.679688 85.910156 241.6875 85.886719 241.695312 85.863281 C 241.703125 85.8125 241.710938 85.765625 241.714844 85.722656 C 241.714844 85.707031 241.710938 85.695312 241.710938 85.683594 C 241.710938 85.648438 241.710938 85.617188 241.707031 85.589844 Z M 339.726562 93.921875 L 333.039062 101.90625 C 332.917969 102.050781 332.707031 102.085938 332.546875 101.988281 L 306.941406 86.21875 C 306.9375 86.21875 306.9375 86.210938 306.933594 86.210938 C 306.890625 86.183594 306.851562 86.148438 306.824219 86.101562 C 306.824219 86.101562 306.8125 86.085938 306.796875 86.0625 C 306.738281 85.976562 306.589844 85.765625 306.359375 85.46875 C 306.082031 85.113281 305.6875 84.632812 305.171875 84.085938 C 304.285156 83.140625 302.09375 81.167969 300.351562 79.667969 C 299.773438 79.167969 299.242188 78.722656 298.828125 78.386719 C 298.054688 77.757812 297.332031 77.410156 296.90625 77.445312 C 296.886719 77.449219 296.867188 77.457031 296.847656 77.460938 C 296.8125 77.46875 296.773438 77.472656 296.742188 77.488281 C 296.628906 77.539062 296.535156 77.660156 296.476562 77.832031 C 296.433594 77.957031 296.410156 78.113281 296.414062 78.300781 C 296.421875 78.609375 296.511719 78.992188 296.738281 79.402344 C 297.847656 81.40625 298.730469 82.390625 298.738281 82.402344 C 298.859375 82.53125 298.871094 82.730469 298.769531 82.875 C 298.667969 83.019531 298.480469 83.078125 298.3125 83.011719 C 298.3125 83.011719 298.304688 83.007812 298.292969 83.003906 C 298.027344 82.898438 295.449219 81.867188 292.957031 80.855469 C 291.742188 80.363281 290.546875 79.875 289.652344 79.503906 C 287.902344 78.773438 287.113281 78.804688 286.761719 78.960938 C 286.589844 79.039062 286.480469 79.160156 286.410156 79.351562 C 286.40625 79.371094 286.402344 79.394531 286.398438 79.417969 C 286.394531 79.4375 286.394531 79.460938 286.394531 79.484375 C 286.394531 79.488281 286.394531 79.488281 286.394531 79.492188 C 286.398438 79.59375 286.4375 79.753906 286.566406 79.972656 C 286.570312 79.976562 286.574219 79.980469 286.574219 79.984375 C 286.597656 80.019531 286.621094 80.058594 286.648438 80.097656 C 286.660156 80.117188 286.671875 80.132812 286.683594 80.148438 C 286.703125 80.179688 286.726562 80.214844 286.753906 80.246094 C 286.773438 80.273438 286.796875 80.304688 286.820312 80.332031 C 286.84375 80.359375 286.863281 80.386719 286.886719 80.414062 C 286.917969 80.449219 286.949219 80.488281 286.984375 80.527344 C 287.007812 80.550781 287.027344 80.574219 287.050781 80.597656 C 287.085938 80.640625 287.128906 80.679688 287.167969 80.722656 C 287.195312 80.75 287.222656 80.777344 287.25 80.804688 C 287.289062 80.84375 287.332031 80.886719 287.375 80.925781 C 287.410156 80.960938 287.449219 80.996094 287.488281 81.035156 C 287.527344 81.070312 287.566406 81.105469 287.605469 81.140625 C 287.65625 81.1875 287.710938 81.234375 287.765625 81.28125 C 287.800781 81.3125 287.835938 81.34375 287.871094 81.375 C 287.9375 81.429688 288.007812 81.488281 288.078125 81.546875 C 288.355469 81.773438 288.667969 82.011719 289.027344 82.269531 C 290.664062 83.441406 293.933594 85.234375 293.964844 85.25 C 294.152344 85.351562 294.21875 85.585938 294.117188 85.769531 C 294.015625 85.953125 293.785156 86.023438 293.597656 85.921875 C 293.464844 85.847656 290.257812 84.089844 288.582031 82.890625 C 288.257812 82.660156 287.964844 82.433594 287.695312 82.21875 C 287.65625 82.203125 287.617188 82.1875 287.578125 82.171875 C 287.527344 82.152344 287.476562 82.128906 287.429688 82.113281 C 287.371094 82.089844 287.316406 82.070312 287.261719 82.046875 C 287.21875 82.03125 287.175781 82.015625 287.136719 82 C 287.082031 81.980469 287.03125 81.964844 286.980469 81.949219 C 286.941406 81.933594 286.898438 81.917969 286.859375 81.90625 C 286.816406 81.890625 286.777344 81.878906 286.738281 81.867188 C 286.695312 81.851562 286.648438 81.839844 286.605469 81.824219 C 286.574219 81.816406 286.542969 81.808594 286.511719 81.796875 C 286.464844 81.785156 286.417969 81.769531 286.371094 81.761719 C 286.339844 81.75 286.3125 81.746094 286.277344 81.738281 C 286.238281 81.726562 286.195312 81.714844 286.15625 81.707031 C 286.117188 81.699219 286.078125 81.691406 286.039062 81.683594 C 286.015625 81.679688 285.984375 81.671875 285.960938 81.667969 C 285.914062 81.660156 285.871094 81.652344 285.824219 81.644531 C 285.8125 81.644531 285.792969 81.640625 285.78125 81.636719 C 285.667969 81.621094 285.5625 81.613281 285.46875 81.609375 C 285.46875 81.609375 285.46875 81.609375 285.464844 81.609375 C 285.203125 81.601562 285.019531 81.636719 284.886719 81.6875 C 284.878906 81.691406 284.867188 81.695312 284.855469 81.699219 C 284.6875 81.777344 284.574219 81.898438 284.507812 82.089844 C 284.5 82.109375 284.496094 82.136719 284.492188 82.160156 C 284.492188 82.171875 284.492188 82.179688 284.492188 82.191406 C 284.492188 82.203125 284.492188 82.210938 284.492188 82.222656 C 284.5 82.4375 284.652344 82.859375 285.398438 83.59375 C 285.402344 83.59375 285.402344 83.597656 285.402344 83.597656 C 285.8125 84 286.371094 84.46875 287.125 85.007812 C 288.757812 86.175781 292.621094 88.136719 292.660156 88.15625 C 292.847656 88.253906 292.921875 88.484375 292.828125 88.671875 C 292.761719 88.804688 292.625 88.878906 292.484375 88.878906 C 292.429688 88.878906 292.367188 88.867188 292.3125 88.839844 C 292.152344 88.757812 288.355469 86.832031 286.679688 85.628906 C 285.984375 85.128906 285.414062 84.667969 284.96875 84.242188 C 283.953125 84.15625 283.816406 84.578125 283.765625 84.742188 C 283.757812 84.761719 283.753906 84.785156 283.75 84.808594 C 283.738281 85.015625 283.871094 85.542969 285.105469 86.554688 C 285.109375 86.554688 285.109375 86.558594 285.109375 86.558594 C 285.480469 86.859375 285.933594 87.195312 286.484375 87.5625 C 288.164062 88.671875 291.667969 90.429688 291.703125 90.449219 C 291.890625 90.542969 291.96875 90.769531 291.875 90.960938 C 291.808594 91.09375 291.671875 91.171875 291.53125 91.171875 C 291.472656 91.171875 291.414062 91.15625 291.359375 91.128906 C 291.214844 91.058594 287.78125 89.335938 286.0625 88.199219 C 285.554688 87.859375 285.113281 87.539062 284.730469 87.234375 C 284.695312 87.234375 284.660156 87.234375 284.628906 87.234375 C 284.578125 87.234375 284.527344 87.238281 284.480469 87.242188 C 284.441406 87.246094 284.402344 87.253906 284.367188 87.261719 C 284.324219 87.269531 284.277344 87.273438 284.242188 87.285156 C 284.210938 87.292969 284.1875 87.304688 284.164062 87.3125 C 284.128906 87.324219 284.089844 87.335938 284.0625 87.351562 C 284.042969 87.359375 284.027344 87.371094 284.011719 87.382812 C 283.980469 87.398438 283.953125 87.414062 283.929688 87.433594 C 283.917969 87.445312 283.910156 87.453125 283.898438 87.464844 C 283.878906 87.484375 283.855469 87.503906 283.839844 87.523438 C 283.832031 87.53125 283.828125 87.542969 283.824219 87.550781 C 283.808594 87.570312 283.792969 87.59375 283.78125 87.613281 C 283.777344 87.625 283.773438 87.632812 283.769531 87.644531 C 283.761719 87.660156 283.753906 87.679688 283.746094 87.699219 C 283.738281 87.722656 283.730469 87.75 283.722656 87.769531 C 283.605469 88.179688 284.28125 89.113281 286.523438 90.511719 C 288.171875 91.539062 289.988281 92.390625 291.589844 93.140625 L 291.824219 93.25 C 294.609375 94.558594 299.109375 95.960938 301.542969 96.679688 C 301.585938 96.691406 301.625 96.710938 301.660156 96.738281 C 305.359375 99.472656 323.996094 113.226562 327.84375 115.617188 C 331.277344 117.753906 336.769531 118.109375 340.632812 114.664062 C 345.9375 109.929688 350.429688 104.179688 351.46875 102.8125 Z M 339.726562 93.921875 " fill-opacity="1" fill-rule="nonzero"/><g clip-path="url(#211aa41b35)"><path fill="#cfe2ce" d="M 239.515625 42.464844 L 259.195312 42.464844 L 259.195312 53.730469 L 239.515625 53.730469 Z M 239.515625 42.464844 " fill-opacity="1" fill-rule="nonzero"/></g><g clip-path="url(#f8acfac494)"><path fill="#cfe2ce" d="M 254.097656 42.464844 L 273.773438 42.464844 L 273.773438 53.730469 L 254.097656 53.730469 Z M 254.097656 42.464844 " fill-opacity="1" fill-rule="nonzero"/></g><g clip-path="url(#fc96e33c23)"><path fill="#cfe2ce" d="M 254.097656 48.097656 L 273.773438 48.097656 L 273.773438 59.183594 L 254.097656 59.183594 Z M 254.097656 48.097656 " fill-opacity="1" fill-rule="nonzero"/></g><g clip-path="url(#e863262a22)"><path fill="#cfe2ce" d="M 261.503906 47.921875 L 281.183594 47.921875 L 281.183594 59.183594 L 261.503906 59.183594 Z M 261.503906 47.921875 " fill-opacity="1" fill-rule="nonzero"/></g><g clip-path="url(#3156121e86)"><path fill="#fbbb0b" d="M 281.871094 82.925781 C 280.019531 73.335938 268.410156 73.175781 265.550781 82.140625 C 262.6875 73.175781 251.082031 73.335938 249.230469 82.925781 C 247.550781 91.621094 265.550781 105.34375 265.550781 105.34375 C 265.550781 105.34375 283.550781 91.621094 281.871094 82.925781 Z M 281.871094 82.925781 " fill-opacity="1" fill-rule="nonzero"/></g><g fill="#4c644b" fill-opacity="1"><g transform="translate(39.407719, 173.98299)"><g><path d="M 12.90625 0 L 12.90625 -6.265625 L 7.078125 -6.265625 L 7.078125 0 L 1.78125 0 L 1.78125 -16.515625 L 7.078125 -16.515625 L 7.078125 -10.484375 L 12.90625 -10.484375 L 12.90625 -16.515625 L 18.21875 -16.515625 L 18.21875 0 Z M 12.90625 0 "/></g></g></g><g fill="#4c644b" fill-opacity="1"><g transform="translate(59.399757, 173.98299)"><g><path d="M 7.984375 -12.953125 C 10.304688 -12.953125 12.078125 -12.410156 13.296875 -11.328125 C 14.523438 -10.242188 15.140625 -8.582031 15.140625 -6.34375 L 15.140625 -5.515625 L 5.640625 -5.515625 C 5.640625 -4.609375 5.84375 -3.921875 6.25 -3.453125 C 6.65625 -2.992188 7.300781 -2.765625 8.1875 -2.765625 C 8.988281 -2.765625 9.578125 -2.929688 9.953125 -3.265625 C 10.328125 -3.597656 10.515625 -4.046875 10.515625 -4.609375 L 15.140625 -4.609375 C 15.140625 -3.066406 14.554688 -1.863281 13.390625 -1 C 12.222656 -0.144531 10.519531 0.28125 8.28125 0.28125 C 5.925781 0.28125 4.097656 -0.265625 2.796875 -1.359375 C 1.503906 -2.453125 0.859375 -4.113281 0.859375 -6.34375 C 0.859375 -8.507812 1.488281 -10.148438 2.75 -11.265625 C 4.019531 -12.390625 5.765625 -12.953125 7.984375 -12.953125 Z M 8.1875 -9.90625 C 6.675781 -9.90625 5.832031 -9.195312 5.65625 -7.78125 L 10.3125 -7.78125 C 10.3125 -8.4375 10.125 -8.953125 9.75 -9.328125 C 9.375 -9.710938 8.851562 -9.90625 8.1875 -9.90625 Z M 8.1875 -9.90625 "/></g></g></g><g fill="#4c644b" fill-opacity="1"><g transform="translate(75.407786, 173.98299)"><g><path d="M 1.609375 0 L 1.609375 -17.40625 L 6.390625 -17.40625 L 6.390625 0 Z M 1.609375 0 "/></g></g></g><g fill="#4c644b" fill-opacity="1"><g transform="translate(83.399801, 173.98299)"><g><path d="M 9.796875 -12.953125 C 11.503906 -12.953125 12.820312 -12.390625 13.75 -11.265625 C 14.675781 -10.148438 15.140625 -8.5 15.140625 -6.3125 C 15.140625 -4.132812 14.675781 -2.488281 13.75 -1.375 C 12.820312 -0.269531 11.503906 0.28125 9.796875 0.28125 C 8.316406 0.28125 7.128906 -0.195312 6.234375 -1.15625 L 6.234375 4.734375 L 1.46875 4.734375 L 1.46875 -12.671875 L 5.359375 -12.671875 L 5.765625 -10.875 C 6.691406 -12.257812 8.035156 -12.953125 9.796875 -12.953125 Z M 8.296875 -9.4375 C 7.597656 -9.4375 7.070312 -9.1875 6.71875 -8.6875 C 6.363281 -8.1875 6.1875 -7.539062 6.1875 -6.75 L 6.1875 -5.953125 C 6.1875 -5.148438 6.363281 -4.492188 6.71875 -3.984375 C 7.070312 -3.484375 7.597656 -3.234375 8.296875 -3.234375 C 9.679688 -3.234375 10.375 -4.0625 10.375 -5.71875 L 10.375 -6.984375 C 10.375 -8.617188 9.679688 -9.4375 8.296875 -9.4375 Z M 8.296875 -9.4375 "/></g></g></g><g fill="#4c644b" fill-opacity="1"><g transform="translate(99.40783, 173.98299)"><g/></g></g><g fill="#4c644b" fill-opacity="1"><g transform="translate(107.399845, 173.98299)"><g><path d="M 7.703125 -12.953125 C 9.640625 -12.953125 11.210938 -12.628906 12.421875 -11.984375 C 13.640625 -11.335938 14.25 -10.285156 14.25 -8.828125 L 14.25 -3.890625 C 14.25 -3.617188 14.3125 -3.394531 14.4375 -3.21875 C 14.570312 -3.039062 14.769531 -2.953125 15.03125 -2.953125 L 15.890625 -2.953125 L 15.890625 -0.1875 C 15.835938 -0.15625 15.710938 -0.101562 15.515625 -0.03125 C 15.316406 0.0390625 15.03125 0.109375 14.65625 0.171875 C 14.289062 0.242188 13.867188 0.28125 13.390625 0.28125 C 12.460938 0.28125 11.695312 0.144531 11.09375 -0.125 C 10.5 -0.40625 10.085938 -0.796875 9.859375 -1.296875 C 9.253906 -0.816406 8.578125 -0.429688 7.828125 -0.140625 C 7.078125 0.140625 6.195312 0.28125 5.1875 0.28125 C 2.207031 0.28125 0.71875 -0.898438 0.71875 -3.265625 C 0.71875 -4.492188 1.050781 -5.429688 1.71875 -6.078125 C 2.382812 -6.734375 3.335938 -7.179688 4.578125 -7.421875 C 5.828125 -7.660156 7.460938 -7.78125 9.484375 -7.78125 L 9.484375 -8.40625 C 9.484375 -8.894531 9.3125 -9.265625 8.96875 -9.515625 C 8.625 -9.773438 8.175781 -9.90625 7.625 -9.90625 C 7.132812 -9.90625 6.707031 -9.816406 6.34375 -9.640625 C 5.988281 -9.472656 5.8125 -9.195312 5.8125 -8.8125 L 5.8125 -8.71875 L 1.109375 -8.71875 C 1.085938 -8.789062 1.078125 -8.898438 1.078125 -9.046875 C 1.078125 -10.242188 1.648438 -11.191406 2.796875 -11.890625 C 3.941406 -12.597656 5.578125 -12.953125 7.703125 -12.953125 Z M 9.484375 -5.515625 C 8.117188 -5.515625 7.113281 -5.363281 6.46875 -5.0625 C 5.820312 -4.769531 5.5 -4.378906 5.5 -3.890625 C 5.5 -3.085938 6.039062 -2.6875 7.125 -2.6875 C 7.75 -2.6875 8.296875 -2.851562 8.765625 -3.1875 C 9.242188 -3.53125 9.484375 -3.945312 9.484375 -4.4375 Z M 9.484375 -5.515625 "/></g></g></g><g fill="#4c644b" fill-opacity="1"><g transform="translate(123.407874, 173.98299)"><g/></g></g><g fill="#4c644b" fill-opacity="1"><g transform="translate(131.39989, 173.98299)"><g><path d="M 1.78125 -16.515625 L 15.125 -16.515625 L 15.125 -12.546875 L 7.078125 -12.546875 L 7.078125 -9.71875 L 13.984375 -9.71875 L 13.984375 -5.921875 L 7.078125 -5.921875 L 7.078125 0 L 1.78125 0 Z M 1.78125 -16.515625 "/></g></g></g><g fill="#4c644b" fill-opacity="1"><g transform="translate(147.407918, 173.98299)"><g><path d="M 7.703125 -12.953125 C 9.640625 -12.953125 11.210938 -12.628906 12.421875 -11.984375 C 13.640625 -11.335938 14.25 -10.285156 14.25 -8.828125 L 14.25 -3.890625 C 14.25 -3.617188 14.3125 -3.394531 14.4375 -3.21875 C 14.570312 -3.039062 14.769531 -2.953125 15.03125 -2.953125 L 15.890625 -2.953125 L 15.890625 -0.1875 C 15.835938 -0.15625 15.710938 -0.101562 15.515625 -0.03125 C 15.316406 0.0390625 15.03125 0.109375 14.65625 0.171875 C 14.289062 0.242188 13.867188 0.28125 13.390625 0.28125 C 12.460938 0.28125 11.695312 0.144531 11.09375 -0.125 C 10.5 -0.40625 10.085938 -0.796875 9.859375 -1.296875 C 9.253906 -0.816406 8.578125 -0.429688 7.828125 -0.140625 C 7.078125 0.140625 6.195312 0.28125 5.1875 0.28125 C 2.207031 0.28125 0.71875 -0.898438 0.71875 -3.265625 C 0.71875 -4.492188 1.050781 -5.429688 1.71875 -6.078125 C 2.382812 -6.734375 3.335938 -7.179688 4.578125 -7.421875 C 5.828125 -7.660156 7.460938 -7.78125 9.484375 -7.78125 L 9.484375 -8.40625 C 9.484375 -8.894531 9.3125 -9.265625 8.96875 -9.515625 C 8.625 -9.773438 8.175781 -9.90625 7.625 -9.90625 C 7.132812 -9.90625 6.707031 -9.816406 6.34375 -9.640625 C 5.988281 -9.472656 5.8125 -9.195312 5.8125 -8.8125 L 5.8125 -8.71875 L 1.109375 -8.71875 C 1.085938 -8.789062 1.078125 -8.898438 1.078125 -9.046875 C 1.078125 -10.242188 1.648438 -11.191406 2.796875 -11.890625 C 3.941406 -12.597656 5.578125 -12.953125 7.703125 -12.953125 Z M 9.484375 -5.515625 C 8.117188 -5.515625 7.113281 -5.363281 6.46875 -5.0625 C 5.820312 -4.769531 5.5 -4.378906 5.5 -3.890625 C 5.5 -3.085938 6.039062 -2.6875 7.125 -2.6875 C 7.75 -2.6875 8.296875 -2.851562 8.765625 -3.1875 C 9.242188 -3.53125 9.484375 -3.945312 9.484375 -4.4375 Z M 9.484375 -5.515625 "/></g></g></g><g fill="#4c644b" fill-opacity="1"><g transform="translate(163.415947, 173.98299)"><g><path d="M 9.140625 -12.984375 C 9.515625 -12.984375 9.84375 -12.9375 10.125 -12.84375 C 10.414062 -12.757812 10.5625 -12.710938 10.5625 -12.703125 L 10.5625 -8.6875 L 9.03125 -8.6875 C 8.03125 -8.6875 7.3125 -8.429688 6.875 -7.921875 C 6.4375 -7.410156 6.21875 -6.648438 6.21875 -5.640625 L 6.21875 0 L 1.4375 0 L 1.4375 -12.671875 L 5.359375 -12.671875 L 5.65625 -10.75 C 5.945312 -11.488281 6.40625 -12.046875 7.03125 -12.421875 C 7.65625 -12.796875 8.359375 -12.984375 9.140625 -12.984375 Z M 9.140625 -12.984375 "/></g></g></g><g fill="#4c644b" fill-opacity="1"><g transform="translate(174.071964, 173.98299)"><g><path d="M 18.265625 -12.953125 C 19.703125 -12.953125 20.78125 -12.539062 21.5 -11.71875 C 22.21875 -10.894531 22.578125 -9.722656 22.578125 -8.203125 L 22.578125 0 L 17.8125 0 L 17.8125 -7.625 C 17.8125 -8.175781 17.675781 -8.613281 17.40625 -8.9375 C 17.144531 -9.269531 16.773438 -9.4375 16.296875 -9.4375 C 15.734375 -9.4375 15.273438 -9.242188 14.921875 -8.859375 C 14.578125 -8.472656 14.40625 -8 14.40625 -7.4375 L 14.40625 0 L 9.625 0 L 9.625 -7.625 C 9.625 -8.175781 9.488281 -8.613281 9.21875 -8.9375 C 8.957031 -9.269531 8.585938 -9.4375 8.109375 -9.4375 C 7.546875 -9.4375 7.085938 -9.242188 6.734375 -8.859375 C 6.390625 -8.472656 6.21875 -8 6.21875 -7.4375 L 6.21875 0 L 1.4375 0 L 1.4375 -12.671875 L 5.359375 -12.671875 L 5.65625 -10.78125 C 6.144531 -11.445312 6.785156 -11.972656 7.578125 -12.359375 C 8.367188 -12.753906 9.203125 -12.953125 10.078125 -12.953125 C 11.984375 -12.953125 13.265625 -12.226562 13.921875 -10.78125 C 14.410156 -11.445312 15.039062 -11.972656 15.8125 -12.359375 C 16.59375 -12.753906 17.410156 -12.953125 18.265625 -12.953125 Z M 18.265625 -12.953125 "/></g></g></g><g fill="#4c644b" fill-opacity="1"><g transform="translate(198.072008, 173.98299)"><g><path d="M 7.984375 -12.953125 C 10.304688 -12.953125 12.078125 -12.410156 13.296875 -11.328125 C 14.523438 -10.242188 15.140625 -8.582031 15.140625 -6.34375 L 15.140625 -5.515625 L 5.640625 -5.515625 C 5.640625 -4.609375 5.84375 -3.921875 6.25 -3.453125 C 6.65625 -2.992188 7.300781 -2.765625 8.1875 -2.765625 C 8.988281 -2.765625 9.578125 -2.929688 9.953125 -3.265625 C 10.328125 -3.597656 10.515625 -4.046875 10.515625 -4.609375 L 15.140625 -4.609375 C 15.140625 -3.066406 14.554688 -1.863281 13.390625 -1 C 12.222656 -0.144531 10.519531 0.28125 8.28125 0.28125 C 5.925781 0.28125 4.097656 -0.265625 2.796875 -1.359375 C 1.503906 -2.453125 0.859375 -4.113281 0.859375 -6.34375 C 0.859375 -8.507812 1.488281 -10.148438 2.75 -11.265625 C 4.019531 -12.390625 5.765625 -12.953125 7.984375 -12.953125 Z M 8.1875 -9.90625 C 6.675781 -9.90625 5.832031 -9.195312 5.65625 -7.78125 L 10.3125 -7.78125 C 10.3125 -8.4375 10.125 -8.953125 9.75 -9.328125 C 9.375 -9.710938 8.851562 -9.90625 8.1875 -9.90625 Z M 8.1875 -9.90625 "/></g></g></g><g fill="#4c644b" fill-opacity="1"><g transform="translate(214.080037, 173.98299)"><g><path d="M 9.140625 -12.984375 C 9.515625 -12.984375 9.84375 -12.9375 10.125 -12.84375 C 10.414062 -12.757812 10.5625 -12.710938 10.5625 -12.703125 L 10.5625 -8.6875 L 9.03125 -8.6875 C 8.03125 -8.6875 7.3125 -8.429688 6.875 -7.921875 C 6.4375 -7.410156 6.21875 -6.648438 6.21875 -5.640625 L 6.21875 0 L 1.4375 0 L 1.4375 -12.671875 L 5.359375 -12.671875 L 5.65625 -10.75 C 5.945312 -11.488281 6.40625 -12.046875 7.03125 -12.421875 C 7.65625 -12.796875 8.359375 -12.984375 9.140625 -12.984375 Z M 9.140625 -12.984375 "/></g></g></g><g fill="#4c644b" fill-opacity="1"><g transform="translate(64.003368, 195.316393)"><g><path d="M 9.84375 -12.609375 L 9.84375 -11.34375 L 5.890625 -11.34375 L 5.890625 0 L 4.421875 0 L 4.421875 -11.34375 L 0.46875 -11.34375 L 0.46875 -12.609375 Z M 9.84375 -12.609375 "/></g></g></g><g fill="#4c644b" fill-opacity="1"><g transform="translate(74.299377, 195.316393)"><g><path d="M 1.65625 0 L 1.65625 -13.328125 L 3.0625 -13.328125 L 3.0625 -8.15625 L 3.234375 -8.125 C 3.921875 -9.164062 4.90625 -9.6875 6.1875 -9.6875 C 7.320312 -9.6875 8.144531 -9.394531 8.65625 -8.8125 C 9.175781 -8.226562 9.4375 -7.332031 9.4375 -6.125 L 9.4375 0 L 8.03125 0 L 8.03125 -6.09375 C 8.03125 -6.664062 7.957031 -7.125 7.8125 -7.46875 C 7.664062 -7.8125 7.4375 -8.0625 7.125 -8.21875 C 6.820312 -8.382812 6.421875 -8.46875 5.921875 -8.46875 C 5.054688 -8.46875 4.363281 -8.1875 3.84375 -7.625 C 3.320312 -7.070312 3.0625 -6.15625 3.0625 -4.875 L 3.0625 0 Z M 1.65625 0 "/></g></g></g><g fill="#4c644b" fill-opacity="1"><g transform="translate(85.250742, 195.316393)"><g><path d="M 1.65625 0 L 1.65625 -9.515625 L 2.984375 -9.515625 L 2.984375 -8.015625 L 3.171875 -7.96875 C 3.617188 -9.050781 4.453125 -9.59375 5.671875 -9.59375 C 6.316406 -9.59375 6.800781 -9.472656 7.125 -9.234375 L 6.765625 -8.046875 L 6.59375 -8.015625 C 6.238281 -8.191406 5.847656 -8.28125 5.421875 -8.28125 C 4.660156 -8.28125 4.078125 -7.992188 3.671875 -7.421875 C 3.265625 -6.859375 3.0625 -5.941406 3.0625 -4.671875 L 3.0625 0 Z M 1.65625 0 "/></g></g></g><g fill="#4c644b" fill-opacity="1"><g transform="translate(92.597643, 195.316393)"><g><path d="M 5.453125 0.1875 C 4.554688 0.1875 3.773438 0 3.109375 -0.375 C 2.453125 -0.757812 1.941406 -1.320312 1.578125 -2.0625 C 1.222656 -2.800781 1.046875 -3.695312 1.046875 -4.75 C 1.046875 -5.800781 1.222656 -6.695312 1.578125 -7.4375 C 1.941406 -8.175781 2.453125 -8.734375 3.109375 -9.109375 C 3.773438 -9.492188 4.554688 -9.6875 5.453125 -9.6875 C 6.347656 -9.6875 7.128906 -9.492188 7.796875 -9.109375 C 8.460938 -8.734375 8.972656 -8.175781 9.328125 -7.4375 C 9.691406 -6.695312 9.875 -5.800781 9.875 -4.75 C 9.875 -3.695312 9.691406 -2.800781 9.328125 -2.0625 C 8.972656 -1.320312 8.460938 -0.757812 7.796875 -0.375 C 7.128906 0 6.347656 0.1875 5.453125 0.1875 Z M 5.453125 -1.078125 C 6.398438 -1.078125 7.125 -1.375 7.625 -1.96875 C 8.132812 -2.570312 8.390625 -3.5 8.390625 -4.75 C 8.390625 -6.007812 8.132812 -6.9375 7.625 -7.53125 C 7.125 -8.132812 6.398438 -8.4375 5.453125 -8.4375 C 4.503906 -8.4375 3.773438 -8.132812 3.265625 -7.53125 C 2.765625 -6.925781 2.515625 -6 2.515625 -4.75 C 2.515625 -3.5 2.765625 -2.570312 3.265625 -1.96875 C 3.773438 -1.375 4.503906 -1.078125 5.453125 -1.078125 Z M 5.453125 -1.078125 "/></g></g></g><g fill="#4c644b" fill-opacity="1"><g transform="translate(103.514516, 195.316393)"><g><path d="M 4.703125 0.1875 C 3.628906 0.1875 2.828125 -0.0976562 2.296875 -0.671875 C 1.773438 -1.242188 1.515625 -2.078125 1.515625 -3.171875 L 1.515625 -9.515625 L 2.90625 -9.515625 L 2.90625 -3.203125 C 2.90625 -1.765625 3.585938 -1.046875 4.953125 -1.046875 C 5.804688 -1.046875 6.484375 -1.328125 6.984375 -1.890625 C 7.484375 -2.453125 7.734375 -3.363281 7.734375 -4.625 L 7.734375 -9.515625 L 9.140625 -9.515625 L 9.140625 0 L 7.8125 0 L 7.8125 -1.484375 L 7.640625 -1.53125 C 7.304688 -0.945312 6.910156 -0.515625 6.453125 -0.234375 C 6.003906 0.046875 5.421875 0.1875 4.703125 0.1875 Z M 4.703125 0.1875 "/></g></g></g><g fill="#4c644b" fill-opacity="1"><g transform="translate(114.319294, 195.316393)"><g><path d="M 4.890625 4.03125 C 3.390625 4.03125 2.296875 3.78125 1.609375 3.28125 C 0.921875 2.78125 0.578125 2.117188 0.578125 1.296875 C 0.578125 0.753906 0.738281 0.328125 1.0625 0.015625 C 1.382812 -0.296875 1.851562 -0.519531 2.46875 -0.65625 L 2.46875 -0.84375 C 2.175781 -1.007812 1.957031 -1.203125 1.8125 -1.421875 C 1.664062 -1.648438 1.59375 -1.921875 1.59375 -2.234375 C 1.59375 -2.597656 1.707031 -2.894531 1.9375 -3.125 C 2.164062 -3.351562 2.507812 -3.53125 2.96875 -3.65625 L 2.96875 -3.84375 C 1.9375 -4.382812 1.421875 -5.269531 1.421875 -6.5 C 1.421875 -7.125 1.5625 -7.675781 1.84375 -8.15625 C 2.125 -8.632812 2.523438 -9.007812 3.046875 -9.28125 C 3.578125 -9.550781 4.1875 -9.6875 4.875 -9.6875 C 5.675781 -9.6875 6.34375 -9.515625 6.875 -9.171875 C 7.082031 -9.390625 7.234375 -9.625 7.328125 -9.875 C 7.429688 -10.132812 7.5 -10.425781 7.53125 -10.75 L 7.703125 -10.859375 L 8.859375 -10.59375 C 8.804688 -10.101562 8.660156 -9.691406 8.421875 -9.359375 C 8.191406 -9.023438 7.863281 -8.75 7.4375 -8.53125 L 7.4375 -8.359375 C 7.738281 -8.109375 7.960938 -7.820312 8.109375 -7.5 C 8.265625 -7.175781 8.34375 -6.800781 8.34375 -6.375 C 8.34375 -5.769531 8.195312 -5.226562 7.90625 -4.75 C 7.613281 -4.28125 7.207031 -3.90625 6.6875 -3.625 C 6.164062 -3.351562 5.5625 -3.21875 4.875 -3.21875 C 4.800781 -3.21875 4.660156 -3.222656 4.453125 -3.234375 C 4.222656 -3.253906 4.050781 -3.265625 3.9375 -3.265625 C 3.632812 -3.265625 3.394531 -3.1875 3.21875 -3.03125 C 3.039062 -2.875 2.953125 -2.675781 2.953125 -2.4375 C 2.953125 -2.132812 3.046875 -1.910156 3.234375 -1.765625 C 3.429688 -1.628906 3.753906 -1.550781 4.203125 -1.53125 L 6.453125 -1.453125 C 7.421875 -1.421875 8.140625 -1.195312 8.609375 -0.78125 C 9.078125 -0.363281 9.3125 0.222656 9.3125 0.984375 C 9.3125 1.554688 9.15625 2.070312 8.84375 2.53125 C 8.539062 2.988281 8.0625 3.351562 7.40625 3.625 C 6.75 3.894531 5.910156 4.03125 4.890625 4.03125 Z M 4.875 -4.4375 C 5.550781 -4.4375 6.070312 -4.609375 6.4375 -4.953125 C 6.800781 -5.304688 6.984375 -5.800781 6.984375 -6.4375 C 6.984375 -7.09375 6.800781 -7.597656 6.4375 -7.953125 C 6.070312 -8.304688 5.550781 -8.484375 4.875 -8.484375 C 4.195312 -8.484375 3.679688 -8.304688 3.328125 -7.953125 C 2.972656 -7.597656 2.796875 -7.09375 2.796875 -6.4375 C 2.796875 -5.789062 2.972656 -5.296875 3.328125 -4.953125 C 3.679688 -4.609375 4.195312 -4.4375 4.875 -4.4375 Z M 4.890625 2.828125 C 5.597656 2.828125 6.171875 2.75 6.609375 2.59375 C 7.054688 2.4375 7.378906 2.226562 7.578125 1.96875 C 7.773438 1.71875 7.875 1.4375 7.875 1.125 C 7.875 0.84375 7.816406 0.613281 7.703125 0.4375 C 7.597656 0.269531 7.425781 0.140625 7.1875 0.046875 C 6.957031 -0.0351562 6.640625 -0.0859375 6.234375 -0.109375 L 4.109375 -0.21875 L 3.796875 -0.21875 C 2.609375 -0.195312 2.015625 0.265625 2.015625 1.171875 C 2.015625 2.273438 2.972656 2.828125 4.890625 2.828125 Z M 4.890625 2.828125 "/></g></g></g><g fill="#4c644b" fill-opacity="1"><g transform="translate(124.063423, 195.316393)"><g><path d="M 1.65625 0 L 1.65625 -13.328125 L 3.0625 -13.328125 L 3.0625 -8.15625 L 3.234375 -8.125 C 3.921875 -9.164062 4.90625 -9.6875 6.1875 -9.6875 C 7.320312 -9.6875 8.144531 -9.394531 8.65625 -8.8125 C 9.175781 -8.226562 9.4375 -7.332031 9.4375 -6.125 L 9.4375 0 L 8.03125 0 L 8.03125 -6.09375 C 8.03125 -6.664062 7.957031 -7.125 7.8125 -7.46875 C 7.664062 -7.8125 7.4375 -8.0625 7.125 -8.21875 C 6.820312 -8.382812 6.421875 -8.46875 5.921875 -8.46875 C 5.054688 -8.46875 4.363281 -8.1875 3.84375 -7.625 C 3.320312 -7.070312 3.0625 -6.15625 3.0625 -4.875 L 3.0625 0 Z M 1.65625 0 "/></g></g></g><g fill="#4c644b" fill-opacity="1"><g transform="translate(135.014789, 195.316393)"><g/></g></g><g fill="#4c644b" fill-opacity="1"><g transform="translate(139.343596, 195.316393)"><g><path d="M 5.984375 -12.609375 C 7.253906 -12.609375 8.347656 -12.378906 9.265625 -11.921875 C 10.179688 -11.460938 10.890625 -10.765625 11.390625 -9.828125 C 11.890625 -8.890625 12.140625 -7.710938 12.140625 -6.296875 C 12.140625 -4.890625 11.890625 -3.71875 11.390625 -2.78125 C 10.890625 -1.84375 10.179688 -1.144531 9.265625 -0.6875 C 8.347656 -0.226562 7.253906 0 5.984375 0 L 1.90625 0 L 1.90625 -12.609375 Z M 5.84375 -1.265625 C 6.894531 -1.265625 7.765625 -1.425781 8.453125 -1.75 C 9.140625 -2.070312 9.660156 -2.601562 10.015625 -3.34375 C 10.367188 -4.09375 10.546875 -5.078125 10.546875 -6.296875 C 10.546875 -7.523438 10.367188 -8.507812 10.015625 -9.25 C 9.660156 -9.988281 9.140625 -10.519531 8.453125 -10.84375 C 7.765625 -11.175781 6.894531 -11.34375 5.84375 -11.34375 L 3.390625 -11.34375 L 3.390625 -1.265625 Z M 5.84375 -1.265625 "/></g></g></g><g fill="#4c644b" fill-opacity="1"><g transform="translate(152.743929, 195.316393)"><g><path d="M 5.453125 0.1875 C 4.554688 0.1875 3.773438 0 3.109375 -0.375 C 2.453125 -0.757812 1.941406 -1.320312 1.578125 -2.0625 C 1.222656 -2.800781 1.046875 -3.695312 1.046875 -4.75 C 1.046875 -5.800781 1.222656 -6.695312 1.578125 -7.4375 C 1.941406 -8.175781 2.453125 -8.734375 3.109375 -9.109375 C 3.773438 -9.492188 4.554688 -9.6875 5.453125 -9.6875 C 6.347656 -9.6875 7.128906 -9.492188 7.796875 -9.109375 C 8.460938 -8.734375 8.972656 -8.175781 9.328125 -7.4375 C 9.691406 -6.695312 9.875 -5.800781 9.875 -4.75 C 9.875 -3.695312 9.691406 -2.800781 9.328125 -2.0625 C 8.972656 -1.320312 8.460938 -0.757812 7.796875 -0.375 C 7.128906 0 6.347656 0.1875 5.453125 0.1875 Z M 5.453125 -1.078125 C 6.398438 -1.078125 7.125 -1.375 7.625 -1.96875 C 8.132812 -2.570312 8.390625 -3.5 8.390625 -4.75 C 8.390625 -6.007812 8.132812 -6.9375 7.625 -7.53125 C 7.125 -8.132812 6.398438 -8.4375 5.453125 -8.4375 C 4.503906 -8.4375 3.773438 -8.132812 3.265625 -7.53125 C 2.765625 -6.925781 2.515625 -6 2.515625 -4.75 C 2.515625 -3.5 2.765625 -2.570312 3.265625 -1.96875 C 3.773438 -1.375 4.503906 -1.078125 5.453125 -1.078125 Z M 5.453125 -1.078125 "/></g></g></g><g fill="#4c644b" fill-opacity="1"><g transform="translate(163.660802, 195.316393)"><g><path d="M 1.65625 0 L 1.65625 -9.515625 L 2.984375 -9.515625 L 2.984375 -8.015625 L 3.171875 -7.96875 C 3.484375 -8.53125 3.882812 -8.957031 4.375 -9.25 C 4.875 -9.539062 5.476562 -9.6875 6.1875 -9.6875 C 7.320312 -9.6875 8.144531 -9.394531 8.65625 -8.8125 C 9.175781 -8.226562 9.4375 -7.332031 9.4375 -6.125 L 9.4375 0 L 8.03125 0 L 8.03125 -6.09375 C 8.03125 -6.664062 7.957031 -7.125 7.8125 -7.46875 C 7.664062 -7.8125 7.4375 -8.0625 7.125 -8.21875 C 6.820312 -8.382812 6.421875 -8.46875 5.921875 -8.46875 C 5.066406 -8.46875 4.375 -8.179688 3.84375 -7.609375 C 3.320312 -7.046875 3.0625 -6.132812 3.0625 -4.875 L 3.0625 0 Z M 1.65625 0 "/></g></g></g><g fill="#4c644b" fill-opacity="1"><g transform="translate(174.612168, 195.316393)"><g><path d="M 3.921875 0.1875 C 2.984375 0.1875 2.25 -0.0546875 1.71875 -0.546875 C 1.195312 -1.035156 0.9375 -1.734375 0.9375 -2.640625 C 0.9375 -3.203125 1.050781 -3.675781 1.28125 -4.0625 C 1.519531 -4.457031 1.882812 -4.773438 2.375 -5.015625 C 2.863281 -5.265625 3.5 -5.457031 4.28125 -5.59375 C 4.96875 -5.707031 5.488281 -5.832031 5.84375 -5.96875 C 6.207031 -6.113281 6.453125 -6.273438 6.578125 -6.453125 C 6.703125 -6.628906 6.765625 -6.851562 6.765625 -7.125 C 6.765625 -7.5625 6.613281 -7.894531 6.3125 -8.125 C 6.019531 -8.351562 5.546875 -8.46875 4.890625 -8.46875 C 4.273438 -8.46875 3.75 -8.347656 3.3125 -8.109375 C 2.875 -7.867188 2.472656 -7.515625 2.109375 -7.046875 L 1.9375 -7.046875 L 1.234375 -8.015625 C 1.640625 -8.523438 2.148438 -8.929688 2.765625 -9.234375 C 3.390625 -9.535156 4.097656 -9.6875 4.890625 -9.6875 C 6.015625 -9.6875 6.84375 -9.441406 7.375 -8.953125 C 7.90625 -8.460938 8.171875 -7.785156 8.171875 -6.921875 L 8.171875 -1.875 C 8.171875 -1.34375 8.394531 -1.078125 8.84375 -1.078125 C 8.988281 -1.078125 9.132812 -1.101562 9.28125 -1.15625 L 9.390625 -1.125 L 9.5625 -0.140625 C 9.457031 -0.078125 9.316406 -0.03125 9.140625 0 C 8.972656 0.0390625 8.800781 0.0625 8.625 0.0625 C 8.101562 0.0625 7.707031 -0.0507812 7.4375 -0.28125 C 7.175781 -0.507812 7.007812 -0.847656 6.9375 -1.296875 L 6.75 -1.3125 C 6.476562 -0.8125 6.113281 -0.4375 5.65625 -0.1875 C 5.195312 0.0625 4.617188 0.1875 3.921875 0.1875 Z M 4.234375 -0.9375 C 4.765625 -0.9375 5.222656 -1.054688 5.609375 -1.296875 C 5.992188 -1.546875 6.289062 -1.890625 6.5 -2.328125 C 6.707031 -2.773438 6.8125 -3.289062 6.8125 -3.875 L 6.8125 -5.078125 L 6.640625 -5.109375 C 6.429688 -4.960938 6.175781 -4.835938 5.875 -4.734375 C 5.570312 -4.640625 5.144531 -4.550781 4.59375 -4.46875 C 4.039062 -4.394531 3.601562 -4.28125 3.28125 -4.125 C 2.957031 -3.96875 2.722656 -3.769531 2.578125 -3.53125 C 2.441406 -3.289062 2.375 -2.992188 2.375 -2.640625 C 2.375 -2.085938 2.535156 -1.664062 2.859375 -1.375 C 3.191406 -1.082031 3.648438 -0.9375 4.234375 -0.9375 Z M 4.234375 -0.9375 "/></g></g></g><g fill="#4c644b" fill-opacity="1"><g transform="translate(184.451156, 195.316393)"><g><path d="M 6.4375 -1.515625 L 6.875 -0.5 C 6.65625 -0.269531 6.363281 -0.0976562 6 0.015625 C 5.632812 0.128906 5.238281 0.1875 4.8125 0.1875 C 3 0.1875 2.09375 -0.734375 2.09375 -2.578125 L 2.09375 -8.359375 L 0.4375 -8.359375 L 0.4375 -9.515625 L 2.09375 -9.515625 L 2.09375 -11.53125 L 3.484375 -11.765625 L 3.484375 -9.515625 L 6.546875 -9.515625 L 6.546875 -8.359375 L 3.484375 -8.359375 L 3.484375 -2.71875 C 3.484375 -1.625 3.960938 -1.078125 4.921875 -1.078125 C 5.429688 -1.078125 5.875 -1.222656 6.25 -1.515625 Z M 6.4375 -1.515625 "/></g></g></g><g fill="#4c644b" fill-opacity="1"><g transform="translate(191.694579, 195.316393)"><g><path d="M 2.359375 -11.34375 C 2.054688 -11.34375 1.8125 -11.4375 1.625 -11.625 C 1.445312 -11.8125 1.359375 -12.050781 1.359375 -12.34375 C 1.359375 -12.625 1.445312 -12.859375 1.625 -13.046875 C 1.8125 -13.234375 2.054688 -13.328125 2.359375 -13.328125 C 2.660156 -13.328125 2.90625 -13.234375 3.09375 -13.046875 C 3.28125 -12.859375 3.375 -12.625 3.375 -12.34375 C 3.375 -12.050781 3.28125 -11.8125 3.09375 -11.625 C 2.90625 -11.4375 2.660156 -11.34375 2.359375 -11.34375 Z M 1.65625 0 L 1.65625 -9.515625 L 3.0625 -9.515625 L 3.0625 0 Z M 1.65625 0 "/></g></g></g><g fill="#4c644b" fill-opacity="1"><g transform="translate(196.411433, 195.316393)"><g><path d="M 5.453125 0.1875 C 4.554688 0.1875 3.773438 0 3.109375 -0.375 C 2.453125 -0.757812 1.941406 -1.320312 1.578125 -2.0625 C 1.222656 -2.800781 1.046875 -3.695312 1.046875 -4.75 C 1.046875 -5.800781 1.222656 -6.695312 1.578125 -7.4375 C 1.941406 -8.175781 2.453125 -8.734375 3.109375 -9.109375 C 3.773438 -9.492188 4.554688 -9.6875 5.453125 -9.6875 C 6.347656 -9.6875 7.128906 -9.492188 7.796875 -9.109375 C 8.460938 -8.734375 8.972656 -8.175781 9.328125 -7.4375 C 9.691406 -6.695312 9.875 -5.800781 9.875 -4.75 C 9.875 -3.695312 9.691406 -2.800781 9.328125 -2.0625 C 8.972656 -1.320312 8.460938 -0.757812 7.796875 -0.375 C 7.128906 0 6.347656 0.1875 5.453125 0.1875 Z M 5.453125 -1.078125 C 6.398438 -1.078125 7.125 -1.375 7.625 -1.96875 C 8.132812 -2.570312 8.390625 -3.5 8.390625 -4.75 C 8.390625 -6.007812 8.132812 -6.9375 7.625 -7.53125 C 7.125 -8.132812 6.398438 -8.4375 5.453125 -8.4375 C 4.503906 -8.4375 3.773438 -8.132812 3.265625 -7.53125 C 2.765625 -6.925781 2.515625 -6 2.515625 -4.75 C 2.515625 -3.5 2.765625 -2.570312 3.265625 -1.96875 C 3.773438 -1.375 4.503906 -1.078125 5.453125 -1.078125 Z M 5.453125 -1.078125 "/></g></g></g><g fill="#4c644b" fill-opacity="1"><g transform="translate(207.328306, 195.316393)"><g><path d="M 1.65625 0 L 1.65625 -9.515625 L 2.984375 -9.515625 L 2.984375 -8.015625 L 3.171875 -7.96875 C 3.484375 -8.53125 3.882812 -8.957031 4.375 -9.25 C 4.875 -9.539062 5.476562 -9.6875 6.1875 -9.6875 C 7.320312 -9.6875 8.144531 -9.394531 8.65625 -8.8125 C 9.175781 -8.226562 9.4375 -7.332031 9.4375 -6.125 L 9.4375 0 L 8.03125 0 L 8.03125 -6.09375 C 8.03125 -6.664062 7.957031 -7.125 7.8125 -7.46875 C 7.664062 -7.8125 7.4375 -8.0625 7.125 -8.21875 C 6.820312 -8.382812 6.421875 -8.46875 5.921875 -8.46875 C 5.066406 -8.46875 4.375 -8.179688 3.84375 -7.609375 C 3.320312 -7.046875 3.0625 -6.132812 3.0625 -4.875 L 3.0625 0 Z M 1.65625 0 "/></g></g></g><g fill="#4c644b" fill-opacity="1"><g transform="translate(218.279672, 195.316393)"><g/></g></g><g fill="#4c644b" fill-opacity="1"><g transform="translate(222.608479, 195.316393)"><g><path d="M 9.3125 -12.609375 L 9.3125 -11.375 L 3.390625 -11.375 L 3.390625 -6.796875 L 8.71875 -6.796875 L 8.71875 -5.5625 L 3.390625 -5.5625 L 3.390625 0 L 1.90625 0 L 1.90625 -12.609375 Z M 9.3125 -12.609375 "/></g></g></g><g fill="#4c644b" fill-opacity="1"><g transform="translate(232.602684, 195.316393)"><g><path d="M 9.0625 -4.4375 L 2.53125 -4.4375 C 2.570312 -3.28125 2.847656 -2.429688 3.359375 -1.890625 C 3.867188 -1.347656 4.570312 -1.078125 5.46875 -1.078125 C 6.144531 -1.078125 6.691406 -1.195312 7.109375 -1.4375 C 7.523438 -1.675781 7.851562 -2.054688 8.09375 -2.578125 L 8.265625 -2.578125 L 9.1875 -2.03125 C 8.90625 -1.34375 8.460938 -0.800781 7.859375 -0.40625 C 7.253906 -0.0078125 6.457031 0.1875 5.46875 0.1875 C 4.550781 0.1875 3.757812 0.00390625 3.09375 -0.359375 C 2.4375 -0.722656 1.929688 -1.269531 1.578125 -2 C 1.222656 -2.738281 1.046875 -3.65625 1.046875 -4.75 C 1.046875 -5.832031 1.234375 -6.742188 1.609375 -7.484375 C 1.984375 -8.222656 2.492188 -8.773438 3.140625 -9.140625 C 3.796875 -9.503906 4.546875 -9.6875 5.390625 -9.6875 C 6.609375 -9.6875 7.554688 -9.34375 8.234375 -8.65625 C 8.921875 -7.96875 9.269531 -6.953125 9.28125 -5.609375 C 9.28125 -5.078125 9.265625 -4.71875 9.234375 -4.53125 Z M 7.890625 -5.609375 C 7.867188 -6.617188 7.644531 -7.351562 7.21875 -7.8125 C 6.789062 -8.269531 6.179688 -8.5 5.390625 -8.5 C 4.554688 -8.5 3.898438 -8.265625 3.421875 -7.796875 C 2.953125 -7.335938 2.664062 -6.609375 2.5625 -5.609375 Z M 7.890625 -5.609375 "/></g></g></g><g fill="#4c644b" fill-opacity="1"><g transform="translate(242.743476, 195.316393)"><g><path d="M 3.921875 0.1875 C 2.984375 0.1875 2.25 -0.0546875 1.71875 -0.546875 C 1.195312 -1.035156 0.9375 -1.734375 0.9375 -2.640625 C 0.9375 -3.203125 1.050781 -3.675781 1.28125 -4.0625 C 1.519531 -4.457031 1.882812 -4.773438 2.375 -5.015625 C 2.863281 -5.265625 3.5 -5.457031 4.28125 -5.59375 C 4.96875 -5.707031 5.488281 -5.832031 5.84375 -5.96875 C 6.207031 -6.113281 6.453125 -6.273438 6.578125 -6.453125 C 6.703125 -6.628906 6.765625 -6.851562 6.765625 -7.125 C 6.765625 -7.5625 6.613281 -7.894531 6.3125 -8.125 C 6.019531 -8.351562 5.546875 -8.46875 4.890625 -8.46875 C 4.273438 -8.46875 3.75 -8.347656 3.3125 -8.109375 C 2.875 -7.867188 2.472656 -7.515625 2.109375 -7.046875 L 1.9375 -7.046875 L 1.234375 -8.015625 C 1.640625 -8.523438 2.148438 -8.929688 2.765625 -9.234375 C 3.390625 -9.535156 4.097656 -9.6875 4.890625 -9.6875 C 6.015625 -9.6875 6.84375 -9.441406 7.375 -8.953125 C 7.90625 -8.460938 8.171875 -7.785156 8.171875 -6.921875 L 8.171875 -1.875 C 8.171875 -1.34375 8.394531 -1.078125 8.84375 -1.078125 C 8.988281 -1.078125 9.132812 -1.101562 9.28125 -1.15625 L 9.390625 -1.125 L 9.5625 -0.140625 C 9.457031 -0.078125 9.316406 -0.03125 9.140625 0 C 8.972656 0.0390625 8.800781 0.0625 8.625 0.0625 C 8.101562 0.0625 7.707031 -0.0507812 7.4375 -0.28125 C 7.175781 -0.507812 7.007812 -0.847656 6.9375 -1.296875 L 6.75 -1.3125 C 6.476562 -0.8125 6.113281 -0.4375 5.65625 -0.1875 C 5.195312 0.0625 4.617188 0.1875 3.921875 0.1875 Z M 4.234375 -0.9375 C 4.765625 -0.9375 5.222656 -1.054688 5.609375 -1.296875 C 5.992188 -1.546875 6.289062 -1.890625 6.5 -2.328125 C 6.707031 -2.773438 6.8125 -3.289062 6.8125 -3.875 L 6.8125 -5.078125 L 6.640625 -5.109375 C 6.429688 -4.960938 6.175781 -4.835938 5.875 -4.734375 C 5.570312 -4.640625 5.144531 -4.550781 4.59375 -4.46875 C 4.039062 -4.394531 3.601562 -4.28125 3.28125 -4.125 C 2.957031 -3.96875 2.722656 -3.769531 2.578125 -3.53125 C 2.441406 -3.289062 2.375 -2.992188 2.375 -2.640625 C 2.375 -2.085938 2.535156 -1.664062 2.859375 -1.375 C 3.191406 -1.082031 3.648438 -0.9375 4.234375 -0.9375 Z M 4.234375 -0.9375 "/></g></g></g><g fill="#4c644b" fill-opacity="1"><g transform="translate(252.582465, 195.316393)"><g><path d="M 6.4375 -1.515625 L 6.875 -0.5 C 6.65625 -0.269531 6.363281 -0.0976562 6 0.015625 C 5.632812 0.128906 5.238281 0.1875 4.8125 0.1875 C 3 0.1875 2.09375 -0.734375 2.09375 -2.578125 L 2.09375 -8.359375 L 0.4375 -8.359375 L 0.4375 -9.515625 L 2.09375 -9.515625 L 2.09375 -11.53125 L 3.484375 -11.765625 L 3.484375 -9.515625 L 6.546875 -9.515625 L 6.546875 -8.359375 L 3.484375 -8.359375 L 3.484375 -2.71875 C 3.484375 -1.625 3.960938 -1.078125 4.921875 -1.078125 C 5.429688 -1.078125 5.875 -1.222656 6.25 -1.515625 Z M 6.4375 -1.515625 "/></g></g></g><g fill="#4c644b" fill-opacity="1"><g transform="translate(259.825888, 195.316393)"><g><path d="M 4.703125 0.1875 C 3.628906 0.1875 2.828125 -0.0976562 2.296875 -0.671875 C 1.773438 -1.242188 1.515625 -2.078125 1.515625 -3.171875 L 1.515625 -9.515625 L 2.90625 -9.515625 L 2.90625 -3.203125 C 2.90625 -1.765625 3.585938 -1.046875 4.953125 -1.046875 C 5.804688 -1.046875 6.484375 -1.328125 6.984375 -1.890625 C 7.484375 -2.453125 7.734375 -3.363281 7.734375 -4.625 L 7.734375 -9.515625 L 9.140625 -9.515625 L 9.140625 0 L 7.8125 0 L 7.8125 -1.484375 L 7.640625 -1.53125 C 7.304688 -0.945312 6.910156 -0.515625 6.453125 -0.234375 C 6.003906 0.046875 5.421875 0.1875 4.703125 0.1875 Z M 4.703125 0.1875 "/></g></g></g><g fill="#4c644b" fill-opacity="1"><g transform="translate(270.630666, 195.316393)"><g><path d="M 1.65625 0 L 1.65625 -9.515625 L 2.984375 -9.515625 L 2.984375 -8.015625 L 3.171875 -7.96875 C 3.617188 -9.050781 4.453125 -9.59375 5.671875 -9.59375 C 6.316406 -9.59375 6.800781 -9.472656 7.125 -9.234375 L 6.765625 -8.046875 L 6.59375 -8.015625 C 6.238281 -8.191406 5.847656 -8.28125 5.421875 -8.28125 C 4.660156 -8.28125 4.078125 -7.992188 3.671875 -7.421875 C 3.265625 -6.859375 3.0625 -5.941406 3.0625 -4.671875 L 3.0625 0 Z M 1.65625 0 "/></g></g></g><g fill="#4c644b" fill-opacity="1"><g transform="translate(277.977567, 195.316393)"><g><path d="M 9.0625 -4.4375 L 2.53125 -4.4375 C 2.570312 -3.28125 2.847656 -2.429688 3.359375 -1.890625 C 3.867188 -1.347656 4.570312 -1.078125 5.46875 -1.078125 C 6.144531 -1.078125 6.691406 -1.195312 7.109375 -1.4375 C 7.523438 -1.675781 7.851562 -2.054688 8.09375 -2.578125 L 8.265625 -2.578125 L 9.1875 -2.03125 C 8.90625 -1.34375 8.460938 -0.800781 7.859375 -0.40625 C 7.253906 -0.0078125 6.457031 0.1875 5.46875 0.1875 C 4.550781 0.1875 3.757812 0.00390625 3.09375 -0.359375 C 2.4375 -0.722656 1.929688 -1.269531 1.578125 -2 C 1.222656 -2.738281 1.046875 -3.65625 1.046875 -4.75 C 1.046875 -5.832031 1.234375 -6.742188 1.609375 -7.484375 C 1.984375 -8.222656 2.492188 -8.773438 3.140625 -9.140625 C 3.796875 -9.503906 4.546875 -9.6875 5.390625 -9.6875 C 6.609375 -9.6875 7.554688 -9.34375 8.234375 -8.65625 C 8.921875 -7.96875 9.269531 -6.953125 9.28125 -5.609375 C 9.28125 -5.078125 9.265625 -4.71875 9.234375 -4.53125 Z M 7.890625 -5.609375 C 7.867188 -6.617188 7.644531 -7.351562 7.21875 -7.8125 C 6.789062 -8.269531 6.179688 -8.5 5.390625 -8.5 C 4.554688 -8.5 3.898438 -8.265625 3.421875 -7.796875 C 2.953125 -7.335938 2.664062 -6.609375 2.5625 -5.609375 Z M 7.890625 -5.609375 "/></g></g></g></svg>